<svg width="24" height="19" viewBox="0 0 24 19" fill="none" xmlns="http://www.w3.org/2000/svg">
<path id="Vector" d="M0.5 17.5C0.5 18.33 1.14208 19 1.9375 19H17.2708C18.0662 19 18.7083 18.33 18.7083 17.5C18.7083 16.67 18.0662 16 17.2708 16H1.9375C1.14208 16 0.5 16.67 0.5 17.5ZM17.2708 3H1.9375C1.14208 3 0.5 2.33 0.5 1.5C0.5 0.67 1.14208 0 1.9375 0H17.2708C18.0662 0 18.7083 0.67 18.7083 1.5C18.7083 2.33 18.0662 3 17.2708 3ZM22.0625 11H6.72917C5.93375 11 5.29167 10.33 5.29167 9.5C5.29167 8.67 5.93375 8 6.72917 8H22.0625C22.8579 8 23.5 8.67 23.5 9.5C23.5 10.33 22.8579 11 22.0625 11Z" fill="#28508B"/>
</svg>
