<svg width="25" height="25" viewBox="0 0 25 25" fill="none" xmlns="http://www.w3.org/2000/svg">
<g id="angle-small-right 2">
<path id="Vector" d="M8.74986 10.025L13.3359 5.439C13.6173 5.15774 13.9989 4.99978 14.3967 4.99988C14.7946 4.99997 15.1761 5.15811 15.4574 5.4395C15.7386 5.7209 15.8966 6.1025 15.8965 6.50036C15.8964 6.89822 15.7383 7.27974 15.4569 7.561L10.8709 12.146C10.8243 12.1925 10.7873 12.2476 10.7621 12.3084C10.7369 12.3691 10.724 12.4342 10.724 12.5C10.724 12.5658 10.7369 12.6309 10.7621 12.6916C10.7873 12.7524 10.8243 12.8076 10.8709 12.854L15.4569 17.439C15.7383 17.7203 15.8964 18.1018 15.8965 18.4997C15.8966 18.8975 15.7386 19.2791 15.4574 19.5605C15.1761 19.8419 14.7946 20 14.3967 20.0001C13.9989 20.0002 13.6173 19.8423 13.3359 19.561L8.74986 14.975C8.09462 14.318 7.72667 13.4279 7.72667 12.5C7.72667 11.5721 8.09462 10.682 8.74986 10.025Z" fill="white"/>
</g>
</svg>
