<svg width="34" height="30" viewBox="0 0 34 30" fill="none" xmlns="http://www.w3.org/2000/svg">
<path id="Vector" d="M6.375 3.21429C6.375 2.3618 6.71082 1.54424 7.3086 0.941443C7.90637 0.338647 8.71712 0 9.5625 0H24.4375C25.2829 0 26.0936 0.338647 26.6914 0.941443C27.2892 1.54424 27.625 2.3618 27.625 3.21429V4.28571H28.6875C30.0965 4.28571 31.4477 4.85013 32.444 5.85478C33.4403 6.85944 34 8.22205 34 9.64286V20.3571C34 21.2096 33.6642 22.0272 33.0664 22.63C32.4686 23.2328 31.6579 23.5714 30.8125 23.5714H27.625V26.7857C27.625 27.6382 27.2892 28.4558 26.6914 29.0586C26.0936 29.6614 25.2829 30 24.4375 30H9.5625C8.71712 30 7.90637 29.6614 7.3086 29.0586C6.71082 28.4558 6.375 27.6382 6.375 26.7857V23.5714H3.1875C2.34212 23.5714 1.53137 23.2328 0.933597 22.63C0.335825 22.0272 0 21.2096 0 20.3571V9.64286C0 8.22205 0.559708 6.85944 1.556 5.85478C2.55228 4.85013 3.90354 4.28571 5.3125 4.28571H6.375V3.21429ZM25.5 3.21429C25.5 2.93012 25.3881 2.6576 25.1888 2.45667C24.9895 2.25574 24.7193 2.14286 24.4375 2.14286H9.5625C9.28071 2.14286 9.01046 2.25574 8.8112 2.45667C8.61194 2.6576 8.5 2.93012 8.5 3.21429V4.28571H25.5V3.21429ZM8.5 18.2143V26.7857C8.5 27.0699 8.61194 27.3424 8.8112 27.5433C9.01046 27.7443 9.28071 27.8571 9.5625 27.8571H24.4375C24.7193 27.8571 24.9895 27.7443 25.1888 27.5433C25.3881 27.3424 25.5 27.0699 25.5 26.7857V18.2143C25.5 17.9301 25.3881 17.6576 25.1888 17.4567C24.9895 17.2557 24.7193 17.1429 24.4375 17.1429H9.5625C9.28071 17.1429 9.01046 17.2557 8.8112 17.4567C8.61194 17.6576 8.5 17.9301 8.5 18.2143Z" fill="#28508B"/>
</svg>
