<svg width="32" height="38" viewBox="0 0 32 38" fill="none" xmlns="http://www.w3.org/2000/svg">
<path id="Vector" d="M26.4914 13.4118H22.8571V2.23529C22.8571 1.00588 21.8286 0 20.5714 0H11.4286C10.1714 0 9.14286 1.00588 9.14286 2.23529V13.4118H5.50857C3.47429 13.4118 2.44571 15.8259 3.88571 17.2341L14.3771 27.4941C15.2686 28.3659 16.7086 28.3659 17.6 27.4941L28.0914 17.2341C29.5314 15.8259 28.5257 13.4118 26.4914 13.4118ZM0 35.7647C0 36.9941 1.02857 38 2.28571 38H29.7143C30.9714 38 32 36.9941 32 35.7647C32 34.5353 30.9714 33.5294 29.7143 33.5294H2.28571C1.02857 33.5294 0 34.5353 0 35.7647Z" fill="#28508B"/>
</svg>
