<svg width="36" height="40" viewBox="0 0 36 40" fill="none" xmlns="http://www.w3.org/2000/svg">
<path id="Vector" d="M7.5 11C7.5 13.7848 8.60625 16.4555 10.5754 18.4246C12.5445 20.3938 15.2152 21.5 18 21.5C20.7848 21.5 23.4555 20.3938 25.4246 18.4246C27.3938 16.4555 28.5 13.7848 28.5 11C28.5 8.21523 27.3938 5.54451 25.4246 3.57538C23.4555 1.60625 20.7848 0.5 18 0.5C15.2152 0.5 12.5445 1.60625 10.5754 3.57538C8.60625 5.54451 7.5 8.21523 7.5 11ZM33 39.5H1.5C1.10218 39.5 0.720645 39.342 0.43934 39.0607C0.158036 38.7794 0 38.3978 0 38V33.5C0 31.5109 0.790176 29.6032 2.1967 28.1967C3.60322 26.7902 5.51088 26 7.5 26H28.5C30.4891 26 32.3968 26.7902 33.8033 28.1967C35.2098 29.6032 36 31.5109 36 33.5V38C36 38.3978 35.842 38.7794 35.5607 39.0607C35.2794 39.342 34.8978 39.5 34.5 39.5H33Z" fill="#28508B"/>
</svg>
