<svg width="33" height="33" viewBox="0 0 33 33" fill="none" xmlns="http://www.w3.org/2000/svg">
<g id="vuesax/bold/clipboard-text">
<g id="clipboard-text">
<path id="Vector" d="M19.5413 3.55835H13.4587C12.1127 3.55835 11.0127 4.64545 11.0127 5.99139V7.20791C11.0127 8.55384 12.0998 9.64095 13.4457 9.64095H19.5413C20.8872 9.64095 21.9743 8.55384 21.9743 7.20791V5.99139C21.9873 4.64545 20.8872 3.55835 19.5413 3.55835Z" fill="#28508B"/>
<path id="Vector_2" d="M23.2814 7.20782C23.2814 9.26555 21.599 10.948 19.5413 10.948H13.4587C11.401 10.948 9.71855 9.26555 9.71855 7.20782C9.71855 6.48308 8.94205 6.03012 8.29496 6.36661C6.47019 7.33723 5.22778 9.26554 5.22778 11.4786V23.6567C5.22778 26.8404 7.82906 29.4416 11.0127 29.4416H21.9873C25.1709 29.4416 27.7722 26.8404 27.7722 23.6567V11.4786C27.7722 9.26554 26.5298 7.33723 24.705 6.36661C24.0579 6.03012 23.2814 6.48308 23.2814 7.20782ZM16.9918 22.9061H11.3233C10.7927 22.9061 10.3527 22.4661 10.3527 21.9355C10.3527 21.4049 10.7927 20.9648 11.3233 20.9648H16.9918C17.5224 20.9648 17.9624 21.4049 17.9624 21.9355C17.9624 22.4661 17.5224 22.9061 16.9918 22.9061ZM20.3825 17.7294H11.3233C10.7927 17.7294 10.3527 17.2894 10.3527 16.7588C10.3527 16.2282 10.7927 15.7882 11.3233 15.7882H20.3825C20.9131 15.7882 21.3531 16.2282 21.3531 16.7588C21.3531 17.2894 20.9131 17.7294 20.3825 17.7294Z" fill="#28508B"/>
</g>
</g>
</svg>
