<svg width="37" height="37" viewBox="0 0 37 37" fill="none" xmlns="http://www.w3.org/2000/svg">
<g id="vuesax/bold/book">
<path id="Vector" d="M33.7373 7.38999V25.5072C33.7373 26.9852 32.5336 28.3413 31.0556 28.5241L30.5832 28.5851C28.0843 28.9203 24.5645 29.9564 21.7303 31.145C20.7399 31.5564 19.6428 30.8097 19.6428 29.7279V8.53279C19.6428 7.96901 19.9628 7.45094 20.4656 7.17667C23.2541 5.66818 27.4748 4.32729 30.3394 4.0835H30.4308C32.2593 4.0835 33.7373 5.56151 33.7373 7.38999Z" fill="white"/>
<path id="Vector_2" d="M16.5345 7.17667C13.7461 5.66818 9.52533 4.32729 6.66072 4.0835H6.55405C4.72558 4.0835 3.24756 5.56151 3.24756 7.38999V25.5072C3.24756 26.9852 4.45131 28.3413 5.92932 28.5241L6.40168 28.5851C8.9006 28.9203 12.4204 29.9564 15.2546 31.145C16.245 31.5564 17.3421 30.8097 17.3421 29.7279V8.53279C17.3421 7.95377 17.0373 7.45094 16.5345 7.17667ZM7.83399 11.7936H11.2624C11.8871 11.7936 12.4052 12.3116 12.4052 12.9364C12.4052 13.5763 11.8871 14.0792 11.2624 14.0792H7.83399C7.20926 14.0792 6.69119 13.5763 6.69119 12.9364C6.69119 12.3116 7.20926 11.7936 7.83399 11.7936ZM12.4052 18.6504H7.83399C7.20926 18.6504 6.69119 18.1475 6.69119 17.5076C6.69119 16.8828 7.20926 16.3648 7.83399 16.3648H12.4052C13.0299 16.3648 13.548 16.8828 13.548 17.5076C13.548 18.1475 13.0299 18.6504 12.4052 18.6504Z" fill="white"/>
</g>
</svg>
