<svg width="109" height="108" viewBox="0 0 109 108" fill="none" xmlns="http://www.w3.org/2000/svg">
<g id="vuesax/bold/clipboard-text">
<g id="clipboard-text">
<path id="Vector" d="M64.9079 8.99988H43.7579C39.0779 8.99988 35.2529 12.7799 35.2529 17.4599V21.6899C35.2529 26.3699 39.0329 30.1499 43.7129 30.1499H64.9079C69.5879 30.1499 73.3679 26.3699 73.3679 21.6899V17.4599C73.4129 12.7799 69.5879 8.99988 64.9079 8.99988Z" fill="#292D32"/>
<path id="Vector_2" d="M77.9132 21.6899C77.9132 28.8449 72.0632 34.6949 64.9082 34.6949H43.7582C36.6032 34.6949 30.7532 28.8449 30.7532 21.6899C30.7532 19.1699 28.0532 17.5949 25.8032 18.7649C19.4582 22.1399 15.1382 28.8449 15.1382 36.5399V78.8849C15.1382 89.9549 24.1832 98.9999 35.2532 98.9999H73.4132C84.4832 98.9999 93.5282 89.9549 93.5282 78.8849V36.5399C93.5282 28.8449 89.2082 22.1399 82.8632 18.7649C80.6132 17.5949 77.9132 19.1699 77.9132 21.6899ZM56.0432 76.2749H36.3332C34.4882 76.2749 32.9582 74.7449 32.9582 72.8999C32.9582 71.0549 34.4882 69.5249 36.3332 69.5249H56.0432C57.8882 69.5249 59.4182 71.0549 59.4182 72.8999C59.4182 74.7449 57.8882 76.2749 56.0432 76.2749ZM67.8332 58.2749H36.3332C34.4882 58.2749 32.9582 56.7449 32.9582 54.8999C32.9582 53.0549 34.4882 51.5249 36.3332 51.5249H67.8332C69.6782 51.5249 71.2082 53.0549 71.2082 54.8999C71.2082 56.7449 69.6782 58.2749 67.8332 58.2749Z" fill="#292D32"/>
</g>
</g>
</svg>
