<svg width="33" height="33" viewBox="0 0 33 33" fill="none" xmlns="http://www.w3.org/2000/svg">
<g id="vuesax/bold/close-circle">
<g id="vuesax/bold/close-circle_2">
<g id="close-circle">
<path id="Vector" d="M16.5 2.75C8.92375 2.75 2.75 8.92375 2.75 16.5C2.75 24.0763 8.92375 30.25 16.5 30.25C24.0763 30.25 30.25 24.0763 30.25 16.5C30.25 8.92375 24.0763 2.75 16.5 2.75ZM21.12 19.6625C21.5187 20.0613 21.5187 20.7212 21.12 21.12C20.9137 21.3262 20.6525 21.4225 20.3912 21.4225C20.13 21.4225 19.8688 21.3262 19.6625 21.12L16.5 17.9575L13.3375 21.12C13.1312 21.3262 12.87 21.4225 12.6088 21.4225C12.3475 21.4225 12.0863 21.3262 11.88 21.12C11.4813 20.7212 11.4813 20.0613 11.88 19.6625L15.0425 16.5L11.88 13.3375C11.4813 12.9387 11.4813 12.2788 11.88 11.88C12.2788 11.4813 12.9387 11.4813 13.3375 11.88L16.5 15.0425L19.6625 11.88C20.0613 11.4813 20.7212 11.4813 21.12 11.88C21.5187 12.2788 21.5187 12.9387 21.12 13.3375L17.9575 16.5L21.12 19.6625Z" fill="#D10000"/>
</g>
</g>
</g>
</svg>
