<svg width="23" height="24" viewBox="0 0 23 24" fill="none" xmlns="http://www.w3.org/2000/svg">
<g id="bin">
<path id="Vector" d="M21.375 3.99998H17.8875C17.3493 1.67358 15.047 0.003 12.375 0H10.125C7.45296 0.003 5.15068 1.67358 4.61247 3.99998H1.12498C0.503667 3.99998 0 4.44769 0 4.99997C0 5.55225 0.503667 6 1.12498 6H2.24997V19C2.25371 21.76 4.76994 23.9967 7.875 24H14.625C17.7301 23.9967 20.2463 21.76 20.25 19V6H21.375C21.9963 6 22.5 5.5523 22.5 5.00002C22.5 4.44773 21.9963 3.99998 21.375 3.99998ZM10.125 17C10.125 17.5523 9.62135 18 9.00003 18C8.37866 18 7.875 17.5523 7.875 17V11C7.875 10.4477 8.37866 10 8.99998 10C9.6213 10 10.125 10.4477 10.125 11V17H10.125ZM14.625 17C14.625 17.5523 14.1213 18 13.5 18C12.8787 18 12.375 17.5523 12.375 17V11C12.375 10.4477 12.8787 10 13.5 10C14.1213 10 14.625 10.4477 14.625 11V17ZM6.94239 3.99998C7.4209 2.80228 8.69517 2.00152 10.125 1.99997H12.375C13.8049 2.00152 15.0792 2.80228 15.5577 3.99998H6.94239Z" fill="#292D32"/>
</g>
</svg>
