<svg width="23" height="22" viewBox="0 0 23 22" fill="none" xmlns="http://www.w3.org/2000/svg">
<g id="bin">
<path id="Vector" d="M21.4 3.66665H17.99C17.4637 1.53411 15.2126 0.00275 12.6 0H10.4C7.78734 0.00275 5.53622 1.53411 5.00997 3.66665H1.59998C0.992474 3.66665 0.5 4.07705 0.5 4.5833C0.5 5.08956 0.992474 5.5 1.59998 5.5H2.69997V17.4167C2.70363 19.9467 5.16394 21.997 8.19999 22H14.8C17.8361 21.997 20.2964 19.9467 20.3 17.4167V5.5H21.4C22.0075 5.5 22.5 5.08961 22.5 4.58335C22.5 4.07709 22.0075 3.66665 21.4 3.66665ZM10.4 15.5833C10.4 16.0896 9.90754 16.5 9.30003 16.5C8.69247 16.5 8.19999 16.0896 8.19999 15.5833V10.0833C8.19999 9.57709 8.69247 9.1667 9.29998 9.1667C9.90749 9.1667 10.4 9.57709 10.4 10.0833V15.5833H10.4ZM14.8 15.5833C14.8 16.0896 14.3075 16.5 13.7 16.5C13.0925 16.5 12.6 16.0896 12.6 15.5833V10.0833C12.6 9.57709 13.0925 9.1667 13.7 9.1667C14.3075 9.1667 14.8 9.57709 14.8 10.0833V15.5833ZM7.28811 3.66665C7.75599 2.56876 9.00195 1.83472 10.4 1.8333H12.6C13.9981 1.83472 15.2441 2.56876 15.7119 3.66665H7.28811Z" fill="#28508B"/>
</g>
</svg>
