<svg width="16" height="16" viewBox="0 0 16 16" fill="none" xmlns="http://www.w3.org/2000/svg">
<g id="vuesax/bold/document-text">
<g id="vuesax/bold/document-text_2">
<g id="document-text">
<path id="Vector" d="M10.5333 1.47333C10.26 1.2 9.78662 1.38667 9.78662 1.76667V4.09333C9.78662 5.06667 10.6133 5.87333 11.62 5.87333C12.2533 5.88 13.1333 5.88 13.8866 5.88C14.2666 5.88 14.4666 5.43333 14.2 5.16667C13.24 4.2 11.52 2.46 10.5333 1.47333Z" fill="#292D32"/>
<path id="Vector_2" d="M13.6667 6.79334H11.7401C10.1601 6.79334 8.87341 5.50667 8.87341 3.92667V2C8.87341 1.63334 8.57341 1.33334 8.20675 1.33334H5.38008C3.32675 1.33334 1.66675 2.66667 1.66675 5.04667V10.9533C1.66675 13.3333 3.32675 14.6667 5.38008 14.6667H10.6201C12.6734 14.6667 14.3334 13.3333 14.3334 10.9533V7.46C14.3334 7.09334 14.0334 6.79334 13.6667 6.79334ZM7.66675 11.8333H5.00008C4.72675 11.8333 4.50008 11.6067 4.50008 11.3333C4.50008 11.06 4.72675 10.8333 5.00008 10.8333H7.66675C7.94008 10.8333 8.16675 11.06 8.16675 11.3333C8.16675 11.6067 7.94008 11.8333 7.66675 11.8333ZM9.00008 9.16667H5.00008C4.72675 9.16667 4.50008 8.94 4.50008 8.66667C4.50008 8.39334 4.72675 8.16667 5.00008 8.16667H9.00008C9.27341 8.16667 9.50008 8.39334 9.50008 8.66667C9.50008 8.94 9.27341 9.16667 9.00008 9.16667Z" fill="#292D32"/>
</g>
</g>
</g>
</svg>
