<svg width="24" height="25" viewBox="0 0 24 25" fill="none" xmlns="http://www.w3.org/2000/svg">
<g id="icon-park-solid:check-one" clip-path="url(#clip0_287_11797)">
<g id="Mask group">
<mask id="mask0_287_11797" style="mask-type:luminance" maskUnits="userSpaceOnUse" x="0" y="0" width="24" height="25">
<g id="Group">
<g id="Group_2">
<path id="Vector" d="M12 22.5001C13.3135 22.5018 14.6143 22.2439 15.8278 21.7413C17.0413 21.2386 18.1435 20.5011 19.071 19.5711C20.001 18.6436 20.7385 17.5414 21.2412 16.3279C21.7438 15.1145 22.0017 13.8136 22 12.5001C22.0017 11.1867 21.7438 9.88582 21.2411 8.67234C20.7385 7.45887 20.001 6.35668 19.071 5.42913C18.1435 4.49914 17.0413 3.76163 15.8278 3.25897C14.6143 2.75632 13.3135 2.49843 12 2.50013C10.6865 2.49846 9.3857 2.75636 8.17222 3.25901C6.95875 3.76167 5.85656 4.49917 4.92901 5.42913C3.99904 6.35668 3.26154 7.45887 2.75889 8.67234C2.25623 9.88582 1.99833 11.1867 2.00001 12.5001C1.99831 13.8136 2.25619 15.1145 2.75885 16.3279C3.26151 17.5414 3.99902 18.6436 4.92901 19.5711C5.85656 20.5011 6.95875 21.2386 8.17222 21.7412C9.3857 22.2439 10.6865 22.5018 12 22.5001Z" fill="white" stroke="white" stroke-width="4" stroke-linejoin="round"/>
<path id="Vector_2" d="M8 12.5001L11 15.5001L17 9.50012" stroke="black" stroke-width="4" stroke-linecap="round" stroke-linejoin="round"/>
</g>
</g>
</mask>
<g mask="url(#mask0_287_11797)">
<path id="Vector_3" d="M0 0.500122H24V24.5001H0V0.500122Z" fill="white"/>
</g>
</g>
</g>
<defs>
<clipPath id="clip0_287_11797">
<rect width="24" height="24" fill="white" transform="translate(0 0.500122)"/>
</clipPath>
</defs>
</svg>
