<svg width="23" height="24" viewBox="0 0 23 24" fill="none" xmlns="http://www.w3.org/2000/svg">
<g id="share-square" clip-path="url(#clip0_76_435)">
<path id="Vector" d="M17.375 18.4996C17.375 21.5296 15.0594 23.9996 12.2188 23.9996H5.65625C2.81563 23.9996 0.5 21.5296 0.5 18.4996V11.4996C0.5 8.46962 2.81563 5.99962 5.65625 5.99962C6.43438 5.99962 7.0625 6.66962 7.0625 7.49962C7.0625 8.32962 6.43438 8.99962 5.65625 8.99962C4.3625 8.99962 3.3125 10.1196 3.3125 11.4996V18.4996C3.3125 19.8796 4.3625 20.9996 5.65625 20.9996H12.2188C13.5125 20.9996 14.5625 19.8796 14.5625 18.4996C14.5625 17.6696 15.1906 16.9996 15.9688 16.9996C16.7469 16.9996 17.375 17.6696 17.375 18.4996ZM22.0625 5.04962L17.9188 0.45962C17.375 -0.14038 16.4938 -0.16038 15.9313 0.41962C15.3688 0.99962 15.35 1.93962 15.8938 2.53962L19.0156 5.99962H13.1563C10.3156 5.99962 8 8.46962 8 11.4996V16.4996C8 17.3296 8.62813 17.9996 9.40625 17.9996C10.1844 17.9996 10.8125 17.3296 10.8125 16.4996V11.4996C10.8125 10.1196 11.8625 8.99962 13.1563 8.99962H19.0156L15.8938 12.4596C15.3594 13.0596 15.3688 14.0096 15.9313 14.5796C16.2031 14.8596 16.5594 14.9996 16.9063 14.9996C17.2719 14.9996 17.6469 14.8496 17.9188 14.5396L22.0344 9.97962C23.3188 8.61962 23.3188 6.38962 22.0531 5.04962H22.0625Z" fill="#292D32"/>
</g>
<defs>
<clipPath id="clip0_76_435">
<rect width="22.5" height="24" fill="white" transform="translate(0.5)"/>
</clipPath>
</defs>
</svg>
