<svg width="25" height="25" viewBox="0 0 25 25" fill="none" xmlns="http://www.w3.org/2000/svg">
<g id="fluent:eye-24-regular">
<path id="Vector" d="M12.5002 9.755C13.5611 9.755 14.5785 10.1764 15.3286 10.9266C16.0788 11.6767 16.5002 12.6941 16.5002 13.755C16.5002 14.8159 16.0788 15.8333 15.3286 16.5834C14.5785 17.3336 13.5611 17.755 12.5002 17.755C11.4393 17.755 10.4219 17.3336 9.67176 16.5834C8.92161 15.8333 8.50019 14.8159 8.50019 13.755C8.50019 12.6941 8.92161 11.6767 9.67176 10.9266C10.4219 10.1764 11.4393 9.755 12.5002 9.755ZM12.5002 11.255C11.8371 11.255 11.2013 11.5184 10.7324 11.9872C10.2636 12.4561 10.0002 13.092 10.0002 13.755C10.0002 14.418 10.2636 15.0539 10.7324 15.5228C11.2013 15.9916 11.8371 16.255 12.5002 16.255C13.1632 16.255 13.7991 15.9916 14.268 15.5228C14.7368 15.0539 15.0002 14.418 15.0002 13.755C15.0002 13.092 14.7368 12.4561 14.268 11.9872C13.7991 11.5184 13.1632 11.255 12.5002 11.255ZM12.5002 6.25C17.1132 6.25 21.0962 9.4 22.2012 13.814C22.2496 14.0069 22.2194 14.2112 22.1172 14.3819C22.0149 14.5525 21.8491 14.6756 21.6562 14.724C21.4632 14.7724 21.259 14.7422 21.0883 14.64C20.9177 14.5378 20.7946 14.3719 20.7462 14.179C20.2832 12.3425 19.2204 10.7131 17.7262 9.54913C16.2321 8.3852 14.3921 7.75338 12.4981 7.75384C10.6041 7.7543 8.7645 8.38701 7.27092 9.55167C5.77733 10.7163 4.71529 12.3462 4.25319 14.183C4.22935 14.2786 4.18692 14.3686 4.12831 14.4478C4.06971 14.527 3.99608 14.5939 3.91162 14.6446C3.82717 14.6954 3.73354 14.729 3.6361 14.7435C3.53865 14.7581 3.43929 14.7533 3.34369 14.7295C3.24808 14.7057 3.15811 14.6632 3.07891 14.6046C2.9997 14.546 2.93282 14.4724 2.88207 14.3879C2.83133 14.3035 2.79771 14.2099 2.78315 14.1124C2.76858 14.015 2.77335 13.9156 2.79719 13.82C3.3395 11.6573 4.58884 9.73777 6.34679 8.36627C8.10474 6.99476 10.2705 6.24991 12.5002 6.25Z" fill="white"/>
</g>
</svg>
