<svg width="49" height="49" viewBox="0 0 49 49" fill="none" xmlns="http://www.w3.org/2000/svg">
<g id="vuesax/bold/home-2">
<g id="vuesax/bold/home-2_2">
<g id="home-2">
<path id="Vector" d="M40.58 14.14L29.06 6.08C25.92 3.88 21.1 4 18.08 6.34L8.05998 14.16C6.05998 15.72 4.47998 18.92 4.47998 21.44V35.24C4.47998 40.34 8.61998 44.5 13.72 44.5H35.28C40.38 44.5 44.52 40.36 44.52 35.26V21.7C44.52 19 42.78 15.68 40.58 14.14ZM26 36.5C26 37.32 25.32 38 24.5 38C23.68 38 23 37.32 23 36.5V30.5C23 29.68 23.68 29 24.5 29C25.32 29 26 29.68 26 30.5V36.5Z" fill="#28508B"/>
</g>
</g>
</g>
</svg>
