<svg width="23" height="22" viewBox="0 0 23 22" fill="none" xmlns="http://www.w3.org/2000/svg">
<g id="share-square" clip-path="url(#clip0_76_578)">
<path id="Vector" d="M17 16.958C17 19.7355 14.7358 21.9996 11.9583 21.9996H5.54167C2.76417 21.9996 0.5 19.7355 0.5 16.958V10.5413C0.5 7.76379 2.76417 5.49962 5.54167 5.49962C6.3025 5.49962 6.91667 6.11379 6.91667 6.87462C6.91667 7.63546 6.3025 8.24962 5.54167 8.24962C4.27667 8.24962 3.25 9.27629 3.25 10.5413V16.958C3.25 18.223 4.27667 19.2496 5.54167 19.2496H11.9583C13.2233 19.2496 14.25 18.223 14.25 16.958C14.25 16.1971 14.8642 15.583 15.625 15.583C16.3858 15.583 17 16.1971 17 16.958ZM21.5833 4.62879L17.5317 0.421291C17 -0.128709 16.1383 -0.147043 15.5883 0.384624C15.0383 0.916291 15.02 1.77796 15.5517 2.32796L18.6042 5.49962H12.875C10.0975 5.49962 7.83333 7.76379 7.83333 10.5413V15.1246C7.83333 15.8855 8.4475 16.4996 9.20833 16.4996C9.96917 16.4996 10.5833 15.8855 10.5833 15.1246V10.5413C10.5833 9.27629 11.61 8.24962 12.875 8.24962H18.6042L15.5517 11.4213C15.0292 11.9713 15.0383 12.8421 15.5883 13.3646C15.8542 13.6213 16.2025 13.7496 16.5417 13.7496C16.8992 13.7496 17.2658 13.6121 17.5317 13.328L21.5558 9.14796C22.8117 7.90129 22.8117 5.85712 21.5742 4.62879H21.5833Z" fill="white"/>
</g>
<defs>
<clipPath id="clip0_76_578">
<rect width="22" height="22" fill="white" transform="translate(0.5)"/>
</clipPath>
</defs>
</svg>
