<svg width="122" height="124" viewBox="0 0 122 124" fill="none" xmlns="http://www.w3.org/2000/svg">
<g id="Group 22">
<path id="Vector" d="M92.6794 94.4028C108.816 78.2602 108.816 52.088 92.6794 35.9455C76.5429 19.8029 50.3805 19.8029 34.2441 35.9455C18.1076 52.088 18.1076 78.2602 34.2441 94.4028C50.3805 110.545 76.5429 110.545 92.6794 94.4028Z" fill="#939393"/>
<path id="Vector_2" d="M87.653 87.686C103.79 71.5434 103.79 45.3712 87.6531 29.2287C71.5166 13.0861 45.3542 13.0861 29.2177 29.2287C13.0812 45.3712 13.0812 71.5434 29.2177 87.686C45.3542 103.829 71.5166 103.829 87.653 87.686Z" fill="white"/>
<path id="Vector_3" d="M80.0715 79.8777C91.8892 68.0556 91.8892 48.8881 80.0715 37.0659C68.2538 25.2438 49.0935 25.2438 37.2758 37.0659C25.4581 48.8881 25.4581 68.0556 37.2758 79.8777C49.0935 91.6999 68.2538 91.6999 80.0715 79.8777Z" fill="url(#paint0_linear_59_29487)"/>
<g id="vuesax/bold/clipboard-text">
<g id="clipboard-text">
<path id="Vector_4" d="M63.7 38.8295H54.3C52.22 38.8295 50.52 40.5095 50.52 42.5895V44.4695C50.52 46.5495 52.2 48.2295 54.28 48.2295H63.7C65.78 48.2295 67.46 46.5495 67.46 44.4695V42.5895C67.48 40.5095 65.78 38.8295 63.7 38.8295Z" fill="white"/>
<path id="Vector_5" d="M69.4801 44.4695C69.4801 47.6495 66.8801 50.2495 63.7001 50.2495H54.3001C51.1201 50.2495 48.5201 47.6495 48.5201 44.4695C48.5201 43.3495 47.3201 42.6495 46.3201 43.1695C43.5001 44.6695 41.5801 47.6495 41.5801 51.0695V69.8895C41.5801 74.8095 45.6001 78.8295 50.5201 78.8295H67.4801C72.4001 78.8295 76.4201 74.8095 76.4201 69.8895V51.0695C76.4201 47.6495 74.5001 44.6695 71.6801 43.1695C70.6801 42.6495 69.4801 43.3495 69.4801 44.4695ZM59.7601 68.7295H51.0001C50.1801 68.7295 49.5001 68.0495 49.5001 67.2295C49.5001 66.4095 50.1801 65.7295 51.0001 65.7295H59.7601C60.5801 65.7295 61.2601 66.4095 61.2601 67.2295C61.2601 68.0495 60.5801 68.7295 59.7601 68.7295ZM65.0001 60.7295H51.0001C50.1801 60.7295 49.5001 60.0495 49.5001 59.2295C49.5001 58.4095 50.1801 57.7295 51.0001 57.7295H65.0001C65.8201 57.7295 66.5001 58.4095 66.5001 59.2295C66.5001 60.0495 65.8201 60.7295 65.0001 60.7295Z" fill="white"/>
</g>
</g>
</g>
<defs>
<linearGradient id="paint0_linear_59_29487" x1="28.4234" y1="58.4652" x2="88.9624" y2="58.4652" gradientUnits="userSpaceOnUse">
<stop offset="0.01" stop-color="#5EB5EB"/>
<stop offset="0.99" stop-color="#39559E"/>
</linearGradient>
</defs>
</svg>
