<svg width="106" height="107" viewBox="0 0 106 107" fill="none" xmlns="http://www.w3.org/2000/svg">
<g id="Group 16">
<g id="Group" style="mix-blend-mode:multiply" opacity="0.5">
<path id="Vector" d="M96.3921 66.7892C101.692 44.5845 87.9953 22.2857 65.7989 16.9835C43.6025 11.6813 21.3121 25.3835 16.0119 47.5883C10.7117 69.793 24.4088 92.0917 46.6052 97.3939C68.8015 102.696 91.0919 88.9939 96.3921 66.7892Z" fill="#939393"/>
</g>
<path id="Vector_2" d="M90.4239 60.0826C95.7241 37.8779 82.027 15.5791 59.8307 10.2769C37.6343 4.97468 15.3439 18.6769 10.0436 40.8817C4.74344 63.0864 18.4405 85.3851 40.6369 90.6873C62.8333 95.9895 85.1237 82.2874 90.4239 60.0826Z" fill="white"/>
<path id="Vector_3" d="M80.3317 57.3861C84.202 41.1215 74.1594 24.7978 57.901 20.926C41.6425 17.0542 25.3249 27.1006 21.4546 43.3651C17.5843 59.6297 27.6269 75.9534 43.8853 79.8252C60.1438 83.697 76.4614 73.6506 80.3317 57.3861Z" fill="url(#paint0_linear_59_29547)"/>
<g id="vuesax/bold/book">
<path id="Vector_4" d="M71.4468 36.5149V60.2948C71.4468 62.2348 69.8668 64.0148 67.9268 64.2548L67.3068 64.3349C64.0268 64.7749 59.4068 66.1349 55.6868 67.6949C54.3868 68.2349 52.9468 67.2549 52.9468 65.8349V38.0149C52.9468 37.2749 53.3668 36.5949 54.0268 36.2349C57.6868 34.2549 63.2268 32.4949 66.9868 32.1749H67.1068C69.5068 32.1749 71.4468 34.1149 71.4468 36.5149Z" fill="white"/>
<path id="Vector_5" d="M48.8668 36.2349C45.2068 34.2549 39.6668 32.4949 35.9068 32.1749H35.7668C33.3668 32.1749 31.4268 34.1149 31.4268 36.5149V60.2948C31.4268 62.2348 33.0068 64.0148 34.9468 64.2548L35.5668 64.3349C38.8468 64.7749 43.4668 66.1349 47.1868 67.6949C48.4868 68.2349 49.9268 67.2549 49.9268 65.8349V38.0149C49.9268 37.2549 49.5268 36.5949 48.8668 36.2349ZM37.4468 42.2948H41.9468C42.7668 42.2948 43.4468 42.9748 43.4468 43.7948C43.4468 44.6348 42.7668 45.2948 41.9468 45.2948H37.4468C36.6268 45.2948 35.9468 44.6348 35.9468 43.7948C35.9468 42.9748 36.6268 42.2948 37.4468 42.2948ZM43.4468 51.2948H37.4468C36.6268 51.2948 35.9468 50.6348 35.9468 49.7948C35.9468 48.9748 36.6268 48.2948 37.4468 48.2948H43.4468C44.2668 48.2948 44.9468 48.9748 44.9468 49.7948C44.9468 50.6348 44.2668 51.2948 43.4468 51.2948Z" fill="white"/>
</g>
</g>
<defs>
<linearGradient id="paint0_linear_59_29547" x1="20.635" y1="50.3218" x2="81.174" y2="50.3218" gradientUnits="userSpaceOnUse">
<stop stop-color="#FF062C"/>
<stop offset="0.99" stop-color="#C40077"/>
</linearGradient>
</defs>
</svg>
