<svg width="25" height="24" viewBox="0 0 25 24" fill="none" xmlns="http://www.w3.org/2000/svg">
<g id="solar:password-bold">
<path id="Vector" fill-rule="evenodd" clip-rule="evenodd" d="M3.672 5.172C2.5 6.343 2.5 8.229 2.5 12C2.5 15.771 2.5 17.657 3.672 18.828C4.843 20 6.729 20 10.5 20H14.5C18.271 20 20.157 20 21.328 18.828C22.5 17.657 22.5 15.771 22.5 12C22.5 8.229 22.5 6.343 21.328 5.172C20.157 4 18.271 4 14.5 4H10.5C6.729 4 4.843 4 3.672 5.172ZM13.25 10C13.25 9.80109 13.171 9.61032 13.0303 9.46967C12.8897 9.32902 12.6989 9.25 12.5 9.25C12.3011 9.25 12.1103 9.32902 11.9697 9.46967C11.829 9.61032 11.75 9.80109 11.75 10V10.701L11.143 10.351C10.9714 10.2596 10.771 10.2384 10.5841 10.2919C10.3972 10.3454 10.2384 10.4694 10.1411 10.6378C10.0438 10.8061 10.0157 11.0056 10.0627 11.1943C10.1097 11.3829 10.2281 11.546 10.393 11.649L11 11.999L10.393 12.35C10.2206 12.4495 10.0948 12.6133 10.0432 12.8055C9.99164 12.9978 10.0185 13.2026 10.118 13.375C10.2175 13.5474 10.3813 13.6732 10.5735 13.7248C10.7658 13.7764 10.9706 13.7495 11.143 13.65L11.75 13.299V14C11.75 14.1989 11.829 14.3897 11.9697 14.5303C12.1103 14.671 12.3011 14.75 12.5 14.75C12.6989 14.75 12.8897 14.671 13.0303 14.5303C13.171 14.3897 13.25 14.1989 13.25 14V13.3L13.857 13.65C14.0294 13.7495 14.2342 13.7764 14.4265 13.7248C14.6187 13.6732 14.7825 13.5474 14.882 13.375C14.9815 13.2026 15.0084 12.9978 14.9568 12.8055C14.9052 12.6133 14.7794 12.4495 14.607 12.35L14 12L14.607 11.65C14.7794 11.5505 14.9052 11.3867 14.9568 11.1945C15.0084 11.0022 14.9815 10.7974 14.882 10.625C14.7825 10.4526 14.6187 10.3268 14.4265 10.2752C14.2342 10.2236 14.0294 10.2505 13.857 10.35L13.25 10.7V10ZM7.233 9.25C7.43191 9.25 7.62268 9.32902 7.76333 9.46967C7.90398 9.61032 7.983 9.80109 7.983 10V10.7L8.589 10.35C8.76139 10.2505 8.96623 10.2236 9.15845 10.2752C9.35068 10.3268 9.51454 10.4526 9.614 10.625C9.71346 10.7974 9.74036 11.0022 9.68878 11.1945C9.63721 11.3867 9.51139 11.5505 9.339 11.65L8.732 12L9.339 12.35C9.42436 12.3992 9.49918 12.4648 9.5592 12.543C9.61922 12.6211 9.66325 12.7104 9.68878 12.8055C9.71432 12.9007 9.72086 13 9.70803 13.0977C9.6952 13.1954 9.66325 13.2896 9.614 13.375C9.56475 13.4604 9.49918 13.5352 9.42102 13.5952C9.34285 13.6552 9.25363 13.6992 9.15845 13.7248C9.06327 13.7503 8.964 13.7569 8.86629 13.744C8.76858 13.7312 8.67436 13.6992 8.589 13.65L7.983 13.3V14C7.983 14.1989 7.90398 14.3897 7.76333 14.5303C7.62268 14.671 7.43191 14.75 7.233 14.75C7.03409 14.75 6.84332 14.671 6.70267 14.5303C6.56202 14.3897 6.483 14.1989 6.483 14V13.299L5.875 13.649C5.7034 13.7404 5.50301 13.7616 5.3161 13.7081C5.12919 13.6546 4.97036 13.5306 4.87309 13.3622C4.77582 13.1939 4.74772 12.9944 4.79472 12.8057C4.84172 12.6171 4.96013 12.454 5.125 12.351L5.732 12L5.125 11.65C5.03964 11.6008 4.96482 11.5352 4.9048 11.457C4.84478 11.3789 4.80075 11.2896 4.77522 11.1945C4.74968 11.0993 4.74314 11 4.75597 10.9023C4.7688 10.8046 4.80075 10.7104 4.85 10.625C4.89925 10.5396 4.96482 10.4648 5.04298 10.4048C5.12115 10.3448 5.21037 10.3008 5.30555 10.2752C5.40073 10.2497 5.5 10.2431 5.59771 10.256C5.69542 10.2688 5.78964 10.3008 5.875 10.35L6.483 10.701V10C6.483 9.80109 6.56202 9.61032 6.70267 9.46967C6.84332 9.32902 7.03409 9.25 7.233 9.25ZM18.518 10C18.518 9.80109 18.439 9.61032 18.2983 9.46967C18.1577 9.32902 17.9669 9.25 17.768 9.25C17.5691 9.25 17.3783 9.32902 17.2377 9.46967C17.097 9.61032 17.018 9.80109 17.018 10V10.701L16.411 10.351C16.2394 10.2596 16.039 10.2384 15.8521 10.2919C15.6652 10.3454 15.5064 10.4694 15.4091 10.6378C15.3118 10.8061 15.2837 11.0056 15.3307 11.1943C15.3777 11.3829 15.4961 11.546 15.661 11.649L16.268 11.999L15.66 12.35C15.4876 12.4495 15.3618 12.6133 15.3102 12.8055C15.2586 12.9978 15.2855 13.2026 15.385 13.375C15.4845 13.5474 15.6483 13.6732 15.8405 13.7248C16.0328 13.7764 16.2376 13.7495 16.41 13.65L17.018 13.299V14C17.018 14.1989 17.097 14.3897 17.2377 14.5303C17.3783 14.671 17.5691 14.75 17.768 14.75C17.9669 14.75 18.1577 14.671 18.2983 14.5303C18.439 14.3897 18.518 14.1989 18.518 14V13.3L19.125 13.65C19.2974 13.7495 19.5022 13.7764 19.6945 13.7248C19.8867 13.6732 20.0505 13.5474 20.15 13.375C20.2495 13.2026 20.2764 12.9978 20.2248 12.8055C20.1732 12.6133 20.0474 12.4495 19.875 12.35L19.268 12L19.875 11.65C20.0474 11.5505 20.1732 11.3867 20.2248 11.1945C20.2764 11.0022 20.2495 10.7974 20.15 10.625C20.0505 10.4526 19.8867 10.3268 19.6945 10.2752C19.5022 10.2236 19.2974 10.2505 19.125 10.35L18.518 10.7V10Z" fill="white"/>
</g>
</svg>
