<svg width="48" height="49" viewBox="0 0 48 49" fill="none" xmlns="http://www.w3.org/2000/svg">
<g id="bxs:file-pdf">
<path id="Vector" d="M16.534 29.86C16.166 29.86 15.918 29.896 15.79 29.932V32.288C15.942 32.324 16.132 32.334 16.394 32.334C17.352 32.334 17.942 31.85 17.942 31.032C17.942 30.3 17.434 29.86 16.534 29.86ZM23.508 29.884C23.108 29.884 22.848 29.92 22.694 29.956V35.176C22.848 35.212 23.096 35.212 23.32 35.212C24.954 35.224 26.018 34.324 26.018 32.42C26.03 30.76 25.06 29.884 23.508 29.884Z" fill="#292D32"/>
<path id="Vector_2" d="M28 4.5H12C10.9391 4.5 9.92172 4.92143 9.17157 5.67157C8.42143 6.42172 8 7.43913 8 8.5V40.5C8 41.5609 8.42143 42.5783 9.17157 43.3284C9.92172 44.0786 10.9391 44.5 12 44.5H36C37.0609 44.5 38.0783 44.0786 38.8284 43.3284C39.5786 42.5783 40 41.5609 40 40.5V16.5L28 4.5ZM18.996 32.88C18.378 33.46 17.466 33.72 16.404 33.72C16.1981 33.7222 15.9923 33.7102 15.788 33.684V36.536H14V28.664C14.8069 28.5436 15.6222 28.4888 16.438 28.5C17.552 28.5 18.344 28.712 18.878 29.138C19.386 29.542 19.73 30.204 19.73 30.984C19.728 31.768 19.468 32.43 18.996 32.88ZM26.61 35.59C25.77 36.288 24.492 36.62 22.93 36.62C21.994 36.62 21.332 36.56 20.882 36.5V28.666C21.6892 28.5482 22.5043 28.4927 23.32 28.5C24.834 28.5 25.818 28.772 26.586 29.352C27.416 29.968 27.936 30.95 27.936 32.36C27.936 33.886 27.378 34.94 26.61 35.59ZM34 30.04H30.936V31.862H33.8V33.33H30.936V36.538H29.124V28.56H34V30.04ZM28 18.5H26V8.5L36 18.5H28Z" fill="#292D32"/>
</g>
</svg>
