<svg width="48" height="47" viewBox="0 0 48 47" fill="none" xmlns="http://www.w3.org/2000/svg">
<g id="Icon/ &#216;&#181;&#217;&#136;&#216;&#177;&#216;&#169;">
<g id="vuesax/bold/gallery-edit">
<g id="gallery-edit">
<path id="Vector" d="M41.5662 1.9585H35.8087C33.3216 1.9585 31.8333 3.44683 31.8333 5.93391V11.6914C31.8333 14.1785 33.3216 15.6668 35.8087 15.6668H41.5662C44.0533 15.6668 45.5416 14.1785 45.5416 11.6914V5.93391C45.5416 3.44683 44.0533 1.9585 41.5662 1.9585ZM37.7278 12.8664C37.6691 12.9252 37.532 13.0035 37.4341 13.0035L35.3974 13.2972C35.3387 13.3168 35.2603 13.3168 35.2016 13.3168C34.9078 13.3168 34.6533 13.2189 34.477 13.0231C34.242 12.7881 34.1441 12.4552 34.2028 12.1027L34.4966 10.066C34.5162 9.96808 34.5749 9.831 34.6337 9.77225L37.9628 6.44308C38.0216 6.58016 38.0803 6.73683 38.1391 6.8935C38.2174 7.05016 38.2958 7.18725 38.3741 7.32433C38.4328 7.44183 38.5112 7.55933 38.5895 7.63766C38.6678 7.75516 38.7462 7.87266 38.8049 7.93141C38.8441 7.99016 38.8637 8.00975 38.8833 8.02933C39.0595 8.24475 39.2553 8.44058 39.4316 8.57766C39.4708 8.61683 39.5099 8.656 39.5295 8.656C39.6274 8.73433 39.7449 8.83225 39.8233 8.891C39.9408 8.96933 40.0387 9.04766 40.1562 9.10641C40.2933 9.18475 40.4499 9.26308 40.6066 9.34141C40.7633 9.41975 40.9199 9.4785 41.057 9.51766L37.7278 12.8664ZM42.4083 8.186L41.7816 8.81266C41.7424 8.87141 41.6837 8.891 41.6249 8.891C41.6053 8.891 41.5858 8.891 41.5662 8.891C40.1562 8.47975 39.0399 7.3635 38.6287 5.9535C38.6091 5.87516 38.6287 5.79683 38.6874 5.73808L39.3337 5.09183C40.3912 4.03433 41.3899 4.05391 42.4278 5.09183C42.9566 5.62058 43.2112 6.12975 43.2112 6.63891C43.1916 7.14808 42.937 7.65725 42.4083 8.186Z" fill="#28508B"/>
<path id="Vector_2" d="M18.1249 20.3275C20.6991 20.3275 22.7858 18.2408 22.7858 15.6667C22.7858 13.0926 20.6991 11.0059 18.1249 11.0059C15.5508 11.0059 13.4641 13.0926 13.4641 15.6667C13.4641 18.2408 15.5508 20.3275 18.1249 20.3275Z" fill="#28508B"/>
<path id="Vector_3" d="M41.5663 15.6665H40.6459V24.6944L40.3913 24.479C38.8638 23.1669 36.3963 23.1669 34.8688 24.479L26.7222 31.4703C25.1947 32.7823 22.7272 32.7823 21.1997 31.4703L20.5338 30.9219C19.1434 29.7078 16.9305 29.5903 15.3638 30.6478L8.03966 35.5632C7.60883 34.4665 7.35425 33.1936 7.35425 31.7053V15.2944C7.35425 9.77192 10.2722 6.854 15.7947 6.854H31.8334V5.93359C31.8334 5.15025 31.9705 4.48442 32.2838 3.9165H15.7947C8.66633 3.9165 4.41675 8.16609 4.41675 15.2944V31.7053C4.41675 33.8398 4.78883 35.7003 5.51341 37.2669C7.19758 40.9878 10.8009 43.0832 15.7947 43.0832H32.2055C39.3338 43.0832 43.5834 38.8336 43.5834 31.7053V15.2161C43.0155 15.5294 42.3497 15.6665 41.5663 15.6665Z" fill="#28508B"/>
</g>
</g>
</g>
</svg>
