<svg width="87" height="90" viewBox="0 0 87 90" fill="none" xmlns="http://www.w3.org/2000/svg">
<g id="Group 20">
<g id="Group" style="mix-blend-mode:multiply" opacity="0.5">
<path id="Vector" d="M45.6169 89.6133C68.4373 89.6133 86.937 71.1067 86.937 48.2777C86.937 25.4487 68.4373 6.94214 45.6169 6.94214C22.7964 6.94214 4.29688 25.4487 4.29688 48.2777C4.29688 71.1067 22.7964 89.6133 45.6169 89.6133Z" fill="#939393"/>
</g>
<path id="Vector_2" d="M41.3381 82.9084C64.1585 82.9084 82.6582 64.4019 82.6582 41.5729C82.6582 18.7439 64.1585 0.237305 41.3381 0.237305C18.5176 0.237305 0.0180664 18.7439 0.0180664 41.5729C0.0180664 64.4019 18.5176 82.9084 41.3381 82.9084Z" fill="white"/>
<path id="Vector_3" d="M40.5902 71.8453C57.303 71.8453 70.8514 58.2919 70.8514 41.5728C70.8514 24.8538 57.303 11.3003 40.5902 11.3003C23.8775 11.3003 10.3291 24.8538 10.3291 41.5728C10.3291 58.2919 23.8775 71.8453 40.5902 71.8453Z" fill="url(#paint0_linear_59_29508)"/>
<g id="vuesax/bold/book">
<path id="Vector_4" d="M58.0181 49.9349V54.9349C58.0181 58.7949 54.8781 61.9349 51.0181 61.9349H31.0181C27.1581 61.9349 24.0181 58.7949 24.0181 54.9349V53.6349C24.0181 50.4949 26.5781 47.9349 29.7181 47.9349H56.0181C57.1181 47.9349 58.0181 48.8349 58.0181 49.9349Z" fill="white"/>
<path id="Vector_5" d="M48.0181 21.9349H34.0181C26.0181 21.9349 24.0181 23.9349 24.0181 31.9349V47.0949C25.5381 45.7549 27.5381 44.9349 29.7181 44.9349H56.0181C57.1181 44.9349 58.0181 44.0349 58.0181 42.9349V31.9349C58.0181 23.9349 56.0181 21.9349 48.0181 21.9349ZM43.0181 39.4349H33.0181C32.1981 39.4349 31.5181 38.7549 31.5181 37.9349C31.5181 37.1149 32.1981 36.4349 33.0181 36.4349H43.0181C43.8381 36.4349 44.5181 37.1149 44.5181 37.9349C44.5181 38.7549 43.8381 39.4349 43.0181 39.4349ZM49.0181 32.4349H33.0181C32.1981 32.4349 31.5181 31.7549 31.5181 30.9349C31.5181 30.1149 32.1981 29.4349 33.0181 29.4349H49.0181C49.8381 29.4349 50.5181 30.1149 50.5181 30.9349C50.5181 31.7549 49.8381 32.4349 49.0181 32.4349Z" fill="white"/>
</g>
</g>
<defs>
<linearGradient id="paint0_linear_59_29508" x1="10.3291" y1="41.5728" x2="70.8681" y2="41.5728" gradientUnits="userSpaceOnUse">
<stop offset="0.25" stop-color="#F15D24"/>
<stop offset="0.41" stop-color="#F26B22"/>
<stop offset="1" stop-color="#F6991B"/>
</linearGradient>
</defs>
</svg>
