<svg width="39" height="40" viewBox="0 0 39 40" fill="none" xmlns="http://www.w3.org/2000/svg">
<path d="M33.3125 26.6313V30.6938C33.3125 33.8301 30.7612 36.3813 27.625 36.3813H11.375C8.23875 36.3813 5.6875 33.8301 5.6875 30.6938V29.6376C5.6875 27.0863 7.7675 25.0063 10.3187 25.0063H31.6875C32.5813 25.0063 33.3125 25.7376 33.3125 26.6313Z" fill="white"/>
<path d="M25.1875 3.88135H13.8125C7.3125 3.88135 5.6875 5.50635 5.6875 12.0063V24.3238C6.9225 23.2351 8.5475 22.5688 10.3187 22.5688H31.6875C32.5813 22.5688 33.3125 21.8376 33.3125 20.9438V12.0063C33.3125 5.50635 31.6875 3.88135 25.1875 3.88135ZM21.125 18.1001H13C12.3338 18.1001 11.7812 17.5476 11.7812 16.8813C11.7812 16.2151 12.3338 15.6626 13 15.6626H21.125C21.7912 15.6626 22.3438 16.2151 22.3438 16.8813C22.3438 17.5476 21.7912 18.1001 21.125 18.1001ZM26 12.4126H13C12.3338 12.4126 11.7812 11.8601 11.7812 11.1938C11.7812 10.5276 12.3338 9.9751 13 9.9751H26C26.6662 9.9751 27.2188 10.5276 27.2188 11.1938C27.2188 11.8601 26.6662 12.4126 26 12.4126Z" fill="white"/>
</svg>
