<svg width="21" height="21" viewBox="0 0 21 21" fill="none" xmlns="http://www.w3.org/2000/svg">
<path id="Vector" d="M9.68604 0.343018C14.654 0.343018 18.686 4.37502 18.686 9.34302C18.686 14.311 14.654 18.343 9.68604 18.343C4.71804 18.343 0.686035 14.311 0.686035 9.34302C0.686035 4.37502 4.71804 0.343018 9.68604 0.343018ZM9.68604 16.343C13.553 16.343 16.686 13.21 16.686 9.34302C16.686 5.47602 13.553 2.34302 9.68604 2.34302C5.81904 2.34302 2.68604 5.47602 2.68604 9.34302C2.68604 13.21 5.81904 16.343 9.68604 16.343ZM18.171 16.414L21 19.242L19.585 20.657L16.757 17.828L18.171 16.414Z" fill="#87898C"/>
</svg>
