<svg width="209" height="210" viewBox="0 0 209 210" fill="none" xmlns="http://www.w3.org/2000/svg">
<g id="Mask group">
<mask id="mask0_61_34200" style="mask-type:luminance" maskUnits="userSpaceOnUse" x="0" y="0" width="210" height="210">
<g id="Group">
<g id="Group_2">
<path id="Vector" d="M104.5 207.5C117.963 207.517 131.297 204.874 143.735 199.722C156.173 194.57 167.471 187.01 176.978 177.478C186.51 167.97 194.07 156.673 199.222 144.235C204.374 131.797 207.018 118.463 207 105C207.017 91.537 204.374 78.2033 199.222 65.7652C194.069 53.327 186.51 42.0297 176.978 32.5222C167.471 22.9899 156.173 15.4304 143.735 10.2781C131.297 5.1259 117.963 2.48255 104.5 2.49999C91.0371 2.48283 77.7034 5.12631 65.2653 10.2785C52.8271 15.4307 41.5298 22.9901 32.0223 32.5222C22.4902 42.0297 14.9308 53.327 9.77862 65.7652C4.6264 78.2033 1.98292 91.537 2.00009 105C1.98264 118.463 4.62599 131.797 9.77822 144.235C14.9305 156.673 22.49 167.97 32.0223 177.478C41.5298 187.01 52.8271 194.569 65.2653 199.721C77.7034 204.874 91.0371 207.517 104.5 207.5Z" fill="white" stroke="white" stroke-width="4" stroke-linejoin="round"/>
<path id="Vector_2" d="M63.5 105L94.25 135.75L155.75 74.25" stroke="black" stroke-width="4" stroke-linecap="round" stroke-linejoin="round"/>
</g>
</g>
</mask>
<g mask="url(#mask0_61_34200)">
<path id="Vector_3" d="M-18.5 -18H227.5V228H-18.5V-18Z" fill="#70B14B"/>
</g>
</g>
</svg>
