<svg width="27" height="23" viewBox="0 0 27 23" fill="none" xmlns="http://www.w3.org/2000/svg">
<path id="Vector" d="M0 20.5C0 21.4337 0.75375 22.1875 1.6875 22.1875H19.6875C20.6212 22.1875 21.375 21.4337 21.375 20.5C21.375 19.5662 20.6212 18.8125 19.6875 18.8125H1.6875C0.75375 18.8125 0 19.5662 0 20.5ZM19.6875 4.1875H1.6875C0.75375 4.1875 0 3.43375 0 2.5C0 1.56625 0.75375 0.812498 1.6875 0.812498H19.6875C20.6212 0.812498 21.375 1.56625 21.375 2.5C21.375 3.43375 20.6212 4.1875 19.6875 4.1875ZM25.3125 13.1875H7.3125C6.37875 13.1875 5.625 12.4337 5.625 11.5C5.625 10.5662 6.37875 9.8125 7.3125 9.8125H25.3125C26.2462 9.8125 27 10.5662 27 11.5C27 12.4337 26.2462 13.1875 25.3125 13.1875Z" fill="#28508B"/>
</svg>
