<svg width="56" height="56" viewBox="0 0 56 56" fill="none" xmlns="http://www.w3.org/2000/svg">
<g id="angle-small-right 2">
<path id="Vector" d="M22.2248 19.2499L11.5241 29.9506C10.8679 30.6072 10.4993 31.4976 10.4995 32.4259C10.4997 33.3543 10.8687 34.2445 11.5253 34.9008C12.1819 35.5571 13.0723 35.9256 14.0006 35.9254C14.929 35.9252 15.8192 35.5562 16.4755 34.8996L27.1738 24.199C27.2822 24.0903 27.4109 24.0041 27.5527 23.9453C27.6944 23.8865 27.8464 23.8562 27.9998 23.8562C28.1533 23.8562 28.3052 23.8865 28.447 23.9453C28.5887 24.0041 28.7174 24.0903 28.8258 24.199L39.5241 34.8996C40.1804 35.5562 41.0707 35.9252 41.999 35.9254C42.9273 35.9256 43.8177 35.5571 44.4743 34.9008C45.1309 34.2445 45.4999 33.3543 45.5001 32.4259C45.5003 31.4976 45.1318 30.6072 44.4755 29.9506L33.7748 19.2499C32.2417 17.7211 30.1649 16.8625 27.9998 16.8625C25.8347 16.8625 23.7579 17.7211 22.2248 19.2499Z" fill="#28508B"/>
</g>
</svg>
