<svg width="192" height="194" viewBox="0 0 192 194" fill="none" xmlns="http://www.w3.org/2000/svg">
<g id="Group 21">
<g id="Group" style="mix-blend-mode:multiply" opacity="0.5">
<path id="Vector" d="M173.563 120.439C183.218 79.9882 158.266 39.366 117.831 29.7068C77.3949 20.0477 36.7879 45.0093 27.1324 85.4602C17.4769 125.911 42.4291 166.533 82.8648 176.192C123.301 185.852 163.907 160.89 173.563 120.439Z" fill="#939393"/>
</g>
<path id="Vector_2" d="M164.413 108.222C174.069 67.7707 149.117 27.1484 108.681 17.4893C68.2453 7.83016 27.6384 32.7918 17.9829 73.2427C8.32735 113.694 33.2796 154.316 73.7153 163.975C114.151 173.634 154.758 148.672 164.413 108.222Z" fill="white"/>
<path id="Vector_3" d="M144.822 103.474C151.872 73.845 133.577 44.1077 103.959 37.0544C74.3406 30.0011 44.6144 48.3028 37.5638 77.9323C30.5132 107.562 48.8079 137.299 78.4264 144.352C108.045 151.406 137.771 133.104 144.822 103.474Z" fill="url(#paint0_linear_67_7387)"/>
<g id="vuesax/bold/video-play">
<g id="video-play">
<path id="Vector_4" d="M103.355 54.895H83.4613V70.7804H103.355V54.895Z" fill="white"/>
<path id="Vector_5" d="M108.82 54.895V70.7804H129.369C127.51 60.761 120.114 54.9315 108.82 54.895Z" fill="white"/>
<path id="Vector_6" d="M56.9734 76.2455V106.595C56.9734 119.858 64.8797 127.764 78.1418 127.764H108.674C121.936 127.764 129.842 119.858 129.842 106.595V76.2455H56.9734ZM102.298 106.559L94.7195 110.931C93.1164 111.842 91.5497 112.316 90.0923 112.316C88.9993 112.316 88.0156 112.061 87.1047 111.55C84.9915 110.348 83.8256 107.871 83.8256 104.664V95.9201C83.8256 92.7139 84.9915 90.2363 87.1047 89.034C89.2179 87.7952 91.914 88.0138 94.7195 89.6534L102.298 94.0255C105.103 95.6286 106.634 97.8876 106.634 100.329C106.634 102.77 105.067 104.919 102.298 106.559Z" fill="white"/>
<path id="Vector_7" d="M77.9961 54.895C66.7014 54.9315 59.3052 60.761 57.447 70.7804H77.9961V54.895Z" fill="white"/>
</g>
</g>
</g>
<defs>
<linearGradient id="paint0_linear_67_7387" x1="36.0946" y1="90.6764" x2="146.38" y2="90.6764" gradientUnits="userSpaceOnUse">
<stop stop-color="#3D8B67"/>
<stop offset="1" stop-color="#9AD032"/>
</linearGradient>
</defs>
</svg>
