<svg width="105" height="107" viewBox="0 0 105 107" fill="none" xmlns="http://www.w3.org/2000/svg">
<g id="Group 21">
<g id="Group" style="mix-blend-mode:multiply" opacity="0.5">
<path id="Vector" d="M94.9996 66.3607C100.3 44.156 86.6027 21.8572 64.4063 16.555C42.21 11.2528 19.9195 24.955 14.6193 47.1598C9.31913 69.3645 23.0162 91.6633 45.2126 96.9655C67.409 102.268 89.6994 88.5655 94.9996 66.3607Z" fill="#939393"/>
</g>
<path id="Vector_2" d="M89.9771 59.6542C95.2773 37.4495 81.5803 15.1507 59.3839 9.84849C37.1875 4.54629 14.8971 18.2485 9.59688 40.4532C4.29667 62.658 17.9937 84.9567 40.1901 90.2589C62.3865 95.5611 84.6769 81.8589 89.9771 59.6542Z" fill="white"/>
<path id="Vector_3" d="M79.2228 57.0482C83.0931 40.7837 73.0505 24.46 56.7921 20.5882C40.5336 16.7164 24.216 26.7628 20.3457 43.0273C16.4754 59.2919 26.518 75.6156 42.7764 79.4874C59.0349 83.3591 75.3525 73.3128 79.2228 57.0482Z" fill="url(#paint0_linear_59_29496)"/>
<g id="vuesax/bold/video-play">
<g id="video-play">
<path id="Vector_4" d="M56.46 30.3814H45.54V39.1014H56.46V30.3814Z" fill="white"/>
<path id="Vector_5" d="M59.46 30.3814V39.1014H70.74C69.72 33.6014 65.66 30.4014 59.46 30.3814Z" fill="white"/>
<path id="Vector_6" d="M31 42.1014V58.7614C31 66.0414 35.34 70.3814 42.62 70.3814H59.38C66.66 70.3814 71 66.0414 71 58.7614V42.1014H31ZM55.88 58.7414L51.72 61.1414C50.84 61.6414 49.98 61.9014 49.18 61.9014C48.58 61.9014 48.04 61.7614 47.54 61.4814C46.38 60.8214 45.74 59.4614 45.74 57.7014V52.9014C45.74 51.1414 46.38 49.7814 47.54 49.1214C48.7 48.4414 50.18 48.5614 51.72 49.4614L55.88 51.8614C57.42 52.7414 58.26 53.9814 58.26 55.3214C58.26 56.6614 57.4 57.8414 55.88 58.7414Z" fill="white"/>
<path id="Vector_7" d="M42.5398 30.3814C36.3398 30.4014 32.2798 33.6014 31.2598 39.1014H42.5398V30.3814Z" fill="white"/>
</g>
</g>
</g>
<defs>
<linearGradient id="paint0_linear_59_29496" x1="19.5392" y1="50.023" x2="80.0783" y2="50.023" gradientUnits="userSpaceOnUse">
<stop stop-color="#3D8B67"/>
<stop offset="1" stop-color="#9AD032"/>
</linearGradient>
</defs>
</svg>
