<svg width="38" height="37" viewBox="0 0 38 37" fill="none" xmlns="http://www.w3.org/2000/svg">
<g id="vuesax/bold/logout">
<g id="vuesax/bold/logout_2">
<g id="logout">
<path id="Vector" d="M26.4 3.08334H22.3917C17.4583 3.08334 14.375 6.16668 14.375 11.1V17.3438H24.0104C24.6425 17.3438 25.1667 17.8679 25.1667 18.5C25.1667 19.1321 24.6425 19.6563 24.0104 19.6563H14.375V25.9C14.375 30.8333 17.4583 33.9167 22.3917 33.9167H26.3846C31.3179 33.9167 34.4012 30.8333 34.4012 25.9V11.1C34.4167 6.16668 31.3333 3.08334 26.4 3.08334Z" fill="white"/>
<path id="Vector_2" d="M7.53021 17.3437L10.7215 14.1525C10.9527 13.9212 11.0606 13.6283 11.0606 13.3354C11.0606 13.0425 10.9527 12.7342 10.7215 12.5183C10.2744 12.0712 9.53438 12.0712 9.0873 12.5183L3.92271 17.6829C3.47563 18.13 3.47563 18.87 3.92271 19.3171L9.0873 24.4817C9.53438 24.9287 10.2744 24.9287 10.7215 24.4817C11.1685 24.0346 11.1685 23.2946 10.7215 22.8475L7.53021 19.6562H14.3752V17.3437H7.53021V17.3437Z" fill="white"/>
</g>
</g>
</g>
</svg>
