<svg width="60" height="63" viewBox="0 0 60 63" fill="none" xmlns="http://www.w3.org/2000/svg">
<g id="Group 22">
<g id="Group 12494">
<g id="Group" style="mix-blend-mode:multiply" opacity="0.5">
<path id="Vector" d="M31.4772 62.1754C47.23 62.1754 60.0003 49.4004 60.0003 33.6416C60.0003 17.8828 47.23 5.10779 31.4772 5.10779C15.7243 5.10779 2.9541 17.8828 2.9541 33.6416C2.9541 49.4004 15.7243 62.1754 31.4772 62.1754Z" fill="#939393"/>
</g>
<path id="Vector_2" d="M28.5231 57.5471C44.2759 57.5471 57.0462 44.7721 57.0462 29.0133C57.0462 13.2545 44.2759 0.479492 28.5231 0.479492C12.7702 0.479492 0 13.2545 0 29.0133C0 44.7721 12.7702 57.5471 28.5231 57.5471Z" fill="white"/>
</g>
<path id="Vector_3" d="M29.8743 52.2595C41.4115 52.2595 50.7678 42.9067 50.7722 31.3695C50.7765 19.8323 41.4272 10.4795 29.89 10.4795C18.3528 10.4795 8.99649 19.8323 8.99215 31.3695C8.98782 42.9067 18.3371 52.2595 29.8743 52.2595Z" fill="url(#paint0_linear_339_10661)"/>
<g id="vuesax/bold/clipboard-text">
<g id="clipboard-text">
<path id="Vector_4" d="M33.1869 19.875H27.5576C26.312 19.875 25.2939 20.8811 25.2939 22.1267V23.2526C25.2939 24.4982 26.3 25.5043 27.5457 25.5043H33.1869C34.4325 25.5043 35.4386 24.4982 35.4386 23.2526V22.1267C35.4506 20.8811 34.4325 19.875 33.1869 19.875Z" fill="white"/>
<path id="Vector_5" d="M36.6486 23.2525C36.6486 25.1569 35.0915 26.7139 33.1872 26.7139H27.5579C25.6535 26.7139 24.0965 25.1569 24.0965 23.2525C24.0965 22.5818 23.3779 22.1626 22.779 22.474C21.0902 23.3723 19.9404 25.1569 19.9404 27.205V38.4755C19.9404 41.4219 22.3478 43.8293 25.2942 43.8293H35.4508C38.3972 43.8293 40.8046 41.4219 40.8046 38.4755V27.205C40.8046 25.1569 39.6548 23.3723 37.966 22.474C37.3672 22.1626 36.6486 22.5818 36.6486 23.2525ZM30.8277 37.7808H25.5817C25.0906 37.7808 24.6834 37.3736 24.6834 36.8825C24.6834 36.3915 25.0906 35.9842 25.5817 35.9842H30.8277C31.3187 35.9842 31.726 36.3915 31.726 36.8825C31.726 37.3736 31.3187 37.7808 30.8277 37.7808ZM33.9657 32.99H25.5817C25.0906 32.99 24.6834 32.5827 24.6834 32.0917C24.6834 31.6006 25.0906 31.1934 25.5817 31.1934H33.9657C34.4567 31.1934 34.864 31.6006 34.864 32.0917C34.864 32.5827 34.4567 32.99 33.9657 32.99Z" fill="white"/>
</g>
</g>
</g>
<defs>
<linearGradient id="paint0_linear_339_10661" x1="15.1248" y1="16.6001" x2="44.6648" y2="46.1512" gradientUnits="userSpaceOnUse">
<stop offset="0.01" stop-color="#5EB5EB"/>
<stop offset="0.99" stop-color="#39559E"/>
</linearGradient>
</defs>
</svg>
