<svg width="60" height="62" viewBox="0 0 60 62" fill="none" xmlns="http://www.w3.org/2000/svg">
<g id="Group 16">
<g id="Group 12494">
<g id="Group" style="mix-blend-mode:multiply" opacity="0.5">
<path id="Vector" d="M31.4772 61.6959C47.23 61.6959 60.0003 48.9209 60.0003 33.1621C60.0003 17.4033 47.23 4.6283 31.4772 4.6283C15.7243 4.6283 2.9541 17.4033 2.9541 33.1621C2.9541 48.9209 15.7243 61.6959 31.4772 61.6959Z" fill="#939393"/>
</g>
<path id="Vector_2" d="M28.5231 57.0676C44.2759 57.0676 57.0462 44.2926 57.0462 28.5338C57.0462 12.775 44.2759 0 28.5231 0C12.7702 0 0 12.775 0 28.5338C0 44.2926 12.7702 57.0676 28.5231 57.0676Z" fill="white"/>
</g>
<path id="Vector_3" d="M50.4667 36.353C53.1376 25.1292 46.2074 13.8645 34.9878 11.1927C23.7682 8.52086 12.5077 15.4536 9.83692 26.6775C7.1661 37.9013 14.0963 49.1659 25.3159 51.8378C36.5355 54.5096 47.7959 47.5768 50.4667 36.353Z" fill="url(#paint0_linear_339_10619)"/>
<g id="vuesax/bold/book">
<path id="Vector_4" d="M42.5017 23.063V37.9264C42.5017 39.139 41.5142 40.2516 40.3016 40.4016L39.9141 40.4516C37.8639 40.7266 34.9762 41.5767 32.6511 42.5517C31.8385 42.8892 30.9385 42.2767 30.9385 41.3892V24.0005C30.9385 23.538 31.201 23.113 31.6135 22.8879C33.9012 21.6504 37.3639 20.5503 39.714 20.3503H39.7891C41.2892 20.3503 42.5017 21.5629 42.5017 23.063Z" fill="white"/>
<path id="Vector_5" d="M28.389 22.8879C26.1013 21.6504 22.6386 20.5503 20.2885 20.3503H20.201C18.7009 20.3503 17.4883 21.5629 17.4883 23.063V37.9264C17.4883 39.139 18.4758 40.2516 19.6884 40.4016L20.0759 40.4516C22.1261 40.7266 25.0138 41.5767 27.3389 42.5517C28.1515 42.8892 29.0515 42.2767 29.0515 41.3892V24.0005C29.0515 23.5255 28.8015 23.113 28.389 22.8879ZM21.251 26.6757H24.0637C24.5762 26.6757 25.0013 27.1007 25.0013 27.6133C25.0013 28.1383 24.5762 28.5508 24.0637 28.5508H21.251C20.7385 28.5508 20.3135 28.1383 20.3135 27.6133C20.3135 27.1007 20.7385 26.6757 21.251 26.6757ZM25.0013 32.3011H21.251C20.7385 32.3011 20.3135 31.8885 20.3135 31.3635C20.3135 30.851 20.7385 30.4259 21.251 30.4259H25.0013C25.5138 30.4259 25.9388 30.851 25.9388 31.3635C25.9388 31.8885 25.5138 32.3011 25.0013 32.3011Z" fill="white"/>
</g>
</g>
<defs>
<linearGradient id="paint0_linear_339_10619" x1="9.27131" y1="31.4781" x2="51.048" y2="31.4781" gradientUnits="userSpaceOnUse">
<stop stop-color="#FF062C"/>
<stop offset="0.99" stop-color="#C40077"/>
</linearGradient>
</defs>
</svg>
