<svg width="60" height="63" viewBox="0 0 60 63" fill="none" xmlns="http://www.w3.org/2000/svg">
<g id="Group 20">
<g id="Group 12494">
<g id="Group" style="mix-blend-mode:multiply" opacity="0.5">
<path id="Vector" d="M31.4772 62.3918C47.23 62.3918 60.0003 49.6168 60.0003 33.858C60.0003 18.0992 47.23 5.32422 31.4772 5.32422C15.7243 5.32422 2.9541 18.0992 2.9541 33.858C2.9541 49.6168 15.7243 62.3918 31.4772 62.3918Z" fill="#939393"/>
</g>
<path id="Vector_2" d="M28.5231 57.7635C44.2759 57.7635 57.0462 44.9885 57.0462 29.2297C57.0462 13.4709 44.2759 0.695923 28.5231 0.695923C12.7702 0.695923 0 13.4709 0 29.2297C0 44.9885 12.7702 57.7635 28.5231 57.7635Z" fill="white"/>
</g>
<path id="Vector_3" d="M28.0073 50.1267C39.5441 50.1267 48.8965 40.7708 48.8965 29.2297C48.8965 17.6886 39.5441 8.33264 28.0073 8.33264C16.4706 8.33264 7.11816 17.6886 7.11816 29.2297C7.11816 40.7708 16.4706 50.1267 28.0073 50.1267Z" fill="url(#paint0_linear_339_10628)"/>
<g id="vuesax/bold/book">
<path id="Vector_4" d="M40.0365 35.0019V38.4534C40.0365 41.118 37.869 43.2855 35.2044 43.2855H21.3985C18.7339 43.2855 16.5664 41.118 16.5664 38.4534V37.556C16.5664 35.3885 18.3336 33.6213 20.5011 33.6213H38.6559C39.4152 33.6213 40.0365 34.2426 40.0365 35.0019Z" fill="white"/>
<path id="Vector_5" d="M33.1335 15.6737H23.4694C17.947 15.6737 16.5664 17.0543 16.5664 22.5767V33.0416C17.6157 32.1166 18.9963 31.5505 20.5011 31.5505H38.6559C39.4152 31.5505 40.0365 30.9293 40.0365 30.1699V22.5767C40.0365 17.0543 38.6559 15.6737 33.1335 15.6737ZM29.682 27.7539H22.7791C22.213 27.7539 21.7436 27.2845 21.7436 26.7185C21.7436 26.1524 22.213 25.683 22.7791 25.683H29.682C30.2481 25.683 30.7175 26.1524 30.7175 26.7185C30.7175 27.2845 30.2481 27.7539 29.682 27.7539ZM33.8238 22.9218H22.7791C22.213 22.9218 21.7436 22.4524 21.7436 21.8864C21.7436 21.3203 22.213 20.8509 22.7791 20.8509H33.8238C34.3899 20.8509 34.8593 21.3203 34.8593 21.8864C34.8593 22.4524 34.3899 22.9218 33.8238 22.9218Z" fill="white"/>
</g>
</g>
<defs>
<linearGradient id="paint0_linear_339_10628" x1="7.11816" y1="29.2297" x2="48.9081" y2="29.2297" gradientUnits="userSpaceOnUse">
<stop offset="0.25" stop-color="#F15D24"/>
<stop offset="0.41" stop-color="#F26B22"/>
<stop offset="1" stop-color="#F6991B"/>
</linearGradient>
</defs>
</svg>
