<svg width="60" height="62" viewBox="0 0 60 62" fill="none" xmlns="http://www.w3.org/2000/svg">
<g id="Group 21">
<g id="Group 12494">
<g id="Group" style="mix-blend-mode:multiply" opacity="0.5">
<path id="Vector" d="M31.4772 61.7835C47.23 61.7835 60.0003 49.0085 60.0003 33.2498C60.0003 17.491 47.23 4.71594 31.4772 4.71594C15.7243 4.71594 2.9541 17.491 2.9541 33.2498C2.9541 49.0085 15.7243 61.7835 31.4772 61.7835Z" fill="#939393"/>
</g>
<path id="Vector_2" d="M28.5231 57.1552C44.2759 57.1552 57.0462 44.3802 57.0462 28.6215C57.0462 12.8627 44.2759 0.0876465 28.5231 0.0876465C12.7702 0.0876465 0 12.8627 0 28.6215C0 44.3802 12.7702 57.1552 28.5231 57.1552Z" fill="white"/>
</g>
<path id="Vector_3" d="M50.4658 36.4406C53.1366 25.2168 46.2064 13.9522 34.9868 11.2803C23.7672 8.6085 12.5068 15.5413 9.83595 26.7651C7.16513 37.9889 14.0953 49.2536 25.3149 51.9254C36.5345 54.5972 47.7949 47.6645 50.4658 36.4406Z" fill="url(#paint0_linear_339_10643)"/>
<g id="vuesax/bold/video-play">
<g id="video-play">
<path id="Vector_4" d="M32.8988 19.3822H26.6348V24.3843H32.8988V19.3822Z" fill="white"/>
<path id="Vector_5" d="M34.6201 19.3822V24.3843H41.0907C40.5056 21.2293 38.1766 19.3937 34.6201 19.3822Z" fill="white"/>
<path id="Vector_6" d="M18.2939 26.1052V35.662C18.2939 39.838 20.7835 42.3276 24.9596 42.3276H34.5737C38.7497 42.3276 41.2393 39.838 41.2393 35.662V26.1052H18.2939ZM32.5659 35.6505L30.1796 37.0272C29.6748 37.314 29.1815 37.4632 28.7226 37.4632C28.3784 37.4632 28.0687 37.3828 27.7818 37.2222C27.1164 36.8436 26.7493 36.0635 26.7493 35.0539V32.3005C26.7493 31.2909 27.1164 30.5107 27.7818 30.1321C28.4473 29.7421 29.2962 29.8109 30.1796 30.3272L32.5659 31.7039C33.4493 32.2087 33.9312 32.92 33.9312 33.6887C33.9312 34.4573 33.4379 35.1342 32.5659 35.6505Z" fill="white"/>
<path id="Vector_7" d="M24.9139 19.3822C21.3574 19.3937 19.0285 21.2293 18.4434 24.3843H24.9139V19.3822Z" fill="white"/>
</g>
</g>
</g>
<defs>
<linearGradient id="paint0_linear_339_10643" x1="9.27942" y1="31.5927" x2="51.0561" y2="31.5927" gradientUnits="userSpaceOnUse">
<stop stop-color="#3D8B67"/>
<stop offset="1" stop-color="#9AD032"/>
</linearGradient>
</defs>
</svg>
