<svg width="365" height="365" viewBox="0 0 365 365" fill="none" xmlns="http://www.w3.org/2000/svg">
<path d="M107.94 159.341C123.477 149.071 135.884 134.719 143.801 117.86C164.874 73.5441 206.837 61.7044 223.065 64.4099C241.925 67.5821 257.711 80.777 267.327 97.6505C276.942 114.524 280.834 134.778 281.579 155.112C282.135 170.987 280.735 187.479 274.326 202.466C268.046 217.115 257.408 229.412 246.77 241.182C233.098 256.303 218.791 271.355 201.689 281.705C187.75 290.154 169.461 294.86 157.766 285.12C147.793 276.835 145.981 260.676 135.868 252.56C121.7 241.202 99.3365 250.927 82.3389 244.533C62.5315 237.096 55.3731 214.231 62.8989 200.271C70.7474 185.751 90.9072 170.436 107.94 159.341Z" fill="#FFE5DF"/>
<path d="M165.083 212.583C169 214.832 167.546 219.662 164.329 221.36C162.889 222.115 161.301 221.638 159.94 220.943C159.205 220.588 158.592 220.023 158.178 219.32" fill="#6231D1"/>
<path d="M198.492 204.69C198.393 206.775 197.221 208.046 195.196 208.731C194.356 209.066 193.432 209.13 192.554 208.913C191.676 208.695 190.888 208.208 190.301 207.52" fill="#6231D1"/>
<path d="M171.859 211.814C174.47 210.989 176.699 212.096 177.637 214.812C178.576 217.527 177.489 219.796 174.659 220.769C171.829 221.742 169.754 220.561 168.742 217.751C168.52 217.198 168.416 216.606 168.436 216.011C168.457 215.416 168.601 214.832 168.861 214.296" fill="#6231D1"/>
<path d="M182.483 211.129C185.094 210.235 187.328 211.377 188.266 214.082C189.204 216.788 188.132 219.081 185.288 220.039C182.443 220.998 180.333 219.861 179.365 217.026C178.432 214.306 179.584 212.112 182.468 211.124" fill="#6231D1"/>
<path d="M202.563 199.716C203.144 199.497 203.764 199.398 204.384 199.425C205.005 199.451 205.613 199.603 206.174 199.871C206.734 200.139 207.234 200.518 207.644 200.984C208.054 201.451 208.366 201.995 208.56 202.585C208.763 203.171 208.847 203.792 208.807 204.411C208.767 205.031 208.603 205.636 208.325 206.191C208.048 206.746 207.662 207.24 207.191 207.643C206.72 208.047 206.172 208.353 205.581 208.542C204.996 208.749 204.374 208.834 203.754 208.792C203.134 208.75 202.529 208.581 201.977 208.297C201.424 208.012 200.936 207.617 200.542 207.137C200.147 206.657 199.856 206.101 199.684 205.504" fill="#6231D1"/>
<path d="M161.579 222.849C162.165 222.64 162.787 222.55 163.408 222.586C164.03 222.621 164.638 222.781 165.196 223.056C165.755 223.331 166.252 223.716 166.659 224.187C167.066 224.658 167.374 225.205 167.565 225.798C167.773 226.384 167.859 227.006 167.818 227.626C167.778 228.246 167.612 228.852 167.331 229.406C167.049 229.96 166.659 230.451 166.182 230.85C165.705 231.249 165.152 231.546 164.557 231.725C163.989 231.93 163.385 232.019 162.781 231.986C162.178 231.954 161.587 231.8 161.044 231.535C160.501 231.27 160.016 230.898 159.62 230.442C159.223 229.986 158.922 229.455 158.734 228.881C158.51 228.299 158.407 227.678 158.43 227.055C158.452 226.432 158.601 225.82 158.867 225.257C159.133 224.693 159.51 224.189 159.976 223.775C160.442 223.361 160.987 223.046 161.579 222.849Z" fill="#6231D1"/>
<path d="M218.489 191.247C218.695 191.833 218.78 192.454 218.739 193.074C218.698 193.694 218.532 194.299 218.251 194.853C217.97 195.407 217.579 195.898 217.103 196.297C216.627 196.696 216.075 196.994 215.48 197.174C214.912 197.379 214.308 197.468 213.704 197.435C213.101 197.403 212.51 197.249 211.967 196.984C211.424 196.719 210.939 196.347 210.543 195.891C210.146 195.435 209.845 194.904 209.657 194.33" fill="#6231D1"/>
<path d="M189.596 216.485C189.226 215.297 189.342 214.01 189.921 212.908C190.499 211.805 191.491 210.978 192.679 210.607C193.867 210.237 195.154 210.353 196.257 210.931C197.359 211.509 198.186 212.502 198.557 213.69C198.926 214.876 198.808 216.16 198.23 217.26C197.652 218.359 196.66 219.184 195.474 219.553C194.288 219.921 193.004 219.804 191.904 219.226C190.805 218.647 189.98 217.656 189.611 216.47L189.596 216.485Z" fill="#6231D1"/>
<path d="M148.046 229.531C147.836 228.945 147.747 228.322 147.782 227.701C147.818 227.079 147.978 226.472 148.253 225.913C148.528 225.355 148.912 224.857 149.383 224.45C149.854 224.043 150.402 223.735 150.994 223.544C151.58 223.337 152.202 223.251 152.822 223.291C153.443 223.331 154.048 223.497 154.602 223.779C155.157 224.06 155.648 224.451 156.047 224.927C156.445 225.404 156.743 225.957 156.922 226.552C157.127 227.121 157.216 227.725 157.183 228.328C157.15 228.932 156.997 229.523 156.732 230.066C156.466 230.609 156.095 231.093 155.639 231.49C155.183 231.886 154.652 232.188 154.077 232.375C153.496 232.599 152.875 232.703 152.252 232.68C151.629 232.657 151.017 232.508 150.453 232.242C149.89 231.976 149.386 231.599 148.972 231.133C148.558 230.667 148.243 230.122 148.046 229.531Z" fill="#6231D1"/>
<path d="M140.45 224.269C141.021 224.068 141.626 223.985 142.229 224.024C142.833 224.064 143.422 224.225 143.962 224.498C144.501 224.771 144.98 225.151 145.368 225.614C145.757 226.077 146.048 226.614 146.224 227.193C146.436 227.779 146.528 228.401 146.496 229.024C146.463 229.646 146.307 230.256 146.035 230.816C145.763 231.377 145.382 231.878 144.914 232.289C144.445 232.7 143.9 233.013 143.308 233.21C142.717 233.407 142.092 233.483 141.471 233.435C140.85 233.387 140.245 233.215 139.691 232.929C139.137 232.643 138.647 232.249 138.248 231.77C137.849 231.291 137.549 230.738 137.368 230.142C137.161 229.556 137.078 228.934 137.123 228.315C137.168 227.695 137.339 227.091 137.628 226.541C137.916 225.991 138.315 225.507 138.799 225.117C139.283 224.728 139.841 224.443 140.441 224.279" fill="#6231D1"/>
<path d="M135.824 227.247C136.044 227.827 136.144 228.446 136.12 229.065C136.095 229.685 135.946 230.294 135.681 230.854C135.416 231.415 135.04 231.917 134.577 232.329C134.114 232.741 133.572 233.056 132.984 233.254C132.398 233.462 131.776 233.551 131.155 233.515C130.534 233.48 129.926 233.32 129.367 233.045C128.809 232.771 128.311 232.388 127.903 231.918C127.495 231.448 127.186 230.902 126.992 230.31" fill="#6231D1"/>
<path d="M237.462 147.353C238.217 149.468 236.817 152.565 234.771 153.31L237.462 147.353Z" fill="#6231D1"/>
<path d="M175.255 230.985C173.036 231.745 170.032 230.181 169.288 227.918C168.603 225.843 170.156 222.829 172.281 222.104C174.406 221.38 177.498 222.904 178.243 225.167C178.928 227.242 177.389 230.251 175.255 230.985Z" fill="#6231D1"/>
<path d="M125.151 227.823C125.99 230.072 124.624 233.175 122.445 233.964C120.266 234.753 117.223 233.378 116.453 231.328" fill="#6231D1"/>
<path d="M232.066 155.251C234.121 154.407 237.353 155.861 238.172 158.021C238.941 160.021 237.532 163.129 235.481 163.978C233.431 164.827 230.194 163.367 229.37 161.213" fill="#6231D1"/>
<path d="M210.362 204.933C209.632 202.883 211.052 199.825 213.117 199.001C215.182 198.177 218.414 199.661 219.213 201.841C220.012 204.02 218.518 206.944 216.458 207.773C214.398 208.602 211.131 207.083 210.362 204.933Z" fill="#6231D1"/>
<path d="M185.645 230.842C183.485 231.571 180.293 229.968 179.653 227.828C179.013 225.689 180.542 222.69 182.602 221.99C184.662 221.29 187.953 222.864 188.594 225.004C189.234 227.143 187.705 230.142 185.645 230.842Z" fill="#6231D1"/>
<path d="M206.237 218.739C204.078 219.488 200.876 217.885 200.25 215.73C199.625 213.576 201.119 210.592 203.179 209.883C205.239 209.173 208.536 210.731 209.166 212.891C209.797 215.05 208.297 218.019 206.237 218.739Z" fill="#6231D1"/>
<path d="M226.938 188.149C227.747 188.849 228.849 189.633 229.027 190.537C229.373 191.741 229.241 193.032 228.66 194.141C228.015 195.164 226.957 195.685 226.104 196.459C224.917 196.117 223.532 196.737 222.495 195.829C221.718 195.102 220.981 194.335 220.285 193.53" fill="#6231D1"/>
<path d="M198.775 224.363C199.714 227.069 198.86 228.737 196.05 229.71C193.374 230.628 191.711 229.75 190.743 226.905C189.87 224.363 190.758 222.621 193.394 221.712C196.03 220.804 197.827 221.618 198.775 224.363Z" fill="#6231D1"/>
<path d="M152.032 234.589C154.624 233.706 156.287 234.644 157.265 237.538C158.109 240.04 157.185 241.728 154.455 242.671C151.724 243.614 150.141 242.716 149.153 239.861C148.254 237.245 149.173 235.562 152.032 234.589Z" fill="#6231D1"/>
<path d="M165.148 241.927C162.452 242.855 160.789 241.996 159.816 239.177C158.908 236.521 159.801 234.843 162.646 233.875C165.168 233.011 166.91 233.91 167.828 236.556C168.747 239.202 167.923 240.969 165.148 241.927Z" fill="#6231D1"/>
<path d="M232.657 166.445C235.303 165.527 237.085 166.336 237.973 168.853C238.971 171.688 238.212 173.43 235.551 174.373C232.736 175.361 231.028 174.587 230.09 171.891" fill="#6231D1"/>
<path d="M143.826 242.885C141.086 243.848 139.348 243.024 138.41 240.308C137.472 237.593 138.326 235.865 141.056 234.922C143.787 233.979 145.41 234.828 146.323 237.429C147.316 240.239 146.532 241.947 143.826 242.885Z" fill="#6231D1"/>
<path d="M177.985 236.119C179.048 237.181 178.293 238.412 177.96 239.281C177.686 239.805 177.31 240.269 176.852 240.644C176.395 241.019 175.867 241.299 175.3 241.465C174.777 241.653 174.22 241.729 173.666 241.688C173.112 241.647 172.572 241.49 172.083 241.227C171.556 240.949 171.092 240.564 170.721 240.098C170.351 239.631 170.08 239.093 169.928 238.516C169.598 237.446 169.688 236.29 170.181 235.285C170.735 234.314 171.631 233.585 172.693 233.239C173.213 233.037 173.769 232.945 174.326 232.969C174.883 232.993 175.429 233.133 175.93 233.378C176.878 233.85 178.109 234.605 177.985 236.119Z" fill="#6231D1"/>
<path d="M135.675 238.427C136.737 239.489 135.988 240.725 135.65 241.589C135.376 242.113 134.998 242.577 134.54 242.951C134.082 243.326 133.553 243.604 132.984 243.768C132.461 243.953 131.905 244.027 131.351 243.986C130.797 243.945 130.258 243.79 129.767 243.53C129.241 243.252 128.779 242.869 128.409 242.403C128.039 241.937 127.769 241.4 127.618 240.824C127.286 239.752 127.379 238.594 127.876 237.588C128.425 236.616 129.32 235.888 130.383 235.547C130.902 235.343 131.459 235.249 132.016 235.273C132.574 235.297 133.12 235.438 133.62 235.686C134.583 236.173 135.794 236.908 135.675 238.427Z" fill="#6231D1"/>
<path d="M244.303 123.415C245.271 123.877 246.487 124.606 246.363 126.13C247.425 127.193 246.676 128.429 246.338 129.293C246.063 129.818 245.685 130.282 245.226 130.658C244.767 131.033 244.237 131.312 243.667 131.477C243.144 131.663 242.588 131.737 242.034 131.696C241.48 131.655 240.941 131.499 240.451 131.239" fill="#6231D1"/>
<path d="M216.731 217.488C215.594 218.475 214.308 217.924 213.33 217.463C212.347 216.927 211.609 216.033 211.27 214.966C210.882 213.91 210.925 212.744 211.389 211.719C211.948 210.664 212.893 209.866 214.025 209.49C215.079 209.128 216.233 209.198 217.235 209.685C218.237 210.171 219.005 211.035 219.372 212.086C219.765 213.131 219.755 214.286 219.342 215.323C218.861 216.291 218.245 217.572 216.731 217.488Z" fill="#6231D1"/>
<path d="M233.605 176.984C234.876 176.269 235.769 177.093 236.827 177.436C238.018 177.823 238.376 178.707 238.827 179.724C239.368 180.961 239.036 181.919 238.48 182.961C237.661 184.495 237.705 184.52 235.874 185.15C234.876 185.96 233.888 185.15 232.84 184.758C231.609 184.311 231.227 183.393 230.691 182.311" fill="#6231D1"/>
<path d="M185.993 240.621C185.464 240.785 184.908 240.843 184.356 240.792C183.805 240.741 183.269 240.582 182.779 240.324C182.289 240.066 181.854 239.714 181.5 239.288C181.146 238.862 180.88 238.37 180.716 237.841C180.552 237.312 180.494 236.756 180.545 236.204C180.596 235.653 180.755 235.117 181.013 234.627C181.271 234.137 181.623 233.702 182.049 233.348C182.475 232.995 182.967 232.728 183.496 232.564C184.539 232.292 185.647 232.417 186.604 232.913C187.561 233.41 188.3 234.245 188.678 235.255C189.021 236.323 188.932 237.483 188.43 238.486C187.928 239.489 187.053 240.255 185.993 240.621Z" fill="#6231D1"/>
<path d="M244.6 141.981C243.546 142.351 242.39 142.295 241.376 141.826C240.362 141.357 239.571 140.512 239.17 139.469C238.779 138.421 238.821 137.26 239.287 136.242C239.752 135.225 240.603 134.434 241.652 134.044C242.7 133.653 243.861 133.695 244.879 134.161C245.896 134.626 246.687 135.477 247.078 136.526C247.456 137.579 247.409 138.738 246.947 139.757C246.484 140.775 245.642 141.574 244.6 141.981Z" fill="#6231D1"/>
<path d="M226.784 206.641C226.257 206.811 225.702 206.876 225.15 206.831C224.598 206.787 224.061 206.634 223.568 206.382C223.075 206.13 222.637 205.783 222.278 205.362C221.919 204.94 221.647 204.452 221.477 203.925C221.307 203.399 221.242 202.844 221.286 202.292C221.331 201.74 221.483 201.202 221.736 200.71C221.988 200.217 222.334 199.779 222.756 199.42C223.178 199.061 223.666 198.789 224.192 198.619C225.232 198.333 226.34 198.442 227.303 198.927C228.266 199.411 229.015 200.235 229.405 201.24C229.756 202.304 229.678 203.463 229.189 204.472C228.7 205.48 227.837 206.258 226.784 206.641Z" fill="#6231D1"/>
<path d="M239.869 150.068C239.596 149.284 239.561 148.437 239.768 147.632C239.975 146.828 240.415 146.103 241.033 145.548C241.651 144.993 242.419 144.633 243.241 144.514C244.063 144.395 244.902 144.521 245.652 144.877C246.403 145.233 247.031 145.802 247.459 146.515C247.886 147.227 248.094 148.049 248.055 148.879C248.016 149.708 247.733 150.508 247.241 151.177C246.749 151.846 246.071 152.355 245.29 152.64C244.23 153.001 243.07 152.935 242.058 152.455C241.045 151.974 240.26 151.118 239.869 150.068Z" fill="#6231D1"/>
<path d="M206.838 228.92C206.053 229.193 205.206 229.229 204.401 229.022C203.597 228.815 202.872 228.374 202.317 227.756C201.762 227.138 201.403 226.37 201.283 225.548C201.164 224.726 201.29 223.887 201.646 223.137C202.002 222.387 202.572 221.758 203.284 221.331C203.996 220.903 204.818 220.696 205.648 220.735C206.478 220.773 207.277 221.056 207.947 221.548C208.616 222.04 209.125 222.719 209.409 223.499C209.769 224.56 209.701 225.719 209.221 226.73C208.741 227.742 207.886 228.528 206.838 228.92Z" fill="#6231D1"/>
<path d="M236.707 195.248C236.175 195.432 235.612 195.509 235.051 195.472C234.489 195.436 233.94 195.287 233.437 195.035C232.934 194.783 232.486 194.432 232.121 194.004C231.755 193.576 231.479 193.079 231.309 192.543C231.139 192.006 231.078 191.441 231.13 190.881C231.182 190.32 231.345 189.776 231.611 189.28C231.877 188.784 232.24 188.346 232.677 187.992C233.115 187.638 233.62 187.376 234.16 187.22C235.201 186.94 236.308 187.055 237.268 187.544C238.228 188.033 238.973 188.86 239.358 189.866C239.705 190.932 239.622 192.091 239.127 193.096C238.632 194.102 237.763 194.874 236.707 195.248Z" fill="#6231D1"/>
<path d="M240.004 160.429C239.731 159.644 239.696 158.796 239.904 157.992C240.112 157.188 240.553 156.463 241.171 155.908C241.79 155.354 242.559 154.995 243.381 154.876C244.203 154.758 245.042 154.885 245.792 155.242C246.542 155.599 247.17 156.169 247.597 156.882C248.023 157.595 248.23 158.418 248.19 159.247C248.15 160.077 247.866 160.876 247.373 161.545C246.88 162.214 246.2 162.722 245.42 163.005C244.359 163.365 243.2 163.297 242.189 162.816C241.178 162.335 240.394 161.478 240.004 160.429Z" fill="#6231D1"/>
<path d="M122.862 244.23C122.334 244.406 121.776 244.477 121.221 244.436C120.665 244.396 120.123 244.246 119.626 243.995C119.129 243.743 118.686 243.396 118.325 242.973C117.963 242.549 117.688 242.058 117.517 241.528C117.346 240.998 117.282 240.44 117.328 239.884C117.375 239.329 117.531 238.789 117.787 238.295C118.044 237.8 118.396 237.362 118.823 237.004C119.25 236.647 119.744 236.378 120.276 236.213C121.335 235.883 122.482 235.985 123.466 236.496C124.451 237.007 125.194 237.886 125.535 238.942C125.875 239.998 125.786 241.145 125.285 242.135C124.785 243.125 123.914 243.878 122.862 244.23Z" fill="#6231D1"/>
<path d="M196.805 240.343C195.737 240.672 194.582 240.564 193.595 240.042C192.607 239.519 191.867 238.626 191.538 237.558C191.209 236.491 191.317 235.336 191.84 234.348C192.362 233.36 193.255 232.62 194.323 232.291C195.365 232.017 196.473 232.139 197.43 232.635C198.387 233.13 199.127 233.963 199.506 234.972C199.851 236.043 199.762 237.206 199.256 238.211C198.751 239.216 197.87 239.982 196.805 240.343Z" fill="#6231D1"/>
<path d="M217.6 228.176C215.262 228.915 212.68 227.605 212.06 225.515C211.439 223.425 212.72 220.705 214.87 220.243C215.901 219.929 217.013 220.027 217.973 220.517C218.934 221.007 219.666 221.85 220.018 222.869C220.369 223.92 220.292 225.067 219.804 226.061C219.293 227.178 218.295 227.62 217.6 228.176Z" fill="#6231D1"/>
<path d="M112.448 237.082C113.694 237.543 114.15 238.635 114.93 239.564C114.87 240.676 115.257 241.768 114.602 242.82C113.99 243.724 113.17 244.466 112.209 244.985C111.178 245.286 110.072 245.199 109.1 244.741C108.128 244.283 107.357 243.485 106.932 242.498" fill="#6231D1"/>
<path d="M149.764 250.172C149.198 248.375 150.752 245.342 152.494 244.831C154.237 244.319 157.349 245.933 157.806 247.64C158.263 249.348 156.788 252.262 155.14 252.838C153.373 253.444 150.315 251.935 149.764 250.172Z" fill="#6231D1"/>
<path d="M166.056 252.515C164.373 253.205 161.271 251.77 160.596 250.033C159.975 248.42 161.301 245.446 162.959 244.691C164.617 243.937 167.744 245.317 168.479 247.054C169.214 248.792 167.829 251.835 166.056 252.515Z" fill="#6231D1"/>
<path d="M246.154 173.648C244.441 174.309 241.368 172.834 240.748 171.112C240.127 169.389 241.503 166.515 243.166 165.795C244.829 165.075 247.946 166.465 248.676 168.227C249.406 169.99 247.911 172.973 246.154 173.648Z" fill="#6231D1"/>
<path d="M222.153 214.628C221.592 212.826 223.145 209.793 224.888 209.282C226.63 208.77 229.743 210.384 230.19 212.091C230.637 213.799 229.182 216.713 227.534 217.289C225.767 217.895 222.709 216.386 222.153 214.628Z" fill="#6231D1"/>
<path d="M147.113 248.127C147.053 249.179 147.222 250.361 146.8 251.269C146.593 251.772 146.283 252.226 145.89 252.602C145.498 252.978 145.031 253.268 144.519 253.453C144.008 253.638 143.464 253.715 142.921 253.677C142.379 253.639 141.85 253.489 141.369 253.235C140.405 252.736 139.644 251.919 139.215 250.922C138.899 249.96 138.956 248.915 139.373 247.993C139.837 247.009 140.628 246.217 141.612 245.754C142.644 245.415 143.763 245.459 144.765 245.878C145.668 246.275 146.304 247.318 147.113 248.127Z" fill="#6231D1"/>
<path d="M202.102 236.972C202.226 235.855 202.082 234.659 202.548 233.766C202.929 233.054 203.51 232.469 204.22 232.085C204.93 231.7 205.737 231.533 206.542 231.603C207.346 231.673 208.112 231.978 208.744 232.48C209.377 232.982 209.848 233.659 210.099 234.426C210.337 235.486 210.202 236.596 209.717 237.568C209.246 238.466 208.459 239.158 207.508 239.509C206.458 239.786 205.345 239.693 204.355 239.246C203.452 238.809 202.841 237.762 202.102 236.972Z" fill="#6231D1"/>
<path d="M170.728 249.403C170.832 248.305 170.683 247.104 171.13 246.21C171.633 245.248 172.464 244.498 173.473 244.096C174.52 243.808 175.636 243.914 176.61 244.394C177.561 244.915 178.302 245.75 178.705 246.757C178.99 247.731 178.904 248.776 178.462 249.69C177.978 250.662 177.168 251.433 176.174 251.87C175.13 252.195 174.004 252.128 173.006 251.681C172.123 251.234 171.487 250.162 170.728 249.403Z" fill="#6231D1"/>
<path d="M237.442 205.971C236.345 205.866 235.153 206.005 234.26 205.549C233.77 205.321 233.332 204.994 232.974 204.59C232.617 204.185 232.347 203.71 232.181 203.196C232.016 202.682 231.958 202.139 232.013 201.602C232.067 201.064 232.232 200.544 232.497 200.073C233.027 199.126 233.869 198.393 234.88 197.998C235.856 197.721 236.9 197.816 237.809 198.266C238.785 198.741 239.55 199.559 239.959 200.564C240.222 201.493 240.415 202.798 239.78 203.722C239.078 204.548 238.294 205.301 237.442 205.971Z" fill="#6231D1"/>
<path d="M241.86 181.368C241.175 180.484 241.622 179.62 241.97 178.638C242.396 177.387 243.409 177.198 244.357 176.726C245.306 176.255 246.194 176.577 247.177 176.885C248.478 177.322 248.597 178.355 249.058 179.313C249.52 180.271 249.202 181.154 248.82 182.142C248.368 183.22 247.559 183.542 246.611 183.905C246.154 184.094 245.661 184.182 245.166 184.162C244.672 184.142 244.187 184.016 243.747 183.79C243.248 183.586 242.812 183.255 242.481 182.83C242.15 182.405 241.936 181.901 241.86 181.368Z" fill="#6231D1"/>
<path d="M227.31 227.232C226.426 227.917 225.563 227.471 224.585 227.128C223.324 226.701 223.115 225.718 222.664 224.74C222.212 223.762 222.515 222.903 222.822 221.921C223.259 220.62 224.297 220.506 225.255 220.044C226.213 219.582 227.092 219.895 228.08 220.277C229.157 220.729 229.484 221.533 229.842 222.486C230.034 222.943 230.123 223.436 230.103 223.931C230.083 224.426 229.955 224.911 229.728 225.351C229.526 225.849 229.196 226.285 228.771 226.616C228.347 226.946 227.843 227.159 227.31 227.232Z" fill="#6231D1"/>
<path d="M192.506 247.571C191.821 246.687 192.268 245.824 192.615 244.841C193.037 243.585 194.025 243.371 194.998 242.925C195.971 242.478 196.84 242.781 197.818 243.083C199.118 243.52 199.237 244.563 199.694 245.516C200.151 246.469 199.843 247.353 199.461 248.341C199.009 249.418 198.2 249.741 197.252 250.103C196.8 250.293 196.312 250.384 195.822 250.369C195.332 250.353 194.851 250.232 194.412 250.014C193.906 249.813 193.462 249.481 193.127 249.051C192.792 248.622 192.578 248.111 192.506 247.571Z" fill="#6231D1"/>
<path d="M188.907 246.017C189.165 246.444 189.305 246.932 189.312 247.431C189.319 247.931 189.193 248.422 188.946 248.857C188.736 249.344 188.418 249.777 188.017 250.123C187.615 250.47 187.14 250.721 186.628 250.857C186.173 251.036 185.686 251.121 185.197 251.107C184.708 251.092 184.227 250.979 183.783 250.773C183.303 250.551 182.878 250.225 182.539 249.818C182.201 249.411 181.958 248.933 181.828 248.42C181.658 247.964 181.583 247.479 181.606 246.994C181.63 246.508 181.751 246.032 181.964 245.595C182.176 245.158 182.475 244.769 182.843 244.45C183.21 244.132 183.638 243.892 184.101 243.743C184.584 243.518 185.113 243.408 185.646 243.424C186.178 243.439 186.7 243.579 187.169 243.833C188.112 244.369 188.817 244.915 188.907 246.017Z" fill="#6231D1"/>
<path d="M135.943 249.05C136.204 249.478 136.347 249.967 136.356 250.468C136.365 250.969 136.239 251.464 135.992 251.9C135.782 252.387 135.464 252.82 135.063 253.166C134.661 253.513 134.186 253.764 133.674 253.901C133.219 254.078 132.732 254.163 132.243 254.148C131.754 254.134 131.274 254.021 130.829 253.816C130.349 253.594 129.924 253.268 129.585 252.861C129.247 252.454 129.004 251.976 128.874 251.463C128.705 251.007 128.631 250.522 128.655 250.037C128.679 249.552 128.8 249.077 129.013 248.64C129.225 248.203 129.524 247.814 129.891 247.495C130.257 247.177 130.685 246.936 131.147 246.787C131.63 246.562 132.159 246.453 132.692 246.469C133.224 246.484 133.746 246.624 134.215 246.876C135.158 247.402 135.853 247.948 135.943 249.05Z" fill="#6231D1"/>
<path d="M255.269 104.516C255.465 104.981 255.561 105.481 255.55 105.985C255.539 106.489 255.421 106.984 255.205 107.44C254.989 107.895 254.679 108.299 254.296 108.626C253.912 108.953 253.464 109.195 252.98 109.337" fill="#6231D1"/>
<path d="M219.899 233.81C220.142 234.508 220.174 235.263 219.99 235.979C219.806 236.695 219.414 237.34 218.864 237.834C218.313 238.328 217.629 238.649 216.898 238.755C216.166 238.861 215.419 238.749 214.751 238.431C214.083 238.114 213.524 237.607 213.144 236.973C212.763 236.338 212.579 235.606 212.614 234.867C212.649 234.129 212.902 233.417 213.34 232.822C213.779 232.226 214.383 231.774 215.078 231.521C215.543 231.326 216.043 231.232 216.546 231.243C217.05 231.255 217.545 231.372 218 231.588C218.455 231.804 218.859 232.114 219.186 232.497C219.513 232.879 219.756 233.327 219.899 233.81Z" fill="#6231D1"/>
<path d="M118.712 252.084C118.48 251.385 118.46 250.635 118.652 249.925C118.845 249.215 119.243 248.577 119.796 248.092C120.349 247.607 121.032 247.296 121.761 247.197C122.49 247.098 123.232 247.217 123.894 247.537C124.556 247.858 125.109 248.366 125.484 248.999C125.858 249.632 126.038 250.361 126.001 251.096C125.963 251.831 125.71 252.538 125.273 253.129C124.835 253.721 124.234 254.17 123.542 254.422C123.074 254.618 122.57 254.712 122.063 254.698C121.555 254.684 121.057 254.563 120.6 254.342C120.143 254.12 119.739 253.805 119.413 253.416C119.088 253.026 118.849 252.572 118.712 252.084Z" fill="#6231D1"/>
<path d="M232.855 214.052C232.086 211.913 233.034 210.061 235.084 209.172C236 208.863 236.999 208.91 237.882 209.303C238.765 209.697 239.468 210.409 239.85 211.297C240.569 213.496 239.785 215.472 237.74 216.217C235.565 217.011 233.615 216.142 232.855 214.052Z" fill="#6231D1"/>
<path d="M255.954 162.32C255.484 162.505 254.98 162.587 254.475 162.562C253.971 162.536 253.477 162.404 253.028 162.173C252.579 161.941 252.184 161.617 251.87 161.221C251.557 160.826 251.331 160.367 251.208 159.878C250.513 157.783 251.526 155.886 253.725 155.166C254.676 154.874 255.705 154.97 256.584 155.436C257.464 155.901 258.123 156.697 258.416 157.649C258.709 158.6 258.612 159.628 258.147 160.508C257.681 161.388 256.885 162.047 255.934 162.34L255.954 162.32Z" fill="#6231D1"/>
<path d="M250.513 149.294C250.327 148.824 250.244 148.319 250.268 147.815C250.293 147.31 250.425 146.816 250.656 146.366C250.887 145.917 251.211 145.521 251.606 145.207C252.002 144.893 252.46 144.666 252.95 144.543C255.045 143.848 256.942 144.861 257.661 147.06C257.806 147.531 257.857 148.026 257.811 148.516C257.765 149.007 257.622 149.484 257.392 149.919C257.161 150.355 256.847 150.741 256.468 151.055C256.088 151.369 255.65 151.606 255.179 151.751C254.708 151.896 254.213 151.947 253.723 151.901C253.232 151.854 252.755 151.712 252.32 151.481C251.884 151.251 251.498 150.937 251.184 150.557C250.869 150.178 250.633 149.74 250.488 149.269L250.513 149.294Z" fill="#6231D1"/>
<path d="M203.338 247.492C203.095 246.793 203.065 246.039 203.25 245.324C203.435 244.608 203.827 243.963 204.378 243.47C204.928 242.977 205.612 242.658 206.344 242.552C207.075 242.447 207.821 242.559 208.489 242.877C209.156 243.194 209.715 243.701 210.095 244.335C210.475 244.969 210.659 245.701 210.624 246.439C210.589 247.177 210.337 247.889 209.899 248.484C209.461 249.079 208.857 249.532 208.163 249.785C207.698 249.981 207.197 250.076 206.693 250.065C206.188 250.053 205.692 249.935 205.237 249.719C204.781 249.502 204.376 249.192 204.049 248.808C203.722 248.424 203.479 247.976 203.338 247.492Z" fill="#6231D1"/>
<path d="M254.996 140.84C254.529 140.994 254.036 141.054 253.546 141.018C253.056 140.981 252.578 140.849 252.139 140.627C251.7 140.406 251.309 140.101 250.988 139.728C250.668 139.356 250.423 138.924 250.27 138.457C250.116 137.99 250.055 137.498 250.092 137.008C250.128 136.518 250.261 136.04 250.482 135.601C250.703 135.162 251.009 134.771 251.381 134.45C251.754 134.129 252.186 133.885 252.652 133.731C253.107 133.553 253.594 133.472 254.082 133.493C254.57 133.515 255.048 133.637 255.486 133.853C255.923 134.07 256.311 134.375 256.624 134.75C256.937 135.124 257.169 135.56 257.304 136.03C257.497 136.495 257.59 136.995 257.576 137.499C257.562 138.002 257.443 138.497 257.225 138.951C257.007 139.405 256.696 139.808 256.312 140.133C255.928 140.459 255.479 140.7 254.996 140.84Z" fill="#6231D1"/>
<path d="M247.296 194.568C245.187 195.268 243.295 194.27 242.57 192.076C241.885 190.011 242.953 188.169 245.122 187.37C246.057 187.119 247.051 187.23 247.908 187.68C248.764 188.129 249.42 188.886 249.744 189.797C250.305 191.967 249.451 193.843 247.296 194.568Z" fill="#6231D1"/>
<path d="M249.54 127.958C249.217 127.04 249.263 126.032 249.67 125.147C250.076 124.263 250.811 123.572 251.718 123.219C252.625 122.866 253.634 122.88 254.531 123.258C255.428 123.635 256.143 124.347 256.525 125.242C257.324 127.422 256.465 129.402 254.405 130.152C252.345 130.901 250.294 130.062 249.54 127.958Z" fill="#6231D1"/>
<path d="M251.302 112.891C252.004 112.658 252.759 112.638 253.472 112.834C254.185 113.029 254.824 113.431 255.309 113.989C255.795 114.546 256.104 115.235 256.199 115.968C256.294 116.702 256.17 117.446 255.843 118.109C255.516 118.772 254.999 119.324 254.36 119.694C253.72 120.064 252.985 120.237 252.247 120.191C251.509 120.145 250.801 119.881 250.213 119.434C249.624 118.987 249.181 118.375 248.939 117.676" fill="#6231D1"/>
<path d="M163.504 255.375C164.489 255.103 165.54 255.218 166.442 255.697C167.344 256.177 168.028 256.983 168.354 257.951C168.86 259.56 167.5 261.784 165.862 262.528C165.407 262.695 164.92 262.752 164.439 262.697C163.959 262.642 163.497 262.475 163.092 262.211C162.616 262.003 162.189 261.699 161.838 261.316C161.486 260.934 161.219 260.483 161.052 259.992C160.709 258.894 161.533 258.12 161.335 257.167C162.208 256.7 162.303 255.186 163.504 255.375Z" fill="#6231D1"/>
<path d="M112.775 254.665C111.833 254.961 110.814 254.896 109.917 254.482C109.021 254.068 108.31 253.335 107.925 252.426C107.685 251.513 107.76 250.545 108.136 249.679C108.512 248.813 109.169 248.099 110 247.65C110.477 247.44 110.997 247.345 111.518 247.373C112.039 247.4 112.546 247.55 112.998 247.809C113.458 247.969 113.875 248.23 114.219 248.574C114.563 248.918 114.825 249.335 114.984 249.795C115.48 251.642 114.522 254.039 112.775 254.665Z" fill="#6231D1"/>
<path d="M247.5 205.048C246.487 204.918 245.365 205.038 244.531 204.601C243.718 204.114 243.106 203.351 242.808 202.451C242.652 202.009 242.586 201.54 242.614 201.072C242.643 200.604 242.764 200.146 242.972 199.726C243.493 198.966 244.099 197.874 245.226 197.78C246.139 197.7 247.311 197.561 247.961 198.023C248.8 198.492 249.467 199.217 249.863 200.093C250.111 201.095 250.017 202.15 249.594 203.092C249.307 203.876 248.259 204.377 247.5 205.048Z" fill="#6231D1"/>
<path d="M155.716 263.184C154.703 263.104 153.576 263.337 152.896 262.876C152.122 262.359 151.059 261.734 150.93 260.632C150.836 259.733 150.687 258.542 151.154 257.877C151.68 257.122 152.295 256.04 153.422 255.946C154.336 255.866 155.492 255.752 156.153 256.194C156.995 256.661 157.658 257.394 158.039 258.279C158.283 259.28 158.183 260.334 157.756 261.272C157.523 262.012 156.45 262.538 155.716 263.184Z" fill="#6231D1"/>
<path d="M176.714 262.339C175.702 262.21 174.575 262.325 173.746 261.893C172.932 261.406 172.321 260.643 172.023 259.743C171.868 259.3 171.802 258.831 171.829 258.362C171.857 257.893 171.976 257.435 172.182 257.013C172.708 256.258 173.314 255.166 174.441 255.072C175.354 254.992 176.526 254.853 177.176 255.315C178.015 255.784 178.681 256.51 179.077 257.385C179.324 258.385 179.228 259.44 178.804 260.379C178.521 261.168 177.469 261.664 176.714 262.339Z" fill="#6231D1"/>
<path d="M251.665 170.272C251.759 169.185 251.561 167.964 252.077 167.259C252.593 166.554 253.109 165.532 254.172 165.442C255.092 165.268 256.041 165.321 256.937 165.596C257.745 166.101 258.406 166.81 258.853 167.651C259.469 168.604 258.972 169.756 258.704 170.63C258.501 171.052 258.216 171.43 257.864 171.74C257.513 172.051 257.103 172.287 256.659 172.437C255.77 172.763 254.793 172.756 253.909 172.417C253.02 172.005 252.424 171.042 251.665 170.272Z" fill="#6231D1"/>
<path d="M235.888 219.836C237.447 219.32 240.187 220.7 240.654 222.239C241.121 223.778 239.721 226.587 238.177 226.95C237.26 227.083 236.325 226.933 235.497 226.518C234.669 226.104 233.988 225.445 233.545 224.631C232.945 223.256 234.409 220.233 235.888 219.836Z" fill="#6231D1"/>
<path d="M187.447 261.436C186.235 262.052 183.153 260.766 182.611 259.163C182.155 257.713 183.326 255.052 184.746 254.447C186.166 253.841 189.025 255.042 189.646 256.576C190.266 258.11 188.981 260.845 187.447 261.436Z" fill="#6231D1"/>
<path d="M142.669 256.67C144.228 256.174 146.968 257.584 147.415 259.113C147.862 260.642 146.437 263.407 144.898 263.824C143.359 264.241 140.813 262.876 140.306 261.466C139.731 259.917 141.299 256.968 142.669 256.67Z" fill="#6231D1"/>
<path d="M223.483 235.577C222.862 234.212 224.297 231.229 225.796 230.762C227.161 230.34 229.713 231.303 230.482 232.946C231.157 234.386 229.862 237.211 228.328 237.821C226.794 238.432 224.048 237.116 223.483 235.577Z" fill="#6231D1"/>
<path d="M218.201 249.219C217.298 249.08 216.285 249.289 215.297 248.738C214.448 248.266 214.24 247.343 213.525 246.846C213.773 245.784 213.341 244.568 214.22 243.669C214.771 243.118 215.401 242.2 215.987 242.21C216.871 242.219 217.819 242.056 218.787 242.567C219.755 243.078 219.924 243.892 220.564 244.483C220.822 244.741 220.624 245.595 220.634 246.151C220.535 246.911 220.209 247.624 219.7 248.196C219.259 248.616 218.753 248.962 218.201 249.219Z" fill="#6231D1"/>
<path d="M252.509 180.866C252.777 179.735 252.32 178.513 253.214 177.6C253.769 177.044 254.355 176.17 254.981 176.121C256.038 176.056 257.259 175.897 258.148 176.756C258.704 177.312 259.578 177.938 259.598 178.553C259.753 179.582 259.572 180.634 259.081 181.552C258.6 182.291 257.652 182.356 257.319 183.145C256.326 182.966 255.303 183.175 254.316 182.673C253.412 182.227 253.357 181.199 252.509 180.866Z" fill="#6231D1"/>
<path d="M193.24 258.472C193.305 257.733 193.33 256.943 193.444 256.164C193.623 254.923 194.715 254.337 195.574 253.736C196.04 253.409 196.974 253.657 197.669 253.776C198.86 253.975 199.595 254.938 200.21 255.802C200.548 256.288 200.399 257.211 200.315 257.892C200.126 259.172 199.108 259.981 198.155 260.597C197.614 260.94 196.621 260.652 195.842 260.547C194.581 260.408 194.159 259.182 193.24 258.472Z" fill="#6231D1"/>
<path d="M136.419 260.279C137.268 261.317 136.539 262.384 135.854 263.268C135.456 263.794 134.483 263.883 133.823 264.216C133.483 264.387 133.104 264.468 132.723 264.45C132.342 264.433 131.972 264.318 131.649 264.117C131.291 263.988 130.973 263.77 130.725 263.482C130.477 263.194 130.308 262.846 130.234 262.473C130.168 262.09 130.037 261.721 129.847 261.381C129.41 260.657 129.752 260.066 130.05 259.44C130.348 258.815 130.616 258.189 131.43 258.06C131.816 257.999 132.187 257.87 132.527 257.678C132.867 257.507 133.246 257.426 133.626 257.444C134.006 257.463 134.375 257.579 134.697 257.782C135.056 257.907 135.377 258.125 135.625 258.414C135.874 258.702 136.041 259.051 136.112 259.425C136.197 259.716 136.3 260.001 136.419 260.279Z" fill="#6231D1"/>
<path d="M250.131 210.994C250.9 213.203 250.3 214.34 248.006 215.105C245.713 215.869 244.66 215.273 243.896 212.98C243.131 210.686 243.727 209.634 246.02 208.869C248.314 208.105 249.347 208.72 250.131 210.994Z" fill="#6231D1"/>
<path d="M208.054 259.733C205.992 260.431 204.608 259.743 203.903 257.668C203.199 255.593 203.884 254.21 205.959 253.518C208.021 252.82 209.406 253.506 210.114 255.578C210.822 257.65 210.135 259.035 208.054 259.733Z" fill="#6231D1"/>
<path d="M123.462 264.33C121.834 265.194 119.814 264.008 119.233 262.335C118.942 261.499 118.995 260.581 119.38 259.784C119.766 258.988 120.452 258.376 121.288 258.085C122.124 257.794 123.042 257.847 123.839 258.233C124.635 258.618 125.247 259.305 125.538 260.141C126.138 261.863 125.22 264.023 123.462 264.33Z" fill="#6231D1"/>
<path d="M253.273 191.5C252.548 189.425 253.208 188.05 255.288 187.33C257.368 186.61 258.738 187.265 259.458 189.345C260.178 191.425 259.518 192.8 257.443 193.515C255.368 194.23 253.993 193.58 253.273 191.5Z" fill="#6231D1"/>
<path d="M238.767 236.675C236.706 237.413 235.307 236.752 234.573 234.694C233.838 232.635 234.5 231.239 236.558 230.504C238.62 229.766 240.015 230.426 240.743 232.485C241.471 234.543 240.813 235.94 238.767 236.675Z" fill="#6231D1"/>
<path d="M230.904 244.111C231.569 245.848 230.527 247.626 228.601 248.172C228.18 248.285 227.74 248.314 227.308 248.258C226.875 248.202 226.458 248.061 226.08 247.843C225.702 247.626 225.371 247.336 225.105 246.99C224.839 246.644 224.643 246.25 224.53 245.829C224.417 245.407 224.387 244.968 224.444 244.536C224.5 244.103 224.641 243.686 224.859 243.308C225.076 242.93 225.366 242.598 225.712 242.332C226.057 242.067 226.452 241.871 226.873 241.758C227.292 241.616 227.737 241.566 228.177 241.611C228.617 241.656 229.042 241.795 229.424 242.018C229.806 242.241 230.135 242.543 230.391 242.904C230.646 243.265 230.821 243.676 230.904 244.111Z" fill="#6231D1"/>
<path d="M253.953 202.039C253.407 201.364 253.764 200.609 254.181 199.825C254.598 199.04 254.851 198.162 256.003 197.923C256.354 197.794 256.729 197.743 257.102 197.773C257.475 197.803 257.837 197.914 258.163 198.097C258.912 198.579 259.875 198.688 260.153 199.83C260.357 200.679 260.58 201.388 260.039 202.227C259.498 203.066 259.384 203.876 258.272 204.163C257.417 204.403 256.503 204.318 255.706 203.926C254.91 203.534 254.285 202.862 253.953 202.039Z" fill="#6231D1"/>
<path d="M177.032 271.99C176.362 272.541 175.607 272.174 174.818 271.762C174.029 271.35 173.16 271.097 172.917 269.95C172.788 269.598 172.737 269.222 172.768 268.848C172.798 268.474 172.91 268.112 173.095 267.786C173.572 267.041 173.686 266.073 174.823 265.8C175.672 265.596 176.382 265.373 177.221 265.914C178.06 266.455 178.869 266.569 179.162 267.676C179.399 268.531 179.314 269.444 178.921 270.24C178.528 271.036 177.855 271.659 177.032 271.99Z" fill="#6231D1"/>
<path d="M250.761 221.375C251.039 222.238 250.982 223.173 250.604 223.997C250.225 224.82 249.552 225.472 248.716 225.823C247.673 226.26 246.979 225.664 246.145 225.416C245.311 225.168 244.938 224.398 244.571 223.604C244.079 222.536 244.789 221.837 245.057 221.012C245.2 220.664 245.418 220.352 245.695 220.097C245.972 219.842 246.302 219.651 246.661 219.538C247.708 219.027 248.433 219.523 249.267 219.91C250.101 220.298 250.895 220.516 250.761 221.375Z" fill="#6231D1"/>
<path d="M220.663 254.601C220.94 255.463 220.883 256.399 220.503 257.222C220.124 258.044 219.449 258.695 218.612 259.044C217.57 259.48 216.88 258.89 216.041 258.637C215.202 258.383 214.84 257.624 214.467 256.825C213.981 255.762 214.686 255.057 214.954 254.233C215.098 253.886 215.317 253.574 215.593 253.32C215.87 253.065 216.199 252.874 216.557 252.759C217.605 252.248 218.329 252.744 219.163 253.131C219.997 253.518 220.817 253.762 220.663 254.601Z" fill="#6231D1"/>
<path d="M168.499 268.59C169.233 269.583 168.429 270.327 168.166 271.176C167.903 272.025 167.173 272.397 166.369 272.765C165.302 273.256 164.617 272.532 163.773 272.303C162.78 272.025 162.606 271.236 162.229 270.471C161.708 269.404 162.467 268.724 162.74 267.885C163.013 267.046 163.629 266.788 164.363 266.43C165.416 265.924 166.121 266.5 166.96 266.813C167.799 267.125 168.464 267.612 168.499 268.59Z" fill="#6231D1"/>
<path d="M265.083 139.777C264.299 140.383 263.534 140.095 262.755 139.643C261.975 139.191 261.097 138.978 260.844 137.841C260.665 137.027 260.531 136.387 261.017 135.682C261.504 134.977 261.598 133.959 262.74 133.691C263.559 133.517 264.304 133.2 265.138 133.785C265.857 134.297 266.786 134.441 267.098 135.538C267.258 135.923 267.328 136.339 267.301 136.755C267.274 137.17 267.152 137.574 266.945 137.936C266.438 138.67 266.299 139.713 265.083 139.777Z" fill="#6231D1"/>
<path d="M263.42 108.19C263.004 108.331 262.565 108.387 262.127 108.356C261.69 108.324 261.263 108.205 260.872 108.005C260.482 107.806 260.135 107.53 259.853 107.194C259.571 106.858 259.359 106.469 259.23 106.049C259.101 105.63 259.058 105.189 259.103 104.752C259.147 104.316 259.279 103.893 259.49 103.508C259.701 103.124 259.987 102.785 260.331 102.513C260.675 102.241 261.071 102.041 261.494 101.925C262.296 101.775 263.126 101.899 263.851 102.274C264.576 102.65 265.154 103.258 265.495 104C266.061 105.708 264.691 107.842 263.42 108.19Z" fill="#6231D1"/>
<path d="M157.865 269.304C158.053 270.139 157.939 271.013 157.543 271.772C157.148 272.53 156.497 273.125 155.706 273.449C154.867 273.623 153.994 273.496 153.24 273.089C152.486 272.682 151.9 272.022 151.585 271.225C151.439 270.422 151.565 269.592 151.942 268.868C152.32 268.143 152.928 267.565 153.67 267.224C155.388 266.648 157.542 267.989 157.865 269.304Z" fill="#6231D1"/>
<path d="M266.255 114.738C266.436 115.576 266.314 116.451 265.911 117.207C265.509 117.964 264.851 118.554 264.056 118.873C262.507 119.31 260.332 118.128 259.965 116.599C259.829 115.794 259.964 114.967 260.348 114.246C260.733 113.526 261.345 112.953 262.09 112.618C262.922 112.426 263.796 112.533 264.558 112.92C265.319 113.308 265.92 113.951 266.255 114.738Z" fill="#6231D1"/>
<path d="M200.161 266.872C200.677 268.093 199.823 270.506 198.155 271.092C197.363 271.282 196.529 271.203 195.786 270.868C195.043 270.532 194.432 269.96 194.05 269.24C193.878 268.836 193.789 268.401 193.789 267.961C193.788 267.522 193.876 267.087 194.047 266.682C194.218 266.277 194.468 265.911 194.784 265.605C195.099 265.299 195.473 265.059 195.882 264.9C196.292 264.741 196.73 264.667 197.169 264.68C197.608 264.694 198.04 264.796 198.439 264.98C198.839 265.164 199.197 265.426 199.492 265.751C199.788 266.076 200.015 266.457 200.161 266.872Z" fill="#6231D1"/>
<path d="M267.823 146.37C267.964 146.785 268.021 147.224 267.989 147.662C267.958 148.1 267.838 148.526 267.639 148.917C267.439 149.308 267.163 149.654 266.827 149.936C266.491 150.218 266.102 150.43 265.683 150.559C265.263 150.688 264.822 150.732 264.386 150.687C263.95 150.642 263.527 150.511 263.142 150.3C262.757 150.089 262.419 149.802 262.147 149.458C261.875 149.114 261.675 148.719 261.558 148.296C261.413 147.493 261.537 146.665 261.913 145.941C262.288 145.217 262.894 144.638 263.633 144.295C265.326 143.724 267.471 145.084 267.823 146.37Z" fill="#6231D1"/>
<path d="M113.157 264.936C112.321 265.115 111.448 264.993 110.693 264.591C109.937 264.188 109.349 263.531 109.032 262.737C108.59 261.193 109.777 259.013 111.306 258.646C112.111 258.513 112.937 258.649 113.657 259.033C114.377 259.417 114.95 260.028 115.287 260.771C115.48 261.605 115.372 262.48 114.983 263.242C114.593 264.004 113.946 264.604 113.157 264.936Z" fill="#6231D1"/>
<path d="M268.528 156.964C268.717 157.794 268.614 158.665 268.236 159.428C267.858 160.191 267.228 160.801 266.453 161.154C264.914 161.601 262.74 160.508 262.303 158.989C262.08 158.177 262.178 157.311 262.577 156.569C262.976 155.828 263.645 155.268 264.446 155.006C265.246 154.745 266.116 154.801 266.876 155.164C267.636 155.526 268.228 156.167 268.528 156.954L268.528 156.964Z" fill="#6231D1"/>
<path d="M267.342 171.742C266.519 171.975 265.64 171.909 264.861 171.556C264.081 171.204 263.452 170.588 263.082 169.816C262.88 169.022 262.946 168.182 263.271 167.43C263.596 166.677 264.162 166.053 264.879 165.656C266.299 165.011 268.573 165.934 269.213 167.428C269.466 168.253 269.416 169.14 269.073 169.93C268.73 170.721 268.116 171.363 267.342 171.742Z" fill="#6231D1"/>
<path d="M141.448 271.901C141.26 271.066 141.374 270.192 141.77 269.434C142.165 268.675 142.816 268.081 143.607 267.756C144.442 267.584 145.311 267.71 146.062 268.114C146.812 268.518 147.397 269.173 147.713 269.965C147.859 270.766 147.735 271.593 147.36 272.317C146.986 273.04 146.381 273.618 145.643 273.961C143.93 274.542 141.795 273.162 141.448 271.901Z" fill="#6231D1"/>
<path d="M189.934 267.388C190.167 268.211 190.101 269.09 189.748 269.869C189.396 270.649 188.78 271.278 188.008 271.648C187.214 271.852 186.374 271.787 185.62 271.463C184.866 271.138 184.241 270.573 183.843 269.856C183.198 268.436 184.121 266.162 185.62 265.517C186.445 265.268 187.331 265.319 188.121 265.662C188.911 266.004 189.553 266.616 189.934 267.388Z" fill="#6231D1"/>
<path d="M264.949 129.467C263.762 129.948 261.32 129.124 260.749 127.411C260.569 126.62 260.657 125.791 260.998 125.054C261.339 124.318 261.915 123.715 262.635 123.341C263.039 123.185 263.471 123.111 263.904 123.122C264.337 123.134 264.763 123.231 265.159 123.409C265.554 123.587 265.91 123.841 266.206 124.157C266.503 124.473 266.734 124.845 266.886 125.25C267.037 125.656 267.107 126.088 267.091 126.521C267.075 126.954 266.974 127.38 266.792 127.773C266.611 128.167 266.353 128.52 266.034 128.813C265.715 129.107 265.341 129.334 264.934 129.482L264.949 129.467Z" fill="#6231D1"/>
<path d="M235.223 245.392C235.625 244.464 234.901 243.471 235.63 242.721C236.191 242.16 236.787 241.247 237.398 241.222C238.202 241.192 239.219 240.81 239.954 241.535C240.515 242.096 241.002 242.721 241.523 243.322C240.952 244.042 241.756 244.876 241.235 245.715C240.714 246.553 239.785 246.529 239.473 247.338C238.644 246.956 237.77 247.561 236.866 247.075C235.963 246.588 236.132 245.566 235.223 245.392Z" fill="#6231D1"/>
<path d="M258.883 214.395C258.049 214.325 257.255 214.296 256.465 214.181C255.443 214.032 255.338 212.856 254.574 212.399C254.877 211.63 254.44 210.845 254.713 210.016C255.05 209.014 256.192 209.014 256.565 208.165C257.324 208.587 258.113 208.026 258.957 208.333C259.801 208.641 259.806 209.788 260.665 210.041C260.63 210.83 260.625 211.63 260.566 212.414C260.511 213.491 259.166 213.447 258.883 214.395Z" fill="#6231D1"/>
<path d="M269.451 178.012C269.034 178.886 269.739 179.898 269.01 180.638C268.454 181.194 267.783 182.142 267.232 182.087C266.398 182.018 265.381 182.589 264.651 181.75C264.135 181.154 263.196 180.504 263.231 179.933C263.291 179.109 262.77 178.081 263.628 177.352C264.164 176.895 264.716 176.026 265.272 176.016C266.096 176.016 267.083 175.574 267.843 176.294C268.399 176.85 268.92 177.451 269.451 178.012Z" fill="#6231D1"/>
<path d="M208.729 270.397C207.882 270.35 207.046 270.183 206.247 269.9C205.527 269.547 204.97 268.93 204.693 268.178C204.574 267.318 204.749 266.444 205.189 265.696C205.559 264.985 206.175 264.432 206.922 264.142C207.712 263.979 208.534 264.099 209.245 264.479C209.964 264.833 210.528 265.439 210.829 266.182C211.004 267.037 210.89 267.926 210.506 268.709C210.114 269.429 209.314 269.861 208.729 270.397Z" fill="#6231D1"/>
<path d="M131.142 272.189C130.423 270.188 130.82 269.245 132.681 268.565C134.543 267.885 135.61 268.337 136.36 270.02C136.559 270.368 136.674 270.757 136.697 271.157C136.721 271.558 136.651 271.958 136.494 272.327C136.336 272.695 136.096 273.023 135.791 273.283C135.486 273.543 135.125 273.73 134.736 273.827C132.835 274.378 131.773 273.991 131.142 272.189Z" fill="#6231D1"/>
<path d="M225.801 256.511C225.632 256.17 225.543 255.795 225.54 255.414C225.537 255.033 225.62 254.657 225.784 254.313C225.947 253.969 226.186 253.666 226.483 253.428C226.78 253.19 227.128 253.022 227.499 252.937C229.519 252.376 230.378 252.838 231.187 254.818C231.329 255.17 231.392 255.549 231.371 255.927C231.351 256.306 231.247 256.675 231.068 257.009C230.889 257.344 230.639 257.635 230.335 257.862C230.032 258.089 229.682 258.246 229.311 258.323C227.459 258.815 226.441 258.383 225.801 256.511Z" fill="#6231D1"/>
<path d="M245.812 234.237C245.167 232.37 245.658 231.323 247.48 230.672C249.53 229.943 250.458 230.404 251.153 232.489C251.754 234.301 251.218 235.334 249.337 235.974C247.455 236.615 246.457 236.093 245.812 234.237Z" fill="#6231D1"/>
<path d="M261.037 221.007C261.22 221.532 261.243 222.099 261.104 222.636C260.964 223.174 260.669 223.658 260.254 224.028C259.839 224.398 259.324 224.636 258.774 224.713C258.224 224.79 257.664 224.702 257.163 224.46C256.663 224.218 256.246 223.834 255.965 223.355C255.683 222.876 255.55 222.324 255.582 221.77C255.614 221.215 255.81 220.683 256.145 220.239C256.479 219.796 256.938 219.462 257.463 219.279C257.809 219.132 258.182 219.06 258.558 219.068C258.934 219.077 259.304 219.166 259.643 219.33C259.982 219.494 260.281 219.728 260.522 220.017C260.762 220.307 260.938 220.644 261.037 221.007Z" fill="#6231D1"/>
<path d="M219.035 269.294C218.28 269.83 217.655 269.205 216.94 268.996C216.016 268.728 215.992 267.909 215.639 267.259C215.173 266.415 215.719 265.819 215.932 265.109C216.205 264.181 217.024 264.156 217.675 263.804C218.514 263.342 219.114 263.883 219.824 264.097C220.752 264.37 220.777 265.189 221.13 265.839C221.591 266.678 221.14 267.309 220.812 267.984C220.38 268.862 220.37 268.862 219.035 269.294Z" fill="#6231D1"/>
<path d="M267.873 192.369C267.344 192.537 266.777 192.545 266.243 192.392C265.709 192.238 265.233 191.93 264.875 191.505C264.516 191.081 264.292 190.56 264.229 190.008C264.167 189.457 264.27 188.899 264.524 188.405C264.779 187.912 265.174 187.505 265.66 187.236C266.146 186.967 266.701 186.848 267.255 186.895C267.808 186.941 268.335 187.151 268.77 187.497C269.204 187.843 269.526 188.31 269.695 188.839C269.833 189.189 269.894 189.564 269.875 189.94C269.856 190.315 269.757 190.683 269.584 191.017C269.412 191.351 269.17 191.645 268.875 191.878C268.58 192.111 268.238 192.278 267.873 192.369Z" fill="#6231D1"/>
<path d="M177.672 282.162C176.965 282.381 176.2 282.312 175.544 281.969C174.887 281.627 174.393 281.04 174.167 280.335C173.98 279.972 173.874 279.572 173.857 279.163C173.84 278.755 173.912 278.347 174.069 277.97C174.226 277.592 174.463 277.253 174.765 276.977C175.066 276.701 175.424 276.493 175.814 276.37C176.204 276.246 176.616 276.209 177.021 276.262C177.427 276.314 177.816 276.454 178.162 276.672C178.507 276.891 178.801 277.182 179.023 277.525C179.244 277.869 179.388 278.257 179.444 278.662C179.664 279.361 179.602 280.119 179.27 280.773C178.939 281.427 178.366 281.925 177.672 282.162Z" fill="#6231D1"/>
<path d="M163.445 281.04C163.137 279.491 163.728 278.017 165.317 277.56C165.681 277.39 166.077 277.3 166.479 277.296C166.88 277.292 167.278 277.374 167.645 277.537C168.013 277.7 168.341 277.94 168.607 278.241C168.874 278.541 169.073 278.895 169.191 279.279C169.309 279.663 169.343 280.068 169.291 280.467C169.239 280.865 169.102 281.248 168.89 281.589C168.678 281.93 168.394 282.221 168.06 282.443C167.725 282.666 167.347 282.814 166.95 282.877C166.242 283.095 165.476 283.025 164.819 282.681C164.163 282.337 163.669 281.747 163.445 281.04Z" fill="#6231D1"/>
<path d="M229.926 268.491C229.4 268.666 228.833 268.682 228.297 268.536C227.762 268.39 227.282 268.088 226.917 267.669C226.553 267.25 226.321 266.733 226.251 266.182C226.181 265.631 226.276 265.072 226.523 264.575C226.77 264.078 227.16 263.666 227.641 263.39C228.123 263.114 228.676 262.987 229.23 263.025C229.783 263.063 230.313 263.265 230.753 263.604C231.192 263.943 231.521 264.405 231.698 264.931C231.912 265.639 231.848 266.401 231.518 267.063C231.189 267.724 230.62 268.235 229.926 268.491Z" fill="#6231D1"/>
<path d="M187.929 281.586C187.405 281.769 186.838 281.793 186.3 281.654C185.762 281.516 185.278 281.221 184.908 280.807C184.537 280.393 184.298 279.878 184.221 279.328C184.143 278.778 184.23 278.218 184.471 277.717C184.712 277.217 185.095 276.799 185.574 276.517C186.052 276.235 186.603 276.1 187.158 276.131C187.712 276.162 188.245 276.357 188.689 276.691C189.133 277.025 189.468 277.482 189.651 278.007C189.872 278.71 189.817 279.472 189.497 280.136C189.177 280.801 188.616 281.319 187.929 281.586Z" fill="#6231D1"/>
<path d="M156.515 283.571C155.822 283.831 155.055 283.806 154.38 283.503C153.706 283.2 153.178 282.643 152.911 281.953C152.748 281.291 152.831 280.591 153.146 279.986C153.461 279.38 153.985 278.91 154.622 278.663C155.258 278.416 155.962 278.409 156.603 278.644C157.244 278.878 157.777 279.338 158.104 279.938C158.714 281.481 157.925 282.857 156.515 283.571Z" fill="#6231D1"/>
<path d="M270.389 199.423C270.574 199.947 270.598 200.514 270.46 201.053C270.321 201.591 270.026 202.076 269.612 202.447C269.197 202.817 268.682 203.057 268.132 203.134C267.581 203.212 267.02 203.124 266.519 202.882C266.019 202.641 265.601 202.256 265.319 201.777C265.038 201.298 264.904 200.746 264.936 200.191C264.969 199.636 265.165 199.103 265.5 198.659C265.836 198.216 266.295 197.882 266.82 197.7C267.523 197.482 268.282 197.539 268.944 197.859C269.606 198.178 270.123 198.737 270.389 199.423Z" fill="#6231D1"/>
<path d="M246.383 244.439C246.2 243.914 246.177 243.347 246.316 242.809C246.456 242.272 246.751 241.787 247.166 241.418C247.581 241.048 248.096 240.81 248.646 240.733C249.196 240.656 249.756 240.744 250.257 240.985C250.757 241.227 251.174 241.612 251.455 242.091C251.737 242.57 251.87 243.121 251.838 243.676C251.806 244.23 251.61 244.763 251.275 245.206C250.941 245.65 250.482 245.984 249.957 246.166C249.253 246.385 248.493 246.328 247.829 246.008C247.166 245.687 246.649 245.126 246.383 244.439Z" fill="#6231D1"/>
<path d="M124.098 274.517C123.401 274.78 122.629 274.756 121.95 274.45C121.272 274.143 120.742 273.58 120.479 272.884C120.289 272.207 120.359 271.483 120.676 270.856C120.994 270.228 121.535 269.743 122.193 269.495C122.851 269.247 123.578 269.256 124.231 269.518C124.883 269.781 125.413 270.279 125.716 270.913C125.976 271.606 125.951 272.373 125.648 273.048C125.345 273.723 124.788 274.251 124.098 274.517Z" fill="#6231D1"/>
<path d="M236.449 255.782C236.272 255.255 236.255 254.688 236.401 254.152C236.546 253.616 236.847 253.135 237.266 252.77C237.685 252.405 238.202 252.172 238.753 252.101C239.304 252.03 239.864 252.125 240.361 252.372C240.859 252.619 241.272 253.009 241.548 253.491C241.824 253.973 241.951 254.526 241.912 255.08C241.874 255.634 241.672 256.165 241.333 256.604C240.993 257.044 240.53 257.372 240.004 257.549C239.298 257.764 238.536 257.7 237.875 257.371C237.215 257.043 236.705 256.474 236.449 255.782Z" fill="#6231D1"/>
<path d="M198.631 281.338C197.082 281.646 195.608 281.055 195.151 279.466C194.981 279.103 194.891 278.706 194.887 278.305C194.883 277.903 194.965 277.505 195.128 277.138C195.291 276.771 195.531 276.443 195.832 276.176C196.132 275.909 196.486 275.71 196.87 275.592C197.255 275.474 197.659 275.44 198.058 275.492C198.456 275.544 198.839 275.681 199.18 275.893C199.521 276.106 199.812 276.389 200.035 276.723C200.257 277.058 200.405 277.437 200.468 277.833C200.686 278.542 200.616 279.307 200.272 279.964C199.928 280.621 199.338 281.114 198.631 281.338Z" fill="#6231D1"/>
<path d="M256.023 233.676C255.691 232.787 256.897 230.32 257.785 230.067C258.674 229.814 260.868 230.856 261.28 231.685C261.692 232.514 260.585 234.962 259.667 235.364C258.748 235.766 256.381 234.599 256.023 233.676Z" fill="#6231D1"/>
<path d="M205.825 278.9C205.457 278.056 206.624 275.589 207.537 275.271C208.331 274.993 210.615 276.006 211.072 276.82C211.528 277.634 210.436 280.077 209.503 280.524C208.679 280.931 206.232 279.834 205.825 278.9Z" fill="#6231D1"/>
<path d="M271.09 209.932C271.363 211.019 270.33 213.343 269.447 213.561C268.873 213.659 268.283 213.596 267.744 213.377C265.847 212.742 265.346 211.307 266.359 209.59C267.059 208.403 267.987 208.041 269.248 208.637C269.901 209.009 270.518 209.443 271.09 209.932Z" fill="#6231D1"/>
<path d="M221.343 276.488C221.889 278.027 221.462 278.861 219.868 279.412C218.275 279.963 217.431 279.595 216.835 277.798C216.339 276.309 216.81 275.5 218.454 274.949C219.988 274.437 220.792 274.864 221.343 276.488Z" fill="#6231D1"/>
<path d="M113.236 274.825C111.673 275.396 110.819 274.988 110.273 273.44C109.672 271.747 110.064 270.948 111.797 270.367C113.316 269.841 114.135 270.272 114.691 271.891C115.247 273.509 114.81 274.274 113.236 274.825Z" fill="#6231D1"/>
<path d="M142.491 282.018C141.915 280.449 142.317 279.6 143.861 279.049C145.554 278.449 146.358 278.846 146.939 280.569C147.47 282.093 147.033 282.917 145.42 283.468C143.806 284.019 143.027 283.587 142.491 282.018Z" fill="#6231D1"/>
<path d="M277.568 145.889C278.139 147.452 277.732 148.306 276.183 148.852C274.49 149.453 273.691 149.051 273.115 147.323C272.584 145.799 273.021 144.985 274.644 144.434C276.268 143.883 277.022 144.31 277.568 145.889Z" fill="#6231D1"/>
<path d="M250.026 256.551C248.492 257.092 247.658 256.666 247.107 255.082C246.556 253.498 246.924 252.644 248.721 252.049C250.21 251.552 251.019 252.014 251.57 253.667C252.082 255.191 251.655 255.995 250.026 256.551Z" fill="#6231D1"/>
<path d="M274.907 127.987C273.274 128.568 272.44 128.211 271.894 126.701C271.308 125.063 271.655 124.19 273.11 123.658C274.882 123.008 275.686 123.356 276.262 125.014C276.838 126.672 276.446 127.441 274.907 127.987Z" fill="#6231D1"/>
<path d="M275.592 138.65C274.014 139.236 273.155 138.844 272.604 137.31C271.998 135.602 272.386 134.798 274.093 134.212C275.622 133.676 276.451 134.108 277.007 135.707C277.563 137.305 277.151 138.104 275.592 138.65Z" fill="#6231D1"/>
<path d="M276.794 159.54C275.255 160.086 274.421 159.659 273.87 158.076C273.319 156.492 273.691 155.633 275.483 155.043C276.972 154.546 277.787 155.013 278.338 156.656C278.849 158.19 278.417 158.989 276.794 159.54Z" fill="#6231D1"/>
<path d="M277.047 170.357C275.523 170.888 274.699 170.452 274.148 168.848C273.596 167.245 274.004 166.421 275.801 165.835C277.315 165.314 278.054 165.755 278.63 167.493C279.132 168.997 278.67 169.786 277.047 170.357Z" fill="#6231D1"/>
<path d="M274.868 179.486C274.675 178.905 274.719 178.272 274.991 177.724C275.262 177.176 275.739 176.756 276.317 176.557C276.62 176.441 276.944 176.391 277.268 176.41C277.591 176.43 277.907 176.518 278.194 176.669C278.481 176.821 278.732 177.032 278.93 177.288C279.129 177.544 279.27 177.84 279.345 178.156C279.44 178.447 279.473 178.755 279.444 179.059C279.414 179.364 279.322 179.659 279.173 179.927C279.023 180.194 278.821 180.428 278.577 180.614C278.334 180.799 278.054 180.933 277.757 181.005C277.172 181.172 276.546 181.107 276.008 180.824C275.47 180.541 275.062 180.062 274.868 179.486Z" fill="#6231D1"/>
<path d="M260.168 245.595C259.883 245.7 259.58 245.746 259.276 245.733C258.972 245.72 258.674 245.647 258.399 245.518C258.124 245.389 257.877 245.208 257.672 244.983C257.467 244.759 257.308 244.496 257.205 244.21C257.081 243.909 257.024 243.586 257.036 243.261C257.048 242.936 257.129 242.617 257.274 242.326C257.42 242.035 257.626 241.778 257.878 241.573C258.131 241.368 258.424 241.22 258.739 241.138C259.324 240.981 259.948 241.051 260.484 241.334C261.02 241.618 261.428 242.094 261.628 242.667C261.82 243.249 261.774 243.883 261.501 244.431C261.228 244.98 260.749 245.398 260.168 245.595Z" fill="#6231D1"/>
<path d="M135.303 284.004C134.731 284.21 134.101 284.188 133.545 283.941C132.989 283.694 132.55 283.241 132.319 282.678C132.192 282.4 132.123 282.099 132.117 281.793C132.112 281.487 132.169 281.183 132.287 280.901C132.404 280.618 132.579 280.363 132.8 280.151C133.021 279.939 133.283 279.776 133.57 279.67C133.864 279.534 134.183 279.462 134.506 279.459C134.83 279.456 135.15 279.521 135.446 279.652C135.742 279.783 136.007 279.975 136.223 280.216C136.439 280.457 136.601 280.741 136.698 281.05C136.901 281.627 136.868 282.26 136.607 282.813C136.346 283.366 135.877 283.794 135.303 284.004Z" fill="#6231D1"/>
<path d="M269.347 223.579C269.051 223.678 268.738 223.717 268.427 223.694C268.115 223.67 267.812 223.585 267.534 223.443C267.256 223.3 267.009 223.104 266.808 222.865C266.607 222.626 266.455 222.349 266.363 222.051C266.27 221.752 266.238 221.439 266.268 221.128C266.299 220.817 266.391 220.515 266.539 220.241C266.688 219.966 266.89 219.723 267.133 219.528C267.377 219.332 267.657 219.187 267.957 219.101C268.545 218.959 269.165 219.04 269.696 219.329C270.227 219.618 270.632 220.094 270.832 220.665C271.012 221.248 270.958 221.879 270.681 222.423C270.404 222.968 269.925 223.382 269.347 223.579Z" fill="#6231D1"/>
<path d="M274.575 117.2C274 117.403 273.369 117.376 272.813 117.125C272.258 116.873 271.822 116.416 271.596 115.85C271.393 115.279 271.412 114.653 271.648 114.095C271.884 113.537 272.321 113.088 272.872 112.836C273.162 112.707 273.475 112.637 273.793 112.632C274.11 112.627 274.426 112.686 274.72 112.806C275.013 112.927 275.28 113.106 275.503 113.332C275.725 113.559 275.9 113.828 276.015 114.124C276.131 114.42 276.185 114.736 276.174 115.054C276.164 115.371 276.089 115.683 275.954 115.971C275.82 116.258 275.628 116.516 275.391 116.727C275.154 116.938 274.876 117.099 274.575 117.2Z" fill="#6231D1"/>
<path d="M240.083 267.944C239.78 268.046 239.459 268.084 239.141 268.058C238.823 268.031 238.513 267.94 238.231 267.79C237.949 267.64 237.701 267.434 237.501 267.185C237.301 266.936 237.154 266.648 237.069 266.34C236.984 266.033 236.963 265.711 237.006 265.394C237.05 265.078 237.157 264.773 237.322 264.5C237.487 264.226 237.706 263.989 237.965 263.803C238.225 263.617 238.52 263.486 238.832 263.417C239.42 263.288 240.035 263.389 240.55 263.7C241.066 264.011 241.443 264.507 241.603 265.088C241.764 265.668 241.695 266.288 241.412 266.819C241.129 267.351 240.654 267.753 240.083 267.944Z" fill="#6231D1"/>
<path d="M275.29 103.667C275.423 104.112 275.421 104.586 275.285 105.029C275.149 105.473 274.884 105.866 274.525 106.159C274.165 106.452 273.726 106.632 273.264 106.676C272.802 106.719 272.338 106.625 271.929 106.404C271.521 106.184 271.187 105.847 270.971 105.437C270.754 105.027 270.663 104.561 270.711 104.1C270.759 103.638 270.943 103.201 271.239 102.844C271.535 102.487 271.931 102.226 272.376 102.093C272.965 102.013 273.565 102.122 274.089 102.405C274.613 102.688 275.033 103.13 275.29 103.667Z" fill="#6231D1"/>
<path d="M278.462 191.172C278.025 191.331 277.552 191.357 277.101 191.247C276.65 191.136 276.242 190.894 275.928 190.552C275.615 190.209 275.411 189.781 275.341 189.322C275.271 188.863 275.339 188.393 275.536 187.973C275.733 187.553 276.051 187.2 276.449 186.961C276.847 186.721 277.306 186.605 277.77 186.627C278.234 186.649 278.681 186.808 279.054 187.085C279.427 187.361 279.71 187.742 279.867 188.179C279.979 188.762 279.904 189.367 279.651 189.904C279.399 190.442 278.982 190.886 278.462 191.172Z" fill="#6231D1"/>
<path d="M227.106 277.396C226.955 276.96 226.936 276.488 227.052 276.04C227.168 275.593 227.415 275.19 227.76 274.883C228.105 274.575 228.534 274.377 228.991 274.313C229.449 274.249 229.916 274.323 230.332 274.524C230.748 274.725 231.095 275.045 231.33 275.443C231.564 275.842 231.675 276.301 231.649 276.762C231.622 277.224 231.459 277.667 231.181 278.036C230.903 278.405 230.521 278.683 230.085 278.836C229.5 278.942 228.896 278.86 228.361 278.601C227.826 278.342 227.386 277.921 227.106 277.396Z" fill="#6231D1"/>
<path d="M199.213 291.043C198.527 291.351 196.517 290.442 196.189 289.688C195.862 288.933 196.795 286.997 197.549 286.669C198.304 286.342 200.24 287.275 200.573 288.025C200.905 288.774 199.962 290.72 199.213 291.043Z" fill="#6231D1"/>
<path d="M185.516 290.353C185.273 289.653 186.265 287.618 186.96 287.37C187.655 287.122 189.696 288.119 189.944 288.814C190.192 289.509 189.194 291.55 188.499 291.798C187.804 292.046 185.764 291.048 185.516 290.353Z" fill="#6231D1"/>
<path d="M169.075 290.085C169.368 290.785 168.375 292.771 167.67 293.078C166.965 293.386 164.984 292.378 164.671 291.678C164.359 290.978 165.371 288.993 166.071 288.68C166.771 288.367 168.787 289.36 169.075 290.085Z" fill="#6231D1"/>
<path d="M279.127 201.845C278.362 202.074 276.362 201.066 276.168 200.356C275.974 199.646 276.947 197.591 277.657 197.397C278.367 197.204 280.422 198.177 280.616 198.887C280.81 199.597 279.832 201.637 279.127 201.845Z" fill="#6231D1"/>
<path d="M270.092 234.222C269.367 234.49 267.357 233.473 267.108 232.778C266.86 232.083 267.858 230.042 268.553 229.794C269.248 229.546 271.288 230.544 271.531 231.244C271.775 231.944 270.792 233.979 270.092 234.222Z" fill="#6231D1"/>
<path d="M177.941 292.488C177.266 292.805 175.245 291.917 174.903 291.167C174.56 290.418 175.478 288.477 176.218 288.134C176.958 287.791 178.914 288.705 179.261 289.45C179.609 290.194 178.7 292.125 177.941 292.488Z" fill="#6231D1"/>
<path d="M208.68 286.769C210.199 286.242 210.412 286.367 210.948 288.044C211.485 289.722 211.346 289.861 209.549 290.437C208.168 290.894 207.886 290.71 207.33 289.042C206.873 287.533 206.982 287.335 208.68 286.769Z" fill="#6231D1"/>
<path d="M122.028 283.041C121.507 281.526 121.626 281.308 123.279 280.747C124.932 280.186 125.096 280.35 125.677 282.152C126.128 283.527 125.95 283.815 124.277 284.366C122.792 284.867 122.599 284.733 122.028 283.041Z" fill="#6231D1"/>
<path d="M146.085 293.644C145.628 293.807 145.127 293.79 144.682 293.597C144.237 293.405 143.882 293.051 143.687 292.607C143.584 292.364 143.532 292.101 143.538 291.837C143.543 291.573 143.604 291.313 143.717 291.074C143.83 290.835 143.992 290.623 144.194 290.452C144.395 290.28 144.63 290.154 144.884 290.08C145.354 289.918 145.869 289.949 146.316 290.167C146.763 290.385 147.105 290.772 147.267 291.242C147.428 291.712 147.397 292.227 147.179 292.674C146.961 293.12 146.575 293.463 146.105 293.624L146.085 293.644Z" fill="#6231D1"/>
<path d="M260.67 255.3C260.219 255.475 259.718 255.474 259.268 255.297C258.817 255.121 258.45 254.782 258.237 254.347C258.134 254.109 258.08 253.852 258.08 253.592C258.08 253.332 258.133 253.075 258.237 252.837C258.34 252.598 258.491 252.384 258.681 252.206C258.871 252.029 259.095 251.892 259.34 251.805C259.803 251.629 260.317 251.644 260.77 251.847C261.222 252.05 261.576 252.424 261.752 252.888C261.929 253.351 261.914 253.865 261.711 254.318C261.508 254.77 261.133 255.124 260.67 255.3Z" fill="#6231D1"/>
<path d="M221.145 287.33C221.309 287.785 221.295 288.287 221.106 288.732C220.916 289.178 220.564 289.535 220.122 289.733C219.881 289.834 219.622 289.884 219.361 289.879C219.1 289.875 218.842 289.816 218.605 289.706C218.368 289.596 218.157 289.438 217.985 289.242C217.813 289.045 217.683 288.815 217.605 288.566C217.524 288.334 217.489 288.087 217.503 287.842C217.517 287.596 217.579 287.355 217.686 287.134C217.793 286.912 217.943 286.713 218.127 286.549C218.31 286.385 218.524 286.259 218.757 286.178C218.989 286.097 219.235 286.062 219.481 286.076C219.727 286.09 219.967 286.152 220.189 286.259C220.411 286.366 220.609 286.516 220.773 286.7C220.937 286.883 221.063 287.097 221.145 287.33Z" fill="#6231D1"/>
<path d="M248.294 265.631C248.131 265.176 248.147 264.675 248.338 264.231C248.53 263.787 248.883 263.432 249.326 263.238C249.567 263.136 249.826 263.086 250.087 263.091C250.349 263.096 250.606 263.156 250.842 263.267C251.079 263.378 251.289 263.538 251.46 263.735C251.631 263.933 251.758 264.165 251.833 264.415C251.962 264.875 251.91 265.368 251.688 265.791C251.465 266.215 251.09 266.537 250.637 266.693C250.185 266.848 249.69 266.825 249.255 266.628C248.819 266.43 248.475 266.074 248.294 265.631Z" fill="#6231D1"/>
<path d="M270.668 244.429C270.208 244.575 269.709 244.544 269.271 244.341C268.832 244.138 268.486 243.777 268.3 243.331C268.205 243.088 268.162 242.828 268.174 242.568C268.186 242.307 268.252 242.052 268.369 241.819C268.485 241.585 268.649 241.379 268.85 241.213C269.051 241.047 269.285 240.925 269.536 240.854C270.005 240.73 270.503 240.789 270.93 241.018C271.356 241.248 271.68 241.631 271.835 242.09C271.969 242.555 271.923 243.054 271.707 243.487C271.491 243.92 271.12 244.256 270.668 244.429Z" fill="#6231D1"/>
<path d="M279.41 212.136C278.959 212.311 278.459 212.31 278.009 212.132C277.559 211.955 277.192 211.614 276.982 211.178C276.828 210.838 276.78 210.46 276.842 210.092C276.904 209.724 277.075 209.383 277.333 209.113C277.59 208.843 277.922 208.655 278.287 208.575C278.651 208.495 279.031 208.525 279.378 208.662C279.725 208.799 280.024 209.037 280.235 209.344C280.446 209.652 280.561 210.015 280.565 210.389C280.568 210.762 280.46 211.128 280.254 211.439C280.048 211.75 279.754 211.993 279.41 212.136Z" fill="#6231D1"/>
<path d="M238.226 276.592C238.133 276.359 238.087 276.109 238.093 275.857C238.098 275.605 238.154 275.358 238.257 275.128C238.36 274.899 238.508 274.692 238.693 274.521C238.877 274.35 239.094 274.218 239.331 274.133C239.568 274.047 239.819 274.011 240.07 274.024C240.321 274.038 240.567 274.103 240.793 274.214C241.019 274.324 241.22 274.48 241.385 274.67C241.549 274.86 241.674 275.082 241.751 275.321C241.884 275.785 241.84 276.282 241.627 276.715C241.414 277.148 241.048 277.486 240.599 277.664C240.141 277.816 239.643 277.789 239.204 277.591C238.764 277.392 238.415 277.036 238.226 276.592Z" fill="#6231D1"/>
<path d="M154.32 291.832C154.156 291.377 154.17 290.876 154.361 290.431C154.552 289.985 154.905 289.629 155.348 289.435C155.588 289.335 155.846 289.286 156.106 289.291C156.366 289.297 156.622 289.356 156.858 289.466C157.094 289.576 157.304 289.733 157.476 289.929C157.648 290.124 157.777 290.353 157.855 290.601C157.995 291.065 157.95 291.564 157.73 291.995C157.51 292.426 157.131 292.755 156.674 292.914C156.217 293.072 155.716 293.048 155.276 292.845C154.836 292.643 154.492 292.278 154.315 291.827L154.32 291.832Z" fill="#6231D1"/>
<path d="M113.977 285.046C113.659 285.026 113.495 285.051 113.376 285.001C112.803 284.764 112.247 284.487 111.713 284.172C111.539 284.068 111.465 283.696 111.455 283.438C111.445 283.18 111.634 283.021 111.733 282.812C112.592 281.06 112.274 281.189 114.036 282.008C115.089 282.494 115.257 282.524 114.622 283.696C114.384 284.162 114.175 284.639 113.977 285.046Z" fill="#6231D1"/>
<path d="M277.662 221.896C277.642 221.608 277.583 221.439 277.637 221.325C277.886 220.759 278.169 220.208 278.437 219.652C278.65 219.201 278.968 219.191 279.365 219.399C279.859 219.616 280.341 219.86 280.81 220.129C280.911 220.209 280.993 220.312 281.048 220.429C281.103 220.546 281.13 220.675 281.127 220.804C280.873 221.45 280.576 222.079 280.239 222.685C280.195 222.747 280.135 222.796 280.067 222.829C279.998 222.861 279.922 222.875 279.847 222.869C279.097 222.566 278.347 222.214 277.662 221.896Z" fill="#6231D1"/>
<path d="M251.342 276.91C250.419 277.277 249.853 277.069 249.505 276.244C249.158 275.42 249.302 274.72 250.091 274.368C251.099 273.916 251.719 274.14 252.077 275.103C252.434 276.066 252.211 276.557 251.342 276.91Z" fill="#6231D1"/>
<path d="M230.562 288.586C229.628 288.933 229.102 288.715 228.755 287.851C228.407 286.987 228.591 286.357 229.415 286.009C230.452 285.568 231.018 285.806 231.371 286.814C231.468 286.978 231.525 287.164 231.535 287.355C231.545 287.546 231.509 287.737 231.429 287.911C231.35 288.085 231.229 288.238 231.078 288.355C230.927 288.472 230.75 288.552 230.562 288.586Z" fill="#6231D1"/>
<path d="M289.065 177.56C289.398 178.488 289.169 178.995 288.276 179.342C287.218 179.744 286.717 179.501 286.364 178.424C286.091 177.525 286.364 177.024 287.298 176.716C287.465 176.621 287.653 176.568 287.845 176.561C288.037 176.554 288.228 176.594 288.402 176.677C288.575 176.76 288.726 176.883 288.842 177.037C288.957 177.191 289.034 177.37 289.065 177.56Z" fill="#6231D1"/>
<path d="M261.246 265.537C260.327 265.899 259.771 265.691 259.419 264.852C259.067 264.013 259.23 263.343 260.035 262.985C261.042 262.543 261.653 262.777 262.005 263.745C262.358 264.713 262.124 265.194 261.246 265.537Z" fill="#6231D1"/>
<path d="M288.385 167.021C288.673 167.935 288.415 168.421 287.482 168.739C286.548 169.057 285.933 168.749 285.645 167.686C285.421 166.828 285.749 166.311 286.707 166.038C287.665 165.765 288.062 166.023 288.385 167.021Z" fill="#6231D1"/>
<path d="M286.682 158.091C285.769 158.378 285.278 158.115 284.96 157.182C284.642 156.249 284.95 155.633 286.017 155.35C286.871 155.122 287.387 155.45 287.66 156.408C287.933 157.366 287.68 157.798 286.682 158.091Z" fill="#6231D1"/>
<path d="M284.836 146.841C284.735 146.677 284.676 146.491 284.663 146.299C284.651 146.107 284.685 145.915 284.763 145.739C284.841 145.563 284.961 145.409 285.112 145.289C285.263 145.17 285.441 145.089 285.63 145.054C286.678 144.662 287.189 144.925 287.512 146.012C287.78 146.906 287.497 147.407 286.554 147.705C286.387 147.792 286.202 147.837 286.015 147.838C285.827 147.84 285.642 147.796 285.474 147.712C285.307 147.628 285.161 147.505 285.05 147.353C284.939 147.202 284.866 147.027 284.836 146.841Z" fill="#6231D1"/>
<path d="M284.111 136.188C284.01 136.024 283.951 135.838 283.938 135.646C283.925 135.454 283.96 135.261 284.038 135.086C284.116 134.91 284.236 134.755 284.387 134.636C284.538 134.517 284.716 134.436 284.905 134.401C285.953 134.009 286.464 134.272 286.787 135.359C287.05 136.258 286.772 136.754 285.829 137.062C285.661 137.148 285.476 137.194 285.288 137.194C285.099 137.195 284.913 137.151 284.746 137.065C284.578 136.98 284.433 136.856 284.322 136.703C284.212 136.551 284.139 136.374 284.111 136.188Z" fill="#6231D1"/>
<path d="M136.077 292.095C136.425 293.028 136.206 293.555 135.342 293.902C134.479 294.25 133.848 294.066 133.501 293.242C133.064 292.209 133.297 291.638 134.31 291.291C134.474 291.193 134.659 291.136 134.85 291.125C135.04 291.114 135.231 291.15 135.405 291.229C135.578 291.308 135.73 291.428 135.848 291.579C135.965 291.73 136.043 291.907 136.077 292.095Z" fill="#6231D1"/>
<path d="M197.797 300.023C197.455 299.095 197.668 298.564 198.537 298.221C199.406 297.879 200.036 298.062 200.364 298.896C200.801 299.929 200.567 300.5 199.55 300.852C199.384 300.946 199.199 300.998 199.009 301.005C198.819 301.012 198.63 300.973 198.459 300.892C198.287 300.811 198.137 300.689 198.022 300.538C197.907 300.387 197.83 300.21 197.797 300.023Z" fill="#6231D1"/>
<path d="M189.766 299.715C190.108 300.644 189.895 301.175 189.031 301.522C188.167 301.87 187.537 301.686 187.189 300.862C186.747 299.825 186.986 299.259 187.993 298.906C188.158 298.809 188.344 298.752 188.535 298.742C188.726 298.732 188.917 298.768 189.091 298.848C189.265 298.927 189.417 299.048 189.535 299.199C189.652 299.35 189.732 299.527 189.766 299.715Z" fill="#6231D1"/>
<path d="M210.854 298.326C210.569 298.975 210.239 299.604 209.866 300.207C209.657 300.505 207.91 299.711 208.014 299.348C208.183 298.733 208.441 297.869 208.893 297.685C209.345 297.501 210.069 298.048 210.854 298.326Z" fill="#6231D1"/>
<path d="M165.425 301.796C165.735 301.154 166.097 300.54 166.508 299.959C166.751 299.666 168.449 300.54 168.335 300.872C168.126 301.478 167.838 302.362 167.381 302.501C166.925 302.64 166.21 302.103 165.425 301.796Z" fill="#6231D1"/>
<path d="M284.478 116.003C283.768 115.572 282.889 115.328 282.75 114.872C282.611 114.415 283.118 113.66 283.49 113.139C283.699 112.841 285.411 113.7 285.317 114.052C285.084 114.722 284.803 115.374 284.478 116.003Z" fill="#6231D1"/>
<path d="M281.559 230.807C281.112 231.522 280.859 232.391 280.397 232.525C279.936 232.659 279.191 232.142 278.66 231.78C278.372 231.562 279.261 229.859 279.603 229.963C280.273 230.202 280.926 230.484 281.559 230.807Z" fill="#6231D1"/>
<path d="M289.11 190.204C288.37 189.862 287.467 189.713 287.283 189.271C287.1 188.829 287.536 188.025 287.819 187.444C287.958 187.146 289.765 187.782 289.741 188.174C289.603 188.871 289.391 189.551 289.11 190.204Z" fill="#6231D1"/>
<path d="M272.36 252.833C271.909 253.543 271.66 254.417 271.199 254.551C270.737 254.685 269.992 254.169 269.461 253.806C269.173 253.588 270.062 251.885 270.4 251.984C271.07 252.226 271.725 252.509 272.36 252.833Z" fill="#6231D1"/>
<path d="M178.432 302.491C177.781 302.208 177.148 301.887 176.536 301.528C176.248 301.329 177.022 299.572 177.39 299.681C178.005 299.83 178.874 300.083 179.058 300.535C179.241 300.987 178.705 301.701 178.432 302.491Z" fill="#6231D1"/>
<path d="M286.231 124.438C285.883 125.172 285.74 126.081 285.293 126.259C284.846 126.438 284.052 126.011 283.471 125.728C283.173 125.589 283.803 123.777 284.201 123.807C284.898 123.943 285.579 124.155 286.231 124.438Z" fill="#6231D1"/>
<path d="M241.234 288.139C240.592 287.832 239.976 287.472 239.393 287.062C239.13 286.799 239.969 285.116 240.306 285.235C240.912 285.443 241.795 285.731 241.929 286.183C242.064 286.635 241.547 287.33 241.234 288.139Z" fill="#6231D1"/>
<path d="M125.002 294.027C123.994 294.399 124.024 294.389 123.662 293.491C123.423 292.895 123.399 292.543 124.148 292.319C125.146 292.026 125.096 291.987 125.459 292.885C125.697 293.481 125.757 293.908 125.002 294.027Z" fill="#6231D1"/>
<path d="M157.691 301.547C157.989 302.093 157.949 302.46 157.21 302.684C156.212 302.977 156.257 303.011 155.899 302.118C155.656 301.517 155.631 301.165 156.381 300.951C157.379 300.658 157.379 300.589 157.691 301.547Z" fill="#6231D1"/>
<path d="M288.688 200.009C287.82 200.45 287.844 199.691 287.686 199.244C287.393 198.435 287.462 198.475 288.5 198.073C289.393 197.735 289.349 198.415 289.507 198.862C289.79 199.681 289.79 199.681 288.688 200.009Z" fill="#6231D1"/>
<path d="M220.132 299.145C219.462 299.537 219.253 299.13 219.069 298.519C218.796 297.601 218.786 297.66 219.784 297.248C220.494 296.965 220.703 297.263 220.886 297.874C221.13 298.812 221.13 298.812 220.132 299.145Z" fill="#6231D1"/>
<path d="M281.058 243.094C280.526 242.731 279.965 242.557 279.876 242.24C279.787 241.922 280.124 241.495 280.318 241.073C280.775 241.213 281.199 241.444 281.564 241.753C281.693 241.932 281.296 242.508 281.058 243.094Z" fill="#6231D1"/>
<path d="M289.81 210.751C289.355 210.605 288.92 210.403 288.515 210.15C288.222 209.917 288.624 208.83 289.016 208.845C289.229 208.846 289.439 208.893 289.631 208.983C289.824 209.073 289.995 209.204 290.133 209.366C290.277 209.659 289.969 210.165 289.81 210.751Z" fill="#6231D1"/>
<path d="M272.495 263.094C272.162 263.645 271.944 264.31 271.725 264.31C271.293 264.315 270.861 263.943 270.43 263.729C270.643 263.357 270.782 262.801 271.095 262.677C271.407 262.553 271.879 262.886 272.495 263.094Z" fill="#6231D1"/>
<path d="M262.472 274.408C262.326 274.863 262.124 275.298 261.871 275.704C261.638 275.997 260.551 275.585 260.57 275.197C260.571 274.986 260.617 274.776 260.705 274.583C260.793 274.391 260.922 274.219 261.082 274.08C261.38 273.941 261.886 274.249 262.472 274.408Z" fill="#6231D1"/>
<path d="M231.217 299.041C230.765 298.855 230.337 298.617 229.941 298.331C229.668 298.058 230.125 297.015 230.517 297.06C230.73 297.075 230.937 297.136 231.124 297.238C231.312 297.339 231.475 297.48 231.604 297.651C231.723 297.939 231.42 298.45 231.217 299.041Z" fill="#6231D1"/>
<path d="M251.278 286.397C251.074 286.342 250.771 286.258 250.493 286.188L251.144 284.932C251.511 285.131 252.067 285.25 252.206 285.548C252.499 286.208 251.729 286.084 251.278 286.397Z" fill="#6231D1"/>
<path d="M156.371 312.756C156.559 312.523 156.786 312.323 157.041 312.166C157.15 312.126 157.508 312.394 157.493 312.449C157.431 312.687 157.302 312.902 157.121 313.069C157.031 313.148 156.803 312.92 156.371 312.756Z" fill="#6231D1"/>
<path d="M198.681 310.448C198.868 310.216 199.093 310.018 199.346 309.863C199.461 309.818 199.823 310.091 199.803 310.141C199.741 310.379 199.612 310.594 199.431 310.761C199.371 310.811 199.093 310.632 198.681 310.448Z" fill="#6231D1"/>
<path d="M298.726 177.957C298.329 177.749 298.026 177.664 298.011 177.57C298.032 177.322 298.121 177.085 298.269 176.885C298.309 176.845 298.736 176.955 298.775 177.064C298.815 177.173 298.741 177.515 298.726 177.957Z" fill="#6231D1"/>
<path d="M189.88 310.721C189.582 311.019 189.463 311.297 189.324 311.277C189.093 311.194 188.879 311.074 188.688 310.92C188.792 310.756 188.892 310.468 189.011 310.458C189.13 310.448 189.487 310.597 189.88 310.721Z" fill="#6231D1"/>
<path d="M296.958 166.807C297.145 166.573 297.37 166.371 297.624 166.212C297.738 166.167 298.1 166.44 298.085 166.495C298.018 166.73 297.887 166.943 297.708 167.11C297.634 167.175 297.361 166.981 296.958 166.807Z" fill="#6231D1"/>
<path d="M113.113 293.773C113.242 293.504 113.416 293.258 113.629 293.049C113.709 292.969 113.982 293.153 114.165 293.217C114.11 293.466 114.009 293.701 113.867 293.912C113.803 293.977 113.51 293.863 113.098 293.788" fill="#6231D1"/>
<path d="M146.844 302.376C146.547 302.674 146.428 302.952 146.289 302.932C146.059 302.849 145.844 302.728 145.653 302.575C145.757 302.411 145.857 302.123 145.976 302.113C146.278 302.153 146.571 302.241 146.844 302.376Z" fill="#6231D1"/>
<path d="M298.026 188.417C298.161 188.151 298.335 187.907 298.542 187.692C298.626 187.608 298.899 187.801 299.088 187.861C299.024 188.106 298.924 188.34 298.79 188.556C298.74 188.616 298.453 188.486 298.026 188.417Z" fill="#6231D1"/>
<path d="M297.425 157.097C297.028 156.889 296.725 156.804 296.72 156.71C296.736 156.463 296.822 156.225 296.968 156.025C297.008 155.985 297.435 156.094 297.479 156.209C297.524 156.323 297.44 156.695 297.425 157.097Z" fill="#6231D1"/>
<path d="M282.403 263.223C282.105 263.521 281.986 263.799 281.847 263.779C281.617 263.696 281.402 263.576 281.212 263.422C281.346 263.288 281.415 262.97 281.534 262.96C281.654 262.95 282.006 263.094 282.403 263.223Z" fill="#6231D1"/>
<path d="M167.059 312.176C167.191 311.908 167.366 311.663 167.576 311.451C167.66 311.367 167.928 311.555 168.117 311.615C168.059 311.863 167.96 312.099 167.824 312.315C167.814 312.414 167.501 312.27 167.059 312.176Z" fill="#6231D1"/>
<path d="M124.997 304.198C124.727 304.069 124.482 303.895 124.272 303.682C124.188 303.597 124.371 303.324 124.436 303.141C124.684 303.197 124.919 303.298 125.131 303.439C125.196 303.483 125.066 303.781 124.997 304.198Z" fill="#6231D1"/>
<path d="M297.068 145.64C296.77 145.938 296.651 146.216 296.537 146.221C296.307 146.137 296.092 146.016 295.901 145.864C296.01 145.705 296.105 145.412 296.224 145.402C296.516 145.436 296.801 145.516 297.068 145.64Z" fill="#6231D1"/>
<path d="M281.554 253.28C281.323 253.09 281.122 252.866 280.959 252.615C280.919 252.505 281.192 252.143 281.247 252.158C281.482 252.225 281.695 252.355 281.862 252.535C281.932 252.614 281.743 252.883 281.554 253.28Z" fill="#6231D1"/>
<path d="M296.224 135.712C295.993 135.521 295.794 135.294 295.633 135.041C295.594 134.932 295.867 134.57 295.921 134.585C296.157 134.652 296.37 134.782 296.537 134.962C296.611 135.017 296.408 135.3 296.224 135.712Z" fill="#6231D1"/>
<path d="M136.191 303.101C135.893 303.399 135.774 303.677 135.66 303.682C135.431 303.598 135.216 303.477 135.025 303.325C135.134 303.166 135.228 302.873 135.347 302.863C135.466 302.853 135.794 302.972 136.191 303.101Z" fill="#6231D1"/>
<path d="M178.68 311.813C178.41 311.685 178.165 311.51 177.955 311.297C177.876 311.218 178.059 310.945 178.124 310.761C178.372 310.816 178.608 310.917 178.819 311.059C178.879 311.099 178.754 311.401 178.68 311.813Z" fill="#6231D1"/>
<path d="M294.71 124.657C294.842 124.389 295.016 124.144 295.226 123.932C295.31 123.847 295.583 124.031 295.767 124.096C295.709 124.344 295.61 124.58 295.474 124.796C295.405 124.875 295.132 124.731 294.71 124.657Z" fill="#6231D1"/>
<path d="M292.044 241.043C291.746 241.341 291.627 241.619 291.513 241.624C291.283 241.539 291.069 241.419 290.877 241.267C290.981 241.103 291.076 240.81 291.195 240.8C291.314 240.79 291.647 240.914 292.044 241.043Z" fill="#6231D1"/>
<path d="M291.473 230.832C291.17 231.134 291.056 231.407 290.942 231.412C290.711 231.331 290.496 231.21 290.306 231.055C290.411 230.891 290.5 230.603 290.624 230.588C290.918 230.625 291.204 230.707 291.473 230.832Z" fill="#6231D1"/>
<path d="M290.693 220.024C290.485 220.412 290.4 220.724 290.306 220.729C290.06 220.713 289.823 220.625 289.626 220.476C289.586 220.436 289.691 220.005 289.805 219.97C289.919 219.935 290.256 220.005 290.693 220.024Z" fill="#6231D1"/>
<path d="M210.367 310.23C209.97 310.021 209.667 309.937 209.662 309.842C209.68 309.595 209.766 309.358 209.911 309.157C209.95 309.118 210.382 309.222 210.422 309.341C210.462 309.46 210.402 309.808 210.367 310.23Z" fill="#6231D1"/>
<path d="M300.111 209.684C299.881 209.494 299.684 209.27 299.525 209.018C299.48 208.904 299.753 208.542 299.808 208.557C300.044 208.624 300.257 208.754 300.423 208.934C300.483 209.004 300.294 209.272 300.111 209.684Z" fill="#6231D1"/>
<path d="M299.53 199.492C299.296 199.304 299.097 199.078 298.939 198.822C298.9 198.713 299.168 198.356 299.222 198.371C299.461 198.432 299.676 198.561 299.843 198.743C299.917 198.797 299.729 199.066 299.53 199.492Z" fill="#6231D1"/>
<path d="M97.7877 144.841C104.47 170.238 79.142 205.375 76.8485 224.14C74.7586 241.311 87.0699 263.878 101.486 277.262C115.902 290.646 140.292 293.907 155.323 281.219C161.851 275.683 166.106 267.875 172.554 262.25C193.201 244.245 225.642 255.151 251.908 247.432C282.205 238.561 299.584 206.02 304.668 174.864C307.9 155.052 307.279 133.681 297.231 116.296C287.184 98.9115 265.823 87.0718 246.591 92.8303C229.261 98.0179 213.008 116.058 196.606 108.423C185.139 103.091 182.339 88.3277 174.843 78.1411C163.092 62.1909 138.763 58.9394 121.174 68.0587C103.586 77.178 90.6243 88.7 90.7435 108.507C90.8229 117.771 95.4297 135.9 97.7877 144.841Z" fill="#6231D1"/>
<path d="M191.061 268.644C204.807 255.208 222.264 246.2 241.18 242.78C290.653 233.676 312.491 192.18 313.643 173.872C314.963 152.605 305.497 131.571 290.872 116.053C276.247 100.535 256.872 90.1048 236.687 83.0953C220.901 77.6247 204.022 74.0604 187.476 76.3886C171.303 78.6623 156.43 86.3271 142.098 94.1656C123.666 104.248 105.194 115.015 90.7431 130.241C78.953 142.646 69.8685 160.885 76.8482 176.453C82.8003 189.722 98.5618 196.638 104.286 210.006C112.298 228.732 97.2314 249.825 99.5696 270.044C102.305 293.629 123.502 308.353 139.279 304.541C155.725 300.564 175.885 283.572 191.061 268.644Z" stroke="#FFD537" stroke-width="3.14" stroke-miterlimit="10"/>
<path d="M170.608 260.969C191.111 243.088 223.324 253.925 249.426 246.28C279.509 237.474 296.765 205.166 301.814 174.224C305.025 154.551 304.4 133.334 294.432 116.078C284.463 98.8222 263.241 87.052 244.149 92.7708" fill="#6231D1"/>
</svg>
