<svg width="334" height="301" viewBox="0 0 334 301" fill="none" xmlns="http://www.w3.org/2000/svg">
<path d="M199.582 228.879C217.747 210.878 259.641 215.148 276.56 207.934C292.041 201.36 305.085 180.022 309.322 161.365C313.559 142.708 304.472 120.587 286.438 114.104C278.605 111.293 269.954 111.509 262.077 108.808C236.871 100.181 230.289 67.5403 211.018 49.1484C188.813 27.9415 152.95 29.1181 124.235 39.9917C105.973 46.9026 88.2801 57.8249 78.524 74.7325C68.7678 91.6402 69.1788 115.401 83.3813 128.797C96.1797 140.869 119.281 145.792 120.829 163.315C121.918 175.568 110.839 185.108 105.905 196.374C98.1768 214.031 107.271 236.103 123.505 246.484C139.74 256.864 155.746 262.2 172.375 252.459C180.165 247.911 193.193 235.212 199.582 228.879Z" fill="#D2F2ED"/>
<path d="M143.376 111.93C140.33 115.728 135.425 113.36 134.151 109.665C133.584 108.011 134.358 106.396 135.376 105.095C135.878 104.376 136.581 103.821 137.398 103.501" fill="#E10353"/>
<path d="M146.213 148.851C143.982 148.41 142.845 146.938 142.458 144.662C142.243 143.714 142.329 142.721 142.704 141.824C143.08 140.926 143.727 140.168 144.554 139.656" fill="#E10353"/>
<path d="M143.049 119.261C143.497 122.187 141.935 124.374 138.89 124.925C135.845 125.476 133.604 123.928 133.037 120.758C132.469 117.587 134.078 115.569 137.275 114.931C137.9 114.788 138.548 114.777 139.177 114.899C139.806 115.021 140.403 115.273 140.93 115.639" fill="#E10353"/>
<path d="M142.024 130.713C142.54 133.649 140.957 135.838 137.912 136.388C134.866 136.939 132.607 135.408 132.038 132.244C131.469 129.08 133.06 126.994 136.253 126.425C139.309 125.884 141.453 127.477 142.024 130.713Z" fill="#E10353"/>
<path d="M150.837 154.02C151.025 155.006 150.913 156.026 150.516 156.949C150.12 157.871 149.457 158.654 148.612 159.197C147.767 159.739 146.779 160.017 145.775 159.993C144.771 159.97 143.797 159.647 142.978 159.066C142.159 158.485 141.533 157.672 141.18 156.732C140.826 155.792 140.762 154.768 140.995 153.791C141.229 152.815 141.749 151.93 142.489 151.251C143.229 150.573 144.155 150.131 145.148 149.982" fill="#E10353"/>
<path d="M133.023 106.487C133.146 107.144 133.136 107.819 132.994 108.473C132.852 109.127 132.581 109.745 132.196 110.292C131.811 110.839 131.321 111.304 130.754 111.659C130.187 112.013 129.555 112.251 128.894 112.357C128.236 112.48 127.559 112.468 126.906 112.321C126.252 112.175 125.635 111.897 125.092 111.506C124.548 111.114 124.09 110.616 123.745 110.042C123.4 109.468 123.175 108.83 123.083 108.166C122.961 107.526 122.969 106.869 123.106 106.232C123.243 105.596 123.506 104.993 123.88 104.46C124.254 103.927 124.73 103.474 125.282 103.129C125.834 102.783 126.45 102.552 127.093 102.448C127.748 102.311 128.425 102.307 129.082 102.437C129.739 102.567 130.363 102.829 130.917 103.206C131.471 103.583 131.943 104.068 132.305 104.631C132.667 105.195 132.911 105.826 133.023 106.487Z" fill="#E10353"/>
<path d="M157.206 172.393C156.547 172.515 155.87 172.503 155.216 172.356C154.562 172.209 153.945 171.931 153.402 171.538C152.859 171.146 152.401 170.647 152.056 170.072C151.711 169.498 151.487 168.859 151.396 168.195C151.273 167.556 151.28 166.898 151.415 166.261C151.551 165.625 151.814 165.022 152.187 164.488C152.56 163.955 153.037 163.502 153.589 163.156C154.141 162.81 154.756 162.579 155.399 162.476" fill="#E10353"/>
<path d="M135.134 137.403C135.801 137.282 136.485 137.297 137.146 137.447C137.808 137.596 138.432 137.877 138.982 138.273C139.533 138.669 139.998 139.171 140.35 139.75C140.703 140.329 140.935 140.973 141.033 141.644C141.131 142.315 141.094 142.998 140.922 143.654C140.751 144.31 140.45 144.925 140.036 145.462C139.622 145.999 139.105 146.447 138.514 146.78C137.924 147.113 137.272 147.324 136.599 147.4C135.295 147.547 133.986 147.181 132.947 146.381C131.908 145.58 131.221 144.407 131.031 143.11C130.841 141.812 131.162 140.491 131.928 139.426C132.693 138.361 133.843 137.636 135.134 137.403Z" fill="#E10353"/>
<path d="M128.178 90.9564C128.836 90.8335 129.511 90.8433 130.165 90.9854C130.818 91.1275 131.437 91.3989 131.984 91.7836C132.531 92.1684 132.996 92.6588 133.35 93.2258C133.705 93.7929 133.943 94.4251 134.049 95.0854C134.172 95.744 134.159 96.4205 134.013 97.0742C133.867 97.7278 133.589 98.3449 133.197 98.8882C132.805 99.4315 132.307 99.8896 131.733 100.235C131.159 100.58 130.521 100.805 129.858 100.897C129.218 101.019 128.561 101.011 127.924 100.874C127.287 100.737 126.685 100.474 126.152 100.1C125.619 99.7263 125.166 99.2494 124.82 98.6975C124.475 98.1456 124.243 97.53 124.14 96.8871C124.003 96.2315 123.999 95.5549 124.129 94.8977C124.259 94.2405 124.52 93.6164 124.897 93.0627C125.275 92.5089 125.759 92.037 126.323 91.6751C126.887 91.3132 127.518 91.0687 128.178 90.9564Z" fill="#E10353"/>
<path d="M135.031 83.7436C135.384 86.7289 133.773 88.8103 130.959 89.4018C130.298 89.5343 129.617 89.5327 128.956 89.3969C128.296 89.2612 127.669 88.9942 127.114 88.6117C126.559 88.2293 126.086 87.7392 125.724 87.1705C125.362 86.6018 125.117 85.9662 125.005 85.3013C124.894 84.6364 124.916 83.9558 125.073 83.2999C125.229 82.644 125.515 82.0262 125.915 81.4831C126.314 80.94 126.819 80.4827 127.398 80.1383C127.978 79.7939 128.621 79.5695 129.289 79.4783C129.949 79.3554 130.628 79.3703 131.283 79.5221C131.937 79.6739 132.553 79.9593 133.092 80.3604C133.631 80.7615 134.081 81.2697 134.415 81.853C134.748 82.4363 134.957 83.0823 135.029 83.7502" fill="#E10353"/>
<path d="M132.616 78.3265C131.954 78.4733 131.27 78.485 130.603 78.3609C129.937 78.2369 129.302 77.9798 128.737 77.6048C128.172 77.2298 127.689 76.7447 127.316 76.1786C126.943 75.6125 126.688 74.977 126.566 74.31C126.445 73.6431 126.459 72.9584 126.608 72.297C126.757 71.6357 127.038 71.0112 127.434 70.4609C127.83 69.9106 128.332 69.4458 128.912 69.0944C129.492 68.743 130.137 68.5122 130.808 68.4157" fill="#E10353"/>
<path d="M200.791 199.92C198.415 200.365 195.349 198.362 194.886 196.052L200.791 199.92Z" fill="#E10353"/>
<path d="M122.078 119.701C121.644 117.228 123.796 114.273 126.329 113.856C128.659 113.476 131.618 115.636 132.029 118.01C132.439 120.384 130.309 123.444 127.772 123.854C125.448 124.235 122.487 122.082 122.078 119.701Z" fill="#E10353"/>
<path d="M133.799 66.8462C131.261 67.3623 128.186 65.3923 127.726 62.9407C127.265 60.4891 129.192 57.4671 131.53 57.0044" fill="#E10353"/>
<path d="M193.283 192.868C193.848 195.197 191.752 198.395 189.318 198.925C187.053 199.407 183.975 197.393 183.417 195.065C182.859 192.737 184.95 189.531 187.383 189.008" fill="#E10353"/>
<path d="M143.974 161.458C146.277 161.021 149.295 163.04 149.835 165.385C150.374 167.729 148.229 170.928 145.807 171.382C143.504 171.819 140.486 169.8 139.951 167.464C139.417 165.128 141.553 161.912 143.974 161.458Z" fill="#E10353"/>
<path d="M120.492 130.802C120.069 128.368 122.317 125.24 124.701 124.925C127.085 124.609 130.034 126.731 130.434 129.038C130.852 131.464 128.61 134.594 126.218 134.914C123.825 135.234 120.892 133.11 120.492 130.802Z" fill="#E10353"/>
<path d="M129.958 154.755C129.518 152.33 131.754 149.191 134.149 148.865C136.543 148.538 139.473 150.647 139.893 152.96C140.333 155.384 138.088 158.528 135.695 158.848C133.303 159.168 130.396 157.079 129.958 154.755Z" fill="#E10353"/>
<path d="M159.088 181.918C158.178 182.657 157.185 183.708 156.198 183.749C154.851 183.909 153.493 183.545 152.405 182.733C151.424 181.879 151.039 180.658 150.389 179.63C150.947 178.426 150.53 176.82 151.65 175.881C152.562 175.136 153.552 174.547 154.472 173.903" fill="#E10353"/>
<path d="M125.204 145.87C122.16 146.414 120.527 145.229 119.963 142.074C119.426 139.082 120.642 137.442 123.832 136.881C126.686 136.378 128.39 137.618 128.93 140.575C129.469 143.531 128.286 145.315 125.204 145.87Z" fill="#E10353"/>
<path d="M122.106 94.3557C122.616 97.2619 121.334 98.8834 118.087 99.4443C115.281 99.9243 113.641 98.6589 113.094 95.6004C112.546 92.5418 113.775 90.9844 116.935 90.407C119.919 89.8967 121.548 91.1518 122.106 94.3557Z" fill="#E10353"/>
<path d="M112.102 107.111C111.561 104.082 112.753 102.451 115.922 101.89C118.91 101.367 120.532 102.592 121.094 105.782C121.594 108.621 120.347 110.324 117.377 110.859C114.407 111.395 112.657 110.221 112.102 107.111Z" fill="#E10353"/>
<path d="M181.256 191.653C181.787 194.643 180.636 196.385 177.803 196.914C174.624 197.486 172.892 196.403 172.33 193.426C171.755 190.26 172.852 188.582 175.913 188.028" fill="#E10353"/>
<path d="M114.631 84.2295C114.069 81.1457 115.246 79.4106 118.284 78.8862C121.323 78.3618 123.018 79.528 123.573 82.61C124.103 85.5999 122.953 87.2637 120.044 87.8086C116.87 88.3891 115.191 87.2699 114.631 84.2295Z" fill="#E10353"/>
<path d="M116.152 121.758C114.858 122.736 113.673 121.735 112.783 121.204C112.27 120.824 111.839 120.345 111.516 119.795C111.192 119.244 110.983 118.635 110.9 118.002C110.782 117.411 110.79 116.802 110.924 116.214C111.059 115.627 111.315 115.074 111.678 114.593C112.062 114.079 112.548 113.649 113.106 113.331C113.664 113.014 114.282 112.816 114.92 112.75C116.114 112.584 117.325 112.878 118.31 113.572C119.254 114.321 119.882 115.396 120.072 116.586C120.202 117.174 120.207 117.782 120.088 118.371C119.97 118.961 119.729 119.519 119.382 120.011C118.714 120.964 117.752 122.137 116.152 121.758Z" fill="#E10353"/>
<path d="M120.718 76.2847C119.431 77.2639 118.24 76.2614 117.351 75.7243C116.838 75.3461 116.406 74.8672 116.084 74.3169C115.761 73.7665 115.554 73.1562 115.475 72.5232C115.36 71.9335 115.37 71.3262 115.504 70.7404C115.637 70.1546 115.892 69.6032 116.251 69.1216C116.634 68.6062 117.12 68.1761 117.678 67.8587C118.237 67.5412 118.855 67.3434 119.493 67.2778C120.687 67.1091 121.899 67.4034 122.883 68.1005C123.827 68.8492 124.456 69.9246 124.645 71.1145C124.775 71.7019 124.78 72.3099 124.661 72.8996C124.543 73.4893 124.302 74.0477 123.955 74.5392C123.334 75.5046 122.345 76.6707 120.718 76.2847Z" fill="#E10353"/>
<path d="M225.14 211.186C224.493 212.137 223.511 213.305 221.911 212.926C220.615 213.91 219.433 212.903 218.542 212.373C218.03 211.993 217.598 211.513 217.275 210.963C216.952 210.413 216.742 209.803 216.66 209.17C216.545 208.579 216.555 207.97 216.689 207.384C216.823 206.797 217.078 206.244 217.438 205.762" fill="#E10353"/>
<path d="M129.533 166.146C128.677 164.77 129.491 163.486 130.126 162.524C130.864 161.569 131.942 160.935 133.135 160.753C134.324 160.511 135.561 160.75 136.574 161.418C137.603 162.19 138.294 163.329 138.505 164.599C138.615 165.189 138.606 165.796 138.479 166.383C138.351 166.97 138.108 167.526 137.762 168.018C137.417 168.51 136.977 168.928 136.468 169.247C135.959 169.566 135.391 169.781 134.798 169.878C133.631 170.108 132.42 169.905 131.391 169.307C130.452 168.613 129.193 167.735 129.533 166.146Z" fill="#E10353"/>
<path d="M169.873 190.881C170.425 192.353 169.402 193.168 168.857 194.247C168.251 195.444 167.25 195.674 166.083 195.988C164.69 196.327 163.725 195.862 162.696 195.08C161.186 193.964 161.173 193.96 160.797 191.937C160.101 190.733 161.122 189.846 161.718 188.767C162.399 187.525 163.464 187.27 164.683 186.892" fill="#E10353"/>
<path d="M110.007 129.545C109.832 128.352 110.138 127.138 110.858 126.171C111.577 125.204 112.652 124.562 113.845 124.387C114.436 124.3 115.038 124.331 115.617 124.477C116.196 124.623 116.74 124.881 117.219 125.238C118.187 125.957 118.828 127.032 119.003 128.225C119.121 129.382 118.805 130.541 118.118 131.479C117.43 132.416 116.419 133.065 115.28 133.3C114.084 133.488 112.863 133.2 111.877 132.498C110.892 131.796 110.22 130.736 110.007 129.545Z" fill="#E10353"/>
<path d="M205.335 208.442C205.157 207.566 205.242 206.656 205.579 205.827C205.915 204.998 206.489 204.287 207.228 203.783C207.967 203.279 208.838 203.004 209.733 202.993C210.627 202.981 211.505 203.234 212.257 203.719C213.008 204.205 213.6 204.901 213.957 205.721C214.315 206.541 214.422 207.448 214.266 208.329C214.111 209.21 213.698 210.026 213.081 210.673C212.464 211.321 211.67 211.772 210.798 211.97C209.607 212.215 208.367 211.982 207.346 211.323C206.324 210.663 205.602 209.629 205.335 208.442Z" fill="#E10353"/>
<path d="M139.412 178.668C139.309 178.075 139.325 177.467 139.459 176.88C139.593 176.293 139.843 175.738 140.193 175.249C140.543 174.759 140.987 174.343 141.499 174.026C142.011 173.71 142.58 173.498 143.175 173.403C143.77 173.308 144.377 173.332 144.962 173.474C145.547 173.616 146.098 173.872 146.583 174.229C147.069 174.586 147.478 175.035 147.788 175.551C148.098 176.067 148.302 176.64 148.389 177.236C148.519 178.391 148.216 179.554 147.54 180.499C146.863 181.444 145.86 182.106 144.725 182.355C143.534 182.551 142.314 182.275 141.322 181.587C140.331 180.899 139.646 179.852 139.412 178.668Z" fill="#E10353"/>
<path d="M197.508 202.052C198.39 201.891 199.3 201.995 200.123 202.35C200.946 202.705 201.646 203.296 202.134 204.047C202.623 204.799 202.878 205.679 202.868 206.575C202.858 207.471 202.583 208.345 202.077 209.086C201.572 209.826 200.859 210.401 200.028 210.737C199.197 211.074 198.285 211.157 197.407 210.976C196.529 210.796 195.724 210.36 195.093 209.723C194.462 209.086 194.033 208.277 193.861 207.397C193.654 206.207 193.919 204.982 194.6 203.984C195.281 202.986 196.324 202.293 197.508 202.052Z" fill="#E10353"/>
<path d="M118.987 153.666C118.827 152.784 118.932 151.874 119.288 151.052C119.644 150.229 120.235 149.53 120.988 149.042C121.74 148.555 122.62 148.301 123.516 148.312C124.412 148.323 125.285 148.599 126.025 149.105C126.765 149.611 127.339 150.324 127.675 151.155C128.01 151.986 128.093 152.898 127.912 153.776C127.73 154.654 127.294 155.459 126.656 156.089C126.019 156.719 125.21 157.147 124.33 157.319C123.139 157.527 121.913 157.262 120.915 156.58C119.917 155.897 119.225 154.851 118.987 153.666Z" fill="#E10353"/>
<path d="M149.878 191.076C149.788 190.486 149.815 189.884 149.957 189.304C150.1 188.724 150.356 188.178 150.709 187.697C151.063 187.216 151.508 186.81 152.019 186.5C152.53 186.191 153.096 185.986 153.687 185.896C154.277 185.806 154.879 185.833 155.459 185.975C156.039 186.118 156.585 186.374 157.066 186.727C157.547 187.081 157.953 187.526 158.263 188.037C158.572 188.548 158.777 189.114 158.867 189.705C158.989 190.86 158.679 192.02 157.997 192.961C157.315 193.902 156.309 194.558 155.173 194.802C153.98 194.989 152.76 194.706 151.772 194.01C150.784 193.315 150.105 192.263 149.878 191.076Z" fill="#E10353"/>
<path d="M186.449 200.463C187.331 200.303 188.241 200.408 189.064 200.764C189.886 201.12 190.585 201.712 191.073 202.464C191.56 203.216 191.814 204.096 191.803 204.992C191.792 205.888 191.516 206.761 191.01 207.501C190.505 208.241 189.791 208.815 188.96 209.151C188.129 209.486 187.217 209.569 186.339 209.388C185.461 209.207 184.656 208.77 184.026 208.133C183.396 207.495 182.968 206.686 182.796 205.806C182.588 204.615 182.853 203.389 183.536 202.391C184.218 201.393 185.264 200.701 186.449 200.463Z" fill="#E10353"/>
<path d="M116.712 61.6912C116.6 61.0939 116.608 60.4801 116.737 59.8863C116.866 59.2924 117.113 58.7305 117.463 58.2336C117.813 57.7368 118.259 57.3152 118.775 56.9938C119.291 56.6724 119.866 56.4577 120.466 56.3624C121.067 56.2671 121.68 56.2931 122.27 56.4389C122.86 56.5847 123.414 56.8473 123.901 57.2112C124.388 57.5751 124.797 58.0329 125.104 58.5576C125.41 59.0822 125.609 59.6631 125.687 60.2658C125.84 61.4393 125.528 62.626 124.82 63.5738C124.111 64.5215 123.061 65.1556 121.892 65.3412C120.724 65.5268 119.528 65.2493 118.561 64.5678C117.594 63.8862 116.93 62.8542 116.712 61.6912Z" fill="#E10353"/>
<path d="M108.505 141.103C108.418 140.513 108.449 139.911 108.595 139.332C108.741 138.753 108.999 138.208 109.356 137.729C109.712 137.25 110.159 136.846 110.672 136.54C111.185 136.234 111.752 136.032 112.343 135.945C112.934 135.858 113.536 135.889 114.115 136.035C114.694 136.181 115.238 136.44 115.717 136.796C116.196 137.152 116.6 137.6 116.907 138.112C117.213 138.625 117.415 139.193 117.502 139.784C117.619 140.941 117.302 142.101 116.613 143.038C115.923 143.975 114.911 144.623 113.771 144.857C112.577 145.046 111.355 144.759 110.37 144.057C109.385 143.355 108.715 142.295 108.505 141.103Z" fill="#E10353"/>
<path d="M118 165.291C117.597 162.677 119.428 160.149 121.764 159.828C124.099 159.507 126.776 161.342 126.906 163.698C127.029 164.567 126.895 165.452 126.521 166.246C126.146 167.039 125.548 167.706 124.8 168.164C124.051 168.622 123.185 168.85 122.308 168.822C121.431 168.794 120.582 168.51 119.864 168.005C118.768 167.262 118.475 166.123 118 165.291Z" fill="#E10353"/>
<path d="M126.057 51.7644C125.355 53.0003 124.109 53.3213 123.034 54.0089C121.861 53.7656 120.633 53.9918 119.627 53.0958C118.765 52.295 118.109 51.2988 117.714 50.1911C117.567 49.0412 117.845 47.8771 118.495 46.9175C119.145 45.9578 120.124 45.2686 121.246 44.9792" fill="#E10353"/>
<path d="M105.879 89.3385C107.889 89.0371 110.862 91.2006 111.112 93.1398C111.361 95.0791 109.151 98.118 107.236 98.331C105.321 98.544 102.478 96.4794 102.149 94.6255C101.79 92.6427 103.912 89.6374 105.879 89.3385Z" fill="#E10353"/>
<path d="M100.669 106.311C100.223 104.39 102.259 101.333 104.25 100.92C106.081 100.542 109.02 102.433 109.544 104.332C110.067 106.231 108.085 109.323 106.108 109.819C104.132 110.314 101.13 108.285 100.669 106.311Z" fill="#E10353"/>
<path d="M171.33 204.812C170.917 202.872 172.985 199.831 174.964 199.457C176.83 199.11 179.741 201.029 180.224 202.917C180.708 204.805 178.718 207.903 176.729 208.388C174.741 208.873 171.76 206.793 171.33 204.812Z" fill="#E10353"/>
<path d="M131.679 172.402C133.689 172.101 136.662 174.264 136.911 176.204C137.16 178.143 134.959 181.177 133.037 181.388C131.115 181.599 128.277 179.543 127.948 177.689C127.59 175.706 129.714 172.695 131.679 172.402Z" fill="#E10353"/>
<path d="M108.502 86.8587C107.41 86.6018 106.099 86.6064 105.213 85.9777C104.252 85.3101 103.562 84.3193 103.27 83.1859C103.11 82.026 103.377 80.8473 104.023 79.8706C104.713 78.9249 105.71 78.2482 106.843 77.9563C107.922 77.7839 109.026 78.0189 109.941 78.6156C110.914 79.2703 111.63 80.2421 111.967 81.3654C112.158 82.5199 111.921 83.7043 111.302 84.6972C110.717 85.6299 109.5 86.1365 108.502 86.8587Z" fill="#E10353"/>
<path d="M111.213 147.311C112.375 147.623 113.686 147.675 114.561 148.315C115.046 148.643 115.458 149.067 115.77 149.562C116.082 150.057 116.289 150.611 116.376 151.19C116.463 151.769 116.429 152.36 116.276 152.925C116.124 153.49 115.855 154.017 115.488 154.473C114.771 155.399 113.741 156.031 112.59 156.252C111.411 156.337 110.24 156.003 109.283 155.309C108.4 154.664 107.794 153.708 107.587 152.633C107.465 151.471 107.748 150.302 108.388 149.324C109.03 148.442 110.254 147.966 111.213 147.311Z" fill="#E10353"/>
<path d="M103.204 111.81C104.353 112.118 105.662 112.148 106.54 112.775C107.483 113.471 108.145 114.482 108.404 115.624C108.534 116.787 108.235 117.957 107.565 118.916C106.85 119.842 105.835 120.491 104.695 120.753C103.61 120.897 102.511 120.631 101.613 120.006C100.661 119.324 99.9728 118.335 99.6649 117.205C99.512 116.046 99.7766 114.87 100.411 113.888C101.015 112.989 102.23 112.496 103.204 111.81Z" fill="#E10353"/>
<path d="M138.351 190.123C138.655 188.988 138.694 187.674 139.327 186.825C139.648 186.336 140.068 185.919 140.56 185.6C141.051 185.282 141.604 185.07 142.182 184.977C142.76 184.884 143.351 184.913 143.918 185.061C144.484 185.209 145.014 185.474 145.472 185.838C146.392 186.561 147.032 187.58 147.284 188.722C147.419 189.808 147.143 190.905 146.51 191.797C145.841 192.759 144.839 193.44 143.698 193.707C142.669 193.829 141.241 193.817 140.368 192.985C139.602 192.1 138.926 191.142 138.351 190.123Z" fill="#E10353"/>
<path d="M163.823 198.949C164.884 198.365 165.719 198.995 166.711 199.517C167.958 200.178 168.036 201.296 168.356 202.385C168.677 203.475 168.216 204.37 167.699 205.37C167.02 206.683 165.893 206.638 164.801 206.965C163.71 207.292 162.792 206.839 161.826 206.246C160.756 205.589 160.539 204.669 160.302 203.588C160.177 203.073 160.164 202.538 160.263 202.018C160.362 201.499 160.57 201.006 160.875 200.573C161.176 200.063 161.609 199.644 162.127 199.358C162.646 199.073 163.232 198.932 163.823 198.949Z" fill="#E10353"/>
<path d="M117.384 175.798C116.8 174.738 117.43 173.902 117.954 172.904C118.615 171.657 119.699 171.57 120.816 171.257C121.932 170.944 122.807 171.399 123.807 171.916C125.12 172.596 125.075 173.722 125.401 174.814C125.728 175.905 125.276 176.824 124.682 177.789C124.019 178.858 123.106 179.076 122.025 179.313C121.51 179.438 120.975 179.451 120.455 179.352C119.935 179.254 119.442 179.045 119.01 178.74C118.5 178.44 118.081 178.009 117.795 177.492C117.509 176.974 117.367 176.389 117.384 175.798Z" fill="#E10353"/>
<path d="M101.519 135.316C102.58 134.732 103.415 135.361 104.414 135.885C105.661 136.547 105.732 137.662 106.052 138.752C106.373 139.842 105.912 140.736 105.395 141.737C104.716 143.05 103.589 143.004 102.495 143.338C101.402 143.671 100.488 143.206 99.5217 142.612C98.4518 141.955 98.2354 141.036 97.9984 139.954C97.8735 139.44 97.86 138.905 97.9588 138.385C98.0576 137.865 98.2664 137.372 98.5712 136.94C98.8724 136.43 99.3048 136.01 99.8234 135.725C100.342 135.439 100.928 135.298 101.519 135.316Z" fill="#E10353"/>
<path d="M103.775 131.734C103.277 131.938 102.733 132.005 102.201 131.928C101.668 131.852 101.165 131.635 100.744 131.299C100.259 130.996 99.8502 130.586 99.5484 130.101C99.2466 129.615 99.0601 129.067 99.0033 128.498C98.8859 127.983 98.8749 127.45 98.9712 126.931C99.0674 126.412 99.2687 125.918 99.5629 125.479C100.289 124.336 101.228 124.046 102.402 123.784C102.918 123.678 103.451 123.678 103.967 123.784C104.483 123.89 104.973 124.101 105.405 124.402C105.837 124.704 106.203 125.091 106.481 125.539C106.759 125.987 106.942 126.486 107.02 127.008C107.21 128.212 107.23 129.2 106.394 130.25C105.663 131.172 104.966 131.832 103.775 131.734Z" fill="#E10353"/>
<path d="M109.382 74.8063C108.883 75.0098 108.34 75.0769 107.807 75.0005C107.275 74.9241 106.772 74.707 106.351 74.3716C105.865 74.0693 105.454 73.6593 105.151 73.1732C104.848 72.6872 104.661 72.138 104.603 71.5681C104.489 71.0531 104.481 70.5204 104.578 70.0019C104.675 69.4835 104.877 68.9901 105.17 68.5516C105.89 67.406 106.829 67.1166 108.002 66.8544C108.519 66.748 109.051 66.748 109.567 66.8544C110.084 66.9607 110.573 67.1712 111.005 67.4729C111.437 67.7746 111.803 68.1612 112.081 68.6091C112.359 69.0571 112.542 69.5569 112.621 70.0782C112.817 71.2842 112.837 72.2721 112.001 73.3223C111.298 74.2446 110.568 74.8963 109.382 74.8063Z" fill="#E10353"/>
<path d="M243.474 226.059C242.947 226.189 242.398 226.206 241.863 226.109C241.329 226.012 240.821 225.804 240.372 225.498C239.923 225.191 239.544 224.794 239.26 224.331C238.975 223.869 238.791 223.351 238.72 222.813" fill="#E10353"/>
<path d="M111.615 166.798C111.086 166.922 110.536 166.931 110.002 166.827C109.469 166.723 108.963 166.507 108.518 166.194C108.074 165.88 107.701 165.477 107.423 165.009C107.146 164.541 106.971 164.02 106.909 163.48C106.495 161.091 107.848 159.232 110.292 158.826C111.349 158.651 112.432 158.903 113.303 159.527C114.174 160.151 114.761 161.096 114.936 162.153C115.11 163.21 114.858 164.293 114.234 165.164C113.61 166.035 112.666 166.622 111.609 166.797L111.615 166.798Z" fill="#E10353"/>
<path d="M109.02 55.9351C109.55 55.8163 110.099 55.8106 110.631 55.9182C111.164 56.0258 111.667 56.2443 112.11 56.5596C112.552 56.8749 112.922 57.2799 113.198 57.748C113.473 58.2162 113.646 58.7371 113.707 59.2768C114.109 61.6557 112.745 63.5044 110.292 63.9152C109.255 64.0383 108.21 63.7553 107.377 63.1254C106.544 62.4955 105.987 61.5677 105.822 60.5363C105.658 59.5048 105.899 58.4497 106.495 57.592C107.091 56.7344 107.996 56.1406 109.02 55.9351Z" fill="#E10353"/>
<path d="M130.507 183.9C132.917 183.435 134.728 184.753 135.348 187.09C135.836 188.987 134.259 191.498 132.294 191.818C129.83 192.219 127.851 191.048 127.419 188.754C126.903 186.294 128.149 184.357 130.507 183.9Z" fill="#E10353"/>
<path d="M181.773 217.144C181.359 214.755 182.717 212.904 185.156 212.49C187.595 212.076 189.358 213.495 189.76 215.952C189.876 216.992 189.584 218.037 188.946 218.866C188.307 219.696 187.372 220.245 186.337 220.4C185.301 220.554 184.247 220.3 183.394 219.693C182.542 219.085 181.958 218.171 181.766 217.142L181.773 217.144Z" fill="#E10353"/>
<path d="M196.568 213.504C198.955 213.097 200.814 214.45 201.228 216.889C201.643 219.328 200.223 221.091 197.759 221.491C196.719 221.607 195.675 221.316 194.845 220.677C194.016 220.039 193.466 219.103 193.312 218.068C193.158 217.033 193.411 215.978 194.019 215.126C194.626 214.273 195.541 213.69 196.569 213.498L196.568 213.504Z" fill="#E10353"/>
<path d="M99.7964 146.872C100.326 146.75 100.875 146.741 101.409 146.846C101.942 146.951 102.447 147.167 102.891 147.48C103.336 147.793 103.709 148.196 103.986 148.663C104.264 149.131 104.44 149.651 104.503 150.191C104.917 152.58 103.558 154.437 101.12 154.845C100.063 155.02 98.9801 154.767 98.1092 154.143C97.2383 153.519 96.6509 152.575 96.4762 151.518C96.3015 150.461 96.5539 149.378 97.1778 148.507C97.8017 147.636 98.746 147.049 99.803 146.874L99.7964 146.872Z" fill="#E10353"/>
<path d="M204.807 219.713C204.686 219.183 204.677 218.633 204.783 218.099C204.889 217.566 205.106 217.06 205.421 216.616C205.735 216.172 206.14 215.8 206.608 215.523C207.077 215.246 207.598 215.071 208.139 215.01C210.528 214.597 212.385 215.956 212.8 218.395C212.948 219.441 212.681 220.504 212.055 221.355C211.43 222.207 210.496 222.78 209.454 222.952C208.411 223.124 207.343 222.881 206.477 222.275C205.612 221.669 205.018 220.749 204.822 219.71L204.807 219.713Z" fill="#E10353"/>
<path d="M148.831 202.529C148.432 200.165 149.811 198.313 152.268 197.911C154.585 197.528 156.378 198.969 156.862 201.413C157.258 203.363 155.465 205.723 153.515 205.934C151.138 206.194 149.269 204.96 148.831 202.529Z" fill="#E10353"/>
<path d="M219.455 216.035C220.495 215.827 221.574 216.037 222.461 216.617C223.348 217.198 223.971 218.104 224.197 219.14C224.422 220.176 224.232 221.259 223.667 222.156C223.102 223.052 222.207 223.692 221.175 223.935C218.732 224.42 216.758 223.179 216.305 220.858C215.851 218.536 217.09 216.49 219.455 216.035Z" fill="#E10353"/>
<path d="M235.207 220.433C235.622 222.816 234.269 224.674 231.824 225.087C230.767 225.262 229.684 225.009 228.813 224.385C227.942 223.762 227.354 222.817 227.18 221.76C227.005 220.703 227.257 219.62 227.881 218.749C228.505 217.878 229.449 217.291 230.506 217.116" fill="#E10353"/>
<path d="M98.0368 103.142C98.1578 104.241 97.8531 105.344 97.1854 106.224C96.5177 107.105 95.5378 107.696 94.4474 107.876C92.6596 108.145 90.5218 106.319 89.996 104.455C89.8869 103.943 89.9007 103.412 90.0362 102.907C90.1717 102.401 90.4251 101.934 90.7756 101.545C91.0781 101.075 91.4744 100.672 91.9397 100.362C92.405 100.052 92.9294 99.8409 93.4799 99.7427C94.709 99.5665 95.3944 100.569 96.4359 100.535C96.8715 101.513 98.4526 101.83 98.0368 103.142Z" fill="#E10353"/>
<path d="M107.264 49.1779C107.105 48.1248 107.345 47.0504 107.936 46.1647C108.528 45.2791 109.428 44.6459 110.462 44.3891C112.433 44.0202 114.644 45.5738 115.196 47.3947C115.341 47.9379 115.356 48.5076 115.241 49.0579C115.126 49.6082 114.883 50.1238 114.532 50.563C114.035 51.2486 113.376 52.2184 112.11 52.3488C110.036 52.5692 107.639 51.151 107.264 49.1779Z" fill="#E10353"/>
<path d="M137.641 200.983C137.926 199.92 138.009 198.704 138.612 197.89C139.27 197.119 140.179 196.606 141.179 196.442C141.676 196.349 142.187 196.357 142.681 196.465C143.176 196.573 143.644 196.779 144.057 197.071C144.778 197.755 145.838 198.58 145.755 199.796C145.693 200.798 145.633 202.056 145.032 202.679C144.397 203.486 143.519 204.07 142.529 204.343C141.337 204.565 140.276 204.01 139.379 203.556C138.609 203.136 138.249 201.929 137.641 200.983Z" fill="#E10353"/>
<path d="M91.0352 93.5344C91.3182 92.4782 91.2342 91.224 91.829 90.5718C92.5103 89.8359 93.3395 88.8406 94.5452 88.8576C95.5388 88.896 96.8141 88.9458 97.4314 89.5383C98.1504 90.2294 99.2006 91.0661 99.1167 92.2824C99.05 93.2755 98.9807 94.5171 98.381 95.161C97.7456 95.9698 96.8629 96.5484 95.8678 96.8085C94.7593 96.8986 93.6525 96.617 92.7218 96.0082C91.9546 95.6033 91.5928 94.4028 91.0352 93.5344Z" fill="#E10353"/>
<path d="M88.4037 116.003C88.6903 114.934 88.7723 113.724 89.3749 112.91C90.0323 112.136 90.9451 111.623 91.9481 111.464C92.4444 111.372 92.9539 111.38 93.4472 111.486C93.9404 111.593 94.4077 111.796 94.8219 112.085C95.5476 112.777 96.6013 113.601 96.5241 114.819C96.4556 115.819 96.4027 117.079 95.8017 117.701C95.5035 118.149 95.1154 118.53 94.662 118.819C94.2086 119.109 93.6999 119.301 93.1683 119.384C92.6366 119.466 92.0936 119.437 91.5737 119.299C91.0539 119.16 90.5686 118.915 90.1486 118.578C89.3783 118.158 89.0134 116.943 88.4037 116.003Z" fill="#E10353"/>
<path d="M174.014 211.242C175.136 211.542 176.488 211.52 177.149 212.188C177.81 212.857 178.82 213.576 178.734 214.749C178.665 215.749 178.626 216.906 178.106 217.678C177.444 218.433 176.599 219.006 175.652 219.341C174.53 219.838 173.396 219.128 172.502 218.689C172.086 218.402 171.732 218.034 171.46 217.608C171.188 217.182 171.003 216.706 170.918 216.207C170.723 215.204 170.893 214.164 171.397 213.274C171.944 212.403 173.068 211.928 174.014 211.242Z" fill="#E10353"/>
<path d="M123.841 186.164C124.127 187.914 122.203 190.602 120.453 190.838C118.702 191.074 115.973 189.118 115.84 187.409C115.852 186.413 116.169 185.445 116.748 184.634C117.326 183.823 118.139 183.209 119.077 182.873C120.697 182.488 123.66 184.528 123.841 186.164Z" fill="#E10353"/>
<path d="M87.5929 127.612C87.1409 126.216 89.0224 123.154 90.8209 122.845C92.4204 122.562 95.082 124.293 95.492 125.898C95.9021 127.503 94.1409 130.356 92.4074 130.767C90.674 131.178 87.9891 129.348 87.5929 127.612Z" fill="#E10353"/>
<path d="M100.142 80.6962C100.388 82.4352 98.4498 85.1266 96.7595 85.3501C95.0693 85.5735 92.3468 83.591 92.1553 81.888C91.9638 80.1849 93.849 77.6927 95.4508 77.3744C97.1682 77.0229 100.049 79.1832 100.142 80.6962Z" fill="#E10353"/>
<path d="M109.133 170.327C110.669 169.905 113.633 171.917 113.875 173.591C114.1 175.118 112.645 177.675 110.77 178.219C109.123 178.704 106.326 176.844 105.908 175.108C105.49 173.373 107.395 170.673 109.133 170.327Z" fill="#E10353"/>
<path d="M95.5012 162.424C95.8022 161.486 95.7561 160.356 96.501 159.409C97.147 158.593 98.1642 158.517 98.8162 157.837C99.9014 158.277 101.272 158.025 102.086 159.105C102.615 159.788 103.455 160.611 103.345 161.236C103.185 162.176 103.216 163.231 102.49 164.161C101.839 164.997 100.892 165.157 100.161 165.73C99.847 165.973 98.9624 165.608 98.3649 165.526C97.5621 165.291 96.8499 164.817 96.3226 164.167C95.8611 163.738 95.7675 163.05 95.5012 162.424Z" fill="#E10353"/>
<path d="M162.585 210.372C163.746 210.847 165.124 210.568 165.935 211.661C166.464 212.344 167.275 213.117 167.222 213.793C167.136 214.909 167.075 216.253 166.02 217.031C165.343 217.561 164.524 218.36 163.87 218.277C162.846 218.138 161.703 218.074 160.755 217.229C160.043 216.59 160.139 215.569 159.351 215.08C159.712 214.052 159.637 212.95 160.358 211.961C160.977 211.137 162.104 211.211 162.585 210.372Z" fill="#E10353"/>
<path d="M89.7863 134.279C90.5569 134.486 91.4002 134.634 92.2083 134.886C93.5244 135.288 93.9437 136.54 94.4404 137.556C94.7113 138.112 94.2933 139.061 94.0492 139.786C93.6283 141.012 92.4917 141.64 91.4656 142.148C90.8903 142.435 89.9364 142.116 89.2062 141.891C87.8919 141.482 87.1802 140.259 86.6903 139.138C86.4057 138.5 86.8814 137.495 87.1136 136.682C87.4957 135.389 88.8728 135.138 89.7863 134.279Z" fill="#E10353"/>
<path d="M97.3367 73.4442C96.0884 74.1705 95.0623 73.1907 94.2442 72.3379C93.7558 71.8226 93.823 70.8011 93.5759 70.0229C93.4534 69.6319 93.4325 69.2161 93.5152 68.8148C93.5978 68.4134 93.7812 68.0397 94.0482 67.7289C94.245 67.3694 94.5308 67.0665 94.8783 66.8492C95.2257 66.6319 95.6232 66.5074 96.0325 66.4878C96.4541 66.4861 96.8721 66.4101 97.2674 66.2633C98.074 65.9099 98.6617 66.3735 99.3 66.808C99.9383 67.2424 100.509 67.609 100.514 68.5216C100.516 68.942 100.59 69.3589 100.732 69.7546C100.859 70.145 100.883 70.5616 100.801 70.9639C100.719 71.3662 100.535 71.7405 100.266 72.0505C100.072 72.4126 99.786 72.7172 99.4368 72.9336C99.0876 73.15 98.6876 73.2706 98.2769 73.2832C97.96 73.3139 97.6458 73.3677 97.3367 73.4442Z" fill="#E10353"/>
<path d="M130.877 202.816C128.416 203.26 127.29 202.438 126.829 199.88C126.369 197.322 127.207 196.293 129.765 195.833C132.323 195.372 133.358 196.212 133.813 198.768C134.267 201.325 133.441 202.335 130.877 202.816Z" fill="#E10353"/>
<path d="M85.9698 149.853C85.5639 147.541 86.5287 146.181 88.8643 145.773C91.1999 145.364 92.5577 146.328 92.9376 148.665C93.3448 150.972 92.3828 152.33 90.0516 152.74C87.7204 153.15 86.3598 152.188 85.9698 149.853Z" fill="#E10353"/>
<path d="M95.1839 58.9485C94.5349 57.0659 96.1409 55.1112 98.0182 54.7741C98.9404 54.6442 99.877 54.8762 100.632 55.4217C101.387 55.9672 101.901 56.7837 102.067 57.7C102.233 58.6164 102.038 59.5614 101.522 60.337C101.007 61.1126 100.211 61.6585 99.3019 61.8603C97.3692 62.2182 95.2148 60.8791 95.1839 58.9485Z" fill="#E10353"/>
<path d="M151.122 209.415C153.463 208.996 154.815 209.928 155.238 212.255C155.661 214.583 154.726 215.948 152.391 216.369C150.057 216.79 148.705 215.859 148.284 213.524C147.863 211.19 148.795 209.838 151.122 209.415Z" fill="#E10353"/>
<path d="M105.443 186.432C105.01 184.099 105.945 182.72 108.247 182.292C110.55 181.865 111.929 182.802 112.385 185.103C112.815 187.43 111.879 188.809 109.575 189.241C107.271 189.672 105.894 188.736 105.443 186.432Z" fill="#E10353"/>
<path d="M98.7679 176.805C96.8076 177.212 95.0879 175.819 94.8322 173.664C94.7299 172.721 95.0065 171.776 95.6011 171.037C96.1958 170.297 97.0597 169.825 98.0029 169.722C98.9461 169.62 99.8913 169.897 100.631 170.491C101.37 171.086 101.842 171.95 101.945 172.893C102.026 173.363 102.006 173.846 101.886 174.308C101.765 174.77 101.547 175.201 101.246 175.572C100.945 175.942 100.568 176.244 100.141 176.457C99.7132 176.67 99.2451 176.788 98.7679 176.805Z" fill="#E10353"/>
<path d="M139.787 208.385C140.629 207.899 141.342 208.425 142.098 209.005C142.854 209.585 143.746 210.002 143.824 211.254C143.872 212.136 143.9 212.855 143.288 213.546C142.676 214.236 142.37 215.272 141.11 215.376C140.165 215.45 139.36 215.583 138.574 214.852C137.787 214.122 136.946 213.861 136.801 212.647C136.683 211.694 136.923 210.73 137.475 209.943C138.026 209.156 138.85 208.601 139.787 208.385Z" fill="#E10353"/>
<path d="M78.0858 114.762C77.5996 113.92 78.1253 113.207 78.7052 112.451C79.2851 111.695 79.7088 110.804 80.9612 110.727C81.3591 110.644 81.7703 110.649 82.1661 110.742C82.5618 110.834 82.9326 111.012 83.2526 111.263C83.9641 111.902 84.9787 112.181 85.0759 113.439C85.1501 114.384 85.3166 115.198 84.5595 115.977C83.8024 116.757 83.5679 117.605 82.3477 117.748C81.3938 117.866 80.4302 117.626 79.6431 117.074C78.8559 116.523 78.3011 115.699 78.0858 114.762Z" fill="#E10353"/>
<path d="M119.712 201.76C118.747 201.912 117.76 201.697 116.946 201.156C116.133 200.615 115.552 199.788 115.319 198.839C115.025 197.65 115.773 197.01 116.205 196.143C116.636 195.276 117.484 195.062 118.401 194.774C119.622 194.389 120.235 195.265 121.075 195.718C121.914 196.171 122.122 196.832 122.379 197.677C122.77 198.878 122.101 199.567 121.553 200.389C121.006 201.21 120.605 202.042 119.712 201.76Z" fill="#E10353"/>
<path d="M89.3363 164.175C88.3712 164.327 87.3842 164.111 86.5707 163.57C85.7571 163.029 85.1763 162.202 84.9432 161.254C84.6496 160.064 85.3977 159.425 85.8275 158.564C86.3124 157.605 87.1091 157.448 88.0193 157.187C89.2361 156.844 89.8527 157.678 90.6973 158.139C91.0457 158.348 91.3436 158.631 91.5695 158.969C91.7954 159.306 91.9438 159.69 92.004 160.091C92.3924 161.299 91.7235 161.988 91.1777 162.803C90.6318 163.618 90.2025 164.45 89.3363 164.175Z" fill="#E10353"/>
<path d="M83.1268 106.231C81.9504 106.849 81.2947 105.868 80.4327 105.445C79.5707 105.022 79.2961 104.187 79.0381 103.263C78.6883 102.044 79.5741 101.449 79.9641 100.578C80.4215 99.5614 81.2965 99.511 82.1753 99.2339C83.3962 98.8491 83.9926 99.7849 84.8462 100.213C85.6997 100.641 85.8663 101.348 86.1192 102.184C86.5075 103.392 85.7559 104.045 85.2729 104.891C84.79 105.737 84.1823 106.357 83.1268 106.231Z" fill="#E10353"/>
<path d="M204.268 230.626C203.757 229.691 204.188 228.931 204.798 228.169C205.408 227.407 205.777 226.509 207.043 226.435C207.916 226.392 208.641 226.344 209.329 226.962C210.018 227.581 211.072 227.871 211.17 229.129C211.241 230.059 211.414 230.874 210.668 231.664C210.001 232.347 209.719 233.346 208.469 233.467C207.505 233.558 206.714 233.588 205.943 232.904C205.172 232.221 204.126 231.954 204.268 230.626Z" fill="#E10353"/>
<path d="M238.201 234.129C237.952 232.403 239.504 230.277 241.186 230.059C242.867 229.84 245.013 231.426 245.199 233.121C245.222 234 244.952 234.862 244.43 235.57C243.909 236.279 243.167 236.794 242.321 237.034C240.404 237.361 238.358 235.538 238.201 234.129Z" fill="#E10353"/>
<path d="M84.1577 94.81C82.4386 95.0613 80.3128 93.5092 80.0942 91.8274C79.8756 90.1455 81.4548 87.9985 83.1512 87.8052C84.8476 87.6119 86.7958 89.1093 87.0628 90.6901C87.3879 92.5856 85.5834 94.6438 84.1577 94.81Z" fill="#E10353"/>
<path d="M230.75 236.056C229.011 236.301 226.918 234.708 226.715 233.023C226.511 231.338 228.152 229.201 229.818 229.042C231.483 228.883 233.455 230.401 233.703 231.97C233.978 233.681 232.427 235.828 230.75 236.056Z" fill="#E10353"/>
<path d="M79.6903 140.232C78.2967 140.57 75.8862 139.284 75.5243 137.392C75.2338 135.82 76.6087 133.717 78.1818 133.32C79.7548 132.923 82.0536 134.308 82.4436 136.014C82.8336 137.721 81.3908 139.89 79.6903 140.232Z" fill="#E10353"/>
<path d="M196.787 232.451C195.068 232.703 192.942 231.151 192.724 229.469C192.505 227.787 194.091 225.642 195.781 225.447C196.661 225.427 197.523 225.699 198.232 226.222C198.941 226.744 199.457 227.487 199.699 228.333C200.018 230.227 198.213 232.285 196.787 232.451Z" fill="#E10353"/>
<path d="M96.265 47.8469C96.019 46.1079 97.6056 44.0127 99.2972 43.811C100.989 43.6092 103.113 45.2464 103.279 46.914C103.444 48.5816 101.918 50.5577 100.349 50.8065C98.624 51.1061 96.4831 49.5571 96.265 47.8469Z" fill="#E10353"/>
<path d="M185.384 231.432C184.466 231.499 183.554 231.246 182.801 230.716C182.049 230.186 181.503 229.412 181.257 228.525C181.01 226.793 182.56 224.674 184.248 224.457C185.128 224.421 185.995 224.677 186.714 225.185C187.433 225.693 187.964 226.425 188.223 227.266C188.544 228.648 187.28 231.05 185.384 231.432Z" fill="#E10353"/>
<path d="M169.85 227.711C169.467 226.057 170.885 223.845 172.623 223.471C174.13 223.162 176.317 224.46 176.742 226.062C177.167 227.664 175.81 229.963 174.134 230.347C172.458 230.731 170.228 229.407 169.85 227.711Z" fill="#E10353"/>
<path d="M84.1197 76.8584C85.8454 76.6089 87.9645 78.1592 88.1831 79.841C88.4017 81.5228 86.8159 83.6681 85.1279 83.8566C84.2476 83.8796 83.3845 83.6091 82.6748 83.0876C81.9651 82.5662 81.449 81.8235 81.2079 80.9765C80.8881 79.061 82.7108 77.0149 84.1197 76.8584Z" fill="#E10353"/>
<path d="M80.8341 129.268C79.1844 129.659 76.9747 128.234 76.5918 126.501C76.2942 124.955 77.5814 122.808 79.1785 122.374C80.7755 121.94 83.0845 123.314 83.5122 124.959C83.9399 126.604 82.5369 128.891 80.8341 129.268Z" fill="#E10353"/>
<path d="M215.28 232.202C214.929 230.855 216.233 228.406 218.167 228.07C219.045 228.011 219.918 228.245 220.649 228.735C221.38 229.226 221.927 229.946 222.203 230.782C222.601 232.434 221.169 234.642 219.463 235.032C217.756 235.422 215.608 233.899 215.28 232.202Z" fill="#E10353"/>
<path d="M96.7268 181.206C97.6528 181.789 98.8257 181.185 99.501 182.092C100.03 182.775 100.879 183.564 100.803 184.22C100.709 185.078 100.974 186.238 100.051 186.867C99.3618 187.394 98.6162 187.785 97.8897 188.238C97.2163 187.51 96.1966 188.233 95.3876 187.532C94.5787 186.831 94.7619 185.855 93.9492 185.381C94.5017 184.568 93.997 183.529 94.6807 182.651C95.3644 181.774 96.3842 182.139 96.7268 181.206Z" fill="#E10353"/>
<path d="M125.76 211.576C125.993 210.706 126.136 209.854 126.39 209.039C126.718 207.974 127.995 208.045 128.603 207.318C129.372 207.766 130.281 207.433 131.117 207.871C132.131 208.392 131.94 209.608 132.769 210.157C132.194 210.893 132.662 211.83 132.194 212.673C131.726 213.516 130.5 213.337 130.106 214.25C129.266 214.089 128.421 213.948 127.592 213.747C126.486 213.465 126.755 212.035 125.76 211.576Z" fill="#E10353"/>
<path d="M162.802 228.905C161.945 228.305 160.747 228.896 160.085 227.992C159.558 227.303 158.688 226.429 158.828 225.854C159.061 224.984 158.609 223.802 159.627 223.164C160.347 222.709 161.198 221.819 161.794 221.957C162.658 222.189 163.839 221.793 164.481 222.798C164.887 223.462 165.706 224.18 165.614 224.761C165.477 225.642 165.787 226.772 164.902 227.418C164.212 227.973 163.49 228.435 162.802 228.905Z" fill="#E10353"/>
<path d="M74.4954 148.807C74.6733 147.9 74.9825 147.023 75.4132 146.205C75.9118 145.5 76.6614 145.013 77.508 144.844C78.4316 144.856 79.3253 145.173 80.0501 145.746C80.7462 146.259 81.2336 147.007 81.4226 147.851C81.4595 148.716 81.1887 149.567 80.6582 150.252C80.1647 150.961 79.4268 151.463 78.586 151.662C77.6444 151.705 76.7152 151.433 75.945 150.89C75.2952 150.445 74.969 149.511 74.4954 148.807Z" fill="#E10353"/>
<path d="M85.5296 65.8307C87.7823 65.3949 88.7167 65.9727 89.1368 68.0717C89.5569 70.1706 88.8885 71.2303 86.9662 71.7618C84.8614 72.3369 83.3987 71.1263 83.1775 69.401C82.9165 67.2664 83.5096 66.2221 85.5296 65.8307Z" fill="#E10353"/>
<path d="M86.4398 169.301C86.8293 169.176 87.242 169.14 87.6471 169.198C88.0522 169.255 88.439 169.403 88.7786 169.631C89.1183 169.859 89.4019 170.161 89.6081 170.514C89.8144 170.867 89.9381 171.263 89.9698 171.671C90.2355 173.92 89.6205 174.781 87.3616 175.293C86.9628 175.385 86.5488 175.388 86.1486 175.303C85.7484 175.217 85.3717 175.046 85.045 174.799C84.7182 174.553 84.4493 174.238 84.257 173.877C84.0648 173.516 83.9538 173.117 83.932 172.708C83.7143 170.678 84.3467 169.673 86.4398 169.301Z" fill="#E10353"/>
<path d="M106.842 194.339C108.93 193.959 109.966 194.664 110.358 196.706C110.788 199.006 110.144 199.923 107.816 200.296C105.782 200.634 104.772 199.886 104.403 197.78C104.035 195.673 104.753 194.72 106.842 194.339Z" fill="#E10353"/>
<path d="M118.392 212.77C117.598 212.913 116.78 212.735 116.118 212.275C115.455 211.815 115.002 211.111 114.859 210.317C114.716 209.524 114.894 208.706 115.354 208.043C115.814 207.381 116.518 206.928 117.312 206.785C117.705 206.714 118.108 206.721 118.498 206.806C118.888 206.89 119.258 207.051 119.586 207.279C119.914 207.507 120.194 207.797 120.41 208.133C120.626 208.469 120.773 208.844 120.844 209.237C120.915 209.63 120.908 210.033 120.823 210.423C120.738 210.813 120.577 211.183 120.35 211.511C120.122 211.839 119.832 212.119 119.496 212.335C119.16 212.551 118.785 212.699 118.392 212.77Z" fill="#E10353"/>
<path d="M73.9509 159.953C73.4789 159.057 74.2756 158.502 74.6131 157.774C75.0577 156.832 75.9315 156.945 76.6867 156.677C77.6635 156.327 78.2075 157.007 78.934 157.351C79.874 157.802 79.7626 158.669 80.0302 159.424C80.3807 160.401 79.701 160.945 79.3568 161.672C78.9056 162.612 78.0384 162.5 77.2832 162.768C76.3064 163.118 75.714 162.54 75.0496 162.07C74.1874 161.461 74.1892 161.455 73.9509 159.953Z" fill="#E10353"/>
<path d="M147.762 224.826C147.669 224.233 147.754 223.626 148.007 223.081C148.259 222.537 148.668 222.08 149.18 221.767C149.692 221.455 150.286 221.302 150.886 221.327C151.485 221.352 152.064 221.555 152.548 221.909C153.033 222.263 153.401 222.753 153.607 223.317C153.813 223.88 153.847 224.492 153.705 225.075C153.563 225.658 153.251 226.186 152.809 226.592C152.366 226.997 151.814 227.263 151.221 227.354C150.825 227.443 150.415 227.446 150.017 227.363C149.62 227.281 149.245 227.114 148.918 226.875C148.59 226.635 148.318 226.328 148.118 225.975C147.919 225.622 147.797 225.23 147.762 224.826Z" fill="#E10353"/>
<path d="M67.1235 113.719C67.0278 112.269 67.6779 110.614 69.6518 110.288C70.44 110.165 71.2448 110.36 71.8892 110.831C72.5335 111.301 72.9646 112.008 73.0876 112.797C73.2106 113.585 73.0155 114.39 72.5451 115.034C72.0747 115.678 71.3676 116.109 70.5793 116.232C70.187 116.297 69.7856 116.284 69.3986 116.192C69.0116 116.101 68.6467 115.933 68.3251 115.699C68.0035 115.465 67.7316 115.17 67.5253 114.83C67.319 114.49 67.1824 114.112 67.1235 113.719Z" fill="#E10353"/>
<path d="M70.6911 98.7839C72.3904 98.7124 73.8636 99.5912 74.0892 101.353C74.1685 101.752 74.1658 102.163 74.0812 102.561C73.9966 102.959 73.8319 103.336 73.5971 103.668C73.3623 104 73.0624 104.281 72.7155 104.494C72.3687 104.707 71.9822 104.847 71.5796 104.905C71.1769 104.964 70.7666 104.939 70.3736 104.834C69.9805 104.729 69.613 104.545 69.2934 104.293C68.9737 104.042 68.7087 103.728 68.5143 103.37C68.32 103.013 68.2004 102.62 68.1628 102.214C68.1034 101.823 68.1217 101.424 68.2166 101.04C68.3115 100.656 68.4812 100.294 68.716 99.9752C68.9508 99.6566 69.2461 99.3874 69.585 99.183C69.9239 98.9786 70.2997 98.843 70.6911 98.7839Z" fill="#E10353"/>
<path d="M72.9961 171.7C72.8952 171.109 72.9721 170.501 73.2171 169.953C73.462 169.405 73.8639 168.942 74.372 168.623C74.8801 168.304 75.4715 168.142 76.0713 168.159C76.6712 168.176 77.2525 168.371 77.7418 168.718C78.231 169.066 78.6062 169.55 78.8198 170.111C79.0334 170.672 79.0758 171.284 78.9417 171.868C78.8076 172.453 78.503 172.985 78.0664 173.397C77.6298 173.809 77.0809 174.082 76.4891 174.181C75.7001 174.293 74.8982 174.098 74.2484 173.637C73.5987 173.175 73.1505 172.482 72.9961 171.7Z" fill="#E10353"/>
<path d="M66.0436 124.764C65.937 124.175 66.0073 123.568 66.2458 123.019C66.4842 122.47 66.88 122.004 67.3831 121.68C67.8862 121.356 68.4741 121.189 69.0723 121.199C69.6706 121.209 70.2524 121.397 70.7443 121.737C71.2361 122.078 71.6159 122.557 71.8356 123.114C72.0553 123.67 72.105 124.279 71.9785 124.864C71.852 125.449 71.555 125.983 71.1249 126.399C70.6948 126.815 70.1511 127.095 69.5624 127.202C68.7759 127.318 67.9744 127.131 67.3208 126.679C66.6673 126.226 66.2106 125.541 66.0436 124.764Z" fill="#E10353"/>
<path d="M69.1624 90.9628C69.0782 90.5755 69.0715 90.1753 69.1426 89.7853C69.2138 89.3954 69.3614 89.0233 69.5769 88.6906C69.7924 88.358 70.0717 88.0712 70.3985 87.8469C70.7253 87.6226 71.0933 87.4651 71.4812 87.3836C71.866 87.2998 72.2636 87.2925 72.6511 87.3622C73.0387 87.432 73.4088 87.5774 73.7402 87.7901C74.0716 88.0029 74.3578 88.2788 74.5826 88.6022C74.8073 88.9256 74.9662 89.29 75.0501 89.6748C75.1339 90.0596 75.1412 90.4571 75.0715 90.8447C75.0017 91.2323 74.8564 91.6024 74.6436 91.9337C74.4308 92.2651 74.1549 92.5514 73.8315 92.7761C73.5081 93.0009 73.1436 93.1597 72.7589 93.2436C71.0321 93.6566 69.6907 92.5781 69.1624 90.9628Z" fill="#E10353"/>
<path d="M139.831 226.339C139.243 226.446 138.636 226.376 138.087 226.139C137.538 225.901 137.072 225.506 136.747 225.004C136.423 224.501 136.254 223.914 136.263 223.316C136.273 222.718 136.459 222.136 136.798 221.644C137.138 221.151 137.616 220.771 138.172 220.55C138.727 220.329 139.336 220.278 139.921 220.403C140.506 220.528 141.041 220.823 141.458 221.252C141.875 221.681 142.156 222.223 142.264 222.812C142.382 223.598 142.196 224.401 141.744 225.056C141.292 225.71 140.609 226.169 139.831 226.339Z" fill="#E10353"/>
<path d="M95.8721 193.244C96.4611 193.14 97.0677 193.213 97.6153 193.453C98.1629 193.693 98.627 194.091 98.949 194.595C99.2709 195.099 99.4363 195.687 99.4242 196.285C99.4121 196.883 99.2231 197.464 98.881 197.954C98.5389 198.445 98.0591 198.823 97.5022 199.041C96.9453 199.259 96.3362 199.307 95.752 199.179C95.1677 199.052 94.6345 198.753 94.2196 198.323C93.8047 197.892 93.5268 197.348 93.4209 196.759C93.3072 195.972 93.4972 195.17 93.9524 194.518C94.4075 193.865 95.0938 193.41 95.8721 193.244Z" fill="#E10353"/>
<path d="M84.2209 57.9333C84.1417 57.5441 84.1404 57.1431 84.2172 56.7534C84.2939 56.3637 84.4472 55.9931 84.668 55.663C84.8889 55.3329 85.173 55.0499 85.5039 54.8302C85.8348 54.6106 86.206 54.4587 86.596 54.3834C86.982 54.3036 87.3799 54.3006 87.7671 54.3746C88.1543 54.4486 88.5231 54.5981 88.8525 54.8146C89.1819 55.0311 89.4654 55.3104 89.6869 55.6365C89.9084 55.9626 90.0634 56.3291 90.1433 56.7151C90.2231 57.1011 90.2261 57.4991 90.1521 57.8863C90.0781 58.2735 89.9286 58.6423 89.7121 58.9717C89.4956 59.3011 89.2163 59.5846 88.8902 59.806C88.5641 60.0275 88.1976 60.1826 87.8116 60.2624C85.8283 60.6494 84.6396 59.3199 84.2209 57.9333Z" fill="#E10353"/>
<path d="M85.4392 180.766C86.0307 180.664 86.6392 180.739 87.1876 180.983C87.7361 181.227 88.1998 181.628 88.5201 182.136C88.8403 182.644 89.0028 183.235 88.9868 183.835C88.9708 184.435 88.7772 185.017 88.4303 185.507C88.0835 185.997 87.5991 186.373 87.0385 186.587C86.4778 186.801 85.8662 186.845 85.281 186.711C84.6958 186.578 84.1633 186.274 83.751 185.837C83.3387 185.401 83.0652 184.852 82.965 184.261C82.8525 183.472 83.0463 182.671 83.5065 182.021C83.9666 181.371 84.6582 180.922 85.4392 180.766Z" fill="#E10353"/>
<path d="M64.5199 136.217C64.4502 134.511 65.329 133.037 67.0977 132.814C67.8591 132.75 68.6161 132.98 69.214 133.455C69.8119 133.931 70.2056 134.617 70.3146 135.374C70.4237 136.13 70.2399 136.899 69.8009 137.524C69.3618 138.15 68.7006 138.584 67.9522 138.738C67.1627 138.859 66.3576 138.661 65.714 138.188C65.0703 137.715 64.6408 137.006 64.5199 136.217Z" fill="#E10353"/>
<path d="M105.731 205.312C106.727 205.102 109.163 206.801 109.281 207.794C109.4 208.787 107.924 210.947 106.974 211.248C106.025 211.549 103.619 209.979 103.329 208.911C103.065 207.958 104.69 205.531 105.731 205.312Z" fill="#E10353"/>
<path d="M65.919 144.281C66.8757 144.031 69.315 145.689 69.5029 146.715C69.6613 147.611 68.2038 149.862 67.2457 150.196C66.2876 150.531 63.8831 148.982 63.5841 147.92C63.2795 146.984 64.855 144.558 65.919 144.281Z" fill="#E10353"/>
<path d="M128.485 225.321C127.287 225.434 124.984 223.934 124.875 222.986C124.865 222.358 125.031 221.739 125.354 221.199C126.343 219.286 127.961 218.986 129.623 220.357C130.793 221.304 130.998 222.348 130.179 223.596C129.673 224.225 129.105 224.803 128.485 225.321Z" fill="#E10353"/>
<path d="M65.9222 161.219C64.1738 161.526 63.3745 160.949 63.0541 159.169C62.7073 157.275 63.2601 156.54 65.2726 156.204C66.9385 155.938 67.7338 156.557 68.0519 158.372C68.3112 160.115 67.7242 160.897 65.9222 161.219Z" fill="#E10353"/>
<path d="M85.7126 46.3082C85.3856 44.5261 85.9399 43.7064 87.6719 43.3802C89.5829 43.0236 90.3676 43.5757 90.6953 45.5146C90.9883 47.2377 90.3995 48.0268 88.5909 48.3467C86.7822 48.6666 86.0281 48.08 85.7126 46.3082Z" fill="#E10353"/>
<path d="M73.1615 76.2788C74.9502 75.9536 75.765 76.4994 76.0979 78.2332C76.4544 80.1442 75.894 80.9338 73.9617 81.2633C72.2386 81.5563 71.4495 80.9675 71.1296 79.1589C70.8097 77.3502 71.3962 76.5961 73.1615 76.2788Z" fill="#E10353"/>
<path d="M195.679 242.912C193.897 243.239 193.077 242.685 192.753 240.946C192.395 239.042 192.955 238.252 194.885 237.958C196.608 237.665 197.391 238.252 197.714 240.075C198.037 241.899 197.446 242.588 195.679 242.912Z" fill="#E10353"/>
<path d="M82.359 195.105C82.0563 193.365 82.627 192.564 84.409 192.237C86.3014 191.897 87.0428 192.452 87.3744 194.456C87.64 196.121 87.0228 196.91 85.2058 197.235C83.4716 197.489 82.6935 196.939 82.359 195.105Z" fill="#E10353"/>
<path d="M215.191 243.057C214.848 241.228 215.369 240.399 217.066 240.071C218.907 239.71 219.779 240.228 220.142 241.877C220.538 243.877 220.028 244.695 218.162 245.014C216.297 245.332 215.517 244.789 215.191 243.057Z" fill="#E10353"/>
<path d="M203.716 242.011C203.381 240.206 203.922 239.382 205.639 239.059C207.56 238.691 208.36 239.24 208.686 241.157C208.991 242.891 208.414 243.69 206.618 244.014C204.823 244.337 204.037 243.763 203.716 242.011Z" fill="#E10353"/>
<path d="M181.254 239.809C180.951 238.069 181.523 237.261 183.304 236.94C185.196 236.6 185.937 237.155 186.269 239.159C186.535 240.825 185.917 241.614 184.102 241.932C182.337 242.221 181.577 241.632 181.254 239.809Z" fill="#E10353"/>
<path d="M169.689 238.276C169.398 236.546 169.98 235.755 171.782 235.434C173.584 235.112 174.392 235.685 174.733 237.705C174.988 239.411 174.436 240.118 172.49 240.443C170.786 240.72 170.008 240.113 169.689 238.276Z" fill="#E10353"/>
<path d="M160.318 234.455C160.972 234.337 161.645 234.483 162.191 234.86C162.737 235.237 163.111 235.815 163.232 236.468C163.306 236.811 163.306 237.166 163.231 237.509C163.156 237.852 163.008 238.174 162.798 238.455C162.588 238.736 162.32 238.969 162.012 239.138C161.704 239.306 161.364 239.407 161.014 239.433C160.688 239.487 160.355 239.472 160.035 239.39C159.715 239.308 159.416 239.161 159.156 238.957C158.896 238.754 158.681 238.499 158.524 238.208C158.368 237.917 158.274 237.597 158.248 237.268C158.169 236.623 158.339 235.973 158.724 235.45C159.109 234.927 159.68 234.571 160.318 234.455Z" fill="#E10353"/>
<path d="M92.3372 207.739C92.2134 207.09 92.3514 206.418 92.7209 205.87C93.0904 205.322 93.6616 204.943 94.3098 204.815C94.6507 204.734 95.0049 204.727 95.3487 204.794C95.6925 204.861 96.0181 205.001 96.3039 205.203C96.5897 205.406 96.8292 205.667 97.0063 205.969C97.1835 206.271 97.2943 206.607 97.3315 206.956C97.3999 207.607 97.2198 208.261 96.8271 208.785C96.4344 209.31 95.8582 209.666 95.2138 209.784C94.5616 209.891 93.8939 209.735 93.3554 209.353C92.8168 208.97 92.451 208.39 92.3372 207.739Z" fill="#E10353"/>
<path d="M72.2414 68.2861C72.1194 67.6425 72.2497 66.9767 72.6052 66.4265C72.9607 65.8763 73.5142 65.4839 74.1511 65.3306C74.4689 65.2407 74.8018 65.2173 75.1291 65.262C75.4564 65.3067 75.7709 65.4184 76.053 65.5902C76.3351 65.7621 76.5787 65.9903 76.7685 66.2605C76.9584 66.5308 77.0904 66.8374 77.1563 67.1611C77.2522 67.4975 77.2752 67.8505 77.224 68.1966C77.1727 68.5427 77.0482 68.8738 76.8589 69.168C76.6696 69.4622 76.4198 69.7127 76.1261 69.9027C75.8324 70.0928 75.5015 70.218 75.1556 70.2702C74.5066 70.3889 73.8369 70.2472 73.2915 69.8759C72.7461 69.5046 72.3689 68.9335 72.2414 68.2861Z" fill="#E10353"/>
<path d="M114.27 221.191C114.173 220.529 114.343 219.855 114.742 219.318C115.142 218.781 115.739 218.424 116.401 218.327C117.063 218.23 117.737 218.4 118.274 218.799C118.812 219.199 119.168 219.795 119.265 220.458C119.321 221.107 119.133 221.754 118.737 222.272C118.342 222.79 117.767 223.142 117.126 223.259C116.474 223.356 115.811 223.193 115.277 222.807C114.743 222.42 114.382 221.841 114.27 221.191Z" fill="#E10353"/>
<path d="M226.741 244.507C226.621 243.862 226.755 243.195 227.115 242.645C227.474 242.096 228.031 241.706 228.671 241.557C229.314 241.437 229.979 241.562 230.534 241.907C231.09 242.252 231.497 242.793 231.674 243.423C231.745 243.746 231.752 244.081 231.694 244.408C231.636 244.734 231.514 245.046 231.335 245.325C231.156 245.605 230.924 245.846 230.652 246.036C230.38 246.226 230.074 246.36 229.75 246.431C229.426 246.502 229.091 246.509 228.765 246.451C228.438 246.393 228.127 246.271 227.847 246.092C227.568 245.914 227.326 245.682 227.137 245.41C226.947 245.138 226.812 244.831 226.741 244.507Z" fill="#E10353"/>
<path d="M71.8881 182.61C71.8307 182.27 71.843 181.923 71.9241 181.588C72.0053 181.254 72.1537 180.939 72.3602 180.664C72.5667 180.389 72.8271 180.158 73.1255 179.987C73.4239 179.815 73.7542 179.706 74.096 179.666C74.4379 179.626 74.7844 179.656 75.1143 179.755C75.4442 179.853 75.7506 180.017 76.015 180.237C76.2794 180.458 76.4962 180.73 76.6522 181.037C76.8082 181.343 76.9002 181.679 76.9225 182.022C76.9646 182.671 76.7559 183.312 76.3394 183.811C75.9229 184.311 75.3305 184.632 74.6844 184.707C74.0383 184.783 73.3879 184.607 72.8676 184.217C72.3472 183.826 71.9966 183.251 71.8881 182.61Z" fill="#E10353"/>
<path d="M241.023 247.537C240.381 247.52 239.76 247.299 239.251 246.907C238.742 246.515 238.371 245.971 238.191 245.354C238.207 244.71 238.428 244.088 238.821 243.578C239.213 243.068 239.758 242.696 240.376 242.515C241.02 242.53 241.642 242.75 242.152 243.143C242.663 243.536 243.035 244.081 243.215 244.699C243.2 245.344 242.979 245.967 242.585 246.477C242.19 246.988 241.643 247.359 241.023 247.537Z" fill="#E10353"/>
<path d="M147.275 236.314C147.251 235.673 147.431 235.04 147.79 234.508C148.149 233.976 148.668 233.572 149.272 233.354C149.912 233.331 150.544 233.511 151.076 233.868C151.608 234.225 152.014 234.742 152.234 235.344C152.257 235.985 152.075 236.616 151.717 237.148C151.358 237.68 150.841 238.085 150.238 238.304C149.597 238.328 148.965 238.149 148.433 237.791C147.901 237.434 147.495 236.917 147.275 236.314Z" fill="#E10353"/>
<path d="M63.9766 167.205C64.6169 167.194 65.2445 167.384 65.7702 167.75C66.2959 168.116 66.693 168.638 66.9049 169.242C66.9933 169.734 66.9339 170.24 66.7344 170.698C66.5348 171.156 66.204 171.544 65.7837 171.814C65.3635 172.083 64.8728 172.222 64.3736 172.213C63.8744 172.203 63.3892 172.046 62.9794 171.761C62.5696 171.476 62.2535 171.075 62.0713 170.611C61.889 170.146 61.8487 169.637 61.9555 169.15C62.0622 168.662 62.3112 168.217 62.671 167.871C63.0308 167.524 63.4851 167.293 63.9766 167.205Z" fill="#E10353"/>
<path d="M54.0824 135.207C53.8751 134.439 55.1715 132.444 56.0294 132.219C56.8873 131.993 58.7985 133.309 59.0243 134.167C59.25 135.025 57.9268 136.935 57.0689 137.16C56.211 137.386 54.3015 136.063 54.0824 135.207Z" fill="#E10353"/>
<path d="M57.1043 120.738C57.8908 120.593 59.8959 121.984 60.0345 122.769C60.1731 123.554 58.7881 125.561 58.0016 125.706C57.2152 125.851 55.2101 124.46 55.0715 123.675C54.9329 122.89 56.3179 120.883 57.1043 120.738Z" fill="#E10353"/>
<path d="M60.1363 103.26C59.3777 103.434 57.362 102.083 57.1756 101.264C56.9892 100.445 58.3466 98.4877 59.1721 98.3031C59.9976 98.1185 61.9398 99.479 62.1262 100.298C62.3126 101.117 60.957 103.067 60.1363 103.26Z" fill="#E10353"/>
<path d="M135.795 235.239C135.686 234.398 137.095 232.433 137.869 232.334C138.643 232.236 140.674 233.634 140.773 234.408C140.872 235.182 139.473 237.214 138.699 237.313C137.925 237.411 135.892 236.019 135.795 235.239Z" fill="#E10353"/>
<path d="M102.8 220.211C102.646 219.458 104.046 217.419 104.833 217.274C105.619 217.129 107.624 218.521 107.763 219.305C107.902 220.09 106.517 222.097 105.73 222.242C104.944 222.387 102.945 220.997 102.8 220.211Z" fill="#E10353"/>
<path d="M56.0953 112.309C55.8814 111.539 57.1529 109.531 58.0082 109.262C58.8635 108.992 60.7862 110.319 61.0554 111.174C61.3246 112.03 59.9978 113.952 59.1425 114.222C58.2872 114.491 56.3379 113.157 56.0953 112.309Z" fill="#E10353"/>
<path d="M57.0601 146.015C57.3499 147.723 57.1964 147.924 55.3444 148.246C53.4923 148.569 53.3473 148.366 53.0042 146.352C52.7548 144.811 52.993 144.534 54.8632 144.223C56.5394 143.946 56.7367 144.113 57.0601 146.015Z" fill="#E10353"/>
<path d="M249.647 246.359C249.359 244.644 249.511 244.45 251.363 244.127C253.215 243.805 253.368 244.003 253.705 246.015C253.952 247.562 253.716 247.834 251.846 248.144C250.17 248.421 249.97 248.261 249.647 246.359Z" fill="#E10353"/>
<path d="M75.4895 54.3051C77.1975 54.0152 77.3985 54.1687 77.721 56.0207C78.0435 57.8728 77.8391 58.0245 75.8266 58.361C74.2861 58.6103 74.0082 58.3721 73.6977 56.5019C73.4206 54.8257 73.5874 54.6284 75.4895 54.3051Z" fill="#E10353"/>
<path d="M60.1816 78.1689C60.0828 77.6565 60.1819 77.1256 60.459 76.6832C60.736 76.2409 61.1704 75.92 61.6747 75.7853C61.9483 75.7178 62.233 75.7085 62.5104 75.758C62.7879 75.8074 63.0519 75.9145 63.2854 76.0724C63.5188 76.2302 63.7166 76.4353 63.8659 76.6743C64.0152 76.9133 64.1126 77.181 64.152 77.4601C64.246 77.9866 64.127 78.5289 63.8212 78.9676C63.5154 79.4064 63.0478 79.7057 62.5213 79.7997C61.9947 79.8937 61.4525 79.7747 61.0137 79.4689C60.5749 79.1631 60.2756 78.6955 60.1816 78.1689Z" fill="#E10353"/>
<path d="M81.8852 206.676C81.7616 206.159 81.8419 205.615 82.1093 205.156C82.3768 204.697 82.8109 204.359 83.3212 204.213C83.7081 204.11 84.1169 204.124 84.4957 204.253C84.8746 204.383 85.2065 204.622 85.4493 204.94C85.6922 205.258 85.835 205.642 85.8598 206.041C85.8846 206.441 85.7901 206.839 85.5885 207.185C85.3868 207.531 85.087 207.809 84.7271 207.984C84.3671 208.159 83.9632 208.224 83.5666 208.169C83.1699 208.115 82.7984 207.944 82.4991 207.678C82.1998 207.412 81.9861 207.063 81.8852 206.676Z" fill="#E10353"/>
<path d="M54.3624 159.189C53.8494 159.291 53.3169 159.193 52.8728 158.917C52.4288 158.641 52.1062 158.206 51.9703 157.701C51.9023 157.428 51.8923 157.143 51.9407 156.866C51.9891 156.588 52.0951 156.324 52.2517 156.089C52.4083 155.855 52.6121 155.656 52.8501 155.506C53.0881 155.355 53.355 155.255 53.6336 155.214C54.1538 155.133 54.6847 155.259 55.1135 155.564C55.5424 155.869 55.8353 156.33 55.9302 156.847C56.0251 157.365 55.9144 157.899 55.6217 158.337C55.3289 158.774 54.8772 159.08 54.3624 159.189Z" fill="#E10353"/>
<path d="M72.9721 191.743C73.4852 191.645 74.0164 191.745 74.4585 192.023C74.9006 192.302 75.2206 192.737 75.354 193.242C75.4214 193.516 75.4307 193.801 75.3813 194.078C75.3318 194.356 75.2247 194.62 75.0669 194.853C74.909 195.087 74.704 195.284 74.4649 195.434C74.2259 195.583 73.9582 195.68 73.6792 195.72C73.1633 195.787 72.6413 195.654 72.2216 195.346C71.8019 195.039 71.5169 194.581 71.4258 194.069C71.3347 193.557 71.4446 193.029 71.7326 192.596C72.0206 192.163 72.4645 191.857 72.9721 191.743Z" fill="#E10353"/>
<path d="M91.8352 219.124C91.75 218.608 91.8637 218.079 92.1534 217.644C92.4432 217.209 92.8873 216.9 93.396 216.78C93.6709 216.721 93.9551 216.719 94.2304 216.776C94.5058 216.833 94.7663 216.947 94.9953 217.11C95.2242 217.273 95.4166 217.482 95.5602 217.724C95.7038 217.966 95.7953 218.235 95.829 218.514C95.8862 219.032 95.7407 219.553 95.4231 219.967C95.1055 220.38 94.6403 220.655 94.1247 220.734C93.6091 220.813 93.083 220.689 92.6563 220.389C92.2297 220.089 91.9355 219.636 91.8352 219.124Z" fill="#E10353"/>
<path d="M124.788 233.806C124.664 233.289 124.744 232.745 125.012 232.286C125.279 231.828 125.713 231.49 126.224 231.343C126.612 231.238 127.023 231.251 127.404 231.38C127.785 231.509 128.119 231.749 128.363 232.068C128.608 232.388 128.752 232.773 128.777 233.174C128.802 233.576 128.708 233.976 128.505 234.323C128.302 234.671 128.001 234.95 127.639 235.126C127.277 235.302 126.871 235.366 126.473 235.311C126.074 235.255 125.701 235.083 125.401 234.815C125.101 234.547 124.888 234.196 124.788 233.806Z" fill="#E10353"/>
<path d="M62.9739 179.182C63.2402 179.116 63.517 179.105 63.7876 179.149C64.0582 179.194 64.317 179.293 64.5481 179.441C64.7792 179.588 64.9778 179.781 65.1319 180.008C65.286 180.235 65.3924 180.491 65.4445 180.76C65.4966 181.03 65.4934 181.307 65.4351 181.575C65.3767 181.843 65.2645 182.096 65.1052 182.319C64.9458 182.542 64.7428 182.731 64.5083 182.873C64.2738 183.015 64.0129 183.108 63.7413 183.147C63.2281 183.219 62.7068 183.091 62.2849 182.79C61.8631 182.489 61.573 182.037 61.4745 181.529C61.3761 181.02 61.4767 180.493 61.7557 180.056C62.0348 179.619 62.4708 179.306 62.9739 179.182Z" fill="#E10353"/>
<path d="M60.7326 87.2445C61.2458 87.1465 61.777 87.2467 62.219 87.5251C62.6611 87.8034 62.9812 88.2391 63.1145 88.7442C63.1823 89.0175 63.192 89.3019 63.1431 89.5791C63.0942 89.8564 62.9877 90.1203 62.8305 90.3539C62.6734 90.5875 62.469 90.7855 62.2306 90.9353C61.9922 91.085 61.725 91.1832 61.4464 91.2234C60.9251 91.3033 60.3932 91.1765 59.9641 90.8698C59.535 90.5632 59.2428 90.101 59.1497 89.5819C59.0565 89.0628 59.1699 88.5279 59.4657 88.0912C59.7614 87.6545 60.216 87.3507 60.7326 87.2445Z" fill="#E10353"/>
<path d="M74.6954 45.3923C74.7232 45.1753 74.7801 44.963 74.8645 44.7612C75.2068 44.1908 75.5906 43.6464 76.0129 43.1324C76.1575 42.9647 76.5633 42.9382 76.8295 42.981C77.0957 43.0238 77.2421 43.2482 77.4333 43.3848C79.1528 44.5931 79.0722 44.2298 77.9068 45.9751C77.2154 47.0144 77.1523 47.1968 76.0078 46.3135C75.5648 45.974 75.0911 45.6692 74.6954 45.3923Z" fill="#E10353"/>
<path d="M114.668 230.333C114.981 230.36 115.169 230.324 115.284 230.398C115.842 230.761 116.384 231.156 116.933 231.552C117.372 231.854 117.331 232.192 117.041 232.585C116.728 233.077 116.387 233.552 116.019 234.005C115.856 234.189 115.41 234.34 115.243 234.246C114.596 233.868 113.977 233.445 113.389 232.98C113.332 232.924 113.29 232.854 113.267 232.777C113.244 232.7 113.241 232.618 113.258 232.539C113.719 231.751 114.223 231.011 114.668 230.333Z" fill="#E10353"/>
<path d="M60.4513 193.115C60.2121 192.069 60.5219 191.497 61.4636 191.251C62.4052 191.005 63.1194 191.288 63.3496 192.183C63.6605 193.334 63.3147 193.961 62.2318 194.176C61.1488 194.391 60.6734 194.093 60.4513 193.115Z" fill="#E10353"/>
<path d="M51.4823 168.983C51.2714 167.937 51.5905 167.41 52.5684 167.188C53.5464 166.966 54.187 167.259 54.4331 168.2C54.7284 169.383 54.3853 169.946 53.2426 170.145C52.1863 170.368 51.6848 170.034 51.4823 168.983Z" fill="#E10353"/>
<path d="M160.008 249.879C158.966 250.076 158.463 249.749 158.248 248.745C157.986 247.543 158.331 247.051 159.552 246.88C160.558 246.737 161.047 247.117 161.217 248.159C161.386 249.201 161.043 249.686 160.008 249.879Z" fill="#E10353"/>
<path d="M70.9127 205.565C70.68 204.52 70.993 203.964 71.9515 203.708C72.91 203.452 73.5953 203.764 73.8286 204.674C74.1329 205.823 73.7839 206.434 72.6926 206.655C71.6013 206.875 71.1312 206.557 70.9127 205.565Z" fill="#E10353"/>
<path d="M171.375 250.902C170.36 251.05 169.879 250.694 169.698 249.641C169.517 248.589 169.941 247.991 171.122 247.887C172.068 247.785 172.569 248.225 172.698 249.285C172.827 250.345 172.474 250.734 171.375 250.902Z" fill="#E10353"/>
<path d="M181.15 250.581C181.002 249.566 181.359 249.085 182.411 248.904C183.464 248.724 184.062 249.147 184.166 250.328C184.266 251.281 183.828 251.776 182.759 251.91C181.691 252.043 181.319 251.68 181.15 250.581Z" fill="#E10353"/>
<path d="M193.448 250.495C194.487 250.31 194.988 250.644 195.196 251.675C195.435 252.857 195.073 253.358 193.862 253.518C192.864 253.656 192.377 253.269 192.211 252.214C192.045 251.158 192.407 250.686 193.448 250.495Z" fill="#E10353"/>
<path d="M204.917 251.503C205.958 251.312 206.46 251.646 206.659 252.682C206.904 253.865 206.542 254.366 205.323 254.531C204.327 254.663 203.845 254.284 203.679 253.229C203.513 252.174 203.878 251.688 204.917 251.503Z" fill="#E10353"/>
<path d="M63.4892 67.7637C62.4413 67.9812 61.9146 67.6621 61.6942 66.6775C61.4739 65.693 61.7631 65.0656 62.7065 64.8129C63.8807 64.5224 64.4438 64.8655 64.6515 66.0033C64.8592 67.1411 64.5052 67.5589 63.4892 67.7637Z" fill="#E10353"/>
<path d="M44.7481 132.207C45.796 131.99 46.3294 132.311 46.5497 133.295C46.77 134.28 46.4743 134.905 45.5308 135.158C44.3566 135.449 43.7935 135.106 43.5858 133.968C43.3781 132.83 43.7387 132.414 44.7481 132.207Z" fill="#E10353"/>
<path d="M46.4157 123.698C45.3696 123.909 44.8428 123.59 44.6207 122.612C44.3986 121.634 44.6913 120.993 45.633 120.747C46.809 120.45 47.3721 120.793 47.5798 121.931C47.7875 123.069 47.4335 123.486 46.4157 123.698Z" fill="#E10353"/>
<path d="M44.3776 146.397C43.7329 145.988 43.1199 145.531 42.544 145.03C42.2665 144.763 43.4 143.031 43.7422 143.215C44.378 143.499 45.2417 143.916 45.3598 144.432C45.4779 144.948 44.8096 145.609 44.3776 146.397Z" fill="#E10353"/>
<path d="M48.2606 97.4156C48.8924 97.8534 49.4878 98.3415 50.041 98.8751C50.3144 99.1833 49.0987 100.851 48.7564 100.667C48.1331 100.336 47.2964 99.8982 47.1867 99.3776C47.077 98.857 47.795 98.2235 48.2606 97.4156Z" fill="#E10353"/>
<path d="M226.359 255.262C226.943 254.571 227.345 253.682 227.863 253.608C228.381 253.533 229.084 254.205 229.575 254.686C229.857 254.961 228.659 256.64 228.297 256.479C227.621 256.122 226.973 255.716 226.359 255.262Z" fill="#E10353"/>
<path d="M104.528 232.998C103.848 232.403 102.961 231.994 102.893 231.477C102.825 230.961 103.514 230.22 103.989 229.778C104.269 229.504 105.941 230.728 105.777 231.076C105.399 231.741 104.982 232.383 104.528 232.998Z" fill="#E10353"/>
<path d="M146.521 247.845C147.015 247.116 147.316 246.179 147.819 246.057C148.321 245.935 149.112 246.546 149.677 246.932C149.973 247.133 148.993 248.956 148.577 248.859C147.859 248.593 147.17 248.253 146.521 247.845Z" fill="#E10353"/>
<path d="M82.5958 219.517C81.9134 218.929 81.028 218.514 80.9599 217.997C80.8919 217.48 81.5709 216.779 82.0561 216.297C82.336 216.023 84.0068 217.254 83.8425 217.602C83.4719 218.268 83.0554 218.909 82.5958 219.517Z" fill="#E10353"/>
<path d="M45.3556 111.154C45.7622 110.511 46.2083 109.893 46.6912 109.305C46.9511 109.026 48.7022 110.143 48.5458 110.514C48.2748 111.153 47.8632 112.025 47.3522 112.152C46.8413 112.278 46.1524 111.581 45.3556 111.154Z" fill="#E10353"/>
<path d="M217.088 255.718C216.359 255.224 215.421 254.923 215.299 254.42C215.178 253.918 215.788 253.127 216.168 252.56C216.368 252.265 218.192 253.245 218.095 253.66C217.83 254.379 217.493 255.068 217.088 255.718Z" fill="#E10353"/>
<path d="M50.1866 180.49C50.6178 179.856 51.1016 179.259 51.6329 178.706C51.9411 178.433 53.6106 179.642 53.4263 179.984C53.0955 180.607 52.6626 181.452 52.1437 181.555C51.6249 181.658 50.9679 180.948 50.1866 180.49Z" fill="#E10353"/>
<path d="M63.2843 55.641C63.0549 54.5045 63.0593 54.5413 64.0758 54.3082C64.7524 54.1477 65.1355 54.1792 65.2466 55.0135C65.3897 56.1269 65.4438 56.0844 64.4273 56.3175C63.7524 56.4713 63.2753 56.4716 63.2843 55.641Z" fill="#E10353"/>
<path d="M49.8166 89.2178C49.1855 89.4474 48.8002 89.3442 48.6874 88.5166C48.5443 87.4032 48.4968 87.4474 49.5067 87.2125C50.1833 87.0521 50.5731 87.0853 50.6757 87.9245C50.8117 89.0644 50.8791 89.0255 49.8166 89.2178Z" fill="#E10353"/>
<path d="M136.153 245.729C135.829 244.731 136.636 244.883 137.118 244.784C138.033 244.61 137.982 244.667 138.254 245.858C138.459 246.874 137.747 246.712 137.245 246.805C136.33 246.98 136.306 246.938 136.153 245.729Z" fill="#E10353"/>
<path d="M41.9646 156.145C41.6644 155.353 42.1288 155.214 42.8009 155.123C43.8292 154.979 43.7628 154.961 44.0228 156.063C44.2141 156.89 43.8463 157.041 43.1675 157.13C42.1409 157.267 42.1453 157.304 41.9646 156.145Z" fill="#E10353"/>
<path d="M91.5221 230.417C91.9945 229.903 92.2809 229.339 92.6287 229.29C92.9765 229.24 93.4056 229.711 93.7951 229.958C93.4978 230.377 93.273 230.95 92.8656 231.169C92.6586 231.277 92.1051 230.766 91.5221 230.417Z" fill="#E10353"/>
<path d="M124.515 245.131C124.754 244.674 125.043 244.245 125.378 243.853C125.671 243.583 126.759 244.223 126.678 244.607C126.643 244.833 126.559 245.049 126.433 245.24C126.307 245.431 126.141 245.593 125.947 245.714C125.61 245.802 125.12 245.4 124.515 245.131Z" fill="#E10353"/>
<path d="M237.928 256.881C238.199 256.428 238.526 256.011 238.902 255.64C239.24 255.389 240.271 256.056 240.156 256.46C240.106 256.684 240.008 256.894 239.869 257.077C239.731 257.26 239.554 257.411 239.352 257.519C239.015 257.607 238.545 257.182 237.928 256.881Z" fill="#E10353"/>
<path d="M249.351 257.827C249.662 257.388 250.025 256.989 250.432 256.636C250.806 256.409 251.791 257.143 251.62 257.517C251.551 257.737 251.438 257.94 251.287 258.114C251.136 258.288 250.951 258.429 250.743 258.528C250.419 258.598 249.972 258.165 249.351 257.827Z" fill="#E10353"/>
<path d="M71.6369 217.955C71.1023 217.506 70.4258 217.161 70.4863 216.935C70.6749 216.454 70.9592 216.017 71.322 215.649C71.684 215.946 72.2605 216.186 72.3363 216.541C72.412 216.896 71.961 217.33 71.6369 217.955Z" fill="#E10353"/>
<path d="M61.2556 205.391C60.7982 205.155 60.3688 204.868 59.9755 204.536C59.6986 204.241 60.3457 203.154 60.7315 203.229C60.9577 203.266 61.1735 203.35 61.3642 203.478C61.5548 203.605 61.716 203.772 61.8367 203.966C61.9329 204.298 61.5243 204.787 61.2556 205.391Z" fill="#E10353"/>
<path d="M40.2264 167.975C40.4988 167.523 40.8257 167.106 41.1998 166.733C41.5377 166.482 42.569 167.15 42.4538 167.553C42.4039 167.777 42.3063 167.988 42.1676 168.171C42.0289 168.353 41.8525 168.504 41.6503 168.613C41.3135 168.7 40.8454 168.269 40.2264 167.975Z" fill="#E10353"/>
<path d="M50.35 191.462C50.4401 191.259 50.5787 190.954 50.7257 190.645L51.9566 191.551C51.6837 191.905 51.4655 192.48 51.1185 192.579C50.3444 192.785 50.6147 191.989 50.35 191.462Z" fill="#E10353"/>
<path d="M38.0927 85.9412C38.3483 86.3158 38.5718 86.5181 38.5897 86.7436C38.6076 86.9691 38.2667 87.2052 38.2153 87.1844C37.9826 87.0693 37.7838 86.8958 37.6383 86.6809C37.5878 86.6033 37.8274 86.3471 38.0927 85.9412Z" fill="#E10353"/>
<path d="M33.4913 131.413C33.7469 131.787 33.9637 131.988 33.9883 132.215C34.0128 132.442 33.6634 132.683 33.6138 132.656C33.3795 132.543 33.1801 132.369 33.0368 132.152C32.9882 132.068 33.221 131.81 33.4913 131.413Z" fill="#E10353"/>
<path d="M157.975 260.099C158.263 259.713 158.412 259.397 158.507 259.415C158.769 259.473 159.008 259.607 159.194 259.799C159.248 259.813 159.063 260.29 158.916 260.308C158.593 260.289 158.275 260.218 157.975 260.099Z" fill="#E10353"/>
<path d="M34.6788 121.984C34.3895 121.629 34.1177 121.421 34.1444 121.321C34.2729 121.086 34.4381 120.873 34.6338 120.69C34.7949 120.833 35.0826 120.982 35.0754 121.115C34.9908 121.424 34.8569 121.718 34.6788 121.984Z" fill="#E10353"/>
<path d="M170.155 260.08C170.408 260.461 170.632 260.663 170.65 260.889C170.668 261.114 170.32 261.349 170.271 261.321C170.036 261.211 169.836 261.039 169.692 260.824C169.65 260.742 169.889 260.514 170.155 260.08Z" fill="#E10353"/>
<path d="M65.5569 43.0148C65.8869 43.324 66.1464 43.4718 66.2444 43.6903C66.3425 43.9088 66.0766 44.0511 65.9767 44.2379C65.7289 44.1375 65.4996 43.9967 65.2981 43.8212C65.226 43.7449 65.3977 43.4492 65.5569 43.0148Z" fill="#E10353"/>
<path d="M50.7439 77.5197C50.4546 77.1645 50.1829 76.9564 50.2096 76.8568C50.3406 76.6222 50.508 76.4099 50.7056 76.2279C50.86 76.3689 51.1544 76.519 51.1472 76.6523C51.0627 76.9622 50.9264 77.2554 50.7439 77.5197Z" fill="#E10353"/>
<path d="M146.944 257.613C147.274 257.922 147.533 258.07 147.631 258.288C147.729 258.507 147.463 258.649 147.363 258.836C147.117 258.735 146.887 258.596 146.683 258.426C146.613 258.343 146.771 258.043 146.944 257.613Z" fill="#E10353"/>
<path d="M180.416 262.196C180.705 261.81 180.853 261.494 180.948 261.513C181.21 261.571 181.449 261.704 181.636 261.896C181.682 261.909 181.504 262.388 181.357 262.405C181.034 262.386 180.717 262.316 180.416 262.196Z" fill="#E10353"/>
<path d="M69.8464 228.489C69.5554 228.141 69.2854 227.926 69.3121 227.826C69.4431 227.592 69.6105 227.38 69.8081 227.198C69.9625 227.339 70.257 227.489 70.2497 227.622C70.1653 227.932 70.0289 228.225 69.8464 228.489Z" fill="#E10353"/>
<path d="M36.9055 97.4414C37.2356 97.7506 37.495 97.8984 37.5931 98.1169C37.6912 98.3354 37.4252 98.4778 37.3253 98.6646C37.0776 98.5642 36.8483 98.4233 36.6467 98.2478C36.5414 98.1626 36.7597 97.8794 36.9055 97.4414Z" fill="#E10353"/>
<path d="M52.4572 53.9077C52.6407 53.6427 52.8667 53.4097 53.1261 53.2183C53.2471 53.1653 53.4869 53.3862 53.6737 53.4861C53.5786 53.7355 53.4397 53.9659 53.2636 54.1665C53.1736 54.2634 52.8796 54.0849 52.4572 53.9077Z" fill="#E10353"/>
<path d="M192.685 263.732C192.395 263.377 192.124 263.169 192.152 263.062C192.28 262.828 192.447 262.618 192.646 262.44C192.801 262.581 193.095 262.731 193.083 262.856C192.998 263.168 192.864 263.463 192.685 263.732Z" fill="#E10353"/>
<path d="M80.5702 229.255C80.9466 228.993 81.1471 228.776 81.3726 228.758C81.5981 228.741 81.8343 229.081 81.8116 229.139C81.6966 229.372 81.5231 229.571 81.3081 229.716C81.2323 229.76 80.9779 229.514 80.5702 229.255Z" fill="#E10353"/>
<path d="M203.417 264.515C203.799 264.261 203.993 264.042 204.26 264.028C204.38 264.004 204.721 264.351 204.692 264.408C204.582 264.644 204.408 264.844 204.189 264.985C204.063 265.001 203.809 264.755 203.417 264.515Z" fill="#E10353"/>
<path d="M51.751 66.0565C51.4551 65.6996 51.1918 65.4866 51.2185 65.387C51.3453 65.1534 51.5101 64.9425 51.7061 64.763C51.8671 64.9058 52.1567 65.0474 52.1494 65.1808C52.0644 65.4921 51.9299 65.7878 51.751 66.0565Z" fill="#E10353"/>
<path d="M35.3818 109.848C35.5659 109.586 35.7912 109.356 36.0489 109.166C36.1699 109.113 36.4097 109.334 36.5983 109.427C36.5032 109.676 36.3643 109.907 36.1882 110.107C36.0999 110.198 35.806 110.019 35.3818 109.848Z" fill="#E10353"/>
<path d="M215.465 264.724C215.795 265.033 216.054 265.181 216.152 265.399C216.25 265.618 215.984 265.76 215.884 265.947C215.628 265.846 215.389 265.705 215.177 265.53C215.107 265.447 215.292 265.155 215.465 264.724Z" fill="#E10353"/>
<path d="M91.8565 242.453C91.5606 242.096 91.2955 241.89 91.3239 241.784C91.4519 241.551 91.6166 241.34 91.8115 241.16C91.9726 241.303 92.2604 241.451 92.2531 241.584C92.1685 241.893 92.0346 242.187 91.8565 242.453Z" fill="#E10353"/>
<path d="M102.844 243.561C102.555 243.205 102.285 242.991 102.312 242.891C102.438 242.656 102.606 242.445 102.806 242.269C102.96 242.41 103.248 242.558 103.243 242.685C103.158 242.996 103.023 243.292 102.844 243.561Z" fill="#E10353"/>
<path d="M114.495 244.532C114.11 244.244 113.787 244.093 113.805 243.999C113.867 243.738 113.999 243.5 114.189 243.311C114.236 243.267 114.687 243.445 114.698 243.59C114.685 243.913 114.617 244.232 114.495 244.532Z" fill="#E10353"/>
<path d="M31.7765 143.896C32.0649 143.511 32.2221 143.19 32.3102 143.206C32.5706 143.268 32.8087 143.401 32.9977 143.59C33.0508 143.604 32.866 144.082 32.7189 144.099C32.3953 144.088 32.0762 144.019 31.7765 143.896Z" fill="#E10353"/>
<path d="M123.937 256.296C124.314 256.034 124.514 255.817 124.74 255.8C124.965 255.782 125.222 256.1 125.206 256.159C125.096 256.395 124.921 256.596 124.702 256.736C124.6 256.801 124.345 256.555 123.937 256.296Z" fill="#E10353"/>
<path d="M134.909 257.385C135.29 257.131 135.484 256.913 135.718 256.89C135.838 256.865 136.179 257.213 136.152 257.263C136.042 257.499 135.867 257.699 135.648 257.84C135.569 257.897 135.313 257.657 134.909 257.385Z" fill="#E10353"/>
<path d="M295.07 135.347C301.074 154.043 285.311 191.113 274.179 225.615C271.088 235.159 264.609 243.398 255.674 247.995C236.229 258.042 221.133 243.809 207.93 231.892C197.455 222.442 183.5 213.171 170.222 217.929C160.526 221.404 154.894 231.158 148.406 239.138C140.045 249.428 127.907 258.008 114.682 257.227C98.0641 256.22 85.4953 240.713 81.2154 224.615C76.9355 208.518 78.7526 191.533 78.2502 174.888C77.5079 151.088 72.0223 127.533 72.6263 103.731C73.2302 79.9281 81.475 54.3925 101.486 41.4857C117.236 31.3314 137.868 30.8795 155.658 36.707C173.447 42.5344 188.933 53.9315 202.968 66.3567C214.196 76.2925 225.338 87.3446 239.72 91.5684C249.278 94.3715 268.973 99.065 276.565 105.513C284.924 112.58 291.722 124.91 295.07 135.347Z" fill="#E10353"/>
<path d="M123.798 82.592C118.842 98.1659 108.573 111.86 94.5634 122.004C57.9482 148.545 59.5138 188.457 67.2534 202.67C76.2241 219.17 94.0176 231.2 113.465 237.03C132.913 242.86 153.881 242.961 173.914 240.177C189.572 237.965 205.197 233.936 217.811 225.597C230.126 217.448 238.792 205.752 246.941 194.152C257.419 179.225 267.611 163.773 272.363 146.571C276.24 132.552 275.122 115.229 261.975 106.317C250.768 98.722 234.45 99.8104 223.386 92.0542C207.895 81.1826 210.389 59.3318 198.869 45.0673C185.435 28.4317 160.922 25.8291 149.675 34.9898C137.922 44.5207 129.285 65.3307 123.798 82.592Z" stroke="#FFD537" stroke-width="3.03" stroke-miterlimit="10"/>
<path d="M202.975 66.3301C214.203 76.266 225.345 87.318 239.727 91.5418C249.285 94.3449 268.98 99.0385 276.572 105.487C284.923 112.58 291.722 124.91 295.066 135.361C301.071 154.057 285.307 191.126 274.176 225.628C271.088 235.159 264.608 243.398 255.673 247.995C236.229 258.042 221.133 243.809 207.93 231.892" fill="#E10353"/>
</svg>
