<svg width="323" height="324" viewBox="0 0 323 324" fill="none" xmlns="http://www.w3.org/2000/svg">
<g id="Layer 2">
<g id="Elements">
<path id="Vector" d="M126.828 247.368C142.027 256.991 181.884 277.094 215.519 276.466C224.82 276.298 233.814 272.95 240.165 266.718C254.019 253.127 245.087 237.084 237.753 223.186C231.937 212.146 227.142 198.301 234.731 188.491C240.269 181.329 250.407 179.117 259.161 175.711C270.459 171.346 281.161 163.442 283.782 152.292C287.079 138.291 276.349 124.017 263.038 116.469C249.727 108.922 234.087 106.192 219.342 101.629C198.255 95.1095 178.581 84.6812 157.16 79.2523C135.739 73.8234 110.844 74.2866 94.2879 87.6614C81.2573 98.1724 75.6865 115.113 76.4002 131.32C77.1139 147.527 83.4439 163.158 91.0265 177.872C97.0727 189.668 104.171 201.619 104.336 214.579C104.444 223.19 100.918 216.737 104.779 224.63C109.02 233.312 118.343 241.993 126.828 247.368Z" fill="#CDC9DD"/>
<path id="Vector_2" d="M250.348 201.606C250.04 201.63 249.74 201.717 249.467 201.862C249.195 202.007 248.955 202.207 248.763 202.449C248.571 202.691 248.431 202.97 248.352 203.268C248.273 203.567 248.256 203.878 248.303 204.184C248.321 204.49 248.401 204.789 248.537 205.064C248.673 205.339 248.863 205.583 249.095 205.783C249.328 205.983 249.598 206.134 249.89 206.228C250.182 206.322 250.49 206.356 250.796 206.328C251.101 206.3 251.398 206.212 251.668 206.067C251.939 205.923 252.178 205.726 252.371 205.487C252.563 205.249 252.706 204.974 252.791 204.679C252.876 204.384 252.901 204.076 252.864 203.771C252.853 203.46 252.778 203.154 252.643 202.872C252.508 202.591 252.316 202.341 252.08 202.138C251.843 201.934 251.567 201.782 251.269 201.69C250.971 201.599 250.657 201.57 250.348 201.606Z" fill="#5EB5EB"/>
<path id="Vector_3" d="M251.116 192.741C250.519 192.825 249.975 193.128 249.59 193.592C249.205 194.056 249.007 194.647 249.035 195.249C249.042 195.552 249.114 195.85 249.246 196.123C249.379 196.396 249.568 196.638 249.801 196.831C250.034 197.025 250.307 197.166 250.599 197.246C250.892 197.326 251.198 197.342 251.497 197.293C251.804 197.283 252.106 197.21 252.383 197.076C252.66 196.943 252.906 196.754 253.105 196.52C253.304 196.287 253.453 196.014 253.541 195.72C253.629 195.425 253.655 195.116 253.616 194.811C253.499 194.232 253.187 193.711 252.732 193.334C252.277 192.957 251.707 192.748 251.116 192.741Z" fill="#5EB5EB"/>
<path id="Vector_4" d="M153.301 84.1565C153.597 84.1424 153.887 84.0671 154.153 83.9353C154.418 83.8035 154.654 83.6182 154.845 83.3909C155.035 83.1637 155.177 82.8994 155.26 82.6148C155.344 82.3302 155.367 82.0313 155.33 81.7371C155.299 81.441 155.21 81.1539 155.069 80.892C154.927 80.6302 154.735 80.3989 154.504 80.2112C154.273 80.0235 154.007 79.8832 153.722 79.7983C153.436 79.7133 153.137 79.6854 152.841 79.7161C152.545 79.7468 152.258 79.8355 151.996 79.9772C151.734 80.1189 151.503 80.3108 151.315 80.5419C151.127 80.773 150.987 81.0388 150.902 81.3241C150.817 81.6095 150.789 81.9087 150.82 82.2048C150.842 82.5007 150.926 82.7887 151.066 83.0505C151.206 83.3123 151.398 83.5423 151.631 83.7258C151.865 83.9092 152.133 84.0423 152.421 84.1164C152.708 84.1906 153.008 84.2043 153.301 84.1565Z" fill="#5EB5EB"/>
<path id="Vector_5" d="M195.552 100.374C195.116 100.427 194.705 100.607 194.371 100.893C194.037 101.178 193.795 101.556 193.674 101.978C193.554 102.401 193.561 102.849 193.694 103.268C193.827 103.687 194.081 104.057 194.424 104.332C194.766 104.607 195.182 104.775 195.62 104.814C196.057 104.854 196.497 104.764 196.883 104.555C197.27 104.346 197.586 104.028 197.793 103.64C197.999 103.252 198.087 102.812 198.044 102.375C197.971 101.782 197.67 101.242 197.205 100.868C196.739 100.495 196.146 100.317 195.552 100.374Z" fill="#5EB5EB"/>
<path id="Vector_6" d="M178.657 90.3821C178.214 90.4309 177.796 90.6097 177.455 90.896C177.114 91.1823 176.866 91.5632 176.741 91.9906C176.617 92.418 176.622 92.8727 176.755 93.2974C176.889 93.722 177.146 94.0975 177.493 94.3763C177.84 94.6552 178.262 94.825 178.705 94.8643C179.149 94.9035 179.594 94.8104 179.984 94.5968C180.375 94.3832 180.693 94.0586 180.9 93.664C181.106 93.2695 181.19 92.8227 181.143 92.38C181.065 91.7913 180.763 91.2553 180.3 90.8833C179.837 90.5112 179.249 90.3317 178.657 90.3821Z" fill="#5EB5EB"/>
<path id="Vector_7" d="M251.657 184.18C251.058 184.261 250.515 184.576 250.147 185.056C249.78 185.536 249.616 186.142 249.693 186.741C249.708 187.028 249.784 187.309 249.918 187.564C250.051 187.819 250.239 188.041 250.467 188.217C250.695 188.392 250.958 188.516 251.238 188.579C251.519 188.643 251.81 188.645 252.091 188.585C252.638 188.562 253.155 188.331 253.537 187.938C253.919 187.546 254.136 187.022 254.143 186.475C254.118 185.841 253.841 185.243 253.375 184.813C252.909 184.383 252.291 184.155 251.657 184.18Z" fill="#5EB5EB"/>
<path id="Vector_8" d="M161.499 80.3789C161.217 80.3862 160.941 80.4549 160.688 80.5802C160.436 80.7054 160.214 80.8841 160.038 81.1039C159.862 81.3237 159.736 81.5793 159.669 81.8528C159.602 82.1263 159.595 82.4111 159.65 82.6874C159.789 84.129 160.639 84.876 161.971 84.7242C162.248 84.7148 162.521 84.6458 162.769 84.5219C163.018 84.398 163.237 84.2221 163.411 84.0062C163.586 83.7902 163.712 83.5392 163.781 83.2702C163.85 83.0013 163.86 82.7206 163.811 82.4473C163.649 80.9796 162.848 80.2648 161.499 80.3789Z" fill="#5EB5EB"/>
<path id="Vector_9" d="M135.6 69.692C135.324 69.7204 135.058 69.8051 134.817 69.9407C134.576 70.0762 134.366 70.2598 134.198 70.4801C134.031 70.7003 133.911 70.9526 133.845 71.2212C133.78 71.4898 133.77 71.769 133.816 72.0416C133.826 72.3349 133.897 72.6229 134.024 72.8871C134.152 73.1513 134.334 73.3857 134.558 73.5753C134.782 73.7648 135.043 73.9052 135.325 73.9875C135.607 74.0697 135.902 74.092 136.193 74.0527C136.484 74.0135 136.763 73.9137 137.013 73.7597C137.263 73.6058 137.478 73.4012 137.643 73.159C137.809 72.9169 137.922 72.6427 137.975 72.3541C138.029 72.0655 138.021 71.769 137.952 71.4837C137.924 71.208 137.839 70.941 137.704 70.6992C137.568 70.4575 137.384 70.2461 137.164 70.0782C136.943 69.9102 136.691 69.7893 136.422 69.7229C136.153 69.6565 135.873 69.6459 135.6 69.692Z" fill="#5EB5EB"/>
<path id="Vector_10" d="M127.038 69.1221C126.764 69.1349 126.496 69.2045 126.25 69.3265C126.005 69.4484 125.787 69.6201 125.611 69.8306C125.435 70.0411 125.305 70.2858 125.228 70.5493C125.152 70.8127 125.131 71.0892 125.167 71.3612C125.289 72.765 126.193 73.6049 127.473 73.4844C127.75 73.4594 128.019 73.3789 128.264 73.2478C128.509 73.1166 128.725 72.9375 128.9 72.721C129.074 72.5045 129.203 72.2551 129.279 71.9877C129.355 71.7203 129.377 71.4403 129.342 71.1645C129.208 69.7692 128.335 68.996 127.038 69.1221Z" fill="#5EB5EB"/>
<path id="Vector_11" d="M246.96 159.227C246.838 157.838 245.965 157.05 244.674 157.179C244.4 157.191 244.132 157.261 243.887 157.382C243.641 157.503 243.424 157.675 243.248 157.885C243.072 158.095 242.942 158.339 242.866 158.602C242.79 158.865 242.769 159.141 242.805 159.412C242.916 160.825 243.829 161.662 245.097 161.55C245.372 161.521 245.639 161.438 245.882 161.305C246.125 161.172 246.339 160.993 246.512 160.777C246.686 160.561 246.814 160.313 246.891 160.047C246.968 159.781 246.992 159.502 246.96 159.227Z" fill="#5EB5EB"/>
<path id="Vector_12" d="M111.605 69.8405C111.571 69.2875 111.319 68.7707 110.904 68.4038C110.489 68.0369 109.945 67.85 109.392 67.8841C108.839 67.9182 108.322 68.1706 107.955 68.5858C107.588 69.0009 107.401 69.5448 107.435 70.0978C107.558 71.4873 108.499 72.339 109.756 72.1923C110.035 72.1669 110.306 72.0848 110.552 71.9511C110.798 71.8174 111.014 71.6349 111.187 71.4147C111.36 71.1946 111.487 70.9414 111.559 70.6707C111.631 70.4 111.646 70.1175 111.605 69.8405Z" fill="#5EB5EB"/>
<path id="Vector_13" d="M170.328 80.9484C170.052 80.9684 169.783 81.0453 169.537 81.1741C169.292 81.303 169.076 81.481 168.903 81.6972C168.729 81.9133 168.603 82.1629 168.53 82.4303C168.458 82.6977 168.441 82.9772 168.482 83.2512C168.484 83.5449 168.548 83.8349 168.67 84.1023C168.791 84.3697 168.968 84.6086 169.188 84.8035C169.407 84.9984 169.666 85.145 169.946 85.2337C170.226 85.3224 170.521 85.3513 170.813 85.3186C171.105 85.2858 171.387 85.1921 171.64 85.0435C171.894 84.8949 172.113 84.6947 172.284 84.4559C172.455 84.2172 172.574 83.9451 172.633 83.6574C172.693 83.3697 172.691 83.0727 172.628 82.7858C172.607 82.5105 172.529 82.2425 172.4 81.9985C172.271 81.7545 172.093 81.5397 171.877 81.3674C171.662 81.195 171.413 81.0689 171.146 80.9968C170.88 80.9248 170.601 80.9083 170.328 80.9484Z" fill="#5EB5EB"/>
<path id="Vector_14" d="M187.372 91.1178C187.097 91.125 186.828 91.189 186.579 91.306C186.331 91.4229 186.11 91.5901 185.93 91.7971C185.749 92.004 185.614 92.2461 185.532 92.5081C185.45 92.7701 185.424 93.0462 185.455 93.3189C185.562 94.7515 186.417 95.5592 187.731 95.4851C188.007 95.4597 188.275 95.38 188.52 95.2507C188.765 95.1214 188.982 94.9451 189.159 94.7317C189.335 94.5183 189.468 94.2722 189.549 94.0074C189.631 93.7426 189.659 93.4643 189.632 93.1886C189.495 91.8135 188.637 90.9972 187.372 91.1178Z" fill="#5EB5EB"/>
<path id="Vector_15" d="M120.463 70.439C120.349 69.0468 119.48 68.2534 118.197 68.3652C117.923 68.3722 117.653 68.4362 117.404 68.5534C117.156 68.6705 116.935 68.8381 116.755 69.0455C116.575 69.2529 116.44 69.4956 116.36 69.7579C116.279 70.0203 116.254 70.2966 116.286 70.5693C116.393 72.0019 117.243 72.8066 118.556 72.7326C118.833 72.7087 119.102 72.6302 119.348 72.5016C119.593 72.3731 119.811 72.1971 119.989 71.9838C120.166 71.7705 120.299 71.5241 120.381 71.2589C120.462 70.9938 120.49 70.7151 120.463 70.439Z" fill="#5EB5EB"/>
<path id="Vector_16" d="M220.802 120.089C220.519 120.087 220.239 120.146 219.98 120.262C219.721 120.378 219.491 120.548 219.304 120.761C219.116 120.973 218.977 121.224 218.895 121.495C218.812 121.766 218.789 122.052 218.827 122.333C218.94 123.739 219.853 124.576 221.133 124.456C221.41 124.43 221.678 124.349 221.923 124.217C222.168 124.086 222.383 123.906 222.557 123.689C222.731 123.473 222.86 123.223 222.935 122.956C223.01 122.688 223.031 122.409 222.996 122.133C222.879 120.79 222.03 119.999 220.802 120.089Z" fill="#5EB5EB"/>
<path id="Vector_17" d="M212.604 110.656C212.192 110.696 211.8 110.857 211.479 111.117C211.157 111.378 210.919 111.728 210.795 112.123C210.67 112.518 210.665 112.941 210.779 113.339C210.893 113.737 211.122 114.092 211.437 114.361C211.752 114.63 212.139 114.8 212.55 114.851C212.961 114.902 213.378 114.83 213.748 114.645C214.119 114.461 214.427 114.171 214.634 113.813C214.842 113.454 214.939 113.043 214.914 112.629C214.903 112.344 214.834 112.064 214.709 111.807C214.585 111.55 214.409 111.322 214.191 111.136C213.974 110.951 213.721 110.812 213.448 110.73C213.175 110.647 212.887 110.622 212.604 110.656Z" fill="#5EB5EB"/>
<path id="Vector_18" d="M261.515 204.547C261.497 204.268 261.425 203.996 261.302 203.745C261.18 203.495 261.008 203.271 260.799 203.087C260.589 202.903 260.345 202.762 260.081 202.672C259.817 202.583 259.538 202.547 259.259 202.565C258.695 202.624 258.176 202.903 257.816 203.341C257.455 203.78 257.283 204.343 257.335 204.908C257.468 206.064 258.638 207.134 259.671 206.873C260.704 206.611 261.847 205.71 261.515 204.547Z" fill="#5EB5EB"/>
<path id="Vector_19" d="M237.123 138.907C236.563 138.982 236.054 139.271 235.704 139.714C235.354 140.158 235.19 140.72 235.247 141.281C235.263 141.562 235.336 141.836 235.461 142.087C235.586 142.339 235.76 142.562 235.973 142.745C236.187 142.927 236.435 143.065 236.703 143.149C236.971 143.233 237.253 143.262 237.532 143.235C237.811 143.207 238.082 143.124 238.329 142.989C238.575 142.854 238.791 142.671 238.965 142.451C239.139 142.23 239.266 141.977 239.34 141.706C239.413 141.435 239.431 141.152 239.393 140.874C239.373 140.596 239.298 140.324 239.174 140.074C239.049 139.825 238.876 139.603 238.665 139.42C238.454 139.237 238.21 139.098 237.945 139.01C237.68 138.922 237.401 138.887 237.123 138.907Z" fill="#5EB5EB"/>
<path id="Vector_20" d="M231.302 131.344C231.259 130.928 231.093 130.534 230.826 130.212C230.559 129.89 230.202 129.654 229.801 129.536C229.399 129.417 228.972 129.42 228.572 129.545C228.173 129.67 227.82 129.911 227.557 130.237C227.295 130.563 227.136 130.96 227.1 131.377C227.064 131.794 227.152 132.212 227.355 132.579C227.557 132.945 227.863 133.243 228.235 133.435C228.607 133.627 229.028 133.703 229.444 133.656C229.719 133.629 229.986 133.548 230.229 133.417C230.472 133.285 230.687 133.107 230.86 132.891C231.033 132.676 231.161 132.428 231.237 132.162C231.313 131.897 231.335 131.619 231.302 131.344Z" fill="#5EB5EB"/>
<path id="Vector_21" d="M254.511 177.303C254.403 176.796 254.112 176.345 253.693 176.039C253.275 175.732 252.758 175.59 252.241 175.641C251.725 175.691 251.245 175.93 250.893 176.312C250.542 176.694 250.344 177.192 250.336 177.711C250.332 178.008 250.39 178.302 250.508 178.575C250.625 178.848 250.799 179.093 251.017 179.294C251.236 179.495 251.494 179.647 251.776 179.742C252.057 179.836 252.356 179.87 252.651 179.841C252.947 179.812 253.233 179.721 253.491 179.574C253.749 179.427 253.973 179.228 254.148 178.988C254.324 178.749 254.447 178.475 254.509 178.184C254.572 177.894 254.572 177.594 254.511 177.303Z" fill="#5EB5EB"/>
<path id="Vector_22" d="M204.427 101.068C203.88 101.159 203.388 101.457 203.054 101.899C202.72 102.342 202.568 102.895 202.629 103.446C202.65 103.72 202.728 103.986 202.86 104.227C202.991 104.468 203.173 104.678 203.391 104.844C203.61 105.01 203.862 105.127 204.13 105.188C204.397 105.249 204.675 105.252 204.944 105.197C205.216 105.177 205.48 105.1 205.721 104.972C205.962 104.845 206.174 104.669 206.343 104.456C206.513 104.243 206.637 103.997 206.707 103.733C206.778 103.47 206.793 103.195 206.752 102.926C206.674 102.379 206.389 101.882 205.957 101.537C205.525 101.192 204.978 101.024 204.427 101.068Z" fill="#5EB5EB"/>
<path id="Vector_23" d="M144.527 70.239C143.979 70.3179 143.483 70.6022 143.138 71.0343C142.792 71.4663 142.625 72.0136 142.669 72.5648C142.723 73.1134 142.992 73.6182 143.418 73.9681C143.844 74.3181 144.391 74.4845 144.94 74.4308C145.488 74.3771 145.993 74.1077 146.343 73.6818C146.693 73.256 146.86 72.7085 146.806 72.1599C146.747 71.6078 146.476 71.0999 146.052 70.7421C145.627 70.3842 145.081 70.204 144.527 70.239Z" fill="#5EB5EB"/>
<path id="Vector_24" d="M262.022 195.555C261.924 195.026 261.637 194.549 261.215 194.216C260.792 193.882 260.262 193.713 259.725 193.741C259.196 193.841 258.722 194.13 258.39 194.554C258.059 194.977 257.892 195.507 257.922 196.044C257.938 196.319 258.012 196.588 258.14 196.832C258.268 197.076 258.446 197.29 258.663 197.46C258.881 197.629 259.131 197.75 259.399 197.815C259.667 197.88 259.946 197.887 260.216 197.835C260.494 197.828 260.766 197.759 261.014 197.635C261.261 197.511 261.479 197.334 261.651 197.117C261.823 196.899 261.946 196.647 262.01 196.377C262.074 196.107 262.078 195.827 262.022 195.555Z" fill="#5EB5EB"/>
<path id="Vector_25" d="M255.21 168.729C255.224 168.445 255.178 168.161 255.076 167.896C254.973 167.63 254.816 167.389 254.615 167.188C254.413 166.987 254.172 166.83 253.907 166.728C253.641 166.626 253.357 166.58 253.073 166.594C252.788 166.608 252.51 166.682 252.256 166.81C252.002 166.938 251.777 167.118 251.597 167.338C251.416 167.558 251.284 167.813 251.208 168.087C251.132 168.362 251.115 168.649 251.156 168.93C251.161 169.203 251.226 169.472 251.347 169.716C251.469 169.96 251.644 170.174 251.859 170.342C252.074 170.51 252.324 170.628 252.591 170.686C252.857 170.745 253.134 170.743 253.399 170.681C254.581 170.553 255.322 169.744 255.21 168.729Z" fill="#5EB5EB"/>
<path id="Vector_26" d="M247.659 150.457C247.653 150.174 247.591 149.894 247.476 149.635C247.362 149.376 247.198 149.142 246.993 148.946C246.788 148.75 246.547 148.597 246.283 148.494C246.019 148.392 245.737 148.342 245.454 148.349C244.903 148.418 244.401 148.699 244.055 149.132C243.709 149.566 243.545 150.117 243.599 150.669C243.607 150.932 243.672 151.191 243.788 151.427C243.905 151.663 244.071 151.871 244.274 152.038C244.478 152.205 244.715 152.326 244.969 152.394C245.224 152.461 245.49 152.474 245.749 152.43C247.021 152.269 247.781 151.549 247.659 150.457Z" fill="#5EB5EB"/>
<path id="Vector_27" d="M153.371 71.0337C152.839 71.1194 152.36 71.4035 152.029 71.8287C151.698 72.254 151.541 72.7889 151.589 73.3255C151.59 73.5985 151.653 73.8677 151.772 74.1132C151.892 74.3586 152.065 74.5741 152.279 74.7435C152.493 74.913 152.742 75.0321 153.008 75.0921C153.275 75.1521 153.551 75.1514 153.817 75.0901C155.03 74.9863 155.754 74.1389 155.649 73.0556C155.615 72.4855 155.356 71.9524 154.928 71.5733C154.501 71.1942 153.941 71.0001 153.371 71.0337Z" fill="#5EB5EB"/>
<path id="Vector_28" d="M179.198 81.7488C178.667 81.8325 178.187 82.1141 177.854 82.5371C177.522 82.96 177.362 83.4931 177.407 84.0291C177.537 85.1906 178.317 86.0321 179.63 85.8051C180.849 85.7042 181.595 84.8686 181.47 83.7822C181.455 83.4992 181.385 83.2219 181.262 82.9663C181.14 82.7106 180.968 82.4817 180.757 82.2927C180.546 82.1038 180.3 81.9584 180.032 81.865C179.764 81.7717 179.481 81.7322 179.198 81.7488Z" fill="#5EB5EB"/>
<path id="Vector_29" d="M196.238 91.7135C195.836 91.7416 195.452 91.8889 195.134 92.1365C194.816 92.3842 194.58 92.7209 194.454 93.1038C194.329 93.4866 194.32 93.8982 194.43 94.2859C194.539 94.6737 194.762 95.0199 195.069 95.2805C195.376 95.5411 195.754 95.7041 196.155 95.7488C196.555 95.7935 196.96 95.7178 197.317 95.5313C197.674 95.3449 197.968 95.0563 198.16 94.7022C198.353 94.3482 198.435 93.9449 198.397 93.5438C198.335 93.0224 198.078 92.5439 197.677 92.2043C197.277 91.8648 196.763 91.6894 196.238 91.7135Z" fill="#5EB5EB"/>
<path id="Vector_30" d="M162.248 71.7363C161.989 71.7426 161.735 71.8065 161.504 71.9235C161.272 72.0406 161.07 72.2077 160.912 72.4127C160.753 72.6177 160.643 72.8555 160.588 73.1087C160.533 73.3619 160.535 73.6242 160.594 73.8764C160.726 75.1332 161.522 75.8017 162.69 75.6744C162.951 75.6554 163.205 75.5803 163.435 75.4539C163.665 75.3276 163.864 75.1532 164.021 74.9425C164.177 74.7319 164.285 74.49 164.339 74.2335C164.393 73.977 164.391 73.7118 164.333 73.4562C164.336 73.197 164.281 72.9405 164.171 72.7054C164.062 72.4704 163.902 72.2627 163.702 72.0978C163.502 71.9328 163.268 71.8147 163.016 71.7522C162.764 71.6896 162.502 71.6842 162.248 71.7363Z" fill="#5EB5EB"/>
<path id="Vector_31" d="M231.64 122.709C231.512 121.346 230.84 120.733 229.606 120.848C229.351 120.84 229.098 120.89 228.865 120.993C228.633 121.097 228.426 121.252 228.262 121.447C228.097 121.641 227.979 121.871 227.915 122.118C227.852 122.364 227.845 122.622 227.896 122.872C228.024 124.236 228.751 124.898 229.984 124.768C230.234 124.758 230.479 124.694 230.703 124.582C230.926 124.469 231.123 124.31 231.28 124.115C231.437 123.92 231.55 123.693 231.612 123.451C231.674 123.208 231.684 122.955 231.64 122.709Z" fill="#5EB5EB"/>
<path id="Vector_32" d="M262.591 186.769C262.459 185.513 261.757 184.929 260.564 185.064C259.371 185.2 258.749 185.919 258.895 187.248C258.89 187.51 258.945 187.771 259.054 188.01C259.163 188.249 259.325 188.46 259.527 188.628C259.729 188.797 259.966 188.917 260.221 188.981C260.476 189.046 260.742 189.052 261 189C262.17 188.838 262.743 188.044 262.591 186.769Z" fill="#5EB5EB"/>
<path id="Vector_33" d="M221.506 111.365C221.126 111.397 220.764 111.541 220.465 111.778C220.167 112.016 219.945 112.336 219.828 112.699C219.711 113.062 219.703 113.452 219.807 113.819C219.91 114.186 220.12 114.515 220.41 114.763C220.699 115.012 221.056 115.169 221.434 115.215C221.813 115.262 222.197 115.196 222.538 115.025C222.879 114.854 223.162 114.586 223.351 114.254C223.541 113.923 223.628 113.543 223.602 113.163C223.584 112.906 223.516 112.656 223.401 112.426C223.286 112.196 223.126 111.992 222.931 111.825C222.736 111.657 222.51 111.53 222.265 111.451C222.02 111.372 221.762 111.343 221.506 111.365Z" fill="#5EB5EB"/>
<path id="Vector_34" d="M253.501 157.936C253.244 157.958 252.995 158.033 252.769 158.158C252.543 158.282 252.346 158.453 252.191 158.659C252.036 158.864 251.925 159.101 251.868 159.352C251.81 159.603 251.806 159.864 251.856 160.117C251.911 160.622 252.156 161.086 252.54 161.418C252.925 161.749 253.421 161.923 253.928 161.903C254.441 161.805 254.897 161.514 255.201 161.089C255.505 160.664 255.634 160.138 255.56 159.621C255.545 159.372 255.478 159.128 255.365 158.906C255.251 158.684 255.092 158.487 254.899 158.329C254.706 158.171 254.482 158.054 254.241 157.987C254.001 157.919 253.749 157.902 253.501 157.936Z" fill="#5EB5EB"/>
<path id="Vector_35" d="M215.248 103.636C215.199 103.258 215.04 102.902 214.79 102.614C214.539 102.326 214.21 102.118 213.842 102.017C213.474 101.916 213.085 101.925 212.722 102.044C212.36 102.164 212.041 102.387 211.805 102.687C211.57 102.987 211.428 103.35 211.398 103.73C211.367 104.111 211.45 104.491 211.636 104.825C211.821 105.158 212.101 105.429 212.44 105.604C212.779 105.779 213.162 105.85 213.541 105.808C213.8 105.787 214.052 105.713 214.281 105.591C214.509 105.468 214.71 105.3 214.87 105.096C215.031 104.892 215.147 104.657 215.212 104.405C215.277 104.154 215.289 103.892 215.248 103.636Z" fill="#5EB5EB"/>
<path id="Vector_36" d="M237.846 130.215C237.462 130.254 237.098 130.406 236.801 130.654C236.505 130.901 236.289 131.231 236.181 131.602C236.074 131.973 236.08 132.368 236.198 132.736C236.317 133.103 236.543 133.427 236.847 133.665C237.151 133.903 237.52 134.045 237.905 134.072C238.29 134.099 238.675 134.011 239.009 133.817C239.344 133.624 239.613 133.335 239.782 132.988C239.951 132.641 240.012 132.251 239.958 131.868C239.933 131.619 239.857 131.378 239.737 131.158C239.616 130.939 239.452 130.746 239.255 130.592C239.057 130.437 238.831 130.324 238.589 130.259C238.347 130.195 238.094 130.179 237.846 130.215Z" fill="#5EB5EB"/>
<path id="Vector_37" d="M259.403 178.256C259.439 178.626 259.583 178.977 259.818 179.265C260.053 179.552 260.368 179.764 260.723 179.874C261.077 179.983 261.457 179.985 261.813 179.88C262.169 179.775 262.486 179.566 262.724 179.281C262.962 178.996 263.111 178.647 263.151 178.278C263.192 177.909 263.122 177.536 262.951 177.206C262.781 176.877 262.516 176.605 262.191 176.425C261.866 176.245 261.495 176.165 261.125 176.195C260.627 176.249 260.169 176.494 259.848 176.878C259.527 177.263 259.367 177.757 259.403 178.256Z" fill="#5EB5EB"/>
<path id="Vector_38" d="M120.825 61.8878C120.799 61.5175 120.665 61.1632 120.438 60.8695C120.211 60.5758 119.902 60.3558 119.55 60.2375C119.199 60.1192 118.82 60.1077 118.462 60.2045C118.103 60.3014 117.782 60.5022 117.538 60.7817C117.293 61.0611 117.137 61.4067 117.089 61.7747C117.041 62.1427 117.104 62.5166 117.268 62.8494C117.432 63.1821 117.692 63.4586 118.013 63.6441C118.335 63.8295 118.704 63.9156 119.074 63.8913C119.567 63.8444 120.023 63.6106 120.348 63.238C120.674 62.8654 120.845 62.3822 120.825 61.8878Z" fill="#5EB5EB"/>
<path id="Vector_39" d="M127.615 60.4778C127.118 60.538 126.663 60.7885 126.347 61.1767C126.03 61.565 125.877 62.0607 125.918 62.5598C125.959 62.929 126.108 63.278 126.346 63.5629C126.584 63.8478 126.901 64.056 127.258 64.1612C127.614 64.2664 127.993 64.2639 128.348 64.1542C128.703 64.0445 129.017 63.8323 129.252 63.5444C129.487 63.2565 129.631 62.9056 129.667 62.5359C129.703 62.1662 129.629 61.7942 129.454 61.4665C129.279 61.1388 129.011 60.8702 128.684 60.6943C128.357 60.5183 127.985 60.4431 127.615 60.4778Z" fill="#5EB5EB"/>
<path id="Vector_40" d="M188.073 82.4429C187.702 82.4841 187.352 82.634 187.066 82.8738C186.781 83.1135 186.572 83.4324 186.467 83.7903C186.362 84.1482 186.366 84.5292 186.477 84.8852C186.588 85.2412 186.802 85.5565 187.091 85.7913C187.381 86.0261 187.734 86.1699 188.105 86.2048C188.477 86.2396 188.85 86.1638 189.178 85.987C189.507 85.8101 189.775 85.5401 189.951 85.2109C190.126 84.8817 190.2 84.508 190.163 84.1369C190.143 83.8861 190.072 83.642 189.955 83.4195C189.838 83.1969 189.676 83.0005 189.481 82.8421C189.285 82.6837 189.06 82.5667 188.818 82.4981C188.576 82.4294 188.322 82.4107 188.073 82.4429Z" fill="#5EB5EB"/>
<path id="Vector_41" d="M205.099 92.618C204.599 92.6747 204.141 92.9237 203.822 93.3123C203.502 93.7009 203.347 94.1986 203.388 94.6999C203.407 94.9451 203.475 95.1841 203.587 95.4031C203.699 95.6221 203.853 95.817 204.04 95.9765C204.228 96.136 204.445 96.2571 204.679 96.3328C204.913 96.4085 205.159 96.4373 205.405 96.4177C205.65 96.398 205.889 96.3303 206.108 96.2183C206.327 96.1063 206.522 95.9523 206.681 95.765C206.841 95.5777 206.962 95.3609 207.038 95.1268C207.113 94.8927 207.142 94.646 207.122 94.4008C207.083 93.8989 206.85 93.432 206.472 93.0991C206.094 92.7663 205.602 92.5937 205.099 92.618Z" fill="#5EB5EB"/>
<path id="Vector_42" d="M171.156 72.4911C170.658 72.554 170.203 72.8086 169.888 73.201C169.573 73.5933 169.424 74.0927 169.471 74.5934C169.545 75.0658 169.796 75.4921 170.174 75.7855C170.551 76.079 171.026 76.2174 171.502 76.1727C171.978 76.1279 172.419 75.9033 172.735 75.5446C173.051 75.186 173.219 74.7202 173.203 74.2424C173.156 73.7418 172.916 73.2792 172.534 72.9524C172.152 72.6256 171.658 72.4601 171.156 72.4911Z" fill="#5EB5EB"/>
<path id="Vector_43" d="M136.413 61.0095C135.915 61.0878 135.468 61.3569 135.165 61.7598C134.863 62.1627 134.729 62.6676 134.793 63.1673C134.929 64.3173 135.675 64.8728 136.891 64.7343C137.145 64.7373 137.396 64.682 137.626 64.5728C137.855 64.4636 138.057 64.3033 138.215 64.1042C138.372 63.9051 138.483 63.6726 138.537 63.4243C138.591 63.1761 138.588 62.9187 138.527 62.6719C138.459 62.1749 138.2 61.7238 137.806 61.4137C137.411 61.1036 136.912 60.9587 136.413 61.0095Z" fill="#5EB5EB"/>
<path id="Vector_44" d="M145.329 61.8191C144.855 61.9103 144.428 62.1667 144.126 62.5428C143.823 62.9188 143.663 63.39 143.676 63.8726C143.679 64.0993 143.729 64.3228 143.822 64.5296C143.915 64.7364 144.049 64.9221 144.216 65.0754C144.383 65.2287 144.58 65.3465 144.794 65.4215C145.008 65.4965 145.235 65.5272 145.461 65.5117C146.876 65.4098 147.421 64.8695 147.331 63.6854C147.507 62.5355 146.083 61.7628 145.329 61.8191Z" fill="#5EB5EB"/>
<path id="Vector_45" d="M252.464 151.467C252.478 151.704 252.543 151.934 252.655 152.143C252.766 152.353 252.921 152.535 253.11 152.679C253.298 152.823 253.515 152.925 253.746 152.977C253.977 153.03 254.217 153.032 254.449 152.984C255.717 152.857 256.156 152.27 256.153 151.072C256.137 150.042 254.891 149.288 254.149 149.321C253.652 149.406 253.205 149.673 252.893 150.069C252.581 150.466 252.428 150.964 252.464 151.467Z" fill="#5EB5EB"/>
<path id="Vector_46" d="M260.001 169.384C260.035 169.74 260.172 170.078 260.397 170.357C260.621 170.635 260.923 170.841 261.263 170.949C261.604 171.057 261.969 171.062 262.313 170.964C262.657 170.866 262.964 170.668 263.196 170.397C263.429 170.125 263.576 169.791 263.619 169.436C263.663 169.081 263.601 168.721 263.441 168.401C263.282 168.082 263.032 167.816 262.722 167.637C262.412 167.459 262.057 167.375 261.7 167.398C261.214 167.443 260.765 167.676 260.448 168.047C260.131 168.418 259.971 168.897 260.001 169.384Z" fill="#5EB5EB"/>
<path id="Vector_47" d="M248.032 141.36C248 140.993 247.86 140.643 247.631 140.354C247.401 140.066 247.092 139.851 246.741 139.737C246.39 139.623 246.013 139.615 245.658 139.714C245.303 139.813 244.984 140.014 244.742 140.292C244.501 140.571 244.346 140.915 244.299 141.28C244.251 141.646 244.312 142.018 244.474 142.349C244.636 142.68 244.893 142.956 245.211 143.143C245.529 143.33 245.895 143.418 246.263 143.398C246.515 143.385 246.761 143.321 246.987 143.21C247.213 143.099 247.414 142.944 247.579 142.754C247.744 142.564 247.869 142.343 247.947 142.103C248.025 141.864 248.054 141.611 248.032 141.36Z" fill="#5EB5EB"/>
<path id="Vector_48" d="M236.814 123.408C236.846 123.757 236.981 124.089 237.202 124.362C237.422 124.634 237.719 124.836 238.054 124.94C238.388 125.044 238.747 125.047 239.083 124.948C239.42 124.849 239.719 124.653 239.944 124.383C240.169 124.114 240.309 123.784 240.346 123.436C240.384 123.087 240.317 122.735 240.155 122.424C239.992 122.113 239.741 121.857 239.434 121.689C239.126 121.521 238.775 121.447 238.426 121.478C237.957 121.521 237.524 121.748 237.222 122.11C236.92 122.472 236.773 122.938 236.814 123.408Z" fill="#5EB5EB"/>
<path id="Vector_49" d="M267.04 196.645C267.103 197.095 267.338 197.502 267.695 197.781C268.053 198.06 268.505 198.189 268.956 198.141C269.187 198.131 269.413 198.076 269.622 197.978C269.831 197.88 270.018 197.742 270.173 197.571C270.328 197.4 270.447 197.2 270.524 196.983C270.601 196.765 270.635 196.535 270.622 196.304C270.582 195.809 270.353 195.348 269.983 195.017C269.613 194.686 269.129 194.51 268.633 194.525C268.147 194.609 267.712 194.875 267.416 195.269C267.12 195.663 266.985 196.155 267.04 196.645Z" fill="#5EB5EB"/>
<path id="Vector_50" d="M198.942 84.8038C198.905 84.3075 198.674 83.8458 198.299 83.5183C197.924 83.1908 197.435 83.0237 196.939 83.053C196.467 83.1346 196.043 83.388 195.747 83.7641C195.452 84.1402 195.306 84.6124 195.338 85.0897C195.393 85.5561 195.632 85.9813 196.001 86.2721C196.37 86.5629 196.839 86.6956 197.305 86.6411C197.535 86.631 197.759 86.5751 197.967 86.4767C198.174 86.3782 198.359 86.2393 198.512 86.068C198.664 85.8967 198.781 85.6966 198.855 85.4795C198.929 85.2624 198.959 85.0326 198.942 84.8038Z" fill="#5EB5EB"/>
<path id="Vector_51" d="M179.812 73.1309C179.337 73.1999 178.904 73.443 178.598 73.8128C178.292 74.1827 178.135 74.653 178.156 75.1325C178.196 75.6057 178.421 76.0441 178.782 76.3527C179.143 76.6613 179.611 76.8154 180.085 76.7816C180.559 76.7478 181 76.5289 181.314 76.1722C181.627 75.8155 181.788 75.3496 181.76 74.8755C181.712 74.3937 181.486 73.9472 181.125 73.6243C180.764 73.3014 180.296 73.1253 179.812 73.1309Z" fill="#5EB5EB"/>
<path id="Vector_52" d="M232.306 113.806C232.307 113.552 232.256 113.302 232.154 113.07C232.053 112.838 231.904 112.629 231.717 112.458C231.531 112.287 231.31 112.157 231.07 112.077C230.83 111.996 230.576 111.966 230.324 111.99C230.072 112.013 229.828 112.089 229.607 112.213C229.386 112.337 229.193 112.505 229.041 112.708C228.889 112.911 228.782 113.143 228.725 113.389C228.668 113.636 228.664 113.892 228.712 114.141C228.783 114.588 229.023 114.991 229.382 115.267C229.741 115.542 230.193 115.67 230.643 115.622C230.872 115.613 231.097 115.559 231.304 115.462C231.512 115.365 231.698 115.229 231.852 115.06C232.007 114.891 232.127 114.693 232.204 114.478C232.282 114.263 232.317 114.034 232.306 113.806Z" fill="#5EB5EB"/>
<path id="Vector_53" d="M153.93 62.4528C153.582 62.4965 153.256 62.6421 152.991 62.871C152.726 63.1 152.535 63.4022 152.441 63.7395C152.348 64.0769 152.356 64.4344 152.465 64.767C152.575 65.0996 152.78 65.3925 153.055 65.6089C153.33 65.8252 153.663 65.9553 154.012 65.9827C154.361 66.0102 154.711 65.9338 155.016 65.7633C155.322 65.5927 155.57 65.3355 155.73 65.024C155.89 64.7126 155.954 64.3608 155.915 64.013C155.887 63.78 155.814 63.5546 155.7 63.35C155.585 63.1453 155.431 62.9653 155.246 62.8203C155.062 62.6754 154.851 62.5683 154.625 62.5052C154.399 62.4421 154.163 62.4243 153.93 62.4528Z" fill="#5EB5EB"/>
<path id="Vector_54" d="M222.051 102.683C221.703 102.715 221.372 102.85 221.1 103.07C220.829 103.291 220.628 103.586 220.524 103.92C220.419 104.254 220.416 104.611 220.514 104.947C220.612 105.283 220.807 105.582 221.075 105.807C221.342 106.032 221.67 106.174 222.018 106.213C222.366 106.252 222.717 106.188 223.028 106.028C223.339 105.868 223.596 105.62 223.767 105.315C223.937 105.009 224.014 104.66 223.987 104.312C223.967 104.077 223.901 103.85 223.793 103.641C223.685 103.432 223.536 103.247 223.357 103.096C223.177 102.944 222.969 102.83 222.745 102.759C222.521 102.688 222.285 102.662 222.051 102.683Z" fill="#5EB5EB"/>
<path id="Vector_55" d="M245.066 133.063C245.202 134.213 245.866 134.843 246.883 134.755C247.119 134.745 247.351 134.683 247.561 134.574C247.771 134.465 247.954 134.312 248.098 134.124C248.242 133.936 248.343 133.719 248.393 133.488C248.444 133.256 248.443 133.017 248.391 132.786C248.386 132.558 248.335 132.333 248.24 132.125C248.145 131.917 248.009 131.731 247.839 131.578C247.67 131.425 247.471 131.309 247.254 131.236C247.038 131.163 246.809 131.135 246.581 131.154C246.353 131.173 246.132 131.238 245.931 131.346C245.729 131.454 245.552 131.602 245.41 131.781C245.268 131.959 245.165 132.166 245.105 132.386C245.046 132.607 245.033 132.837 245.066 133.063Z" fill="#5EB5EB"/>
<path id="Vector_56" d="M215.773 94.951C215.757 94.732 215.698 94.5183 215.599 94.322C215.501 94.1257 215.364 93.9508 215.198 93.8071C215.032 93.6635 214.839 93.554 214.631 93.4849C214.423 93.4157 214.202 93.3884 213.983 93.4043C213.764 93.4202 213.551 93.4791 213.354 93.5776C213.158 93.6761 212.983 93.8123 212.84 93.9784C212.696 94.1446 212.586 94.3374 212.517 94.5458C212.448 94.7543 212.421 94.9743 212.437 95.1933C212.57 96.3491 213.225 96.9816 214.244 96.9019C214.48 96.8936 214.712 96.8338 214.922 96.7267C215.132 96.6196 215.317 96.4678 215.462 96.282C215.608 96.0961 215.711 95.8807 215.765 95.6508C215.818 95.4209 215.821 95.1821 215.773 94.951Z" fill="#5EB5EB"/>
<path id="Vector_57" d="M267.703 187.603C267.804 188.822 268.499 189.461 269.577 189.353C269.803 189.333 270.022 189.266 270.221 189.156C270.42 189.047 270.594 188.897 270.732 188.717C270.869 188.537 270.968 188.33 271.022 188.109C271.076 187.889 271.084 187.66 271.044 187.436C271.058 187.203 271.02 186.97 270.932 186.754C270.845 186.537 270.71 186.343 270.538 186.186C270.366 186.028 270.16 185.911 269.937 185.843C269.714 185.774 269.478 185.757 269.247 185.791C269.021 185.79 268.796 185.838 268.59 185.932C268.384 186.027 268.201 186.165 268.053 186.338C267.906 186.51 267.799 186.713 267.738 186.932C267.678 187.15 267.666 187.38 267.703 187.603Z" fill="#5EB5EB"/>
<path id="Vector_58" d="M260.929 160.746C260.999 161.898 261.632 162.389 262.766 162.412C262.992 162.403 263.214 162.345 263.415 162.243C263.617 162.14 263.794 161.996 263.935 161.819C264.076 161.642 264.177 161.437 264.231 161.217C264.286 160.998 264.292 160.769 264.25 160.547C264.249 160.319 264.202 160.094 264.11 159.885C264.019 159.676 263.886 159.488 263.719 159.333C263.552 159.177 263.356 159.058 263.141 158.981C262.926 158.904 262.698 158.873 262.471 158.887C262.243 158.902 262.021 158.963 261.818 159.067C261.615 159.171 261.436 159.315 261.291 159.491C261.145 159.666 261.038 159.87 260.974 160.089C260.91 160.308 260.892 160.537 260.921 160.763L260.929 160.746Z" fill="#5EB5EB"/>
<path id="Vector_59" d="M162.822 63.0978C162.601 63.1155 162.386 63.1781 162.19 63.2818C161.995 63.3854 161.822 63.528 161.683 63.7007C161.545 63.8734 161.443 64.0726 161.384 64.2861C161.325 64.4996 161.31 64.7229 161.341 64.9423C161.34 65.1772 161.389 65.4096 161.485 65.6244C161.58 65.8392 161.719 66.0316 161.893 66.1891C162.068 66.3467 162.273 66.4659 162.496 66.539C162.719 66.6122 162.956 66.6377 163.189 66.6138C163.413 66.5944 163.631 66.5295 163.829 66.423C164.027 66.3165 164.202 66.1707 164.341 65.9945C164.481 65.8184 164.583 65.6155 164.642 65.3984C164.701 65.1812 164.714 64.9544 164.682 64.7318C164.686 64.4964 164.638 64.263 164.543 64.0478C164.447 63.8325 164.306 63.6406 164.129 63.4852C163.952 63.3298 163.744 63.2147 163.518 63.1478C163.292 63.0809 163.055 63.0639 162.822 63.0978Z" fill="#5EB5EB"/>
<path id="Vector_60" d="M188.68 73.8074C188.456 73.8253 188.239 73.8885 188.04 73.993C187.841 74.0975 187.666 74.2414 187.524 74.4157C187.383 74.59 187.278 74.7912 187.217 75.0071C187.156 75.2231 187.139 75.4492 187.167 75.6719C187.196 76.1303 187.402 76.5596 187.742 76.8688C188.081 77.178 188.528 77.3429 188.987 77.3286C189.421 77.2607 189.816 77.0357 190.095 76.6962C190.374 76.3568 190.519 75.9266 190.503 75.4873C190.505 75.2538 190.458 75.0224 190.365 74.8081C190.272 74.5938 190.136 74.4013 189.964 74.2431C189.792 74.0848 189.589 73.9643 189.368 73.8892C189.147 73.8142 188.913 73.7863 188.68 73.8074Z" fill="#5EB5EB"/>
<path id="Vector_61" d="M253.378 142.488C253.407 142.947 253.613 143.376 253.952 143.685C254.292 143.994 254.739 144.159 255.198 144.145C255.629 144.07 256.019 143.843 256.297 143.504C256.574 143.166 256.72 142.738 256.707 142.301C256.71 142.071 256.666 141.844 256.578 141.633C256.489 141.421 256.358 141.23 256.192 141.072C256.027 140.913 255.83 140.79 255.615 140.711C255.4 140.631 255.171 140.597 254.942 140.61C254.713 140.623 254.49 140.683 254.285 140.786C254.08 140.889 253.899 141.033 253.752 141.209C253.605 141.385 253.496 141.59 253.432 141.81C253.368 142.03 253.349 142.261 253.378 142.488Z" fill="#5EB5EB"/>
<path id="Vector_62" d="M173.525 65.3444C173.482 64.9062 173.267 64.5029 172.927 64.2233C172.586 63.9438 172.149 63.8108 171.711 63.8537C171.273 63.8966 170.869 64.1118 170.59 64.452C170.31 64.7922 170.177 65.2295 170.22 65.6678C170.224 65.8914 170.277 66.1113 170.374 66.3125C170.472 66.5137 170.612 66.6913 170.785 66.833C170.958 66.9747 171.16 67.077 171.376 67.133C171.593 67.189 171.819 67.1972 172.039 67.1572C172.262 67.1547 172.482 67.1034 172.684 67.0067C172.885 66.91 173.063 66.7704 173.205 66.5976C173.346 66.4248 173.448 66.223 173.504 66.0065C173.559 65.79 173.566 65.564 173.525 65.3444Z" fill="#5EB5EB"/>
<path id="Vector_63" d="M268.507 179.039C268.517 179.263 268.575 179.481 268.679 179.68C268.782 179.878 268.927 180.052 269.105 180.188C269.282 180.325 269.487 180.421 269.706 180.469C269.924 180.518 270.15 180.519 270.369 180.471C270.584 180.464 270.795 180.41 270.987 180.315C271.18 180.219 271.35 180.084 271.486 179.917C271.622 179.751 271.721 179.557 271.776 179.35C271.831 179.142 271.841 178.925 271.806 178.713C271.791 178.491 271.732 178.274 271.632 178.075C271.532 177.877 271.393 177.7 271.224 177.556C271.054 177.413 270.857 177.304 270.645 177.238C270.432 177.172 270.209 177.149 269.988 177.171C269.766 177.193 269.552 177.259 269.356 177.366C269.161 177.472 268.989 177.617 268.851 177.791C268.713 177.965 268.611 178.166 268.552 178.38C268.493 178.594 268.478 178.819 268.507 179.039Z" fill="#5EB5EB"/>
<path id="Vector_64" d="M229.466 105.377C229.502 105.695 229.631 105.995 229.838 106.239C230.045 106.483 230.319 106.66 230.627 106.748C230.934 106.836 231.261 106.83 231.565 106.732C231.87 106.633 232.138 106.447 232.336 106.196C232.534 105.944 232.653 105.64 232.678 105.321C232.702 105.002 232.632 104.683 232.475 104.405C232.318 104.126 232.082 103.9 231.796 103.756C231.511 103.612 231.189 103.556 230.871 103.595C230.457 103.662 230.082 103.883 229.822 104.213C229.562 104.543 229.435 104.958 229.466 105.377Z" fill="#5EB5EB"/>
<path id="Vector_65" d="M204.136 85.7885C204.166 86.1174 204.293 86.43 204.502 86.6865C204.71 86.9429 204.989 87.1317 205.305 87.2288C205.621 87.3258 205.958 87.3268 206.275 87.2315C206.591 87.1362 206.872 86.949 207.081 86.6938C207.291 86.4385 207.42 86.1266 207.452 85.7978C207.483 85.4691 207.417 85.1383 207.26 84.8475C207.103 84.5567 206.864 84.3191 206.572 84.1649C206.28 84.0107 205.948 83.9468 205.62 83.9815C205.186 84.0306 204.788 84.2467 204.511 84.5841C204.235 84.9215 204.1 85.3535 204.136 85.7885Z" fill="#5EB5EB"/>
<path id="Vector_66" d="M128.113 51.8732C127.696 51.9706 127.326 52.2117 127.068 52.5543C126.811 52.8969 126.682 53.3192 126.704 53.7473C126.723 53.956 126.783 54.1587 126.883 54.343C126.982 54.5273 127.119 54.6893 127.283 54.819C127.448 54.9487 127.637 55.0434 127.839 55.0972C128.042 55.1511 128.253 55.163 128.46 55.1322C129.483 55.0323 130.066 54.4173 129.971 53.5275C129.938 53.064 129.725 52.6315 129.379 52.3225C129.032 52.0134 128.577 51.8522 128.113 51.8732Z" fill="#5EB5EB"/>
<path id="Vector_67" d="M137.024 52.6222C136.604 52.7081 136.228 52.9399 135.963 53.2765C135.698 53.6132 135.56 54.0329 135.575 54.4613C135.591 54.6781 135.652 54.8892 135.755 55.0808C135.857 55.2724 135.999 55.4403 136.171 55.5734C136.343 55.7065 136.541 55.802 136.752 55.8536C136.963 55.9052 137.183 55.9117 137.397 55.8728C137.598 55.8771 137.797 55.8388 137.982 55.7604C138.167 55.682 138.333 55.5653 138.469 55.4179C138.606 55.2705 138.709 55.0959 138.773 54.9056C138.837 54.7152 138.86 54.5134 138.841 54.3136C138.819 53.8502 138.617 53.4137 138.277 53.0975C137.938 52.7814 137.488 52.6108 137.024 52.6222Z" fill="#5EB5EB"/>
<path id="Vector_68" d="M237.56 114.872C237.577 115.08 237.637 115.283 237.736 115.467C237.834 115.652 237.969 115.814 238.133 115.944C238.297 116.074 238.486 116.169 238.688 116.223C238.89 116.278 239.1 116.29 239.307 116.26C240.339 116.157 240.919 115.548 240.846 114.67C240.817 114.206 240.609 113.772 240.264 113.461C239.92 113.149 239.468 112.984 239.004 113.001C238.58 113.091 238.203 113.329 237.939 113.671C237.674 114.014 237.54 114.44 237.56 114.872Z" fill="#5EB5EB"/>
<path id="Vector_69" d="M221.19 95.8688C221.352 96.7131 221.698 97.3687 222.955 97.2075C223.148 97.211 223.34 97.1757 223.519 97.1039C223.698 97.032 223.861 96.925 223.998 96.7891C224.136 96.6532 224.244 96.4912 224.318 96.3127C224.391 96.1341 224.428 95.9427 224.426 95.7496C224.414 95.2831 224.217 94.8406 223.879 94.5192C223.54 94.1978 223.088 94.0238 222.622 94.0353C222.191 94.0935 221.8 94.3179 221.533 94.6605C221.265 95.0031 221.142 95.4367 221.19 95.8688Z" fill="#5EB5EB"/>
<path id="Vector_70" d="M245.892 124.314C246.112 125.442 246.686 125.765 247.671 125.639C247.863 125.637 248.053 125.596 248.229 125.52C248.405 125.444 248.564 125.333 248.697 125.195C248.83 125.056 248.934 124.893 249.004 124.714C249.073 124.535 249.105 124.344 249.1 124.152C249.093 123.92 249.04 123.693 248.944 123.482C248.849 123.271 248.713 123.081 248.544 122.923C248.375 122.765 248.176 122.642 247.959 122.561C247.742 122.48 247.512 122.443 247.28 122.452C246.854 122.524 246.472 122.758 246.213 123.105C245.955 123.452 245.84 123.885 245.892 124.314Z" fill="#5EB5EB"/>
<path id="Vector_71" d="M261.556 151.975C261.776 153.103 262.35 153.426 263.335 153.3C263.527 153.298 263.716 153.258 263.892 153.182C264.068 153.107 264.227 152.997 264.36 152.86C264.493 152.722 264.598 152.559 264.667 152.381C264.737 152.203 264.771 152.013 264.767 151.821C264.76 151.59 264.708 151.362 264.613 151.15C264.518 150.939 264.382 150.749 264.214 150.59C264.045 150.432 263.846 150.308 263.629 150.226C263.412 150.145 263.182 150.107 262.95 150.115C262.523 150.185 262.139 150.418 261.879 150.765C261.619 151.111 261.503 151.545 261.556 151.975Z" fill="#5EB5EB"/>
<path id="Vector_72" d="M145.925 53.2212C145.616 53.246 145.321 53.3616 145.077 53.5535C144.833 53.7455 144.651 54.0051 144.555 54.2999C144.458 54.5948 144.451 54.9116 144.533 55.2106C144.616 55.5097 144.785 55.7776 145.02 55.9808C145.254 56.184 145.543 56.3133 145.851 56.3527C146.159 56.392 146.472 56.3396 146.75 56.2019C147.028 56.0642 147.259 55.8475 147.414 55.5788C147.569 55.3102 147.642 55.0017 147.622 54.6921C147.589 54.2731 147.393 53.8841 147.075 53.6089C146.757 53.3337 146.344 53.1944 145.925 53.2212Z" fill="#5EB5EB"/>
<path id="Vector_73" d="M180.609 64.5925C179.563 64.6951 179.166 65.1877 179.274 66.2509C179.382 67.314 179.911 67.8386 180.914 67.7067C181.917 67.5749 182.303 67.0476 182.178 65.9179C182.069 64.9124 181.583 64.5037 180.609 64.5925Z" fill="#5EB5EB"/>
<path id="Vector_74" d="M199.166 76.211C199.067 75.1017 198.598 74.673 197.601 74.7645C196.604 74.8559 196.141 75.3508 196.249 76.3995C196.357 77.4483 196.883 77.993 197.863 77.8783C198.842 77.7635 199.263 77.2394 199.166 76.211Z" fill="#5EB5EB"/>
<path id="Vector_75" d="M269.233 170.116C269.366 171.272 269.827 171.718 270.817 171.652C271.808 171.587 272.249 171.037 272.133 169.904C272.016 168.772 271.541 168.427 270.503 168.541C270.309 168.539 270.116 168.581 269.94 168.665C269.764 168.748 269.609 168.87 269.487 169.021C269.365 169.173 269.279 169.35 269.235 169.54C269.191 169.729 269.19 169.926 269.233 170.116Z" fill="#5EB5EB"/>
<path id="Vector_76" d="M254.127 133.606C254.125 133.816 254.167 134.023 254.252 134.215C254.336 134.407 254.461 134.579 254.616 134.719C254.772 134.859 254.956 134.964 255.156 135.028C255.356 135.092 255.567 135.112 255.775 135.088C256.152 135.023 256.492 134.82 256.727 134.518C256.962 134.216 257.076 133.837 257.046 133.455C256.964 132.427 256.429 131.914 255.514 131.945C255.304 131.935 255.095 131.973 254.903 132.057C254.711 132.142 254.541 132.269 254.406 132.43C254.272 132.591 254.177 132.781 254.128 132.985C254.08 133.189 254.079 133.402 254.127 133.606Z" fill="#5EB5EB"/>
<path id="Vector_77" d="M154.741 53.8856C154.536 53.891 154.335 53.9428 154.153 54.0371C153.97 54.1314 153.811 54.2657 153.688 54.4299C153.565 54.5942 153.481 54.7842 153.441 54.9857C153.402 55.1872 153.409 55.3949 153.461 55.5935C153.47 55.7941 153.52 55.9907 153.608 56.1714C153.695 56.3522 153.819 56.5131 153.971 56.6445C154.122 56.7758 154.3 56.8749 154.491 56.9355C154.682 56.9962 154.884 57.0172 155.084 56.9972C155.481 56.9382 155.838 56.7244 156.077 56.4027C156.317 56.081 156.419 55.6776 156.362 55.2807C156.372 55.0747 156.335 54.8692 156.253 54.6797C156.172 54.4902 156.049 54.3218 155.892 54.1873C155.736 54.0528 155.551 53.9557 155.352 53.9034C155.152 53.8511 154.944 53.845 154.741 53.8856Z" fill="#5EB5EB"/>
<path id="Vector_78" d="M213.21 86.461C213.226 86.6593 213.281 86.8523 213.372 87.029C213.464 87.2058 213.589 87.3626 213.741 87.4905C213.894 87.6184 214.07 87.7148 214.26 87.7741C214.45 87.8334 214.649 87.8545 214.847 87.8361C215.242 87.7693 215.595 87.5503 215.83 87.226C216.066 86.9017 216.164 86.4982 216.105 86.102C216.112 85.8965 216.073 85.6921 215.989 85.5043C215.905 85.3166 215.78 85.1504 215.622 85.0186C215.464 84.8867 215.278 84.7927 215.079 84.7437C214.879 84.6946 214.671 84.6919 214.47 84.7356C213.537 84.845 213.095 85.4527 213.21 86.461Z" fill="#5EB5EB"/>
<path id="Vector_79" d="M165.032 56.189C165.024 55.7906 164.865 55.4102 164.588 55.1242C164.31 54.8382 163.935 54.668 163.537 54.6479C163.138 54.6798 162.767 54.8648 162.502 55.1641C162.237 55.4634 162.097 55.8537 162.113 56.2534C162.142 56.6621 162.323 57.045 162.622 57.3256C162.921 57.6062 163.314 57.7637 163.724 57.7667C164.088 57.6894 164.415 57.4915 164.652 57.2052C164.889 56.9189 165.023 56.5608 165.032 56.189Z" fill="#5EB5EB"/>
<path id="Vector_80" d="M269.984 161.3C270.024 161.691 270.203 162.053 270.489 162.322C270.775 162.591 271.148 162.748 271.54 162.764C271.921 162.693 272.265 162.49 272.513 162.193C272.76 161.895 272.897 161.52 272.898 161.132C272.878 160.733 272.706 160.357 272.417 160.081C272.128 159.805 271.744 159.65 271.345 159.648C270.947 159.692 270.583 159.89 270.329 160.198C270.075 160.507 269.951 160.902 269.984 161.3Z" fill="#5EB5EB"/>
<path id="Vector_81" d="M187.946 67.0583C187.994 67.4476 188.182 67.8061 188.475 68.0678C188.767 68.3294 189.144 68.4765 189.537 68.4819C189.919 68.4039 190.261 68.1931 190.503 67.8869C190.744 67.5807 190.87 67.1989 190.857 66.809C190.854 66.6078 190.81 66.4093 190.727 66.2259C190.645 66.0426 190.525 65.8782 190.376 65.7431C190.227 65.6081 190.051 65.5052 189.861 65.4409C189.67 65.3766 189.468 65.3522 189.267 65.3694C189.067 65.3866 188.872 65.4448 188.695 65.5406C188.518 65.6364 188.363 65.7676 188.239 65.926C188.115 66.0845 188.025 66.2668 187.974 66.4616C187.924 66.6564 187.914 66.8595 187.946 67.0583Z" fill="#5EB5EB"/>
<path id="Vector_82" d="M205.137 77.079C205.242 77.9227 205.775 78.2973 206.734 78.2083C207.693 78.1194 208.122 77.6357 208.007 76.685C207.997 76.4845 207.944 76.2883 207.854 76.109C207.763 75.9298 207.636 75.7714 207.481 75.6439C207.325 75.5165 207.145 75.4228 206.952 75.3689C206.758 75.3149 206.556 75.3019 206.357 75.3306C206.158 75.3593 205.968 75.4291 205.797 75.5355C205.627 75.642 205.481 75.7828 205.368 75.949C205.255 76.1151 205.178 76.303 205.142 76.5006C205.105 76.6981 205.111 76.9011 205.157 77.0965L205.137 77.079Z" fill="#5EB5EB"/>
<path id="Vector_83" d="M238.516 106.038C238.621 106.882 239.151 107.262 240.11 107.173C241.069 107.084 241.51 106.606 241.395 105.656C241.379 105.459 241.323 105.268 241.231 105.094C241.139 104.92 241.012 104.767 240.858 104.643C240.704 104.52 240.527 104.43 240.337 104.377C240.147 104.325 239.948 104.312 239.753 104.339C239.558 104.367 239.371 104.434 239.202 104.536C239.034 104.638 238.888 104.774 238.775 104.935C238.661 105.095 238.581 105.278 238.54 105.471C238.499 105.663 238.498 105.862 238.536 106.055L238.516 106.038Z" fill="#5EB5EB"/>
<path id="Vector_84" d="M246.619 115.262C246.644 115.545 246.752 115.815 246.931 116.036C247.11 116.257 247.351 116.42 247.623 116.503C247.895 116.586 248.185 116.586 248.457 116.503C248.729 116.42 248.97 116.257 249.149 116.036C249.328 115.815 249.437 115.545 249.461 115.262C249.486 114.979 249.425 114.695 249.287 114.446C249.149 114.197 248.939 113.996 248.686 113.867C248.432 113.739 248.146 113.689 247.864 113.724C247.503 113.781 247.176 113.97 246.946 114.254C246.716 114.538 246.6 114.897 246.619 115.262Z" fill="#5EB5EB"/>
<path id="Vector_85" d="M230.225 96.6306C230.238 96.8106 230.289 96.9858 230.377 97.1437C230.464 97.3017 230.585 97.4386 230.73 97.545C230.876 97.6514 231.044 97.7247 231.221 97.7597C231.398 97.7947 231.58 97.7907 231.755 97.7478C231.945 97.7475 232.132 97.7056 232.303 97.625C232.474 97.5445 232.626 97.4272 232.747 97.2816C232.868 97.1359 232.955 96.9655 233.003 96.7823C233.05 96.5991 233.057 96.4077 233.023 96.2216C233.009 96.0284 232.955 95.8402 232.865 95.6686C232.775 95.4971 232.651 95.3458 232.5 95.2243C232.349 95.1028 232.175 95.0136 231.988 94.9623C231.801 94.9109 231.606 94.8985 231.414 94.9258C231.222 94.9531 231.038 95.0196 230.873 95.121C230.708 95.2225 230.566 95.3567 230.455 95.5155C230.344 95.6743 230.267 95.8542 230.228 96.0441C230.19 96.2339 230.191 96.4296 230.231 96.6191L230.225 96.6306Z" fill="#5EB5EB"/>
<path id="Vector_86" d="M262.454 142.944C262.481 143.229 262.593 143.498 262.774 143.719C262.955 143.94 263.198 144.103 263.471 144.186C263.744 144.269 264.036 144.269 264.31 144.187C264.583 144.104 264.826 143.943 265.008 143.722C265.189 143.502 265.302 143.232 265.33 142.948C265.359 142.664 265.303 142.377 265.169 142.125C265.035 141.873 264.829 141.666 264.578 141.53C264.326 141.395 264.04 141.337 263.756 141.364C263.377 141.409 263.031 141.599 262.788 141.893C262.546 142.188 262.426 142.564 262.454 142.944Z" fill="#5EB5EB"/>
<path id="Vector_87" d="M172.23 55.2562C171.852 55.3259 171.515 55.5397 171.292 55.8525C171.068 56.1653 170.974 56.5527 171.031 56.9332C171.043 57.1134 171.094 57.2888 171.18 57.4472C171.267 57.6056 171.388 57.7431 171.533 57.8501C171.679 57.9571 171.846 58.0309 172.023 58.0665C172.2 58.1021 172.383 58.0985 172.558 58.0561C172.748 58.0573 172.936 58.0168 173.108 57.9373C173.28 57.8578 173.433 57.7414 173.555 57.5962C173.677 57.451 173.765 57.2808 173.814 57.0975C173.863 56.9142 173.871 56.7224 173.837 56.5357C173.784 56.1571 173.588 55.8132 173.289 55.5751C172.99 55.3369 172.611 55.2228 172.23 55.2562Z" fill="#5EB5EB"/>
<path id="Vector_88" d="M254.97 124.765C255.102 125.514 255.454 126.1 256.44 125.902C256.625 125.916 256.81 125.887 256.981 125.816C257.152 125.745 257.304 125.634 257.423 125.493C257.543 125.352 257.628 125.184 257.67 125.004C257.712 124.823 257.711 124.636 257.666 124.456C257.651 124.272 257.598 124.093 257.512 123.929C257.426 123.766 257.308 123.621 257.164 123.505C257.021 123.388 256.856 123.301 256.678 123.25C256.501 123.199 256.315 123.184 256.131 123.206C255.948 123.22 255.769 123.274 255.608 123.363C255.447 123.452 255.307 123.574 255.197 123.722C255.087 123.87 255.01 124.039 254.971 124.219C254.932 124.399 254.932 124.585 254.97 124.765Z" fill="#5EB5EB"/>
<path id="Vector_89" d="M270.643 152.452C270.774 153.201 271.118 153.79 272.127 153.603C272.309 153.614 272.491 153.583 272.66 153.512C272.828 153.441 272.977 153.331 273.096 153.193C273.215 153.054 273.3 152.89 273.344 152.712C273.389 152.535 273.392 152.35 273.353 152.172C273.339 151.987 273.289 151.807 273.204 151.642C273.119 151.477 273.002 151.331 272.86 151.213C272.717 151.095 272.552 151.006 272.375 150.953C272.197 150.9 272.011 150.884 271.826 150.905C271.644 150.921 271.467 150.975 271.307 151.064C271.146 151.152 271.006 151.273 270.895 151.418C270.784 151.564 270.704 151.731 270.66 151.909C270.617 152.087 270.611 152.272 270.643 152.452Z" fill="#5EB5EB"/>
<path id="Vector_90" d="M222.185 87.1273C222.302 87.876 222.643 88.4709 223.759 88.3026C223.935 88.3083 224.111 88.2731 224.272 88.1997C224.433 88.1263 224.575 88.0167 224.687 87.8795C224.798 87.7423 224.877 87.5812 224.916 87.4087C224.955 87.2362 224.954 87.0569 224.912 86.885C224.901 86.6995 224.852 86.5182 224.769 86.352C224.686 86.1859 224.57 86.0383 224.428 85.9183C224.286 85.7982 224.122 85.7081 223.944 85.6535C223.766 85.5989 223.58 85.5809 223.395 85.6005C223.21 85.609 223.03 85.657 222.866 85.7411C222.701 85.8253 222.557 85.9437 222.442 86.0884C222.328 86.2331 222.245 86.4008 222.201 86.58C222.157 86.7592 222.151 86.9458 222.185 87.1273Z" fill="#5EB5EB"/>
<path id="Vector_91" d="M197.001 67.5548C197.085 68.381 197.674 68.9726 198.394 68.7976C199.115 68.6227 199.669 68.2759 199.502 67.3853C199.513 67.2052 199.483 67.0248 199.415 66.8578C199.347 66.6907 199.241 66.5413 199.107 66.4209C198.973 66.3004 198.813 66.212 198.639 66.1623C198.465 66.1126 198.283 66.1028 198.105 66.1338C197.932 66.1355 197.762 66.1763 197.607 66.2532C197.452 66.33 197.316 66.4408 197.21 66.5775C197.103 66.7141 197.029 66.873 196.993 67.0422C196.957 67.2114 196.96 67.3867 197.001 67.5548Z" fill="#5EB5EB"/>
<path id="Vector_92" d="M180.021 57.3312C180.004 57.5093 180.028 57.6888 180.09 57.8564C180.152 58.0241 180.252 58.1755 180.381 58.2994C180.51 58.4233 180.665 58.5164 180.835 58.5719C181.005 58.6274 181.185 58.6437 181.362 58.6198C181.532 58.627 181.701 58.5966 181.858 58.5307C182.014 58.4648 182.154 58.365 182.267 58.2386C182.38 58.1122 182.464 57.9622 182.513 57.7995C182.561 57.6368 182.573 57.4654 182.547 57.2977C182.562 57.1183 182.537 56.9378 182.475 56.7688C182.414 56.5997 182.316 56.4461 182.189 56.3184C182.062 56.1907 181.909 56.0921 181.74 56.0292C181.572 55.9664 181.391 55.9409 181.212 55.9544C181.039 55.955 180.869 55.9925 180.712 56.0645C180.555 56.1365 180.416 56.2413 180.303 56.3718C180.19 56.5022 180.107 56.6554 180.058 56.8209C180.009 56.9864 179.997 57.1605 180.021 57.3312Z" fill="#5EB5EB"/>
<path id="Vector_93" d="M213.922 77.495C213.909 77.6731 213.936 77.8518 214.002 78.0177C214.068 78.1836 214.172 78.3322 214.304 78.4522C214.436 78.5723 214.594 78.6607 214.765 78.7107C214.936 78.7606 215.117 78.7708 215.293 78.7405C215.463 78.7451 215.633 78.7112 215.788 78.6414C215.944 78.5716 216.082 78.4677 216.192 78.3373C216.302 78.207 216.381 78.0535 216.423 77.8884C216.466 77.7232 216.471 77.5507 216.437 77.3834C216.449 77.2034 216.421 77.0229 216.355 76.855C216.289 76.687 216.187 76.5357 216.056 76.4118C215.925 76.2878 215.768 76.1944 215.597 76.1381C215.425 76.0817 215.243 76.0639 215.064 76.0859C214.892 76.0917 214.724 76.1343 214.57 76.2108C214.416 76.2874 214.28 76.3962 214.172 76.5298C214.063 76.6635 213.985 76.8188 213.942 76.9853C213.899 77.1518 213.892 77.3257 213.922 77.495Z" fill="#5EB5EB"/>
<path id="Vector_94" d="M263.161 134.114C263.238 134.409 263.417 134.668 263.666 134.844C263.916 135.021 264.22 135.102 264.524 135.076C264.828 135.049 265.113 134.915 265.328 134.698C265.543 134.481 265.674 134.194 265.697 133.89C265.642 133.064 265.12 132.695 264.249 132.684C264.082 132.702 263.92 132.754 263.774 132.837C263.628 132.92 263.5 133.032 263.398 133.165C263.296 133.299 263.223 133.452 263.182 133.615C263.141 133.778 263.134 133.948 263.161 134.114Z" fill="#5EB5EB"/>
<path id="Vector_95" d="M247.359 106.469C247.394 106.79 247.554 107.083 247.806 107.285C248.057 107.488 248.379 107.582 248.699 107.547C249.02 107.512 249.314 107.351 249.516 107.1C249.718 106.848 249.812 106.527 249.777 106.206C249.768 106.042 249.725 105.882 249.651 105.735C249.578 105.588 249.475 105.458 249.349 105.352C249.223 105.246 249.077 105.167 248.92 105.12C248.763 105.073 248.597 105.058 248.434 105.077C248.271 105.094 248.113 105.145 247.969 105.225C247.826 105.305 247.7 105.414 247.6 105.544C247.499 105.674 247.426 105.823 247.385 105.982C247.343 106.141 247.335 106.306 247.359 106.469Z" fill="#5EB5EB"/>
<path id="Vector_96" d="M239.249 97.0313C239.251 97.1894 239.288 97.3452 239.355 97.4882C239.423 97.6311 239.52 97.758 239.641 97.8603C239.761 97.9626 239.903 98.0379 240.055 98.0812C240.207 98.1245 240.366 98.1348 240.523 98.1114C240.687 98.1267 240.852 98.104 241.006 98.0451C241.159 97.9861 241.297 97.8926 241.409 97.7717C241.521 97.6507 241.603 97.5057 241.65 97.3478C241.696 97.1899 241.706 97.0234 241.678 96.8612C241.679 96.6952 241.644 96.531 241.576 96.3795C241.508 96.2281 241.409 96.0929 241.284 95.9832C241.16 95.8734 241.013 95.7916 240.855 95.7432C240.696 95.6949 240.529 95.6811 240.364 95.7028C240.202 95.7133 240.044 95.7565 239.9 95.8297C239.755 95.903 239.627 96.0047 239.523 96.1288C239.418 96.253 239.34 96.397 239.293 96.5521C239.246 96.7072 239.231 96.8702 239.249 97.0313Z" fill="#5EB5EB"/>
<path id="Vector_97" d="M205.901 68.1537C205.913 68.3178 205.962 68.4772 206.044 68.6198C206.126 68.7624 206.239 68.8847 206.375 68.9773C206.511 69.0699 206.666 69.1306 206.829 69.1548C206.992 69.1789 207.158 69.1659 207.315 69.1168C207.475 69.1016 207.63 69.0525 207.769 68.9727C207.909 68.8929 208.03 68.7843 208.124 68.654C208.218 68.5238 208.283 68.375 208.315 68.2175C208.347 68.0601 208.345 67.8976 208.309 67.7409C208.285 67.5831 208.23 67.4316 208.147 67.2951C208.064 67.1586 207.955 67.0398 207.826 66.9455C207.698 66.8513 207.551 66.7834 207.396 66.7457C207.241 66.7081 207.08 66.7014 206.922 66.7262C206.757 66.7427 206.597 66.7944 206.453 66.8776C206.31 66.9609 206.185 67.0738 206.089 67.2089C205.992 67.344 205.925 67.4982 205.893 67.6611C205.861 67.824 205.864 67.992 205.901 68.1537Z" fill="#5EB5EB"/>
<path id="Vector_98" d="M231.154 87.6517C231.163 87.819 231.209 87.9822 231.289 88.1294C231.37 88.2766 231.482 88.4041 231.617 88.5027C231.753 88.6012 231.908 88.6684 232.073 88.6993C232.238 88.7301 232.407 88.724 232.569 88.6812C232.725 88.6782 232.878 88.6408 233.017 88.5718C233.156 88.5028 233.278 88.4038 233.375 88.2819C233.471 88.16 233.539 88.0183 233.574 87.8669C233.609 87.7156 233.61 87.5583 233.577 87.4065C233.573 87.24 233.533 87.0764 233.46 86.9267C233.387 86.777 233.283 86.6447 233.155 86.5385C233.026 86.4323 232.877 86.3548 232.716 86.3111C232.556 86.2674 232.387 86.2586 232.223 86.2852C232.063 86.3038 231.908 86.354 231.767 86.433C231.626 86.5119 231.502 86.618 231.403 86.7451C231.303 86.8722 231.23 87.0178 231.187 87.1734C231.145 87.329 231.133 87.4916 231.154 87.6517Z" fill="#5EB5EB"/>
<path id="Vector_99" d="M271.308 143.563C271.319 143.73 271.367 143.893 271.449 144.04C271.531 144.187 271.644 144.313 271.781 144.411C271.917 144.508 272.073 144.575 272.239 144.605C272.404 144.634 272.573 144.627 272.736 144.584C272.891 144.58 273.044 144.543 273.184 144.473C273.323 144.404 273.446 144.304 273.542 144.182C273.639 144.059 273.707 143.917 273.743 143.765C273.778 143.614 273.779 143.456 273.746 143.304C273.742 143.137 273.702 142.973 273.629 142.823C273.556 142.674 273.451 142.541 273.323 142.436C273.194 142.33 273.044 142.253 272.883 142.21C272.722 142.167 272.553 142.16 272.389 142.188C272.226 142.203 272.068 142.252 271.924 142.33C271.781 142.408 271.655 142.515 271.554 142.644C271.452 142.772 271.379 142.92 271.336 143.078C271.294 143.236 271.284 143.401 271.308 143.563Z" fill="#5EB5EB"/>
<path id="Vector_100" d="M188.946 58.1237C188.945 58.2793 188.978 58.4333 189.043 58.5747C189.107 58.7161 189.203 58.8415 189.322 58.9418C189.441 59.0422 189.58 59.1151 189.731 59.1553C189.881 59.1956 190.038 59.2022 190.191 59.1747C190.359 59.1838 190.526 59.1556 190.682 59.0919C190.837 59.0283 190.976 58.9308 191.089 58.8067C191.202 58.6826 191.285 58.5349 191.334 58.3743C191.383 58.2137 191.395 58.0444 191.37 57.8785C191.359 57.7168 191.316 57.559 191.243 57.4144C191.17 57.2698 191.069 57.1413 190.945 57.0367C190.821 56.9321 190.678 56.8535 190.523 56.8055C190.368 56.7575 190.205 56.7412 190.044 56.7575C189.878 56.764 189.716 56.8059 189.567 56.8806C189.419 56.9553 189.288 57.061 189.184 57.1905C189.08 57.32 189.005 57.4703 188.964 57.6313C188.923 57.7923 188.917 57.9602 188.946 58.1237Z" fill="#5EB5EB"/>
<path id="Vector_101" d="M255.684 115.952C255.694 116.116 255.742 116.275 255.824 116.418C255.906 116.56 256.019 116.682 256.155 116.774C256.291 116.867 256.447 116.926 256.61 116.949C256.772 116.972 256.938 116.957 257.095 116.906C257.251 116.894 257.404 116.848 257.542 116.772C257.679 116.696 257.8 116.592 257.894 116.467C257.989 116.341 258.055 116.196 258.09 116.043C258.124 115.889 258.126 115.73 258.094 115.576C258.075 115.415 258.024 115.259 257.943 115.117C257.863 114.976 257.755 114.852 257.625 114.753C257.496 114.655 257.348 114.583 257.19 114.542C257.033 114.502 256.868 114.494 256.708 114.518C256.542 114.535 256.382 114.587 256.238 114.671C256.094 114.755 255.969 114.868 255.872 115.004C255.775 115.139 255.708 115.294 255.676 115.457C255.643 115.621 255.646 115.789 255.684 115.952Z" fill="#5EB5EB"/>
<path id="Vector_102" d="M278.871 161.87C278.885 162.036 278.936 162.197 279.019 162.341C279.103 162.486 279.218 162.609 279.355 162.704C279.493 162.799 279.649 162.862 279.814 162.888C279.978 162.915 280.147 162.905 280.307 162.859C280.462 162.853 280.614 162.813 280.752 162.741C280.89 162.669 281.01 162.568 281.104 162.444C281.198 162.32 281.263 162.177 281.295 162.025C281.327 161.873 281.325 161.715 281.289 161.564C281.282 161.398 281.239 161.235 281.163 161.087C281.087 160.938 280.98 160.808 280.849 160.705C280.719 160.601 280.567 160.527 280.405 160.487C280.244 160.448 280.075 160.443 279.911 160.475C279.75 160.495 279.594 160.547 279.454 160.629C279.313 160.711 279.191 160.82 279.094 160.951C278.996 161.081 278.927 161.23 278.888 161.388C278.85 161.546 278.844 161.71 278.871 161.87Z" fill="#5EB5EB"/>
<path id="Vector_103" d="M263.855 125.537C263.845 125.692 263.874 125.847 263.937 125.989C264.001 126.131 264.098 126.256 264.22 126.353C264.342 126.449 264.485 126.515 264.638 126.544C264.791 126.574 264.949 126.566 265.098 126.521C265.238 126.547 265.383 126.54 265.52 126.501C265.658 126.462 265.784 126.392 265.89 126.296C265.996 126.2 266.078 126.081 266.131 125.949C266.183 125.816 266.204 125.673 266.192 125.53C266.212 125.356 266.194 125.181 266.14 125.014C266.086 124.848 265.997 124.695 265.879 124.566C265.761 124.437 265.617 124.335 265.456 124.266C265.295 124.197 265.122 124.164 264.947 124.168C264.78 124.17 264.615 124.21 264.465 124.284C264.315 124.358 264.183 124.464 264.078 124.595C263.974 124.726 263.9 124.878 263.861 125.041C263.822 125.204 263.82 125.373 263.855 125.537Z" fill="#5EB5EB"/>
<path id="Vector_104" d="M222.999 78.1765C223.037 78.9792 223.461 79.3845 224.189 79.2933C224.761 79.2237 225.286 78.9055 225.112 78.1708C225.073 77.4258 224.803 76.9614 223.982 77.0344C223.836 77.0245 223.69 77.0488 223.555 77.1053C223.42 77.1617 223.301 77.2488 223.205 77.3596C223.11 77.4704 223.041 77.6019 223.006 77.7437C222.97 77.8855 222.967 78.0337 222.999 78.1765Z" fill="#5EB5EB"/>
<path id="Vector_105" d="M172.152 48.0604C172.13 48.825 172.702 49.0671 173.332 48.9981C173.484 48.9935 173.632 48.9536 173.766 48.8814C173.9 48.8092 174.015 48.7067 174.101 48.5822C174.188 48.4577 174.245 48.3146 174.267 48.1643C174.289 48.014 174.275 47.8607 174.227 47.7166C174.107 47.0169 173.813 46.6707 173.082 46.7387C172.351 46.8068 172.024 47.2625 172.152 48.0604Z" fill="#5EB5EB"/>
<path id="Vector_106" d="M197.975 58.9256C197.981 59.4509 198.515 59.7677 199.153 59.7104C199.297 59.7 199.437 59.6584 199.563 59.5886C199.69 59.5187 199.799 59.4221 199.884 59.3057C199.969 59.1892 200.028 59.0556 200.056 58.9142C200.085 58.7727 200.082 58.6268 200.048 58.4865C200.059 58.338 200.036 58.1891 199.98 58.051C199.925 57.9129 199.838 57.7894 199.727 57.69C199.616 57.5906 199.484 57.5178 199.341 57.4774C199.198 57.437 199.047 57.4299 198.901 57.4567C198.17 57.5248 197.891 57.9695 197.975 58.9256Z" fill="#5EB5EB"/>
<path id="Vector_107" d="M279.811 153.18C279.81 153.329 279.841 153.475 279.901 153.611C279.96 153.747 280.048 153.869 280.158 153.968C280.268 154.068 280.397 154.144 280.538 154.19C280.679 154.237 280.828 154.253 280.975 154.238C281.123 154.223 281.266 154.178 281.395 154.104C281.523 154.03 281.635 153.93 281.723 153.811C281.811 153.691 281.872 153.554 281.904 153.41C281.935 153.265 281.936 153.115 281.906 152.969C281.916 152.822 281.892 152.673 281.836 152.536C281.779 152.399 281.692 152.277 281.581 152.179C281.469 152.082 281.337 152.011 281.193 151.973C281.05 151.935 280.9 151.93 280.755 151.96C280.606 151.961 280.46 151.996 280.327 152.062C280.194 152.128 280.077 152.223 279.986 152.341C279.895 152.458 279.832 152.595 279.802 152.74C279.772 152.886 279.775 153.036 279.811 153.18Z" fill="#5EB5EB"/>
<path id="Vector_108" d="M272.251 134.911C272.247 135.055 272.274 135.198 272.331 135.331C272.388 135.463 272.474 135.582 272.581 135.678C272.689 135.774 272.817 135.845 272.955 135.886C273.093 135.928 273.239 135.938 273.381 135.917C273.534 135.911 273.683 135.872 273.818 135.801C273.953 135.73 274.07 135.63 274.162 135.508C274.253 135.386 274.317 135.246 274.347 135.096C274.377 134.947 274.374 134.793 274.337 134.645C274.338 134.496 274.306 134.348 274.242 134.213C274.179 134.078 274.087 133.958 273.972 133.863C273.856 133.768 273.722 133.7 273.577 133.663C273.432 133.627 273.281 133.623 273.135 133.652C272.988 133.663 272.845 133.706 272.718 133.779C272.59 133.852 272.479 133.952 272.395 134.072C272.31 134.193 272.254 134.33 272.229 134.475C272.204 134.62 272.211 134.769 272.251 134.911Z" fill="#5EB5EB"/>
<path id="Vector_109" d="M214.932 68.7537C214.932 68.8932 214.962 69.0311 215.021 69.1577C215.08 69.2842 215.165 69.3964 215.272 69.4863C215.379 69.5762 215.504 69.6416 215.639 69.6779C215.773 69.7142 215.914 69.7206 216.052 69.6966C216.325 69.6732 216.578 69.5421 216.755 69.3322C216.932 69.1222 217.018 68.8506 216.995 68.5772C216.971 68.3037 216.84 68.0507 216.63 67.8738C216.42 67.697 216.149 67.6108 215.875 67.6342C215.736 67.6339 215.598 67.6642 215.471 67.7229C215.345 67.7816 215.233 67.8673 215.143 67.974C215.053 68.0807 214.987 68.2058 214.951 68.3405C214.915 68.4752 214.908 68.6163 214.932 68.7537Z" fill="#5EB5EB"/>
<path id="Vector_110" d="M180.816 48.6975C180.841 49.3991 181.298 49.5968 181.887 49.6082C182.494 49.513 182.955 49.2923 182.884 48.5816C182.887 48.4346 182.858 48.2886 182.8 48.1537C182.741 48.0188 182.654 47.8982 182.545 47.8001C182.435 47.702 182.306 47.6288 182.165 47.5854C182.025 47.542 181.876 47.5296 181.731 47.5489C181.593 47.5591 181.459 47.5977 181.337 47.6622C181.216 47.7266 181.108 47.8156 181.022 47.9234C180.937 48.0313 180.874 48.1557 180.838 48.2889C180.803 48.4221 180.795 48.5612 180.816 48.6975Z" fill="#5EB5EB"/>
<path id="Vector_111" d="M248.313 97.7213C248.327 97.848 248.369 97.9701 248.434 98.0792C248.5 98.1884 248.589 98.2818 248.695 98.3532C248.8 98.4245 248.92 98.472 249.046 98.4923C249.172 98.5126 249.301 98.5052 249.423 98.4708C250.056 98.4104 250.397 98.0847 250.352 97.279C250.331 97.1456 250.283 97.0179 250.211 96.9031C250.14 96.7883 250.046 96.6888 249.936 96.6102C249.826 96.5317 249.702 96.4756 249.57 96.4453C249.438 96.415 249.302 96.411 249.169 96.4336C249.023 96.4518 248.883 96.5012 248.758 96.5785C248.633 96.6558 248.527 96.7591 248.446 96.8813C248.364 97.0036 248.311 97.1419 248.288 97.2869C248.265 97.4318 248.274 97.58 248.313 97.7213Z" fill="#5EB5EB"/>
<path id="Vector_112" d="M256.438 107.341C256.453 107.463 256.493 107.58 256.557 107.686C256.62 107.791 256.705 107.882 256.806 107.952C256.907 108.023 257.022 108.071 257.143 108.093C257.264 108.116 257.388 108.113 257.508 108.084C257.649 108.089 257.789 108.062 257.918 108.005C258.047 107.948 258.161 107.862 258.252 107.754C258.343 107.646 258.408 107.519 258.442 107.382C258.477 107.245 258.48 107.103 258.451 106.964C258.436 106.823 258.392 106.685 258.321 106.561C258.251 106.437 258.156 106.329 258.042 106.243C257.928 106.157 257.798 106.096 257.659 106.063C257.521 106.03 257.377 106.025 257.236 106.05C257.096 106.075 256.962 106.129 256.843 106.207C256.724 106.286 256.623 106.389 256.545 106.508C256.468 106.628 256.416 106.762 256.392 106.903C256.369 107.044 256.375 107.188 256.41 107.326L256.438 107.341Z" fill="#5EB5EB"/>
<path id="Vector_113" d="M264.777 116.7C264.857 117.35 265.291 117.521 265.973 117.435C266.096 117.437 266.218 117.409 266.328 117.355C266.438 117.3 266.534 117.221 266.609 117.123C266.683 117.025 266.733 116.911 266.755 116.79C266.777 116.669 266.771 116.545 266.736 116.427C266.734 116.288 266.702 116.151 266.641 116.026C266.581 115.901 266.495 115.791 266.388 115.702C266.281 115.614 266.156 115.549 266.022 115.514C265.888 115.478 265.748 115.472 265.611 115.495C265.473 115.511 265.34 115.556 265.221 115.627C265.102 115.699 265 115.795 264.921 115.909C264.842 116.023 264.788 116.152 264.764 116.288C264.739 116.425 264.743 116.565 264.777 116.7Z" fill="#5EB5EB"/>
<path id="Vector_114" d="M231.944 78.8708C232.027 79.5296 232.47 79.6839 233.167 79.5983C233.288 79.597 233.407 79.5677 233.515 79.5124C233.623 79.4572 233.716 79.3777 233.788 79.2801C233.86 79.1825 233.908 79.0695 233.928 78.9502C233.949 78.8308 233.942 78.7083 233.907 78.5923C233.904 78.453 233.871 78.316 233.81 78.1907C233.75 78.0653 233.663 77.9544 233.555 77.8657C233.448 77.777 233.323 77.7125 233.188 77.6767C233.054 77.6408 232.913 77.6344 232.776 77.6579C232.638 77.6749 232.505 77.7211 232.386 77.7933C232.267 77.8655 232.165 77.9622 232.086 78.0769C232.008 78.1916 231.955 78.3217 231.93 78.4586C231.905 78.5954 231.91 78.736 231.944 78.8708Z" fill="#5EB5EB"/>
<path id="Vector_115" d="M240.02 88.1752C240.04 88.305 240.086 88.4296 240.154 88.5418C240.223 88.654 240.312 88.7517 240.418 88.8292C240.524 88.9068 240.645 88.9626 240.772 88.9937C240.9 89.0247 241.033 89.0303 241.162 89.0101C241.292 88.99 241.417 88.9444 241.529 88.8761C241.641 88.8078 241.739 88.718 241.816 88.612C241.894 88.5059 241.95 88.3856 241.981 88.258C242.012 88.1303 242.018 87.9978 241.997 87.868C241.977 87.7382 241.932 87.6136 241.863 87.5014C241.795 87.3892 241.705 87.2915 241.599 87.214C241.493 87.1364 241.373 87.0806 241.245 87.0495C241.118 87.0185 240.985 87.0129 240.855 87.0331C240.725 87.0532 240.601 87.0988 240.489 87.1671C240.376 87.2354 240.279 87.3252 240.201 87.4312C240.124 87.5373 240.068 87.6576 240.037 87.7852C240.006 87.9129 240 88.0454 240.02 88.1752Z" fill="#5EB5EB"/>
<path id="Vector_116" d="M280.463 144.19C280.461 144.313 280.485 144.434 280.533 144.547C280.581 144.66 280.653 144.761 280.742 144.845C280.832 144.928 280.938 144.992 281.054 145.032C281.17 145.072 281.293 145.087 281.415 145.077C281.547 145.08 281.677 145.056 281.798 145.005C281.919 144.954 282.028 144.877 282.117 144.781C282.206 144.684 282.274 144.57 282.315 144.446C282.357 144.321 282.371 144.189 282.357 144.058C282.351 143.938 282.322 143.82 282.27 143.712C282.218 143.603 282.146 143.505 282.057 143.425C281.967 143.344 281.863 143.281 281.75 143.241C281.636 143.201 281.516 143.183 281.396 143.189C281.265 143.182 281.135 143.203 281.014 143.252C280.893 143.301 280.784 143.376 280.695 143.471C280.606 143.567 280.539 143.681 280.499 143.805C280.459 143.929 280.446 144.061 280.463 144.19Z" fill="#5EB5EB"/>
<path id="Vector_117" d="M206.851 59.3743C206.828 59.4984 206.835 59.6265 206.873 59.7471C206.911 59.8677 206.978 59.9771 207.068 60.0656C207.158 60.1542 207.269 60.219 207.39 60.2545C207.512 60.29 207.64 60.295 207.763 60.269C208.39 60.2202 208.587 59.8209 208.524 59.2084C208.461 58.5959 208.244 58.3399 207.6 58.3943C206.955 58.4488 206.707 58.7639 206.851 59.3743Z" fill="#5EB5EB"/>
<path id="Vector_118" d="M189.85 49.2775C189.916 49.9131 190.234 50.199 190.861 50.1357C191.488 50.0725 191.608 49.5974 191.535 49.031C191.463 48.4646 191.157 48.1846 190.575 48.3003C189.877 48.3052 189.798 48.7142 189.85 49.2775Z" fill="#5EB5EB"/>
<path id="Vector_119" d="M223.997 69.4291C224.002 69.543 224.031 69.6545 224.081 69.757C224.131 69.8594 224.201 69.9506 224.287 70.025C224.373 70.0994 224.474 70.1555 224.583 70.1897C224.691 70.224 224.806 70.2357 224.919 70.2242C225.033 70.2127 225.143 70.1783 225.242 70.1229C225.342 70.0676 225.429 69.9926 225.499 69.9024C225.568 69.8122 225.619 69.7087 225.647 69.5983C225.676 69.488 225.681 69.3729 225.664 69.2603C225.668 69.1398 225.646 69.0198 225.6 68.9083C225.554 68.7969 225.484 68.6966 225.396 68.6142C225.308 68.5319 225.203 68.4693 225.089 68.4307C224.975 68.3921 224.854 68.3785 224.734 68.3906C224.614 68.4028 224.498 68.4405 224.393 68.5012C224.289 68.5618 224.199 68.6441 224.129 68.7425C224.06 68.8409 224.012 68.953 223.989 69.0715C223.966 69.1899 223.969 69.3118 223.997 69.4291Z" fill="#5EB5EB"/>
<path id="Vector_120" d="M273.018 125.951C273.002 126.071 273.011 126.193 273.046 126.309C273.081 126.425 273.14 126.532 273.22 126.623C273.3 126.714 273.398 126.787 273.509 126.837C273.619 126.886 273.739 126.912 273.86 126.911C273.974 126.919 274.089 126.902 274.196 126.862C274.303 126.821 274.4 126.758 274.48 126.676C274.56 126.595 274.622 126.497 274.661 126.39C274.7 126.282 274.715 126.167 274.705 126.053C274.663 125.401 274.386 125.034 273.774 125.04C273.662 125.041 273.55 125.066 273.449 125.115C273.347 125.163 273.257 125.233 273.185 125.32C273.113 125.406 273.06 125.508 273.032 125.617C273.003 125.726 272.998 125.84 273.018 125.951Z" fill="#5EB5EB"/>
<path id="Vector_121" d="M249.075 89.0268C249.122 89.616 249.488 89.6368 249.953 89.6211C250.417 89.6053 250.826 89.4303 250.717 88.7943C250.716 88.6811 250.692 88.5693 250.646 88.4661C250.6 88.3628 250.532 88.2703 250.448 88.1945C250.364 88.1188 250.265 88.0613 250.158 88.026C250.05 87.9906 249.937 87.9781 249.824 87.9892C249.252 88.0443 249.032 88.4462 249.075 89.0268Z" fill="#5EB5EB"/>
<path id="Vector_122" d="M281.135 135.53C281.187 136.122 281.55 136.134 282.015 136.118C282.48 136.102 282.886 135.919 282.773 135.288C282.773 135.175 282.749 135.063 282.702 134.96C282.656 134.857 282.588 134.764 282.504 134.689C282.419 134.614 282.32 134.557 282.212 134.522C282.104 134.488 281.99 134.477 281.878 134.489C281.311 134.547 281.091 134.949 281.135 135.53Z" fill="#5EB5EB"/>
<path id="Vector_123" d="M215.712 60.2066C215.705 60.6885 216.193 60.6845 216.641 60.6311C217.088 60.5777 217.433 60.4135 217.347 59.847C217.26 59.2805 216.951 58.9197 216.379 59.0181C215.807 59.1165 215.647 59.4844 215.712 60.2066Z" fill="#5EB5EB"/>
<path id="Vector_124" d="M257.376 98.3448C257.387 98.9741 257.776 99.0644 258.504 98.9732C258.778 98.9614 259.101 98.7567 258.991 98.1495C258.979 98.0416 258.946 97.937 258.894 97.8418C258.842 97.7466 258.771 97.6627 258.686 97.5947C258.602 97.5268 258.504 97.4762 258.4 97.4458C258.296 97.4155 258.187 97.406 258.079 97.4178C257.971 97.4297 257.866 97.4627 257.771 97.5149C257.676 97.5672 257.592 97.6377 257.524 97.7224C257.456 97.8071 257.405 97.9044 257.375 98.0086C257.345 98.1129 257.335 98.2221 257.347 98.3301L257.376 98.3448Z" fill="#5EB5EB"/>
<path id="Vector_125" d="M265.533 107.604C265.529 107.708 265.546 107.811 265.584 107.908C265.623 108.004 265.681 108.092 265.755 108.165C265.829 108.238 265.917 108.294 266.015 108.33C266.112 108.367 266.216 108.382 266.32 108.376C266.424 108.393 266.53 108.384 266.63 108.35C266.73 108.316 266.82 108.258 266.892 108.181C266.964 108.104 267.016 108.011 267.044 107.909C267.072 107.808 267.075 107.701 267.052 107.598C267.03 107.382 266.925 107.182 266.759 107.041C266.592 106.901 266.378 106.83 266.161 106.845C265.984 106.877 265.823 106.97 265.708 107.109C265.593 107.248 265.531 107.423 265.533 107.604Z" fill="#5EB5EB"/>
<path id="Vector_126" d="M241.028 79.3675C241.023 79.471 241.039 79.5746 241.076 79.6714C241.113 79.7682 241.17 79.8561 241.243 79.9293C241.317 80.0025 241.405 80.0593 241.502 80.0961C241.599 80.1329 241.702 80.1487 241.806 80.1427C241.91 80.1612 242.017 80.1537 242.118 80.121C242.219 80.0882 242.31 80.0311 242.383 79.9548C242.457 79.8785 242.511 79.7853 242.539 79.6834C242.568 79.5815 242.572 79.474 242.549 79.3705C242.524 79.1486 242.412 78.9456 242.237 78.8061C242.063 78.6665 241.84 78.6016 241.618 78.6256C241.451 78.6644 241.301 78.7588 241.194 78.8936C241.087 79.0283 241.028 79.1954 241.028 79.3675Z" fill="#5EB5EB"/>
<path id="Vector_127" d="M232.844 69.9785C232.9 70.4351 233.091 70.6707 233.579 70.609C234.068 70.5473 234.129 70.2015 234.095 69.7856C234.062 69.3697 233.839 69.0962 233.235 69.1713C232.859 69.2254 232.796 69.548 232.844 69.9785Z" fill="#5EB5EB"/>
<path id="Vector_128" d="M224.752 60.4776C224.749 60.5543 224.764 60.6307 224.795 60.7007C224.827 60.7707 224.874 60.8324 224.933 60.8811C224.993 60.9298 225.062 60.964 225.137 60.9811C225.212 60.9983 225.29 60.9979 225.365 60.9799C225.749 60.9518 226.033 60.8218 225.977 60.3508C226.002 60.2509 226.004 60.1463 225.981 60.0458C225.958 59.9452 225.911 59.8516 225.845 59.7728C225.778 59.6941 225.694 59.6324 225.598 59.593C225.503 59.5536 225.4 59.5377 225.297 59.5465C225.194 59.5553 225.095 59.5886 225.008 59.6436C224.92 59.6986 224.848 59.7737 224.795 59.8627C224.743 59.9516 224.713 60.0518 224.707 60.1548C224.702 60.2578 224.721 60.3606 224.763 60.4546L224.752 60.4776Z" fill="#5EB5EB"/>
<path id="Vector_129" d="M258.131 89.4657C258.176 89.9163 258.472 90.0029 258.86 89.9546C258.937 89.9548 259.013 89.9374 259.083 89.9038C259.152 89.8701 259.213 89.8211 259.261 89.7604C259.309 89.6997 259.342 89.6289 259.359 89.5533C259.375 89.4778 259.374 89.3995 259.356 89.3244C259.375 89.2251 259.37 89.1228 259.342 89.0258C259.313 88.9287 259.263 88.8397 259.194 88.7658C259.125 88.6919 259.04 88.6352 258.945 88.6003C258.85 88.5654 258.748 88.5532 258.648 88.5648C258.548 88.5763 258.451 88.6113 258.367 88.6669C258.283 88.7225 258.212 88.7971 258.162 88.8847C258.112 88.9724 258.083 89.0706 258.077 89.1715C258.072 89.2724 258.09 89.3732 258.131 89.4657Z" fill="#5EB5EB"/>
<path id="Vector_130" d="M282.086 126.548C282.137 127.002 282.43 127.08 282.817 127.031C282.894 127.033 282.971 127.017 283.041 126.984C283.11 126.952 283.172 126.904 283.22 126.843C283.268 126.783 283.302 126.713 283.319 126.638C283.336 126.563 283.335 126.485 283.317 126.41C283.334 126.311 283.328 126.21 283.299 126.114C283.271 126.018 283.22 125.93 283.151 125.857C283.083 125.784 282.998 125.728 282.904 125.693C282.81 125.658 282.709 125.646 282.609 125.657C282.509 125.669 282.414 125.703 282.33 125.757C282.246 125.812 282.175 125.885 282.125 125.972C282.074 126.058 282.044 126.155 282.037 126.255C282.031 126.356 282.047 126.456 282.086 126.548Z" fill="#5EB5EB"/>
<path id="Vector_131" d="M273.708 117.111C273.713 117.196 273.735 117.28 273.772 117.357C273.809 117.434 273.862 117.502 273.926 117.559C273.99 117.615 274.065 117.658 274.146 117.686C274.227 117.713 274.312 117.724 274.398 117.718C274.492 117.723 274.587 117.708 274.675 117.672C274.763 117.637 274.842 117.583 274.907 117.513C274.971 117.444 275.02 117.361 275.049 117.271C275.078 117.181 275.086 117.085 275.074 116.991C275.066 116.902 275.041 116.814 274.999 116.734C274.958 116.655 274.901 116.584 274.832 116.526C274.763 116.468 274.683 116.424 274.597 116.397C274.511 116.37 274.421 116.36 274.331 116.368C274.242 116.376 274.154 116.401 274.074 116.443C273.995 116.485 273.924 116.541 273.866 116.61C273.808 116.679 273.764 116.759 273.737 116.845C273.71 116.931 273.7 117.021 273.708 117.111Z" fill="#5EB5EB"/>
<path id="Vector_132" d="M250.082 80.2769C250.089 80.5338 250.404 80.4849 250.661 80.4643C250.918 80.4436 251.273 80.4442 251.236 80.034C251.2 79.6238 250.995 79.3303 250.576 79.384C250.157 79.4378 250.099 79.7778 250.082 80.2769Z" fill="#5EB5EB"/>
<path id="Vector_133" d="M266.288 99.0218C266.339 99.4032 266.68 99.3315 266.94 99.2907C267.201 99.2499 267.521 99.2327 267.418 98.8104C267.316 98.388 267.141 98.1901 266.786 98.2328C266.701 98.2501 266.619 98.2846 266.548 98.3341C266.476 98.3836 266.415 98.4471 266.368 98.5208C266.322 98.5946 266.291 98.6769 266.277 98.7631C266.263 98.8492 266.267 98.9372 266.288 99.0218Z" fill="#5EB5EB"/>
<path id="Vector_134" d="M274.589 108.296C274.532 108.76 274.874 108.703 275.113 108.688C275.353 108.673 275.817 108.729 275.701 108.22C275.691 108.061 275.623 107.91 275.509 107.798C275.394 107.686 275.243 107.621 275.083 107.614C274.936 107.656 274.808 107.747 274.718 107.87C274.629 107.994 274.583 108.144 274.589 108.296Z" fill="#5EB5EB"/>
<path id="Vector_135" d="M241.784 70.6847C241.742 71.1346 242.081 71.083 242.315 71.065C242.549 71.0471 243.024 71.0949 242.888 70.5828C242.875 70.4242 242.805 70.2758 242.69 70.1661C242.575 70.0563 242.423 69.9929 242.264 69.988C242.118 70.0335 241.991 70.1269 241.904 70.2533C241.817 70.3796 241.775 70.5316 241.784 70.6847Z" fill="#5EB5EB"/>
<path id="Vector_136" d="M93.0337 238.663C111.52 237.595 129.9 242.12 145.778 251.647C187.342 276.416 229.57 260.039 242.044 247.431C256.52 232.78 263.042 211.448 262.312 190.854C261.583 170.259 254.191 150.358 244.039 132.436C236.091 118.434 226.117 105.134 212.683 96.3125C199.529 87.6926 183.894 83.8488 168.531 80.4635C148.78 76.1069 128.564 72.2308 108.421 74.1479C91.9922 75.7051 73.815 83.2546 68.9801 98.9986C64.8513 112.443 71.865 127.49 67.506 140.86C61.3987 159.585 37.0791 165.381 25.9131 181.61C12.8886 200.535 18.8828 224.709 32.7565 231.965C47.1587 239.491 72.5588 239.91 93.0337 238.663Z" fill="#5EB5EB"/>
<path id="Vector_137" d="M214.523 119.44C188.605 113.42 164.436 81.1287 147.74 71.6813C132.454 63.0352 107.31 62.1453 90.0081 66.5688C72.7064 70.9923 61.4656 86.5885 68.2388 102.345C71.1921 109.208 77.0347 115.44 80.1095 122.278C89.9237 144.174 68.8525 162.19 67.1952 183.679C65.2669 208.459 89.7121 234.178 117.004 250.754C134.361 261.302 154.466 269.812 174.029 270.106C193.591 270.4 211.797 260.502 212.897 244.716C213.902 230.462 202.572 211.611 215.183 203.422C223.997 197.677 238.673 201.907 250.686 200.959C269.492 199.474 280.692 183.915 278.118 167.858C275.544 151.8 269.186 137.967 250.695 129.761C242.05 125.929 223.637 121.547 214.523 119.44Z" stroke="#FFD537" stroke-width="3.03" stroke-miterlimit="10"/>
<path id="Vector_138" d="M145.779 251.647C187.342 276.416 229.57 260.039 242.044 247.431C256.52 232.78 263.042 211.448 262.312 190.854C261.583 170.259 254.191 150.358 244.039 132.436" fill="#5EB5EB"/>
</g>
</g>
</svg>
