<svg width="330" height="329" viewBox="0 0 330 329" fill="none" xmlns="http://www.w3.org/2000/svg">
<path d="M227.347 199.136C211.365 205.434 197.426 216.013 187.06 229.712C159.576 265.672 119.449 268.336 105.323 262.793C88.9118 256.326 77.1891 241.403 71.7374 224.34C66.2857 207.276 66.6448 188.257 69.859 169.767C72.3915 155.335 76.8065 140.722 85.4537 128.424C93.9199 116.406 105.869 107.343 117.718 98.7559C132.944 87.7246 148.731 76.8774 166.14 70.8064C180.333 65.8466 197.735 65.0954 206.427 76.1192C213.842 85.5014 212.389 100.428 219.962 109.685C230.576 122.641 252.614 118.14 266.729 127.158C283.181 137.654 285.27 159.654 275.811 170.812C265.954 182.414 244.837 192.38 227.347 199.136Z" fill="#FFE5DF"/>
<path d="M185.961 140.174C182.856 137.396 185.092 133.315 188.319 132.398C189.762 131.992 191.105 132.726 192.199 133.613C192.795 134.074 193.24 134.701 193.479 135.415" fill="#8650EF"/>
<path d="M154.306 140.91C154.794 139.048 156.094 138.125 158.053 137.894C158.875 137.752 159.721 137.872 160.472 138.235C161.222 138.599 161.84 139.189 162.238 139.923" fill="#8650EF"/>
<path d="M179.699 139.573C177.186 139.817 175.386 138.392 175.058 135.763C174.731 133.133 176.145 131.294 178.885 130.957C181.624 130.62 183.27 132.082 183.647 134.811C183.742 135.352 183.722 135.907 183.59 136.44C183.458 136.973 183.216 137.472 182.879 137.906" fill="#8650EF"/>
<path d="M169.982 138.161C167.456 138.468 165.658 137.011 165.328 134.39C164.999 131.769 166.405 129.905 169.155 129.584C171.904 129.263 173.591 130.692 173.923 133.435C174.245 136.068 172.786 137.828 169.995 138.168" fill="#8650EF"/>
<path d="M149.682 144.621C149.116 144.707 148.538 144.678 147.983 144.536C147.429 144.393 146.908 144.139 146.454 143.79C146 143.442 145.621 143.004 145.34 142.505C145.059 142.006 144.882 141.455 144.819 140.886C144.748 140.318 144.791 139.741 144.946 139.19C145.1 138.639 145.364 138.125 145.72 137.677C146.077 137.229 146.519 136.857 147.022 136.583C147.524 136.309 148.076 136.138 148.646 136.08C149.214 136.005 149.791 136.047 150.343 136.204C150.894 136.36 151.407 136.628 151.851 136.99C152.295 137.353 152.661 137.802 152.925 138.311C153.189 138.819 153.346 139.377 153.386 139.948" fill="#8650EF"/>
<path d="M191.085 131.58C190.516 131.657 189.937 131.619 189.383 131.468C188.83 131.317 188.312 131.057 187.86 130.702C187.409 130.347 187.034 129.905 186.756 129.402C186.479 128.9 186.306 128.346 186.246 127.775C186.171 127.207 186.213 126.629 186.368 126.077C186.523 125.525 186.788 125.011 187.148 124.564C187.507 124.118 187.954 123.75 188.46 123.481C188.967 123.212 189.522 123.049 190.094 123.002C190.646 122.925 191.208 122.961 191.746 123.105C192.284 123.25 192.788 123.502 193.228 123.845C193.667 124.188 194.033 124.616 194.304 125.103C194.575 125.59 194.745 126.127 194.804 126.681C194.895 127.249 194.87 127.829 194.73 128.387C194.591 128.944 194.339 129.468 193.992 129.926C193.644 130.384 193.207 130.766 192.708 131.051C192.208 131.335 191.656 131.515 191.085 131.58Z" fill="#8650EF"/>
<path d="M133.693 149.219C133.62 148.651 133.661 148.074 133.817 147.522C133.972 146.971 134.238 146.456 134.597 146.01C134.957 145.564 135.403 145.196 135.909 144.927C136.415 144.658 136.97 144.494 137.541 144.446C138.093 144.369 138.655 144.405 139.193 144.549C139.732 144.694 140.235 144.946 140.675 145.289C141.114 145.632 141.48 146.06 141.751 146.547C142.022 147.034 142.192 147.571 142.251 148.125" fill="#8650EF"/>
<path d="M164.587 131.968C164.695 133.111 164.343 134.25 163.611 135.134C162.879 136.018 161.825 136.575 160.682 136.682C159.539 136.79 158.4 136.438 157.516 135.706C156.632 134.974 156.075 133.92 155.968 132.777C155.862 131.636 156.213 130.5 156.945 129.619C157.677 128.737 158.729 128.182 159.87 128.076C161.011 127.97 162.147 128.322 163.029 129.054C163.91 129.785 164.465 130.838 164.571 131.978L164.587 131.968Z" fill="#8650EF"/>
<path d="M204.573 128.137C204.65 128.706 204.612 129.285 204.461 129.839C204.31 130.393 204.05 130.91 203.695 131.362C203.34 131.813 202.898 132.188 202.395 132.466C201.892 132.743 201.339 132.916 200.768 132.976C200.2 133.051 199.622 133.009 199.07 132.854C198.518 132.699 198.004 132.434 197.557 132.074C197.111 131.715 196.743 131.268 196.474 130.762C196.205 130.255 196.042 129.7 195.995 129.128C195.918 128.576 195.953 128.014 196.098 127.476C196.243 126.938 196.495 126.434 196.838 125.994C197.181 125.555 197.609 125.189 198.096 124.918C198.583 124.647 199.12 124.477 199.674 124.418C200.242 124.327 200.822 124.352 201.38 124.492C201.937 124.631 202.461 124.883 202.919 125.23C203.377 125.578 203.759 126.015 204.044 126.514C204.328 127.014 204.508 127.566 204.573 128.137Z" fill="#8650EF"/>
<path d="M210.421 134.337C209.868 134.409 209.306 134.368 208.769 134.218C208.232 134.067 207.731 133.809 207.296 133.459C206.862 133.109 206.503 132.675 206.24 132.183C205.978 131.691 205.818 131.151 205.77 130.595C205.691 130.026 205.727 129.446 205.875 128.891C206.023 128.336 206.281 127.816 206.633 127.362C206.986 126.908 207.425 126.529 207.926 126.247C208.427 125.966 208.98 125.787 209.551 125.723C210.122 125.658 210.7 125.709 211.252 125.871C211.803 126.033 212.316 126.304 212.761 126.668C213.206 127.032 213.574 127.481 213.842 127.989C214.111 128.498 214.275 129.054 214.325 129.627C214.399 130.195 214.355 130.772 214.197 131.322C214.038 131.873 213.767 132.385 213.402 132.826C213.037 133.267 212.585 133.628 212.074 133.887C211.562 134.146 211.004 134.297 210.432 134.33" fill="#8650EF"/>
<path d="M215.165 132.533C215.077 131.968 215.104 131.391 215.245 130.836C215.386 130.282 215.637 129.761 215.983 129.306C216.329 128.851 216.764 128.47 217.261 128.186C217.758 127.903 218.307 127.723 218.875 127.656C219.444 127.58 220.022 127.619 220.576 127.77C221.129 127.921 221.647 128.181 222.099 128.535C222.55 128.89 222.926 129.331 223.204 129.833C223.483 130.335 223.658 130.887 223.719 131.458" fill="#8650EF"/>
<path d="M108.185 185.2C107.908 183.147 109.763 180.62 111.751 180.339Z" fill="#8650EF"/>
<path d="M180.3 121.624C182.447 121.363 184.858 123.348 185.098 125.533C185.319 127.536 183.341 129.958 181.286 130.206C179.23 130.454 176.73 128.488 176.491 126.303C176.27 124.3 178.233 121.879 180.3 121.624Z" fill="#8650EF"/>
<path d="M224.906 134.054C224.578 131.864 226.403 129.326 228.521 129.03C230.638 128.734 233.121 130.557 233.423 132.554" fill="#8650EF"/>
<path d="M114.563 179.104C112.547 179.473 109.909 177.543 109.583 175.438C109.271 173.486 111.137 170.951 113.149 170.577C115.162 170.203 117.803 172.138 118.135 174.24" fill="#8650EF"/>
<path d="M143.642 138.423C143.909 140.412 142.044 142.9 140.023 143.249C138.002 143.598 135.369 141.641 135.065 139.522C134.76 137.402 136.667 135.05 138.684 134.695C140.702 134.341 143.359 136.336 143.642 138.423Z" fill="#8650EF"/>
<path d="M170.897 119.768C172.985 119.523 175.559 121.58 175.728 123.633C175.897 125.686 173.944 128.099 171.951 128.337C169.958 128.575 167.289 126.526 167.12 124.473C166.951 122.42 168.904 120.006 170.897 119.768Z" fill="#8650EF"/>
<path d="M150.003 126.754C152.095 126.49 154.678 128.549 154.83 130.613C154.983 132.676 153.064 135.083 151.07 135.33C149.075 135.576 146.399 133.54 146.243 131.471C146.086 129.402 148.007 127.01 150.003 126.754Z" fill="#8650EF"/>
<path d="M125.478 150.4C124.881 149.613 124.037 148.695 124.048 147.845C123.967 146.693 124.332 145.554 125.069 144.664C125.846 143.864 126.9 143.596 127.819 143.06C128.824 143.596 130.192 143.301 130.955 144.319C131.516 145.123 132.035 145.956 132.509 146.815" fill="#8650EF"/>
<path d="M157.811 123.105C157.481 120.484 158.571 119.142 161.292 118.801C163.882 118.484 165.214 119.595 165.544 122.346C165.847 124.807 164.712 126.209 162.16 126.525C159.608 126.841 158.142 125.763 157.811 123.105Z" fill="#8650EF"/>
<path d="M201.943 122.811C199.436 123.113 198.115 121.948 197.785 119.15C197.502 116.731 198.658 115.385 201.302 115.055C203.946 114.726 205.203 115.84 205.549 118.604C205.859 121.136 204.709 122.479 201.943 122.811Z" fill="#8650EF"/>
<path d="M191.511 113.683C194.12 113.361 195.457 114.454 195.796 117.184C196.108 119.754 194.981 121.097 192.229 121.427C189.789 121.725 188.388 120.581 188.065 118.018C187.742 115.455 188.824 114.018 191.511 113.683Z" fill="#8650EF"/>
<path d="M116.17 168.89C113.607 169.213 112.153 168.143 111.832 165.702C111.474 162.953 112.492 161.526 115.073 161.184C117.802 160.83 119.195 161.855 119.526 164.467" fill="#8650EF"/>
<path d="M210.933 116.894C213.589 116.549 215 117.624 215.327 120.254C215.655 122.883 214.554 124.279 211.91 124.608C209.266 124.938 207.964 123.861 207.637 121.34C207.278 118.615 208.312 117.224 210.933 116.894Z" fill="#8650EF"/>
<path d="M178.817 116.471C178.062 115.309 178.978 114.343 179.444 113.622C179.791 113.202 180.22 112.855 180.704 112.604C181.189 112.353 181.718 112.202 182.262 112.16C182.77 112.09 183.287 112.128 183.779 112.271C184.271 112.414 184.728 112.659 185.12 112.99C185.542 113.341 185.887 113.777 186.132 114.269C186.377 114.761 186.518 115.298 186.546 115.847C186.639 116.876 186.337 117.902 185.699 118.715C185.015 119.485 184.067 119.972 183.042 120.08C182.534 120.163 182.015 120.14 181.517 120.012C181.019 119.884 180.553 119.654 180.148 119.336C179.383 118.73 178.416 117.813 178.817 116.471Z" fill="#8650EF"/>
<path d="M217.436 122.474C216.68 121.313 217.593 120.341 218.063 119.626C218.41 119.205 218.839 118.859 219.324 118.608C219.809 118.358 220.34 118.209 220.884 118.169C221.392 118.102 221.908 118.141 222.4 118.284C222.892 118.427 223.349 118.67 223.742 118.999C224.163 119.35 224.507 119.784 224.752 120.275C224.997 120.766 225.137 121.303 225.164 121.851C225.258 122.882 224.954 123.909 224.313 124.722C223.632 125.494 222.685 125.98 221.661 126.084C221.153 126.169 220.633 126.147 220.135 126.019C219.636 125.891 219.17 125.659 218.767 125.34C217.99 124.717 217.038 123.822 217.436 122.474Z" fill="#8650EF"/>
<path d="M97.4368 205.492C96.6516 204.891 95.6936 204 96.0968 202.648C95.3413 201.487 96.2539 200.514 96.7236 199.8C97.072 199.378 97.502 199.031 97.9879 198.78C98.4738 198.529 99.0055 198.379 99.551 198.339C100.059 198.272 100.575 198.311 101.067 198.453C101.559 198.596 102.015 198.84 102.408 199.169" fill="#8650EF"/>
<path d="M140.294 125.877C141.509 125.203 142.564 125.946 143.358 126.549C144.143 127.22 144.638 128.169 144.74 129.196C144.888 130.223 144.627 131.267 144.012 132.103C143.306 132.948 142.301 133.488 141.207 133.61C140.188 133.736 139.16 133.452 138.349 132.822C137.537 132.191 137.009 131.265 136.879 130.246C136.724 129.228 136.954 128.188 137.525 127.331C138.144 126.55 138.944 125.512 140.294 125.877Z" fill="#8650EF"/>
<path d="M117.328 159.2C116.044 159.602 115.396 158.687 114.507 158.176C113.506 157.599 113.352 156.734 113.139 155.729C112.887 154.51 113.37 153.709 114.071 152.875C115.104 151.647 115.068 151.616 116.841 151.397C117.896 150.858 118.633 151.777 119.503 152.331C120.529 152.969 120.698 153.871 120.975 154.95" fill="#8650EF"/>
<path d="M172.452 110.878C172.961 110.831 173.474 110.885 173.962 111.036C174.45 111.188 174.903 111.434 175.296 111.76C175.689 112.087 176.013 112.488 176.251 112.94C176.489 113.392 176.636 113.886 176.683 114.395C176.729 114.904 176.676 115.416 176.524 115.904C176.373 116.392 176.127 116.846 175.8 117.238C175.474 117.631 175.073 117.956 174.621 118.194C174.169 118.432 173.674 118.578 173.166 118.625C172.172 118.671 171.196 118.347 170.428 117.716C169.659 117.084 169.151 116.19 169.003 115.207C168.898 114.178 169.2 113.148 169.845 112.339C170.49 111.53 171.426 111.005 172.452 110.878Z" fill="#8650EF"/>
<path d="M100.716 188.682C101.738 188.55 102.771 188.822 103.596 189.438C104.422 190.055 104.974 190.969 105.137 191.987C105.289 193.007 105.029 194.047 104.414 194.876C103.8 195.705 102.881 196.256 101.86 196.408C100.839 196.56 99.7999 196.3 98.9707 195.686C98.1415 195.071 97.5904 194.152 97.4386 193.132C97.298 192.109 97.5618 191.072 98.1739 190.241C98.7861 189.41 99.6983 188.851 100.716 188.682Z" fill="#8650EF"/>
<path d="M129.151 133.743C129.658 133.69 130.172 133.738 130.661 133.884C131.151 134.029 131.606 134.27 132.003 134.591C132.399 134.913 132.729 135.31 132.972 135.759C133.215 136.207 133.367 136.7 133.42 137.208C133.473 137.716 133.425 138.229 133.28 138.718C133.134 139.208 132.894 139.663 132.572 140.06C132.25 140.456 131.854 140.786 131.405 141.029C130.956 141.272 130.464 141.424 129.956 141.477C128.963 141.537 127.984 141.226 127.208 140.605C126.432 139.984 125.913 139.097 125.753 138.116C125.64 137.088 125.931 136.057 126.566 135.241C127.2 134.425 128.127 133.887 129.151 133.743Z" fill="#8650EF"/>
<path d="M106.531 182.289C106.628 183.049 106.498 183.821 106.157 184.507C105.817 185.193 105.281 185.763 104.617 186.146C103.954 186.528 103.192 186.706 102.427 186.657C101.663 186.607 100.93 186.333 100.321 185.869C99.7117 185.404 99.2536 184.77 99.004 184.046C98.7544 183.321 98.7244 182.539 98.9179 181.798C99.1114 181.057 99.5197 180.39 100.091 179.88C100.663 179.37 101.373 179.041 102.131 178.933C103.157 178.81 104.191 179.091 105.013 179.718C105.834 180.345 106.379 181.267 106.531 182.289Z" fill="#8650EF"/>
<path d="M151.407 117.452C152.167 117.355 152.938 117.485 153.625 117.826C154.311 118.167 154.881 118.702 155.263 119.366C155.646 120.03 155.824 120.792 155.774 121.556C155.725 122.321 155.451 123.053 154.986 123.662C154.522 124.272 153.887 124.73 153.163 124.979C152.439 125.229 151.657 125.259 150.916 125.065C150.175 124.872 149.507 124.464 148.997 123.892C148.488 123.32 148.158 122.61 148.051 121.852C147.929 120.826 148.211 119.793 148.838 118.972C149.464 118.151 150.385 117.606 151.407 117.452Z" fill="#8650EF"/>
<path d="M118.019 142.127C118.534 142.062 119.057 142.101 119.557 142.241C120.057 142.381 120.523 142.62 120.929 142.944C121.335 143.268 121.672 143.67 121.92 144.126C122.168 144.582 122.322 145.083 122.373 145.599C122.424 146.116 122.371 146.638 122.217 147.133C122.063 147.629 121.811 148.089 121.477 148.486C121.142 148.883 120.731 149.209 120.269 149.444C119.806 149.68 119.301 149.82 118.783 149.857C117.791 149.911 116.814 149.595 116.041 148.971C115.268 148.346 114.754 147.457 114.599 146.476C114.489 145.448 114.785 144.418 115.424 143.606C116.063 142.793 116.995 142.263 118.019 142.127Z" fill="#8650EF"/>
<path d="M108.39 172.915C108.486 173.675 108.355 174.447 108.014 175.133C107.673 175.819 107.137 176.389 106.473 176.771C105.808 177.153 105.046 177.33 104.282 177.28C103.517 177.23 102.784 176.955 102.176 176.489C101.567 176.024 101.11 175.389 100.861 174.664C100.612 173.94 100.583 173.158 100.778 172.417C100.972 171.676 101.381 171.009 101.954 170.5C102.526 169.99 103.237 169.662 103.995 169.555C105.021 169.434 106.054 169.716 106.874 170.344C107.695 170.971 108.239 171.894 108.39 172.915Z" fill="#8650EF"/>
<path d="M230.106 119.687C230.617 119.628 231.134 119.672 231.627 119.814C232.121 119.957 232.581 120.196 232.981 120.518C233.382 120.839 233.715 121.237 233.961 121.688C234.206 122.14 234.36 122.635 234.413 123.146C234.466 123.657 234.417 124.173 234.269 124.665C234.121 125.157 233.877 125.615 233.551 126.012C233.225 126.409 232.824 126.738 232.37 126.979C231.916 127.219 231.419 127.368 230.908 127.415C229.889 127.51 228.874 127.199 228.083 126.55C227.292 125.9 226.79 124.965 226.684 123.948C226.579 122.93 226.879 121.912 227.519 121.114C228.16 120.316 229.09 119.803 230.106 119.687Z" fill="#8650EF"/>
<path d="M162.643 109.062C163.67 108.969 164.691 109.288 165.482 109.948C166.274 110.608 166.771 111.555 166.864 112.582C166.956 113.608 166.638 114.629 165.978 115.421C165.318 116.212 164.37 116.709 163.344 116.802C162.351 116.85 161.375 116.528 160.606 115.899C159.837 115.269 159.329 114.376 159.18 113.393C159.073 112.361 159.376 111.328 160.024 110.518C160.672 109.707 161.613 109.184 162.643 109.062Z" fill="#8650EF"/>
<path d="M141.553 116.067C143.804 115.846 145.883 117.522 146.044 119.527C146.204 121.531 144.529 123.741 142.501 123.747C141.51 123.833 140.525 123.531 139.753 122.906C138.98 122.281 138.48 121.38 138.358 120.393C138.241 119.378 138.53 118.358 139.16 117.554C139.835 116.644 140.82 116.436 141.553 116.067Z" fill="#8650EF"/>
<path d="M238.138 128.128C237.102 127.473 236.898 126.4 236.373 125.413C236.639 124.422 236.498 123.362 237.291 122.538C238.015 121.839 238.898 121.326 239.863 121.042C240.852 120.967 241.833 121.257 242.623 121.856C243.412 122.455 243.955 123.323 244.15 124.295" fill="#8650EF"/>
<path d="M206.968 109.184C207.135 110.913 205.154 113.353 203.484 113.482C201.814 113.61 199.313 111.559 199.228 109.931C199.142 108.303 201.029 105.955 202.626 105.751C204.337 105.542 206.808 107.488 206.968 109.184Z" fill="#8650EF"/>
<path d="M192.714 103.956C194.365 103.655 196.89 105.542 197.167 107.239C197.419 108.813 195.654 111.243 194.014 111.607C192.374 111.971 189.815 110.128 189.485 108.42C189.154 106.712 190.985 104.231 192.714 103.956Z" fill="#8650EF"/>
<path d="M105.367 159.811C107.039 159.543 109.53 161.46 109.76 163.133C109.991 164.806 108.201 167.137 106.563 167.469C104.925 167.8 102.377 165.95 102.055 164.221C101.734 162.491 103.652 160.084 105.367 159.811Z" fill="#8650EF"/>
<path d="M134.856 127.421C135.018 129.154 133.036 131.594 131.366 131.723C129.696 131.851 127.196 129.8 127.119 128.174C127.043 126.548 128.912 124.196 130.509 123.992C132.22 123.783 134.691 125.729 134.856 127.421Z" fill="#8650EF"/>
<path d="M208.969 111.536C209.224 110.598 209.297 109.499 209.852 108.76C210.135 108.346 210.501 107.996 210.927 107.731C211.354 107.467 211.83 107.295 212.327 107.225C212.824 107.156 213.33 107.191 213.812 107.329C214.294 107.467 214.743 107.703 215.128 108.024C215.902 108.659 216.433 109.542 216.63 110.523C216.731 111.452 216.48 112.384 215.927 113.136C215.321 113.935 214.455 114.498 213.479 114.728C212.483 114.837 211.482 114.583 210.658 114.014C209.919 113.483 209.545 112.421 208.969 111.536Z" fill="#8650EF"/>
<path d="M157.219 111.091C156.894 112.076 156.795 113.183 156.203 113.9C155.724 114.469 155.087 114.886 154.373 115.097C153.659 115.308 152.899 115.305 152.187 115.088C151.474 114.871 150.842 114.449 150.367 113.875C149.892 113.302 149.596 112.601 149.516 111.861C149.504 110.859 149.838 109.883 150.462 109.099C151.058 108.378 151.901 107.905 152.826 107.769C153.826 107.72 154.813 108.016 155.62 108.609C156.352 109.176 156.703 110.238 157.219 111.091Z" fill="#8650EF"/>
<path d="M187.905 105.871C187.601 106.841 187.506 107.954 186.932 108.675C186.294 109.447 185.4 109.965 184.413 110.135C183.414 110.194 182.427 109.885 181.639 109.267C180.881 108.615 180.372 107.72 180.201 106.734C180.13 105.801 180.408 104.874 180.981 104.133C181.604 103.349 182.482 102.808 183.462 102.604C184.466 102.51 185.469 102.786 186.284 103.38C186.996 103.952 187.364 105.041 187.905 105.871Z" fill="#8650EF"/>
<path d="M119.405 132.311C120.375 132.615 121.477 132.717 122.196 133.3C122.595 133.599 122.927 133.977 123.172 134.411C123.418 134.844 123.571 135.324 123.622 135.82C123.673 136.315 123.621 136.816 123.469 137.291C123.317 137.765 123.069 138.203 122.74 138.577C122.081 139.33 121.18 139.831 120.193 139.994C119.26 140.058 118.336 139.772 117.601 139.193C116.812 138.578 116.277 137.693 116.101 136.708C116.041 135.82 116.116 134.605 116.866 133.893C117.657 133.282 118.508 132.752 119.405 132.311Z" fill="#8650EF"/>
<path d="M110.717 153.666C111.166 154.595 110.598 155.289 110.097 156.109C109.472 157.156 108.522 157.133 107.577 157.377C106.631 157.622 105.891 157.161 105.063 156.695C103.973 156.052 104.062 155.098 103.829 154.145C103.596 153.192 104.051 152.456 104.585 151.637C105.198 150.752 105.99 150.615 106.915 150.469C107.364 150.386 107.825 150.401 108.268 150.513C108.71 150.625 109.123 150.832 109.478 151.12C109.888 151.399 110.219 151.782 110.436 152.228C110.653 152.675 110.75 153.171 110.717 153.666Z" fill="#8650EF"/>
<path d="M132.611 115.062C133.539 114.613 134.233 115.181 135.05 115.677C136.107 116.303 136.107 117.23 136.328 118.199C136.548 119.168 136.111 119.885 135.645 120.713C135.003 121.803 134.045 121.708 133.092 121.941C132.139 122.175 131.406 121.725 130.588 121.191C129.702 120.577 129.56 119.789 129.42 118.861C129.334 118.412 129.348 117.95 129.46 117.507C129.573 117.064 129.781 116.651 130.07 116.298C130.348 115.887 130.729 115.556 131.175 115.339C131.621 115.122 132.116 115.027 132.611 115.062Z" fill="#8650EF"/>
<path d="M167.904 103.362C168.353 104.29 167.785 104.984 167.283 105.805C166.662 106.857 165.73 106.861 164.767 107.078C163.803 107.296 163.077 106.856 162.253 106.396C161.163 105.753 161.255 104.79 161.025 103.843C160.795 102.895 161.241 102.157 161.775 101.338C162.388 100.453 163.18 100.316 164.105 100.17C164.549 100.085 165.007 100.096 165.446 100.204C165.885 100.312 166.296 100.513 166.65 100.794C167.069 101.072 167.405 101.456 167.626 101.908C167.846 102.359 167.942 102.861 167.904 103.362Z" fill="#8650EF"/>
<path d="M170.854 105.452C170.703 105.017 170.67 104.55 170.759 104.098C170.848 103.646 171.056 103.227 171.361 102.882C171.644 102.483 172.013 102.153 172.442 101.917C172.87 101.681 173.347 101.545 173.835 101.52C174.28 101.445 174.736 101.462 175.174 101.568C175.613 101.675 176.025 101.869 176.386 102.14C176.777 102.432 177.099 102.807 177.326 103.239C177.554 103.671 177.682 104.149 177.701 104.637C177.767 105.08 177.742 105.532 177.628 105.966C177.514 106.399 177.314 106.805 177.038 107.159C176.763 107.513 176.419 107.807 176.026 108.024C175.634 108.241 175.202 108.377 174.756 108.422C174.277 108.533 173.779 108.531 173.301 108.415C172.823 108.299 172.379 108.073 172.005 107.755C171.256 107.091 170.724 106.463 170.854 105.452Z" fill="#8650EF"/>
<path d="M219.225 112.837C219.07 112.402 219.035 111.932 219.123 111.479C219.211 111.025 219.418 110.603 219.724 110.256C220.007 109.857 220.377 109.527 220.805 109.291C221.234 109.056 221.71 108.92 222.199 108.894C222.644 108.821 223.099 108.838 223.537 108.944C223.975 109.051 224.387 109.245 224.749 109.514C225.141 109.806 225.462 110.182 225.689 110.614C225.917 111.046 226.045 111.523 226.064 112.011C226.129 112.455 226.104 112.906 225.989 113.34C225.875 113.773 225.674 114.178 225.399 114.532C225.124 114.886 224.78 115.18 224.388 115.397C223.996 115.614 223.565 115.75 223.119 115.796C222.64 115.907 222.142 115.904 221.665 115.788C221.187 115.672 220.743 115.447 220.368 115.129C219.617 114.474 219.095 113.849 219.225 112.837Z" fill="#8650EF"/>
<path d="M83.9299 220.449C83.8416 219.993 83.8509 219.523 83.9571 219.071C84.0633 218.618 84.264 218.193 84.546 217.824C84.828 217.454 85.185 217.149 85.5934 216.927C86.0019 216.705 86.4527 216.572 86.9161 216.537" fill="#8650EF"/>
<path d="M140.556 110.544C140.47 109.867 140.585 109.18 140.888 108.569C141.191 107.958 141.668 107.451 142.259 107.11C142.85 106.769 143.528 106.611 144.209 106.655C144.89 106.699 145.542 106.943 146.084 107.357C146.626 107.771 147.034 108.336 147.256 108.981C147.478 109.626 147.504 110.322 147.331 110.982C147.158 111.641 146.794 112.235 146.285 112.689C145.776 113.142 145.143 113.435 144.468 113.53C144.012 113.617 143.542 113.607 143.09 113.5C142.638 113.394 142.214 113.193 141.845 112.911C141.475 112.629 141.17 112.273 140.948 111.865C140.726 111.457 140.592 111.007 140.556 110.544Z" fill="#8650EF"/>
<path d="M235.352 113.393C235.427 114.068 235.303 114.749 234.993 115.353C234.684 115.957 234.203 116.456 233.611 116.788C233.02 117.12 232.343 117.27 231.667 117.22C230.99 117.17 230.343 116.921 229.807 116.506C229.271 116.09 228.869 115.525 228.652 114.883C228.435 114.24 228.412 113.547 228.586 112.892C228.761 112.236 229.124 111.646 229.632 111.196C230.139 110.746 230.768 110.455 231.44 110.361C231.9 110.273 232.373 110.285 232.828 110.394C233.283 110.503 233.71 110.708 234.08 110.995C234.45 111.282 234.754 111.644 234.974 112.058C235.193 112.471 235.322 112.926 235.352 113.393Z" fill="#8650EF"/>
<path d="M125.089 125.895C125.374 127.973 124.165 129.462 122.145 129.872C121.26 129.977 120.367 129.744 119.645 129.219C118.924 128.695 118.426 127.919 118.251 127.044C118.022 124.923 119.107 123.29 121.095 123.009C123.209 122.707 124.803 123.864 125.089 125.895Z" fill="#8650EF"/>
<path d="M94.3595 168.16C94.819 168.083 95.2897 168.105 95.74 168.225C96.1904 168.344 96.6101 168.558 96.9712 168.852C97.3323 169.147 97.6265 169.515 97.834 169.932C98.0416 170.349 98.1579 170.806 98.175 171.271C98.4018 173.294 97.1256 174.812 95.0036 175.041C94.0893 175.124 93.1796 174.839 92.4748 174.251C91.7699 173.663 91.3275 172.819 91.245 171.905C91.1625 170.99 91.4465 170.081 92.0347 169.376C92.6228 168.671 93.4669 168.229 94.3812 168.146L94.3595 168.16Z" fill="#8650EF"/>
<path d="M96.779 180.954C96.8568 181.414 96.8356 181.885 96.7169 182.335C96.5982 182.786 96.3846 183.206 96.0905 183.568C95.7964 183.93 95.4285 184.224 95.0114 184.433C94.5942 184.641 94.1375 184.757 93.6717 184.775C91.6486 185.002 90.131 183.725 89.9018 181.604C89.8609 181.151 89.9096 180.694 90.0451 180.261C90.1806 179.827 90.4002 179.424 90.6915 179.075C90.9827 178.726 91.3398 178.437 91.7425 178.226C92.1451 178.015 92.5853 177.886 93.038 177.845C93.4908 177.804 93.9471 177.853 94.381 177.988C94.8149 178.124 95.2179 178.343 95.5669 178.635C95.9159 178.926 96.2042 179.283 96.4152 179.686C96.6262 180.088 96.7558 180.528 96.7967 180.981L96.779 180.954Z" fill="#8650EF"/>
<path d="M158.114 101.363C158.199 102.04 158.083 102.726 157.779 103.336C157.475 103.946 156.998 104.453 156.407 104.793C155.816 105.133 155.138 105.29 154.458 105.246C153.778 105.201 153.126 104.957 152.584 104.543C152.043 104.129 151.635 103.565 151.414 102.92C151.192 102.275 151.166 101.58 151.338 100.92C151.511 100.261 151.874 99.6671 152.383 99.2137C152.892 98.7602 153.524 98.4673 154.199 98.3718C154.655 98.284 155.126 98.2938 155.579 98.4005C156.031 98.5071 156.457 98.7083 156.826 98.9908C157.196 99.2732 157.502 99.6306 157.724 100.039C157.946 100.448 158.079 100.9 158.114 101.363Z" fill="#8650EF"/>
<path d="M91.1189 187.726C91.5695 187.676 92.0254 187.716 92.4607 187.842C92.896 187.969 93.302 188.18 93.6557 188.463C94.0094 188.747 94.3038 189.097 94.5221 189.495C94.7404 189.892 94.8782 190.328 94.9279 190.779C94.9775 191.229 94.9378 191.685 94.8113 192.121C94.6847 192.556 94.4736 192.962 94.1901 193.316C93.9065 193.669 93.5561 193.964 93.1588 194.182C92.7615 194.4 92.3251 194.538 91.8745 194.588C91.4302 194.661 90.9754 194.641 90.5392 194.529C90.103 194.417 89.6951 194.215 89.3414 193.936C88.9877 193.657 88.6961 193.308 88.4852 192.91C88.2743 192.512 88.1488 192.074 88.1166 191.625C88.0314 191.168 88.0434 190.699 88.1519 190.247C88.2604 189.796 88.463 189.372 88.7463 189.004C89.0296 188.636 89.3874 188.332 89.7962 188.112C90.205 187.891 90.6557 187.76 91.1189 187.726Z" fill="#8650EF"/>
<path d="M108.334 140.717C110.372 140.489 111.888 141.75 112.122 143.869C112.346 145.863 111.031 147.321 108.921 147.628C108.029 147.675 107.153 147.385 106.466 146.816C105.779 146.246 105.332 145.438 105.214 144.554C105.123 142.489 106.252 140.959 108.334 140.717Z" fill="#8650EF"/>
<path d="M93.5794 200.392C93.6955 201.282 93.4609 202.183 92.9252 202.903C92.3894 203.623 91.5945 204.107 90.7086 204.252C89.8227 204.397 88.9151 204.192 88.1779 203.679C87.4406 203.167 86.9314 202.388 86.758 201.508C86.4533 199.388 87.6068 197.765 89.609 197.483C91.6112 197.2 93.3008 198.349 93.5794 200.392Z" fill="#8650EF"/>
<path d="M89.1098 213.65C88.4321 213.726 87.7471 213.6 87.141 213.287C86.5349 212.975 86.0347 212.49 85.7033 211.894C85.372 211.298 85.2243 210.617 85.2788 209.938C85.3333 209.258 85.5876 208.61 86.0096 208.074C86.4317 207.538 87.0027 207.139 87.6508 206.927C88.299 206.716 88.9954 206.7 89.6523 206.883C90.3093 207.066 90.8976 207.438 91.3432 207.955C91.7887 208.471 92.0717 209.107 92.1565 209.784" fill="#8650EF"/>
<path d="M195.564 101.863C194.623 101.92 193.697 101.615 192.974 101.01C192.252 100.406 191.789 99.547 191.68 98.6111C191.53 97.063 193.183 95.3162 194.803 94.9574C195.245 94.8943 195.696 94.9352 196.119 95.0769C196.542 95.2185 196.927 95.4571 197.242 95.7735C197.632 96.0516 197.959 96.4081 198.203 96.82C198.447 97.232 198.602 97.6903 198.659 98.1657C198.758 99.2211 197.867 99.7624 197.864 100.66C196.986 100.915 196.612 102.263 195.564 101.863Z" fill="#8650EF"/>
<path d="M241.203 112.199C242.109 112.112 243.016 112.365 243.746 112.91C244.476 113.455 244.977 114.252 245.151 115.146C245.193 116.016 244.941 116.875 244.435 117.584C243.93 118.294 243.202 118.813 242.366 119.059C241.895 119.157 241.408 119.144 240.943 119.019C240.478 118.895 240.049 118.663 239.691 118.342C239.306 118.111 238.98 117.795 238.735 117.419C238.49 117.043 238.334 116.616 238.279 116.171C238.184 114.41 239.506 112.429 241.203 112.199Z" fill="#8650EF"/>
<path d="M110.154 131.222C111.043 131.532 112.078 131.639 112.747 132.192C113.388 132.787 113.794 133.592 113.891 134.461C113.947 134.89 113.917 135.326 113.802 135.743C113.687 136.16 113.49 136.55 113.222 136.889C112.607 137.475 111.851 138.344 110.816 138.214C109.977 138.111 108.893 138.013 108.395 137.472C107.727 136.889 107.264 136.107 107.075 135.241C107.042 134.29 107.329 133.355 107.89 132.586C108.299 131.934 109.34 131.681 110.154 131.222Z" fill="#8650EF"/>
<path d="M204.084 96.3056C204.983 96.5708 206.044 96.5756 206.57 97.1222C207.17 97.7361 208.009 98.5035 207.915 99.5226C207.828 100.351 207.735 101.455 207.187 101.966C206.567 102.546 205.805 103.405 204.77 103.275C203.931 103.172 202.865 103.054 202.354 102.529C201.684 101.947 201.225 101.158 201.05 100.287C201.022 99.3371 201.313 98.4049 201.878 97.6402C202.23 97.0174 203.298 96.7475 204.084 96.3056Z" fill="#8650EF"/>
<path d="M184.975 93.0538C185.864 93.3638 186.903 93.4761 187.568 94.0243C188.209 94.619 188.615 95.4241 188.712 96.2931C188.767 96.7225 188.737 97.1586 188.623 97.5763C188.508 97.994 188.313 98.3848 188.046 98.7264C187.427 99.3067 186.672 100.176 185.637 100.046C184.798 99.9432 183.714 99.8447 183.216 99.3039C182.548 98.7204 182.086 97.9384 181.896 97.0726C181.864 96.1229 182.152 95.19 182.714 94.4237C183.12 93.7656 184.165 93.5188 184.975 93.0538Z" fill="#8650EF"/>
<path d="M99.7489 161.804C99.4561 162.767 99.4018 163.907 98.8012 164.445C98.2007 164.982 97.5394 165.806 96.5637 165.684C95.6999 165.665 94.8536 165.436 94.0981 165.016C93.4654 164.406 93.0046 163.64 92.7618 162.796C92.3886 161.818 93.0566 160.874 93.4655 160.136C93.7294 159.794 94.0592 159.508 94.4355 159.295C94.8118 159.082 95.2269 158.947 95.6563 158.897C96.5208 158.772 97.4013 158.965 98.1341 159.44C98.8572 159.982 99.2107 160.965 99.7489 161.804Z" fill="#8650EF"/>
<path d="M123.458 120.097C121.952 120.265 119.744 118.496 119.617 117.018C119.49 115.54 121.29 113.272 122.752 113.241C123.605 113.295 124.42 113.61 125.088 114.142C125.756 114.674 126.245 115.399 126.488 116.218C126.768 117.573 124.868 120.021 123.458 120.097Z" fill="#8650EF"/>
<path d="M175.118 91.8176C176.329 91.4936 178.865 93.243 179.046 94.7932C179.181 96.1885 177.616 98.3655 176.219 98.6407C174.822 98.9158 172.472 97.2853 172.205 95.7826C171.938 94.2799 173.621 92.0574 175.118 91.8176Z" fill="#8650EF"/>
<path d="M214.611 104.676C213.11 104.826 210.906 103.03 210.796 101.565C210.685 100.1 212.499 97.8772 213.967 97.795C215.435 97.7128 217.472 99.4314 217.66 100.8C217.883 102.308 215.904 104.669 214.611 104.676Z" fill="#8650EF"/>
<path d="M137.66 108.264C137.959 109.614 136.094 112.032 134.652 112.167C133.34 112.287 131.221 110.93 130.841 109.3C130.507 107.872 132.216 105.571 133.717 105.313C135.218 105.055 137.443 106.767 137.66 108.264Z" fill="#8650EF"/>
<path d="M145.033 96.964C145.822 97.2621 146.775 97.2676 147.562 97.9536C148.237 98.5414 148.249 99.4144 148.799 99.9989C148.372 100.91 148.529 102.09 147.565 102.733C146.962 103.125 146.218 103.833 145.691 103.712C144.896 103.534 144.009 103.501 143.233 102.854C142.457 102.208 142.461 101.441 141.996 100.786C141.812 100.504 142.155 99.771 142.252 99.2674C142.486 98.6006 142.916 98.0197 143.485 97.6003C143.963 97.3057 144.486 97.0908 145.033 96.964Z" fill="#8650EF"/>
<path d="M101.013 152.084C100.555 153.054 100.733 154.243 99.7524 154.896C99.1445 155.292 98.4489 155.968 97.875 155.893C96.9086 155.75 95.7763 155.66 95.1386 154.715C94.7432 154.107 94.0744 153.375 94.1741 152.816C94.2301 151.858 94.5945 150.943 95.213 150.209C95.7889 149.634 96.6567 149.757 97.1077 149.108C97.9694 149.459 98.9321 149.467 99.7276 150.108C100.457 150.684 100.31 151.621 101.013 152.084Z" fill="#8650EF"/>
<path d="M169.324 93.3848C169.124 94.0399 168.951 94.7474 168.699 95.4289C168.3 96.5145 167.203 96.8344 166.313 97.2123C165.83 97.4187 165.035 97.0164 164.431 96.776C163.394 96.3692 162.915 95.3598 162.524 94.4627C162.313 93.9592 162.624 93.1545 162.83 92.5569C163.245 91.4373 164.318 90.9017 165.295 90.5284C165.849 90.3227 166.69 90.7723 167.373 91.0153C168.484 91.3817 168.631 92.5688 169.324 93.3848Z" fill="#8650EF"/>
<path d="M220.94 102.614C220.373 101.515 221.235 100.692 222.022 100.025C222.481 99.6265 223.376 99.7318 224.035 99.5579C224.375 99.4687 224.733 99.4683 225.073 99.5567C225.413 99.6452 225.725 99.8195 225.978 100.063C226.277 100.247 226.522 100.505 226.691 100.813C226.86 101.12 226.946 101.466 226.941 101.816C226.927 102.175 226.975 102.533 227.082 102.876C227.337 103.613 226.915 104.081 226.527 104.588C226.139 105.096 225.777 105.609 225.018 105.57C224.659 105.551 224.299 105.597 223.955 105.705C223.616 105.795 223.259 105.795 222.919 105.706C222.58 105.617 222.269 105.441 222.018 105.196C221.717 105.015 221.47 104.757 221.301 104.449C221.132 104.141 221.047 103.794 221.055 103.443C221.033 103.165 220.995 102.888 220.94 102.614Z" fill="#8650EF"/>
<path d="M108.916 125.353C108.644 123.213 109.403 122.302 111.619 122.05C113.835 121.799 114.67 122.537 114.922 124.753C115.173 126.968 114.435 127.804 112.219 128.056C110.003 128.307 109.189 127.554 108.916 125.353Z" fill="#8650EF"/>
<path d="M156.198 89.416C158.192 89.1799 159.309 90.0655 159.548 92.0726C159.788 94.0797 158.905 95.197 156.901 95.4245C154.907 95.6606 153.788 94.7762 153.545 92.7715C153.302 90.7667 154.186 89.6482 156.198 89.416Z" fill="#8650EF"/>
<path d="M233.406 101.435C235.041 100.967 236.637 102.423 236.841 104.044C236.944 104.854 236.721 105.671 236.221 106.317C235.721 106.962 234.985 107.383 234.175 107.485C233.365 107.588 232.547 107.365 231.902 106.865C231.256 106.365 230.836 105.629 230.733 104.819C230.52 103.15 231.762 101.377 233.406 101.435Z" fill="#8650EF"/>
<path d="M102.355 142.343C102.612 144.354 101.754 145.468 99.7395 145.72C97.7251 145.972 96.614 145.119 96.362 143.105C96.11 141.09 96.9686 139.976 98.9776 139.727C100.987 139.479 102.103 140.328 102.355 142.343Z" fill="#8650EF"/>
<path d="M124.077 104.353C126.079 104.081 127.214 104.944 127.484 106.942C127.753 108.939 126.889 110.073 124.891 110.343C122.89 110.615 121.757 109.752 121.494 107.756C121.23 105.759 122.091 104.625 124.077 104.353Z" fill="#8650EF"/>
<path d="M132.594 99.1453C132.326 97.4504 133.607 96.046 135.449 95.9214C135.851 95.8995 136.253 95.957 136.632 96.0905C137.012 96.224 137.361 96.431 137.661 96.6996C137.96 96.9681 138.204 97.2931 138.378 97.6558C138.552 98.0185 138.652 98.412 138.674 98.8137C138.696 99.2153 138.639 99.6174 138.505 99.9969C138.372 100.376 138.165 100.726 137.896 101.025C137.627 101.325 137.302 101.568 136.94 101.742C136.577 101.916 136.184 102.017 135.782 102.039C135.377 102.086 134.966 102.047 134.578 101.922C134.189 101.798 133.832 101.591 133.53 101.317C133.228 101.043 132.988 100.707 132.827 100.333C132.665 99.958 132.586 99.5531 132.594 99.1453Z" fill="#8650EF"/>
<path d="M103.755 132.703C104.119 133.417 103.652 134.029 103.126 134.657C102.6 135.285 102.204 136.03 101.119 136.025C100.777 136.074 100.429 136.049 100.099 135.95C99.768 135.852 99.4626 135.683 99.2036 135.455C98.6192 134.877 97.7711 134.595 97.7385 133.511C97.7171 132.707 97.6512 132.023 98.2998 131.37C98.9483 130.716 99.206 130.008 100.264 129.96C101.082 129.908 101.89 130.159 102.534 130.665C103.178 131.171 103.613 131.896 103.755 132.703Z" fill="#8650EF"/>
<path d="M186.533 84.285C187.243 83.9158 187.854 84.3915 188.487 84.9142C189.121 85.4368 189.856 85.8313 189.856 86.9125C189.906 87.2549 189.88 87.6039 189.78 87.9353C189.681 88.2667 189.511 88.5725 189.281 88.8314C188.709 89.4122 188.421 90.2639 187.343 90.293C186.538 90.3144 185.855 90.3803 185.201 89.7317C184.548 89.0831 183.839 88.8254 183.787 87.7706C183.736 86.9535 183.988 86.1464 184.494 85.5034C185.001 84.8603 185.727 84.4266 186.533 84.285Z" fill="#8650EF"/>
<path d="M110.331 115.866C110.246 115.034 110.475 114.201 110.974 113.53C111.473 112.86 112.206 112.4 113.027 112.243C114.051 112.048 114.564 112.719 115.269 113.102C115.974 113.485 116.163 114.251 116.343 115.038C116.582 116.095 115.808 116.591 115.409 117.283C115.213 117.57 114.957 117.81 114.658 117.987C114.36 118.164 114.026 118.273 113.68 118.307C112.637 118.568 112.078 117.982 111.4 117.473C110.721 116.964 110.046 116.615 110.331 115.866Z" fill="#8650EF"/>
<path d="M143.84 91.6376C143.755 90.8061 143.985 89.9729 144.485 89.303C144.984 88.6331 145.718 88.1753 146.539 88.0204C147.563 87.8254 148.073 88.4903 148.781 88.8791C149.49 89.2679 149.672 90.0225 149.855 90.8149C150.091 91.8664 149.32 92.3678 148.921 93.0601C148.724 93.3458 148.468 93.5852 148.169 93.762C147.871 93.9388 147.537 94.0487 147.192 94.084C146.149 94.3452 145.59 93.7588 144.912 93.25C144.233 92.7412 143.541 92.3652 143.84 91.6376Z" fill="#8650EF"/>
<path d="M193.583 88.9843C193.11 87.948 193.978 87.4298 194.378 86.7141C194.777 85.9984 195.507 85.8019 196.303 85.6241C197.36 85.3847 197.839 86.1696 198.557 86.5369C199.4 86.9775 199.406 87.7229 199.6 88.4849C199.867 89.5476 199.051 90.0161 198.645 90.7209C198.238 91.4258 197.633 91.541 196.902 91.7231C195.855 91.9789 195.329 91.3246 194.632 90.882C193.935 90.4395 193.428 89.8734 193.583 88.9843Z" fill="#8650EF"/>
<path d="M81.8131 186.757C82.6366 186.36 83.2714 186.766 83.8884 187.322C84.5053 187.879 85.2573 188.24 85.2685 189.314C85.2742 190.083 85.2727 190.686 84.699 191.229C84.1253 191.772 83.8457 192.672 82.7642 192.696C81.9919 192.696 81.2593 192.841 80.6187 192.153C80.0669 191.554 79.2568 191.246 79.1843 190.197C79.1135 189.819 79.1305 189.43 79.2341 189.06C79.3376 188.69 79.5249 188.349 79.7814 188.063C80.3787 187.496 80.7033 186.582 81.8131 186.757Z" fill="#8650EF"/>
<path d="M77.2767 215.577C77.6785 215.529 78.0858 215.562 78.4746 215.674C78.8634 215.786 79.2257 215.975 79.54 216.23C79.8544 216.485 80.1144 216.8 80.3047 217.157C80.4951 217.514 80.6118 217.906 80.6479 218.309C80.6841 218.712 80.6391 219.118 80.5154 219.503C80.3918 219.889 80.1921 220.245 79.9281 220.552C79.6642 220.858 79.3414 221.109 78.9788 221.289C78.6162 221.468 78.2213 221.573 77.8174 221.598C77.0645 221.579 76.3394 221.309 75.7571 220.832C75.1749 220.354 74.7689 219.695 74.6036 218.961C74.4193 217.312 76.0636 215.647 77.2767 215.577Z" fill="#8650EF"/>
<path d="M203.314 90.3717C203.305 89.5827 203.574 88.8158 204.076 88.2068C204.578 87.5977 205.279 87.1859 206.055 87.0441C206.845 87.0475 207.608 87.3296 208.211 87.8408C208.813 88.352 209.216 89.0594 209.348 89.8384C209.326 90.5915 209.054 91.316 208.575 91.8976C208.096 92.4791 207.437 92.8847 206.702 93.0503C205.042 93.2416 203.354 91.6204 203.314 90.3717Z" fill="#8650EF"/>
<path d="M75.9705 209.127C75.9675 208.336 76.2445 207.57 76.7523 206.964C77.2602 206.358 77.9662 205.951 78.7452 205.815C80.2262 205.717 81.9624 207.199 82.0017 208.649C81.9704 209.401 81.6905 210.122 81.206 210.699C80.7214 211.275 80.0594 211.675 79.3236 211.835C78.5355 211.85 77.7675 211.586 77.1543 211.091C76.5412 210.595 76.1221 209.9 75.9705 209.127Z" fill="#8650EF"/>
<path d="M164.685 84.4831C164.452 83.2825 165.684 81.2687 167.301 81.0589C168.053 81.0391 168.789 81.2695 169.396 81.7139C170.002 82.1584 170.444 82.7917 170.652 83.5143C170.729 83.9121 170.726 84.3215 170.643 84.7181C170.559 85.1148 170.397 85.4906 170.165 85.8232C169.934 86.1559 169.638 86.4385 169.295 86.6544C168.952 86.8704 168.569 87.0151 168.168 87.08C167.768 87.145 167.359 87.1289 166.966 87.0326C166.572 86.9363 166.201 86.7618 165.876 86.5196C165.551 86.2773 165.279 85.9722 165.074 85.6223C164.869 85.2725 164.737 84.8851 164.685 84.4831Z" fill="#8650EF"/>
<path d="M80.6006 180.284C80.5525 179.882 80.5855 179.475 80.6977 179.086C80.8099 178.697 80.999 178.335 81.2538 178.021C81.5086 177.706 81.8238 177.446 82.1809 177.256C82.538 177.066 82.9297 176.949 83.3327 176.913C83.7357 176.877 84.1419 176.922 84.5272 177.045C84.9125 177.169 85.269 177.369 85.5757 177.633C85.8824 177.897 86.133 178.219 86.3127 178.582C86.4924 178.945 86.5974 179.34 86.6217 179.743C86.5997 180.495 86.3289 181.219 85.8517 181.8C85.3744 182.382 84.7178 182.789 83.9846 182.957C82.348 183.149 80.6729 181.512 80.6006 180.284Z" fill="#8650EF"/>
<path d="M242.821 102.858C243.61 102.856 244.374 103.133 244.979 103.641C245.583 104.148 245.988 104.853 246.123 105.631C246.226 107.108 244.739 108.848 243.289 108.887C242.538 108.854 241.818 108.573 241.242 108.089C240.666 107.605 240.265 106.944 240.103 106.209C240.088 105.42 240.353 104.651 240.85 104.038C241.347 103.424 242.045 103.007 242.821 102.858Z" fill="#8650EF"/>
<path d="M81.9897 170.59C81.9776 169.805 82.2369 169.039 82.7239 168.422C83.2109 167.806 83.8958 167.376 84.6628 167.206C86.1368 167.097 87.8901 168.498 87.9939 169.952C88.0396 170.728 87.7852 171.491 87.2834 172.084C86.7817 172.676 86.0711 173.053 85.2989 173.137C84.5268 173.22 83.7522 173.003 83.1357 172.53C82.5193 172.058 82.1082 171.366 81.9878 170.599L81.9897 170.59Z" fill="#8650EF"/>
<path d="M85.8844 157.482C86.6715 157.43 87.4517 157.657 88.0875 158.124C88.7233 158.591 89.1738 159.267 89.3596 160.034C89.3907 160.79 89.1703 161.534 88.7331 162.151C88.2958 162.768 87.6662 163.223 86.943 163.444C85.5385 163.755 83.6634 162.487 83.3712 161.017C83.3011 160.225 83.5156 159.434 83.9763 158.786C84.4369 158.138 85.1134 157.676 85.8844 157.482Z" fill="#8650EF"/>
<path d="M218.624 91.1662C218.634 91.9552 218.364 92.7221 217.862 93.3311C217.36 93.9402 216.659 94.352 215.883 94.4938C215.097 94.4899 214.337 94.2094 213.737 93.7014C213.137 93.1935 212.735 92.4906 212.601 91.7158C212.622 90.9649 212.892 90.2423 213.369 89.6613C213.845 89.0803 214.501 88.6738 215.233 88.5056C216.889 88.3088 218.551 89.962 218.624 91.1662Z" fill="#8650EF"/>
<path d="M174.011 85.9716C173.959 85.1845 174.186 84.4043 174.653 83.7685C175.12 83.1327 175.797 82.6822 176.563 82.4964C177.319 82.4639 178.065 82.6831 178.683 83.1198C179.301 83.5565 179.757 84.1859 179.979 84.9095C180.29 86.3139 179.022 88.189 177.546 88.4848C176.755 88.5522 175.965 88.3366 175.318 87.8764C174.671 87.4162 174.208 86.7412 174.011 85.9716Z" fill="#8650EF"/>
<path d="M79.9641 196.086C81.1267 195.878 83.1731 197.088 83.3609 198.743C83.3718 199.491 83.1343 200.223 82.6856 200.822C82.2369 201.421 81.6022 201.855 80.8807 202.055C80.4861 202.119 80.0829 202.103 79.6943 202.01C79.3057 201.917 78.9395 201.747 78.6168 201.511C78.2941 201.276 78.0213 200.978 77.8142 200.636C77.6072 200.295 77.4699 199.915 77.4104 199.52C77.3509 199.125 77.3703 198.722 77.4676 198.334C77.5648 197.946 77.7379 197.582 77.9769 197.261C78.2159 196.941 78.516 196.671 78.8599 196.468C79.2038 196.264 79.5846 196.131 79.9804 196.075L79.9641 196.086Z" fill="#8650EF"/>
<path d="M128.942 97.1642C128.402 97.925 128.866 98.9594 128.064 99.4963C127.451 99.8953 126.739 100.606 126.183 100.511C125.452 100.384 124.46 100.535 123.936 99.7405C123.537 99.1271 123.218 98.4697 122.862 97.8281C123.515 97.2877 122.948 96.3815 123.579 95.7241C124.21 95.0667 125.043 95.2665 125.48 94.5961C126.155 95.0995 127.059 94.72 127.781 95.3317C128.503 95.9433 128.155 96.8338 128.942 97.1642Z" fill="#8650EF"/>
<path d="M101.669 120.612C102.408 120.834 103.119 121.013 103.81 121.266C104.704 121.596 104.573 122.678 105.176 123.236C104.755 123.872 105 124.664 104.595 125.36C104.098 126.2 103.068 125.982 102.57 126.676C101.965 126.151 101.146 126.506 100.443 126.067C99.7405 125.628 99.9552 124.592 99.2287 124.2C99.4109 123.494 99.5681 122.774 99.7718 122.077C100.027 121.116 101.232 121.413 101.669 120.612Z" fill="#8650EF"/>
<path d="M85.1789 151.421C85.7222 150.713 85.2797 149.664 86.0795 149.136C86.6874 148.741 87.4734 148.013 87.9602 148.168C88.6994 148.39 89.7268 148.069 90.2249 148.966C90.5769 149.602 91.2992 150.368 91.1588 150.877C90.9475 151.609 91.2215 152.636 90.3071 153.13C89.736 153.44 89.0728 154.118 88.5692 154.021C87.8256 153.863 86.8498 154.073 86.302 153.279C85.9065 152.671 85.551 152.029 85.1789 151.421Z" fill="#8650EF"/>
<path d="M157.627 79.665C158.383 79.8688 159.105 80.1794 159.772 80.5873C160.354 81.0439 160.738 81.7067 160.845 82.4387C160.788 83.237 160.463 83.9928 159.923 84.5835C159.453 85.1545 158.792 85.5352 158.062 85.6544C157.318 85.6503 156.599 85.3854 156.031 84.9058C155.449 84.4494 155.056 83.7946 154.927 83.0667C154.932 82.2619 155.205 81.4816 155.701 80.8483C156.193 80.2738 156.996 80.0368 157.627 79.665Z" fill="#8650EF"/>
<path d="M227.978 92.8761C228.246 94.8189 227.707 95.5941 225.897 95.852C224.087 96.1099 223.211 95.4983 222.856 93.8365C222.743 93.4844 222.713 93.1109 222.769 92.7453C222.824 92.3798 222.964 92.032 223.176 91.7293C223.388 91.4266 223.668 91.1772 223.993 91.0005C224.318 90.8239 224.679 90.7248 225.048 90.711C226.869 90.5772 227.754 91.1296 227.978 92.8761Z" fill="#8650EF"/>
<path d="M139.569 88.9313C139.656 89.2716 139.665 89.6272 139.595 89.9714C139.524 90.3155 139.377 90.6394 139.164 90.9185C138.951 91.1977 138.677 91.4249 138.364 91.5831C138.05 91.7413 137.705 91.8264 137.354 91.832C135.423 91.9521 134.737 91.3713 134.385 89.4294C134.324 89.085 134.34 88.7315 134.431 88.3938C134.522 88.0562 134.686 87.7425 134.911 87.4751C135.137 87.2077 135.418 86.9931 135.735 86.8463C136.053 86.6995 136.398 86.6242 136.748 86.6256C138.513 86.536 139.349 87.1202 139.569 88.9313Z" fill="#8650EF"/>
<path d="M117.255 105.206C117.481 107.013 116.837 107.865 115.069 108.103C113.08 108.37 112.33 107.776 112.101 105.762C111.906 104.012 112.587 103.183 114.407 102.964C116.227 102.746 117.028 103.407 117.255 105.206Z" fill="#8650EF"/>
<path d="M100.989 114.234C100.924 113.725 101.011 113.209 101.24 112.751C101.468 112.292 101.828 111.912 102.273 111.657C102.717 111.403 103.228 111.286 103.739 111.322C104.25 111.358 104.739 111.544 105.144 111.858C105.549 112.172 105.852 112.599 106.015 113.084C106.177 113.57 106.192 114.094 106.057 114.588C105.922 115.082 105.643 115.525 105.257 115.861C104.87 116.197 104.392 116.411 103.884 116.475C103.543 116.543 103.193 116.536 102.855 116.457C102.517 116.377 102.2 116.226 101.926 116.013C101.652 115.801 101.426 115.532 101.265 115.225C101.103 114.918 101.009 114.58 100.989 114.234Z" fill="#8650EF"/>
<path d="M148.117 78.69C148.901 78.3504 149.346 79.0344 149.951 79.3592C150.733 79.7775 150.599 80.5214 150.792 81.1755C151.052 82.0262 150.445 82.4594 150.117 83.0591C149.693 83.8446 148.95 83.7104 148.295 83.9042C147.45 84.1604 147.012 83.5574 146.412 83.2291C145.626 82.8053 145.76 82.0614 145.567 81.4073C145.31 80.562 145.839 80.0795 146.263 79.5329C146.821 78.8226 146.83 78.8245 148.117 78.69Z" fill="#8650EF"/>
<path d="M89.3468 138.769C89.8565 138.718 90.3699 138.819 90.8222 139.059C91.2744 139.3 91.6451 139.669 91.8874 140.121C92.1297 140.572 92.2328 141.085 92.1836 141.595C92.1344 142.105 91.9351 142.588 91.6109 142.985C91.2868 143.382 90.8523 143.673 90.3624 143.823C89.8725 143.973 89.3492 143.974 88.8587 143.826C88.3682 143.678 87.9326 143.389 87.6067 142.993C87.2809 142.598 87.0797 142.115 87.0283 141.605C86.9709 141.263 86.9872 140.913 87.0762 140.578C87.1651 140.242 87.3248 139.93 87.5443 139.661C87.7638 139.393 88.0382 139.174 88.3491 139.02C88.66 138.866 89.0001 138.78 89.3468 138.769Z" fill="#8650EF"/>
<path d="M187.899 74.9843C188.579 74.922 189.256 75.1306 189.783 75.5647C190.309 75.9988 190.644 76.6234 190.712 77.3025C190.812 77.6662 190.831 78.0473 190.769 78.4192C190.706 78.7911 190.563 79.1448 190.349 79.4555C190.135 79.7663 189.856 80.0267 189.532 80.2184C189.207 80.4102 188.844 80.5287 188.469 80.5657C188.093 80.6027 187.715 80.5573 187.359 80.4327C187.003 80.3081 186.678 80.1072 186.408 79.8441C186.138 79.5811 185.928 79.2622 185.794 78.9097C185.66 78.5572 185.604 78.1797 185.631 77.8035C185.566 77.1306 185.767 76.459 186.191 75.9322C186.615 75.4055 187.228 75.0653 187.899 74.9843Z" fill="#8650EF"/>
<path d="M200.522 78.7158C200.504 80.1722 199.689 81.3897 198.169 81.4982C197.808 81.5822 197.433 81.5878 197.07 81.5146C196.706 81.4414 196.363 81.2912 196.063 81.0739C195.763 80.8567 195.513 80.5776 195.329 80.2554C195.146 79.9333 195.035 79.5756 195.001 79.2065C194.968 78.8375 195.015 78.4656 195.138 78.116C195.261 77.7665 195.457 77.4474 195.714 77.1803C195.971 76.9132 196.282 76.7043 196.627 76.5677C196.971 76.4311 197.341 76.3701 197.711 76.3886C198.392 76.327 199.07 76.537 199.596 76.973C200.123 77.4089 200.456 78.0354 200.522 78.7158Z" fill="#8650EF"/>
<path d="M138.136 77.3339C138.645 77.2759 139.16 77.37 139.615 77.6043C140.07 77.8386 140.446 78.2025 140.694 78.6502C140.943 79.0978 141.053 79.6091 141.011 80.1194C140.969 80.6297 140.777 81.1161 140.459 81.5172C140.141 81.9183 139.711 82.2161 139.223 82.373C138.736 82.5298 138.213 82.5387 137.72 82.3985C137.228 82.2583 136.788 81.9753 136.456 81.5852C136.125 81.1951 135.916 80.7155 135.857 80.2069C135.799 79.5278 136.003 78.8521 136.427 78.3182C136.85 77.7842 137.462 77.4321 138.136 77.3339Z" fill="#8650EF"/>
<path d="M178.534 73.5439C179.042 73.4786 179.558 73.5653 180.017 73.7932C180.476 74.0211 180.857 74.38 181.112 74.8243C181.366 75.2687 181.484 75.7786 181.449 76.2896C181.414 76.8007 181.228 77.2899 180.915 77.6954C180.602 78.1009 180.176 78.4045 179.691 78.5679C179.205 78.7312 178.682 78.7469 178.188 78.613C177.693 78.4791 177.25 78.2016 176.913 77.8156C176.576 77.4296 176.361 76.9524 176.296 76.4444C176.231 75.7671 176.427 75.0907 176.842 74.5521C177.258 74.0135 177.863 73.6531 178.534 73.5439Z" fill="#8650EF"/>
<path d="M207.259 77.7561C207.934 77.6545 208.621 77.8233 209.172 78.2256C209.723 78.628 210.093 79.2316 210.202 79.9052C210.222 80.5343 210.013 81.1494 209.614 81.6355C209.214 82.1217 208.651 82.4457 208.03 82.5469C207.408 82.6481 206.772 82.5197 206.238 82.1856C205.705 81.8514 205.311 81.3345 205.131 80.7314C204.875 79.2216 205.85 78.1317 207.259 77.7561Z" fill="#8650EF"/>
<path d="M88.4245 131.922C88.3585 131.414 88.4449 130.897 88.6728 130.438C88.9006 129.979 89.2597 129.597 89.7044 129.342C90.1492 129.087 90.6597 128.97 91.1712 129.005C91.6827 129.04 92.1723 129.226 92.5779 129.54C92.9834 129.854 93.2868 130.281 93.4494 130.767C93.6121 131.253 93.6268 131.777 93.4917 132.272C93.3566 132.766 93.0777 133.21 92.6904 133.545C92.3031 133.881 91.8248 134.095 91.316 134.159C90.6405 134.221 89.9666 134.025 89.43 133.61C88.8934 133.195 88.5341 132.592 88.4245 131.922Z" fill="#8650EF"/>
<path d="M118.69 95.8915C118.755 96.3997 118.667 96.9158 118.439 97.3744C118.21 97.833 117.851 98.2135 117.406 98.4677C116.961 98.722 116.451 98.8387 115.94 98.803C115.429 98.7672 114.94 98.5807 114.535 98.267C114.129 97.9533 113.827 97.5265 113.664 97.0406C113.502 96.5546 113.487 96.0314 113.622 95.5372C113.757 95.0429 114.035 94.5997 114.422 94.2637C114.809 93.9277 115.287 93.714 115.795 93.6495C116.472 93.5865 117.147 93.783 117.685 94.1993C118.222 94.6155 118.581 95.2204 118.69 95.8915Z" fill="#8650EF"/>
<path d="M234.78 92.1216C235.458 92.0173 236.151 92.1868 236.705 92.5928C237.259 92.9989 237.628 93.6083 237.733 94.287C237.776 94.9342 237.574 95.5737 237.167 96.0793C236.761 96.5848 236.18 96.9195 235.539 97.0172C234.897 97.1149 234.243 96.9685 233.704 96.6069C233.166 96.2453 232.783 95.6948 232.631 95.0643C232.529 94.3896 232.698 93.7021 233.1 93.1511C233.503 92.6001 234.106 92.2302 234.78 92.1216Z" fill="#8650EF"/>
<path d="M129.821 87.5545C129.88 88.0635 129.787 88.5785 129.554 89.0346C129.32 89.4906 128.956 89.8671 128.509 90.1164C128.061 90.3658 127.55 90.4767 127.039 90.4353C126.528 90.3939 126.041 90.2019 125.64 89.8836C125.238 89.5654 124.94 89.1352 124.783 88.6475C124.626 88.1597 124.617 87.6364 124.758 87.1436C124.898 86.6509 125.181 86.2108 125.572 85.8792C125.963 85.5476 126.443 85.3392 126.952 85.2805C127.63 85.222 128.305 85.4249 128.838 85.8476C129.372 86.2703 129.723 86.881 129.821 87.5545Z" fill="#8650EF"/>
<path d="M168.829 71.7222C170.286 71.7405 171.503 72.5553 171.612 74.076C171.696 74.4369 171.701 74.8117 171.628 75.1749C171.555 75.5382 171.405 75.8815 171.188 76.1817C170.97 76.4819 170.691 76.732 170.369 76.9151C170.047 77.0982 169.689 77.2101 169.32 77.2432C168.951 77.2762 168.579 77.2297 168.23 77.1067C167.88 76.9838 167.561 76.7872 167.294 76.5304C167.027 76.2736 166.818 75.9624 166.681 75.6179C166.545 75.2735 166.484 74.9037 166.502 74.5336C166.441 73.8527 166.651 73.1751 167.087 72.6484C167.523 72.1218 168.149 71.7889 168.829 71.7222Z" fill="#8650EF"/>
<path d="M107.934 103.76C108.065 104.626 106.505 106.621 105.654 106.68C104.804 106.739 103.023 105.379 102.81 104.552C102.597 103.725 104.063 101.728 104.969 101.541C105.874 101.354 107.788 102.859 107.934 103.76Z" fill="#8650EF"/>
<path d="M161.873 72.5469C162.043 73.3786 160.519 75.3819 159.634 75.494C158.864 75.5931 156.997 74.2429 156.741 73.421C156.484 72.5991 157.937 70.6039 158.864 70.3792C159.685 70.1693 161.684 71.627 161.873 72.5469Z" fill="#8650EF"/>
<path d="M89.8012 122.306C89.7627 121.273 91.1384 119.374 91.9775 119.345C92.5138 119.366 93.0337 119.536 93.4788 119.836C95.0685 120.772 95.2467 122.163 94.0046 123.519C93.1463 124.456 92.2394 124.605 91.2155 123.827C90.6972 123.365 90.2237 122.856 89.8012 122.306Z" fill="#8650EF"/>
<path d="M147.409 71.758C147.211 70.265 147.755 69.5941 149.299 69.4014C150.842 69.2088 151.533 69.7015 151.727 71.4369C151.891 72.8756 151.31 73.5156 149.722 73.6988C148.241 73.867 147.596 73.3281 147.409 71.758Z" fill="#8650EF"/>
<path d="M244.639 93.9199C246.159 93.7036 246.852 94.2341 247.049 95.7361C247.267 97.3783 246.761 98.0246 245.086 98.2175C243.615 98.402 242.958 97.8558 242.766 96.2892C242.574 94.7227 243.114 94.1163 244.639 93.9199Z" fill="#8650EF"/>
<path d="M219.617 81.8381C219.837 83.3636 219.312 84.0527 217.814 84.2549C216.171 84.4734 215.521 83.9613 215.327 82.296C215.139 80.8193 215.69 80.1592 217.251 79.9703C218.813 79.7815 219.433 80.3201 219.617 81.8381Z" fill="#8650EF"/>
<path d="M71.7155 178.856C71.4993 177.336 72.0298 176.643 73.5317 176.447C75.174 176.228 75.8183 176.744 76.0078 178.413C76.1958 179.889 75.646 180.54 74.0759 180.727C72.5058 180.914 71.9066 180.385 71.7155 178.856Z" fill="#8650EF"/>
<path d="M117.717 84.2653C119.205 84.0702 119.876 84.6148 120.07 86.1491C120.265 87.6833 119.77 88.3836 118.035 88.5776C116.596 88.7409 115.954 88.1697 115.773 86.5728C115.603 85.0999 116.142 84.4558 117.717 84.2653Z" fill="#8650EF"/>
<path d="M70.6951 195.517C72.2798 195.305 72.964 195.787 73.1683 197.253C73.3838 198.844 72.9033 199.566 71.4893 199.767C69.7659 200.015 69.1066 199.548 68.9039 197.942C68.7012 196.335 69.2021 195.716 70.6951 195.517Z" fill="#8650EF"/>
<path d="M72.1154 185.765C73.6518 185.538 74.3518 186.056 74.5559 187.545C74.776 189.202 74.2729 189.854 72.62 190.056C71.1379 190.247 70.4724 189.699 70.2762 188.151C70.08 186.602 70.6045 185.96 72.1154 185.765Z" fill="#8650EF"/>
<path d="M75.0236 166.686C76.5166 166.487 77.1875 167.032 77.3821 168.566C77.5766 170.1 77.0766 170.804 75.3466 170.995C73.9079 171.158 73.2625 170.581 73.0793 168.993C72.9111 167.511 73.4535 166.873 75.0236 166.686Z" fill="#8650EF"/>
<path d="M76.8625 156.877C78.3391 156.689 78.9992 157.24 79.19 158.793C79.3808 160.345 78.856 161.011 77.1225 161.196C75.6566 161.377 75.0736 160.837 74.8861 159.159C74.7212 157.706 75.2886 157.082 76.8625 156.877Z" fill="#8650EF"/>
<path d="M80.5737 149.056C80.6365 149.617 80.4756 150.18 80.1259 150.623C79.7762 151.065 79.266 151.353 78.7059 151.422C78.4105 151.469 78.1085 151.452 77.8201 151.373C77.5317 151.293 77.2636 151.153 77.0338 150.962C76.8039 150.77 76.6177 150.532 76.4875 150.263C76.3573 149.994 76.2862 149.7 76.279 149.401C76.2493 149.12 76.2779 148.836 76.363 148.566C76.448 148.297 76.5878 148.048 76.7734 147.835C76.9591 147.623 77.1867 147.45 77.4419 147.329C77.6972 147.209 77.9747 147.142 78.257 147.133C78.8162 147.095 79.3687 147.273 79.8 147.631C80.2314 147.989 80.5084 148.499 80.5737 149.056Z" fill="#8650EF"/>
<path d="M106.472 92.2129C106.749 92.1735 107.032 92.1893 107.303 92.2593C107.575 92.3293 107.83 92.4522 108.054 92.6209C108.277 92.7896 108.466 93.0009 108.608 93.2425C108.75 93.4842 108.843 93.7514 108.881 94.0291C108.935 94.3242 108.925 94.6274 108.852 94.9184C108.779 95.2094 108.645 95.4814 108.458 95.7162C108.272 95.951 108.037 96.1432 107.77 96.2799C107.503 96.4165 107.21 96.4945 106.91 96.5086C106.351 96.5384 105.802 96.3558 105.373 95.9975C104.944 95.6391 104.666 95.1316 104.595 94.5768C104.533 94.0149 104.695 93.4512 105.047 93.0085C105.398 92.5658 105.911 92.2798 106.472 92.2129Z" fill="#8650EF"/>
<path d="M226.482 81.4203C227.038 81.3434 227.602 81.4842 228.057 81.8133C228.511 82.1424 228.821 82.6344 228.921 83.1865C228.983 83.4618 228.988 83.747 228.934 84.0241C228.881 84.3012 228.771 84.5643 228.611 84.7968C228.451 85.0293 228.244 85.2261 228.005 85.375C227.765 85.5239 227.497 85.6216 227.217 85.6619C226.927 85.7287 226.625 85.7328 226.332 85.6737C226.04 85.6147 225.763 85.4939 225.521 85.3195C225.279 85.145 225.077 84.9209 224.928 84.6622C224.78 84.4034 224.688 84.1159 224.659 83.8189C224.586 83.2596 224.737 82.6942 225.078 82.2452C225.42 81.7962 225.924 81.4998 226.482 81.4203Z" fill="#8650EF"/>
<path d="M93.9817 110.325C94.2679 110.292 94.5578 110.317 94.8343 110.397C95.1109 110.478 95.3686 110.613 95.5922 110.794C95.8159 110.976 96.001 111.2 96.1367 111.455C96.2724 111.709 96.356 111.987 96.3825 112.274C96.4091 112.561 96.378 112.85 96.2912 113.125C96.2045 113.4 96.0637 113.654 95.8772 113.874C95.6906 114.093 95.4621 114.273 95.205 114.403C94.948 114.533 94.6675 114.611 94.3801 114.631C93.8226 114.647 93.2788 114.456 92.8547 114.093C92.4305 113.731 92.1563 113.224 92.0854 112.671C92.0338 112.11 92.203 111.551 92.5572 111.113C92.9113 110.675 93.4224 110.392 93.9817 110.325Z" fill="#8650EF"/>
<path d="M68.9341 205.315C69.4915 205.241 70.0559 205.386 70.5089 205.719C70.9619 206.052 71.2682 206.548 71.3636 207.102C71.4374 207.656 71.301 208.217 70.9813 208.676C70.6616 209.134 70.1818 209.456 69.6365 209.577C69.3501 209.639 69.0542 209.642 68.7666 209.586C68.4791 209.53 68.2059 209.416 67.9637 209.251C67.7214 209.087 67.5152 208.874 67.3576 208.627C67.1999 208.38 67.094 208.104 67.0464 207.815C66.9987 207.526 67.0103 207.23 67.0804 206.946C67.1506 206.661 67.2777 206.394 67.4543 206.16C67.6308 205.926 67.853 205.731 68.1073 205.585C68.3617 205.44 68.643 205.348 68.9341 205.315Z" fill="#8650EF"/>
<path d="M128.867 75.8854C129.16 75.8518 129.456 75.8782 129.738 75.963C130.02 76.0477 130.282 76.1891 130.508 76.3784C130.734 76.5677 130.919 76.801 131.051 77.0641C131.184 77.3272 131.261 77.6145 131.279 77.9086C131.297 78.2026 131.255 78.4972 131.155 78.7745C131.056 79.0517 130.901 79.3057 130.699 79.521C130.498 79.7364 130.256 79.9085 129.986 80.0269C129.716 80.1453 129.425 80.2075 129.13 80.2097C128.575 80.2139 128.039 80.0049 127.634 79.6259C127.228 79.2469 126.983 78.7267 126.949 78.1725C126.915 77.6182 127.095 77.0721 127.452 76.6466C127.809 76.2211 128.315 75.9487 128.867 75.8854Z" fill="#8650EF"/>
<path d="M65.7025 217.389C65.6671 216.962 65.759 216.535 65.9667 216.161C66.1743 215.786 66.4884 215.482 66.869 215.287C67.2496 215.091 67.6798 215.012 68.105 215.061C68.5302 215.11 68.9313 215.284 69.2576 215.561C69.5838 215.838 69.8206 216.206 69.9379 216.617C70.0551 217.029 70.0476 217.466 69.9163 217.874C69.785 218.281 69.5358 218.64 69.2002 218.906C68.8646 219.171 68.4578 219.331 68.0312 219.366C67.4836 219.326 66.9629 219.112 66.5444 218.757C66.1258 218.402 65.831 217.923 65.7025 217.389Z" fill="#8650EF"/>
<path d="M79.5643 137.824C79.9884 137.764 80.4207 137.831 80.8065 138.017C81.1923 138.203 81.5143 138.5 81.7315 138.869C81.9487 139.238 82.0515 139.663 82.0268 140.091C82.0021 140.518 81.8509 140.929 81.5926 141.27C81.3343 141.612 80.9803 141.869 80.5757 142.009C80.171 142.149 79.7338 142.166 79.3195 142.058C78.9052 141.949 78.5325 141.72 78.2485 141.4C77.9646 141.079 77.7822 140.681 77.7246 140.257C77.7344 139.709 77.9178 139.178 78.2484 138.741C78.579 138.304 79.0398 137.983 79.5643 137.824Z" fill="#8650EF"/>
<path d="M142.382 69.8367C142.436 70.2597 142.363 70.6891 142.172 71.0706C141.982 71.452 141.682 71.7685 141.312 71.9799C140.942 72.1913 140.517 72.2882 140.092 72.2584C139.667 72.2285 139.26 72.0733 138.923 71.8122C138.586 71.5512 138.333 71.196 138.198 70.7917C138.063 70.3874 138.05 69.952 138.162 69.5407C138.274 69.1293 138.506 68.7604 138.828 68.4805C139.149 68.2007 139.547 68.0225 139.97 67.9685C140.518 67.9844 141.047 68.1739 141.48 68.5097C141.914 68.8454 142.23 69.3101 142.382 69.8367Z" fill="#8650EF"/>
<path d="M170.16 62.8541C170.837 62.7073 172.478 63.9113 172.629 64.6548C172.781 65.3983 171.568 66.9669 170.825 67.1183C170.081 67.2698 168.513 66.0576 168.356 65.3177C168.199 64.5777 169.422 63.002 170.16 62.8541Z" fill="#8650EF"/>
<path d="M182.387 66.0943C182.473 66.7724 181.188 68.4191 180.514 68.5103C179.839 68.6014 178.189 67.3111 178.098 66.6366C178.006 65.962 179.297 64.3117 179.971 64.2205C180.646 64.1294 182.296 65.4197 182.387 66.0943Z" fill="#8650EF"/>
<path d="M197.172 69.4786C197.041 68.791 198.316 67.189 199.011 67.046C199.706 66.903 201.301 68.1909 201.449 68.8823C201.598 69.5736 200.304 71.1719 199.613 71.3203C198.922 71.4687 197.293 70.1876 197.172 69.4786Z" fill="#8650EF"/>
<path d="M81.0038 128.067C81.7372 128.007 83.3498 129.298 83.3888 129.976C83.4279 130.653 82.1571 132.322 81.4796 132.361C80.802 132.4 79.1335 131.129 79.0945 130.452C79.0554 129.774 80.3278 128.12 81.0038 128.067Z" fill="#8650EF"/>
<path d="M95.3439 100.579C96.0491 100.475 97.6688 101.778 97.7599 102.452C97.851 103.127 96.5607 104.777 95.8862 104.868C95.2116 104.96 93.5613 103.669 93.4756 102.991C93.3899 102.313 94.6658 100.664 95.3439 100.579Z" fill="#8650EF"/>
<path d="M189.63 65.6161C190.3 65.4585 191.953 66.6464 192.119 67.3883C192.285 68.1301 191.085 69.706 190.352 69.8738C189.62 70.0415 188.029 68.8435 187.858 68.1051C187.687 67.3668 188.876 65.798 189.63 65.6161Z" fill="#8650EF"/>
<path d="M160.801 64.9018C159.33 65.0863 159.161 64.9335 158.998 63.317C158.835 61.7005 158.987 61.6016 160.718 61.4255C162.051 61.2771 162.271 61.4969 162.454 63.1083C162.578 64.5573 162.441 64.7156 160.801 64.9018Z" fill="#8650EF"/>
<path d="M238.277 84.8262C238.458 86.292 238.308 86.4663 236.709 86.6566C235.111 86.8468 234.994 86.6677 234.814 84.9307C234.67 83.6035 234.886 83.3779 236.501 83.2004C237.936 83.0317 238.085 83.1896 238.277 84.8262Z" fill="#8650EF"/>
<path d="M218.596 70.6605C219.039 70.6013 219.488 70.7122 219.853 70.971C220.218 71.2297 220.471 71.617 220.561 72.0549C220.609 72.294 220.604 72.5405 220.549 72.7779C220.494 73.0153 220.389 73.2383 220.242 73.4322C220.094 73.6261 219.907 73.7865 219.693 73.9027C219.478 74.0189 219.242 74.0883 218.999 74.1063C218.544 74.1626 218.085 74.0358 217.723 73.7538C217.362 73.4718 217.127 73.0578 217.071 72.6027C217.014 72.1476 217.141 71.6888 217.423 71.3272C217.705 70.9657 218.119 70.7309 218.574 70.6746L218.596 70.6605Z" fill="#8650EF"/>
<path d="M107.874 83.3601C108.314 83.2886 108.766 83.3851 109.138 83.6304C109.511 83.8758 109.778 84.2522 109.887 84.6851C109.935 84.9198 109.934 85.1619 109.884 85.3964C109.835 85.6308 109.738 85.8526 109.599 86.0479C109.46 86.2432 109.283 86.4079 109.077 86.5317C108.872 86.6556 108.644 86.736 108.406 86.7679C107.955 86.8385 107.493 86.7267 107.124 86.4571C106.754 86.1875 106.507 85.7822 106.436 85.3303C106.366 84.8784 106.477 84.4169 106.747 84.0475C107.017 83.678 107.422 83.4307 107.874 83.3601Z" fill="#8650EF"/>
<path d="M149.66 62.013C149.599 61.5704 149.707 61.1209 149.964 60.755C150.22 60.389 150.605 60.1337 151.042 60.0404C151.279 59.9949 151.522 59.9993 151.757 60.0533C151.992 60.1073 152.213 60.2099 152.406 60.3543C152.599 60.4987 152.759 60.6818 152.877 60.8918C152.995 61.1019 153.068 61.3343 153.091 61.5741C153.119 61.7993 153.104 62.028 153.044 62.2471C152.984 62.4662 152.882 62.6715 152.743 62.8511C152.604 63.0307 152.432 63.1813 152.235 63.2941C152.037 63.4069 151.82 63.4798 151.595 63.5086C151.37 63.5374 151.141 63.5216 150.922 63.462C150.703 63.4025 150.498 63.3003 150.318 63.1615C150.138 63.0226 149.988 62.8497 149.875 62.6526C149.762 62.4556 149.689 62.2382 149.66 62.013Z" fill="#8650EF"/>
<path d="M121.016 76.4036C121.076 76.8457 120.966 77.2941 120.708 77.6583C120.45 78.0224 120.064 78.2751 119.627 78.3653C119.39 78.4113 119.147 78.4069 118.912 78.3525C118.677 78.2981 118.456 78.1949 118.264 78.0495C118.072 77.9042 117.913 77.72 117.796 77.5089C117.68 77.2979 117.61 77.0647 117.589 76.8246C117.561 76.3843 117.702 75.9499 117.984 75.6102C118.265 75.2706 118.666 75.0514 119.104 74.9976C119.542 74.9438 119.984 75.0594 120.339 75.3208C120.694 75.5822 120.937 75.9696 121.016 76.4036Z" fill="#8650EF"/>
<path d="M96.7746 91.2592C97.2181 91.2149 97.662 91.3385 98.0188 91.6056C98.3755 91.8727 98.6192 92.2638 98.7016 92.7017C98.7407 92.9391 98.7297 93.182 98.6692 93.4148C98.6087 93.6477 98.5002 93.8652 98.3505 94.0536C98.2008 94.2419 98.0134 94.3968 97.8002 94.5082C97.587 94.6197 97.3529 94.6853 97.1128 94.7007C96.6664 94.7231 96.2282 94.575 95.8869 94.2863C95.5457 93.9976 95.327 93.59 95.2751 93.1461C95.2431 92.7009 95.3794 92.2599 95.6571 91.9104C95.9349 91.561 96.3337 91.3286 96.7746 91.2592Z" fill="#8650EF"/>
<path d="M82.7154 118.727C83.1557 118.655 83.6068 118.752 83.9788 118.998C84.3508 119.245 84.6164 119.622 84.7227 120.055C84.7965 120.391 84.7683 120.742 84.6417 121.062C84.5151 121.382 84.2958 121.657 84.0119 121.852C83.728 122.046 83.3925 122.152 83.0483 122.155C82.7041 122.158 82.3669 122.058 82.0798 121.868C81.7928 121.678 81.569 121.406 81.4371 121.088C81.3052 120.77 81.2712 120.42 81.3394 120.083C81.4077 119.746 81.5751 119.436 81.8202 119.195C82.0654 118.953 82.3771 118.79 82.7154 118.727Z" fill="#8650EF"/>
<path d="M132.195 68.4372C132.234 68.6658 132.228 68.9001 132.175 69.1261C132.122 69.3521 132.024 69.5651 131.887 69.7525C131.751 69.9399 131.577 70.0978 131.378 70.2168C131.179 70.3359 130.958 70.4136 130.728 70.4453C130.498 70.4771 130.264 70.4623 130.04 70.4017C129.816 70.3412 129.607 70.2362 129.424 70.0929C129.241 69.9497 129.09 69.7711 128.977 69.568C128.865 69.3648 128.795 69.1411 128.772 68.9103C128.74 68.4664 128.875 68.0266 129.15 67.6766C129.425 67.3265 129.82 67.0911 130.259 67.0161C130.701 66.9672 131.145 67.0861 131.504 67.3492C131.862 67.6124 132.109 68.0007 132.195 68.4372Z" fill="#8650EF"/>
<path d="M210.819 70.7214C210.88 71.1639 210.771 71.6132 210.514 71.9784C210.257 72.3437 209.87 72.5975 209.433 72.6886C209.197 72.7327 208.955 72.7273 208.721 72.6728C208.488 72.6182 208.268 72.5156 208.076 72.3715C207.885 72.2275 207.725 72.0451 207.607 71.8359C207.49 71.6268 207.417 71.3955 207.394 71.1568C207.356 70.7119 207.492 70.2698 207.773 69.9229C208.054 69.576 208.459 69.3513 208.902 69.2957C209.344 69.2402 209.792 69.3581 210.15 69.6249C210.508 69.8916 210.749 70.2865 210.822 70.7268L210.819 70.7214Z" fill="#8650EF"/>
<path d="M245.925 84.5556C246.208 84.6342 246.36 84.6431 246.458 84.7107C246.93 85.0343 247.378 85.3905 247.8 85.7766C247.937 85.9038 247.933 86.254 247.893 86.4889C247.852 86.7237 247.652 86.831 247.522 87.0001C246.413 88.4172 246.724 88.3615 245.29 87.2856C244.434 86.6454 244.287 86.5863 245.084 85.6506C245.389 85.2751 245.668 84.8849 245.925 84.5556Z" fill="#8650EF"/>
<path d="M86.1572 110.254C86.1201 110.518 86.1416 110.681 86.0705 110.774C85.7384 111.237 85.3778 111.68 85.0296 112.131C84.7507 112.498 84.4621 112.446 84.1436 112.182C83.7392 111.891 83.3506 111.579 82.9796 111.247C82.9032 111.155 82.8491 111.047 82.8218 110.931C82.7944 110.815 82.7945 110.694 82.8219 110.577C83.1751 110.043 83.563 109.533 83.9833 109.05C84.0349 109.002 84.0978 108.969 84.1659 108.953C84.234 108.937 84.3051 108.939 84.3723 108.959C84.9908 109.375 85.5998 109.837 86.1572 110.254Z" fill="#8650EF"/>
<path d="M120.421 65.6439C121.325 65.4889 121.795 65.7852 121.952 66.5952C122.108 67.4052 121.844 68.0093 121.064 68.1764C120.069 68.3915 119.551 68.0713 119.413 67.134C119.275 66.1967 119.57 65.7959 120.421 65.6439Z" fill="#8650EF"/>
<path d="M141.403 59.0799C142.312 58.9448 142.745 59.2424 142.893 60.0882C143.042 60.9341 142.756 61.4678 141.946 61.6239C140.925 61.8243 140.46 61.5011 140.334 60.5244C140.278 60.3572 140.263 60.1788 140.29 60.0044C140.317 59.83 140.386 59.6648 140.491 59.5229C140.596 59.381 140.734 59.2666 140.893 59.1895C141.052 59.1123 141.227 59.0747 141.403 59.0799Z" fill="#8650EF"/>
<path d="M67.3945 148.08C67.2718 147.179 67.5746 146.766 68.4473 146.623C69.4783 146.462 69.8842 146.778 69.9964 147.817C70.071 148.68 69.7288 149.08 68.8279 149.18C68.6588 149.233 68.4793 149.245 68.3046 149.215C68.1298 149.184 67.9651 149.112 67.8243 149.004C67.6835 148.896 67.5709 148.756 67.4961 148.595C67.4213 148.434 67.3864 148.257 67.3945 148.08Z" fill="#8650EF"/>
<path d="M109.311 74.0134C110.209 73.8619 110.671 74.1563 110.829 74.9807C110.986 75.8051 110.711 76.3785 109.917 76.5473C108.923 76.7534 108.416 76.4261 108.283 75.4853C108.15 74.5445 108.453 74.1545 109.311 74.0134Z" fill="#8650EF"/>
<path d="M65.994 157.72C65.9088 156.841 66.2347 156.451 67.1376 156.343C68.0404 156.235 68.537 156.63 68.5938 157.644C68.6312 158.461 68.2369 158.864 67.3202 158.928C66.4035 158.991 66.0945 158.682 65.994 157.72Z" fill="#8650EF"/>
<path d="M65.8237 166.104C66.703 166.019 67.0962 166.35 67.2045 167.253C67.3128 168.156 66.9174 168.652 65.9003 168.704C65.0862 168.746 64.6829 168.352 64.6197 167.435C64.5564 166.519 64.8674 166.177 65.8237 166.104Z" fill="#8650EF"/>
<path d="M65.3399 176.607C65.3994 176.775 65.4174 176.954 65.3921 177.13C65.3669 177.305 65.2993 177.472 65.1951 177.616C65.0909 177.76 64.9533 177.876 64.7942 177.955C64.6351 178.034 64.4592 178.072 64.2817 178.068C63.2616 178.222 62.8505 177.887 62.7671 176.844C62.696 175.986 63.0471 175.588 63.9551 175.5C64.122 175.453 64.2973 175.448 64.4669 175.482C64.6364 175.517 64.7953 175.592 64.9305 175.7C65.0656 175.808 65.1732 175.946 65.2444 176.104C65.3156 176.262 65.3483 176.434 65.3399 176.607Z" fill="#8650EF"/>
<path d="M63.9578 186.358C64.0173 186.526 64.0352 186.705 64.01 186.881C63.9847 187.056 63.9171 187.223 63.813 187.367C63.7088 187.511 63.5712 187.627 63.412 187.706C63.2529 187.785 63.077 187.824 62.8995 187.819C61.8794 187.973 61.4683 187.638 61.3849 186.595C61.3192 185.734 61.665 185.339 62.5749 185.242C62.7423 185.196 62.9183 185.19 63.0884 185.226C63.2584 185.261 63.4175 185.336 63.5527 185.446C63.6878 185.555 63.795 185.694 63.8654 185.853C63.9359 186.012 63.9675 186.185 63.9578 186.358Z" fill="#8650EF"/>
<path d="M227.33 73.9708C227.195 73.0623 227.493 72.6292 228.338 72.4807C229.184 72.3323 229.718 72.6185 229.874 73.4285C230.071 74.4437 229.751 74.9142 228.771 75.0342C228.604 75.0915 228.426 75.1075 228.252 75.0807C228.078 75.054 227.913 74.9854 227.771 74.8808C227.63 74.7762 227.515 74.6387 227.439 74.4802C227.362 74.3217 227.324 74.1469 227.33 73.9708Z" fill="#8650EF"/>
<path d="M173.153 55.0212C173.285 55.9244 172.991 56.3629 172.141 56.5059C171.292 56.6489 170.758 56.3627 170.622 55.5476C170.425 54.5323 170.745 54.0618 171.73 53.9383C171.898 53.8856 172.075 53.8738 172.247 53.9039C172.42 53.9339 172.583 54.005 172.722 54.1112C172.862 54.2173 172.974 54.3553 173.049 54.5137C173.124 54.6721 173.16 54.8461 173.153 55.0212Z" fill="#8650EF"/>
<path d="M180.342 56.8342C180.21 55.9311 180.504 55.4926 181.35 55.3441C182.196 55.1957 182.73 55.4819 182.886 56.2919C183.086 57.3125 182.763 57.7776 181.786 57.9031C181.619 57.9596 181.441 57.9749 181.266 57.9476C181.092 57.9202 180.927 57.8511 180.785 57.7461C180.643 57.6411 180.529 57.5033 180.451 57.3445C180.374 57.1858 180.337 57.0107 180.342 56.8342Z" fill="#8650EF"/>
<path d="M161.048 54.0581C161.429 53.5263 161.847 53.0221 162.299 52.5492C162.544 52.3203 163.969 53.3709 163.806 53.678C163.536 54.2012 163.138 54.9313 162.695 55.0107C162.252 55.0901 161.702 54.4588 161.048 54.0581Z" fill="#8650EF"/>
<path d="M202.702 59.6089C202.301 60.1284 201.857 60.6136 201.375 61.0595C201.099 61.2773 199.734 60.1644 199.901 59.8861C200.205 59.3795 200.633 58.6372 201.072 58.5991C201.511 58.5609 202.053 59.1813 202.702 59.6089Z" fill="#8650EF"/>
<path d="M59.7688 204.501C60.3268 205.027 61.0732 205.414 61.1113 205.853C61.1495 206.292 60.5483 206.876 60.1128 207.275C59.8677 207.504 58.4865 206.401 58.6389 206.101C58.9773 205.542 59.3549 205.007 59.7688 204.501Z" fill="#8650EF"/>
<path d="M84.3441 101.469C84.8838 100.909 85.2783 100.174 85.7205 100.141C86.1627 100.108 86.7359 100.716 87.146 101.145C87.364 101.397 86.2368 102.764 85.9477 102.604C85.3891 102.261 84.8534 101.882 84.3441 101.469Z" fill="#8650EF"/>
<path d="M69.7705 136.663C70.3725 137.113 71.1593 137.42 71.2406 137.854C71.3219 138.288 70.774 138.93 70.4076 139.4C70.2253 139.642 68.7162 138.724 68.8136 138.374C69.0713 137.772 69.3921 137.198 69.7705 136.663Z" fill="#8650EF"/>
<path d="M96.8535 83.3519C97.3968 82.7977 97.7877 82.0568 98.2299 82.024C98.6721 81.9913 99.2454 82.5995 99.6554 83.028C99.8735 83.2801 98.7462 84.6467 98.4606 84.4926C97.9015 84.1464 97.3648 83.7654 96.8535 83.3519Z" fill="#8650EF"/>
<path d="M191.099 56.496C191.632 56.8753 192.142 57.2865 192.626 57.7275C192.848 57.9617 191.813 59.3994 191.502 59.2306C190.976 58.9786 190.24 58.5841 190.161 58.1414C190.081 57.6987 190.702 57.1561 191.099 56.496Z" fill="#8650EF"/>
<path d="M59.7991 196.556C60.2531 195.96 60.5566 195.167 60.9939 195.091C61.4312 195.016 62.0663 195.553 62.5363 195.919C62.7785 196.101 61.8633 197.616 61.5107 197.513C60.9072 197.257 60.3333 196.936 59.7991 196.556Z" fill="#8650EF"/>
<path d="M131.687 57.4432C132.209 57.8432 132.696 58.286 133.143 58.7673C133.33 59.055 132.252 60.4131 131.97 60.2411C131.463 59.9372 130.721 59.5085 130.686 59.0753C130.652 58.6421 131.25 58.1136 131.687 57.4432Z" fill="#8650EF"/>
<path d="M237.693 74.3449C238.673 74.2016 238.645 74.2048 238.8 75.0848C238.901 75.6679 238.856 75.9907 238.137 76.049C237.181 76.1226 237.218 76.1679 237.063 75.2879C236.961 74.7048 236.989 74.3082 237.693 74.3449Z" fill="#8650EF"/>
<path d="M209.633 61.3113C209.469 60.7617 209.575 60.4378 210.285 60.3776C211.241 60.304 211.208 60.2641 211.359 61.1387C211.464 61.7272 211.419 62.05 210.702 62.0993C209.745 62.1729 209.732 62.2356 209.633 61.3113Z" fill="#8650EF"/>
<path d="M72.025 127.897C72.8933 127.664 72.7258 128.345 72.7837 128.778C72.8933 129.564 72.8382 129.515 71.8252 129.68C70.9544 129.814 71.1247 129.208 71.0667 128.775C70.9679 127.982 70.9679 127.982 72.025 127.897Z" fill="#8650EF"/>
<path d="M152.832 51.5457C153.512 51.32 153.622 51.7271 153.672 52.3132C153.742 53.194 153.763 53.1422 152.784 53.3233C152.089 53.4429 151.958 53.1343 151.909 52.5482C151.869 51.6552 151.869 51.6552 152.832 51.5457Z" fill="#8650EF"/>
<path d="M87.1447 90.4781C87.5547 90.9066 88.0277 91.1706 88.0476 91.4743C88.0675 91.7781 87.6813 92.0988 87.426 92.4425C87.04 92.2293 86.7016 91.9394 86.4316 91.5907C86.3493 91.4048 86.8177 90.9611 87.1447 90.4781Z" fill="#8650EF"/>
<path d="M73.066 117.989C73.4487 118.208 73.8029 118.473 74.1203 118.779C74.34 119.045 73.7694 119.949 73.4184 119.861C73.2266 119.819 73.0461 119.736 72.8894 119.618C72.7326 119.5 72.6032 119.35 72.5101 119.177C72.4362 118.885 72.8107 118.487 73.066 117.989Z" fill="#8650EF"/>
<path d="M98.6938 74.0674C99.0993 73.6337 99.4235 73.0753 99.6206 73.117C100.011 73.1951 100.33 73.6136 100.679 73.8887C100.415 74.1839 100.183 74.659 99.8773 74.7112C99.5714 74.7634 99.2094 74.3732 98.6938 74.0674Z" fill="#8650EF"/>
<path d="M109.9 65.7742C110.119 65.3915 110.384 65.0373 110.69 64.7199C110.956 64.5002 111.859 65.0798 111.767 65.4254C111.726 65.6165 111.645 65.7967 111.528 65.9537C111.412 66.1107 111.263 66.2409 111.092 66.3355C110.797 66.404 110.399 66.0295 109.9 65.7742Z" fill="#8650EF"/>
<path d="M142.81 49.521C143.182 49.775 143.523 50.0718 143.826 50.4054C144.02 50.704 143.408 51.5573 143.063 51.4421C142.874 51.3877 142.699 51.2934 142.549 51.1657C142.399 51.0379 142.278 50.8795 142.195 50.7013C142.143 50.4187 142.513 50.0152 142.81 49.521Z" fill="#8650EF"/>
<path d="M122.293 57.0961C122.466 57.1843 122.723 57.3183 122.96 57.4341L122.134 58.4431C121.84 58.1938 121.361 57.98 121.293 57.6847C121.155 57.0329 121.825 57.292 122.293 57.0961Z" fill="#8650EF"/>
<path d="M212.967 51.4492C212.752 51.6237 212.51 51.7607 212.249 51.8541C212.143 51.8691 211.872 51.5589 211.896 51.5125C211.997 51.3093 212.155 51.1397 212.35 51.0237C212.446 50.9691 212.609 51.2188 212.967 51.4492Z" fill="#8650EF"/>
<path d="M174.348 45.4457C174.136 45.6194 173.895 45.7552 173.636 45.8471C173.525 45.8656 173.25 45.55 173.277 45.509C173.379 45.3059 173.536 45.1362 173.732 45.0202C173.795 44.9868 174.012 45.2012 174.348 45.4457Z" fill="#8650EF"/>
<path d="M58.7533 145.876C59.0718 146.14 59.329 146.274 59.3244 146.362C59.2579 146.581 59.1319 146.778 58.9605 146.931C58.9171 146.959 58.5527 146.779 58.5378 146.673C58.5228 146.566 58.6555 146.272 58.7533 145.876Z" fill="#8650EF"/>
<path d="M182.342 46.8815C182.668 46.6697 182.829 46.4416 182.95 46.4861C183.142 46.6049 183.313 46.755 183.455 46.9301C183.33 47.0579 183.185 47.2988 183.076 47.285C182.967 47.2711 182.672 47.0685 182.342 46.8815Z" fill="#8650EF"/>
<path d="M58.217 156.274C58.0038 156.45 57.7623 156.589 57.5029 156.685C57.3913 156.703 57.1165 156.388 57.1404 156.341C57.2463 156.141 57.4046 155.974 57.5984 155.858C57.678 155.814 57.8873 156.041 58.217 156.274Z" fill="#8650EF"/>
<path d="M248.372 76.8458C248.205 77.0646 248 77.2525 247.768 77.4011C247.681 77.4576 247.47 77.2397 247.317 77.1464C247.413 76.9328 247.55 76.7394 247.718 76.5762C247.789 76.5303 248.031 76.6893 248.389 76.8352" fill="#8650EF"/>
<path d="M219.579 62.6361C219.905 62.4243 220.065 62.1962 220.187 62.2407C220.378 62.3602 220.549 62.5102 220.692 62.6847C220.567 62.8126 220.422 63.0534 220.313 63.0396C220.048 62.9465 219.8 62.8102 219.579 62.6361Z" fill="#8650EF"/>
<path d="M61.3839 136.571C61.2113 136.786 61.0076 136.973 60.7795 137.127C60.6872 137.187 60.4779 136.96 60.319 136.87C60.4237 136.661 60.5591 136.469 60.7206 136.3C60.7768 136.256 61.0119 136.427 61.3839 136.571Z" fill="#8650EF"/>
<path d="M55.9403 164.947C56.2588 165.211 56.5159 165.345 56.5023 165.431C56.4402 165.651 56.3172 165.849 56.1474 166.002C56.104 166.03 55.7396 165.85 55.7212 165.738C55.7027 165.627 55.85 165.307 55.9403 164.947Z" fill="#8650EF"/>
<path d="M89.7779 72.0572C90.1036 71.8453 90.2642 71.6173 90.3858 71.6617C90.5777 71.7806 90.7484 71.9306 90.8909 72.1057C90.7443 72.201 90.6209 72.4744 90.5115 72.4606C90.4021 72.4468 90.1116 72.2495 89.7779 72.0572Z" fill="#8650EF"/>
<path d="M203.212 49.9306C203.042 50.1471 202.838 50.3346 202.608 50.4859C202.515 50.5459 202.31 50.3245 202.151 50.2347C202.25 50.0219 202.385 49.8273 202.549 49.659C202.577 49.5713 202.831 49.761 203.212 49.9306Z" fill="#8650EF"/>
<path d="M239.642 65.1677C239.86 65.3354 240.048 65.5399 240.197 65.7721C240.257 65.8644 240.039 66.0756 239.946 66.229C239.733 66.1307 239.54 65.9946 239.375 65.8274C239.326 65.7748 239.499 65.5307 239.642 65.1677Z" fill="#8650EF"/>
<path d="M54.0732 175.353C54.3989 175.142 54.5595 174.913 54.6635 174.931C54.8545 175.051 55.025 175.201 55.1686 175.375C55.0397 175.497 54.8986 175.743 54.7892 175.73C54.532 175.643 54.2903 175.516 54.0732 175.353Z" fill="#8650EF"/>
<path d="M88.6429 81.1918C88.8157 81.4073 88.9541 81.6481 89.0533 81.9059C89.0683 82.012 88.7527 82.2868 88.7062 82.263C88.5063 82.1573 88.3391 81.9989 88.2229 81.8049C88.1754 81.7199 88.3968 81.5141 88.6429 81.1918Z" fill="#8650EF"/>
<path d="M52.9372 184.473C53.1089 184.69 53.2456 184.932 53.3421 185.191C53.3571 185.297 53.0415 185.572 52.995 185.548C52.7951 185.443 52.6279 185.284 52.5117 185.09C52.4549 185.027 52.6927 184.81 52.9372 184.473Z" fill="#8650EF"/>
<path d="M229.331 64.0181C229.656 63.8062 229.817 63.5781 229.921 63.5955C230.112 63.7155 230.282 63.8654 230.426 64.0394C230.297 64.1619 230.156 64.4082 230.047 64.3944C229.937 64.3805 229.664 64.2104 229.331 64.0181Z" fill="#8650EF"/>
<path d="M192.657 48.0363C192.876 48.204 193.063 48.4085 193.212 48.6407C193.269 48.7275 193.051 48.9388 192.957 49.0922C192.744 48.9952 192.55 48.859 192.387 48.6906C192.341 48.6434 192.511 48.3939 192.657 48.0363Z" fill="#8650EF"/>
<path d="M52.1905 194.738C52.0198 194.954 51.8158 195.142 51.5861 195.294C51.4939 195.354 51.2826 195.136 51.1292 195.042C51.2288 194.83 51.3634 194.635 51.5272 194.467C51.6051 194.408 51.824 194.59 52.1905 194.738Z" fill="#8650EF"/>
<path d="M76.8398 90.2286C77.1654 90.0168 77.3261 89.7887 77.43 89.8061C77.6209 89.9263 77.7914 90.0762 77.9351 90.25C77.8097 90.3779 77.6686 90.6242 77.5592 90.6104C77.4498 90.5965 77.1734 90.421 76.8398 90.2286Z" fill="#8650EF"/>
<path d="M75.4032 99.5519C75.7343 99.3365 75.8895 99.112 75.9935 99.1293C76.1864 99.2468 76.3573 99.397 76.4986 99.5733C76.3732 99.7012 76.2375 99.9439 76.1227 99.9336C75.8646 99.8443 75.6219 99.7155 75.4032 99.5519Z" fill="#8650EF"/>
<path d="M74.0411 109.452C74.3033 109.143 74.4392 108.877 74.5252 108.89C74.7445 108.952 74.941 109.077 75.0905 109.249C75.1188 109.292 74.9422 109.662 74.8325 109.672C74.7228 109.681 74.4315 109.554 74.0411 109.452Z" fill="#8650EF"/>
<path d="M163.762 43.4095C164.08 43.6736 164.337 43.8076 164.324 43.8936C164.261 44.1131 164.138 44.3107 163.969 44.4644C163.925 44.4926 163.555 44.316 163.542 44.2009C163.529 44.0858 163.65 43.7836 163.762 43.4095Z" fill="#8650EF"/>
<path d="M63.5671 116.983C63.7377 117.198 63.8732 117.438 63.9685 117.695C63.987 117.807 63.6714 118.082 63.6249 118.058C63.425 117.952 63.2578 117.794 63.1416 117.6C63.1011 117.526 63.3226 117.32 63.5671 116.983Z" fill="#8650EF"/>
<path d="M62.1437 126.29C62.3185 126.505 62.4555 126.747 62.5487 127.008C62.5637 127.114 62.2535 127.385 62.207 127.361C62.0035 127.26 61.8337 127.103 61.7183 126.907C61.6615 126.843 61.883 126.638 62.1437 126.29Z" fill="#8650EF"/>
<path d="M233.736 214.161C232.561 189.967 262.13 163.103 267.786 146.609C272.953 131.514 266.158 108.798 255.707 93.9663C245.257 79.1346 223.873 71.5304 207.885 80.1069C200.936 83.8537 195.605 90.0867 188.711 93.9294C166.64 106.23 139.452 90.1889 114.276 92.1344C85.2431 94.3488 63.3416 120.39 52.8003 147.531C46.0977 164.79 42.5732 184.193 48.3169 201.8C54.0606 219.407 71.0727 234.173 89.5264 232.652C106.155 231.283 124.269 218.111 137.609 228.136C146.938 235.138 146.643 248.995 151.46 259.619C159.014 276.257 180.346 283.841 197.959 278.974C215.573 274.107 229.47 266.187 233.148 248.292C234.847 239.918 234.155 222.679 233.736 214.161Z" fill="#8650EF"/>
<path d="M173.234 84.623C158.263 94.1192 140.789 98.9116 123.067 98.3819C76.6857 97.1417 49.0502 130.411 44.5119 146.711C39.2559 165.648 43.7782 186.437 54.0086 203.235C64.2391 220.032 79.7288 233.146 96.6023 243.329C109.801 251.282 124.35 257.724 139.725 258.786C154.753 259.825 169.638 255.752 184.068 251.418C202.627 245.843 221.353 239.657 237.302 228.681C250.312 219.74 261.995 205.019 258.672 189.638C255.837 176.527 242.937 167.275 240.327 154.118C236.676 135.69 254.302 119.537 256.057 100.845C258.096 79.0411 241.783 61.7041 226.819 62.1291C211.219 62.5738 189.781 74.0538 173.234 84.623Z" stroke="#FFD537" stroke-width="3.14" stroke-miterlimit="10"/>
<path d="M190.223 95.4571C168.305 107.673 141.31 91.7385 116.296 93.6481C87.468 95.845 65.7231 121.699 55.2539 148.654C48.5958 165.792 45.1052 185.057 50.8019 202.532C56.4986 220.008 73.3985 234.684 91.7192 233.173" fill="#8650EF"/>
</svg>
