<svg width="321" height="322" viewBox="0 0 321 322" fill="none" xmlns="http://www.w3.org/2000/svg">
<path d="M127.131 246.442C142.492 255.805 182.685 275.224 216.306 274.022C225.602 273.695 234.537 270.194 240.781 263.855C254.401 250.029 245.196 234.141 237.626 220.37C231.622 209.431 226.592 195.67 234.013 185.732C239.427 178.476 249.525 176.091 258.22 172.537C269.442 167.979 280.008 159.893 282.438 148.7C285.495 134.645 274.523 120.556 261.085 113.237C247.647 105.918 231.963 103.455 217.142 99.1452C195.946 92.9867 176.098 82.8959 154.587 77.8336C133.076 72.7713 108.193 73.6595 91.8676 87.3152C79.0184 98.0471 73.7377 115.08 74.7281 131.273C75.7184 147.465 82.3144 162.986 90.1472 177.569C96.394 189.26 103.695 201.087 104.081 214.043C104.336 222.65 100.701 216.259 104.696 224.085C109.084 232.693 118.554 241.214 127.131 246.442Z" fill="#CDC9DD"/>
<path d="M249.85 198.578C249.543 198.607 249.245 198.7 248.974 198.849C248.704 198.999 248.468 199.203 248.28 199.448C248.093 199.693 247.957 199.974 247.883 200.274C247.809 200.574 247.798 200.886 247.849 201.19C247.873 201.496 247.958 201.794 248.099 202.066C248.24 202.339 248.434 202.58 248.67 202.776C248.905 202.972 249.178 203.119 249.472 203.207C249.765 203.296 250.074 203.325 250.379 203.292C250.684 203.259 250.979 203.165 251.247 203.016C251.515 202.867 251.75 202.666 251.939 202.424C252.128 202.182 252.266 201.905 252.346 201.609C252.426 201.313 252.445 201.004 252.403 200.7C252.387 200.389 252.306 200.084 252.167 199.805C252.027 199.526 251.831 199.279 251.591 199.08C251.351 198.881 251.073 198.733 250.773 198.647C250.474 198.56 250.159 198.537 249.85 198.578Z" fill="#14A3D1"/>
<path d="M250.468 189.701C249.872 189.795 249.333 190.108 248.956 190.578C248.579 191.049 248.391 191.643 248.429 192.245C248.441 192.548 248.519 192.844 248.656 193.115C248.792 193.386 248.986 193.624 249.222 193.813C249.459 194.003 249.733 194.14 250.027 194.214C250.321 194.289 250.628 194.3 250.926 194.246C251.233 194.231 251.533 194.152 251.808 194.014C252.082 193.877 252.325 193.683 252.52 193.446C252.716 193.209 252.86 192.934 252.943 192.638C253.026 192.342 253.046 192.032 253.002 191.728C252.876 191.151 252.555 190.635 252.093 190.267C251.632 189.898 251.058 189.698 250.468 189.701Z" fill="#14A3D1"/>
<path d="M150.811 82.803C151.107 82.7838 151.396 82.7036 151.66 82.5673C151.923 82.431 152.155 82.2416 152.342 82.0112C152.529 81.7807 152.666 81.514 152.744 81.228C152.823 80.942 152.841 80.6429 152.799 80.3493C152.763 80.0538 152.669 79.7682 152.523 79.5088C152.377 79.2494 152.181 79.0214 151.947 78.8377C151.713 78.654 151.445 78.5183 151.158 78.4382C150.871 78.3581 150.571 78.3353 150.276 78.3711C149.98 78.4069 149.695 78.5005 149.435 78.6466C149.176 78.7928 148.948 78.9886 148.764 79.2228C148.581 79.4571 148.445 79.7253 148.365 80.012C148.285 80.2987 148.262 80.5984 148.298 80.894C148.325 81.1895 148.414 81.476 148.558 81.7354C148.702 81.9947 148.899 82.2213 149.135 82.4008C149.371 82.5803 149.642 82.7087 149.931 82.778C150.22 82.8472 150.519 82.8557 150.811 82.803Z" fill="#14A3D1"/>
<path d="M193.334 98.2966C192.899 98.357 192.491 98.5445 192.162 98.8355C191.833 99.1265 191.597 99.5082 191.484 99.9326C191.37 100.357 191.385 100.806 191.525 101.222C191.666 101.638 191.926 102.004 192.273 102.273C192.62 102.542 193.039 102.703 193.477 102.735C193.915 102.767 194.353 102.67 194.736 102.454C195.119 102.239 195.43 101.915 195.63 101.524C195.829 101.133 195.909 100.691 195.859 100.255C195.777 99.6636 195.466 99.1282 194.994 98.7625C194.523 98.3968 193.927 98.2297 193.334 98.2966Z" fill="#14A3D1"/>
<path d="M176.27 88.5947C175.829 88.651 175.413 88.8369 175.077 89.129C174.741 89.4211 174.5 89.8062 174.382 90.2356C174.265 90.6651 174.278 91.1197 174.419 91.542C174.56 91.9643 174.823 92.3353 175.174 92.6082C175.526 92.8811 175.951 93.0437 176.395 93.0753C176.839 93.107 177.282 93.0063 177.669 92.7861C178.056 92.5658 178.369 92.2358 178.569 91.8378C178.768 91.4398 178.845 90.9916 178.79 90.5498C178.702 89.9625 178.391 89.4318 177.922 89.0677C177.452 88.7036 176.861 88.5342 176.27 88.5947Z" fill="#14A3D1"/>
<path d="M250.862 181.132C250.264 181.224 249.727 181.548 249.367 182.034C249.008 182.52 248.855 183.128 248.942 183.727C248.961 184.014 249.043 184.293 249.18 184.545C249.318 184.798 249.509 185.017 249.74 185.189C249.971 185.36 250.237 185.479 250.518 185.538C250.8 185.597 251.091 185.594 251.371 185.53C251.917 185.497 252.431 185.257 252.806 184.858C253.18 184.459 253.388 183.932 253.387 183.384C253.35 182.751 253.064 182.158 252.59 181.736C252.117 181.313 251.495 181.096 250.862 181.132Z" fill="#14A3D1"/>
<path d="M158.944 78.8859C158.663 78.8981 158.387 78.9715 158.137 79.101C157.887 79.2305 157.668 79.413 157.496 79.6358C157.324 79.8586 157.202 80.1163 157.14 80.3909C157.077 80.6655 157.076 80.9504 157.135 81.2257C157.298 82.6647 158.161 83.3971 159.49 83.2226C159.767 83.2084 160.039 83.1348 160.285 83.0067C160.531 82.8786 160.747 82.699 160.918 82.48C161.089 82.2611 161.211 82.008 161.275 81.7379C161.339 81.4678 161.345 81.187 161.291 80.9146C161.104 79.4498 160.291 78.7488 158.944 78.8859Z" fill="#14A3D1"/>
<path d="M132.866 68.6429C132.592 68.676 132.327 68.7652 132.088 68.9049C131.849 69.0445 131.642 69.2317 131.479 69.4548C131.315 69.6779 131.199 69.9322 131.138 70.2018C131.077 70.4715 131.072 70.7509 131.123 71.0226C131.138 71.3157 131.214 71.6025 131.346 71.8644C131.478 72.1264 131.664 72.3577 131.891 72.5434C132.118 72.7291 132.382 72.865 132.665 72.9425C132.948 73.0199 133.244 73.0371 133.534 72.9929C133.824 72.9487 134.102 72.8441 134.349 72.6859C134.596 72.5277 134.807 72.3195 134.969 72.0745C135.13 71.8296 135.239 71.5535 135.287 71.264C135.335 70.9746 135.322 70.6782 135.249 70.3942C135.216 70.119 135.127 69.8535 134.987 69.6141C134.847 69.3747 134.66 69.1664 134.437 69.0023C134.213 68.8381 133.959 68.7216 133.689 68.6597C133.418 68.5979 133.139 68.5922 132.866 68.6429Z" fill="#14A3D1"/>
<path d="M124.296 68.2193C124.023 68.2368 123.755 68.3109 123.512 68.4371C123.268 68.5632 123.053 68.7385 122.881 68.952C122.709 69.1655 122.583 69.4124 122.511 69.6771C122.439 69.9419 122.423 70.2187 122.463 70.49C122.61 71.8915 123.528 72.7158 124.805 72.5735C125.082 72.5438 125.349 72.4587 125.592 72.3234C125.835 72.1881 126.048 72.0053 126.219 71.7858C126.39 71.5664 126.514 71.3149 126.586 71.0462C126.657 70.7775 126.674 70.4972 126.635 70.222C126.477 68.8292 125.591 68.071 124.296 68.2193Z" fill="#14A3D1"/>
<path d="M245.739 156.263C245.593 154.876 244.707 154.103 243.418 154.255C243.145 154.272 242.878 154.345 242.635 154.471C242.391 154.597 242.177 154.771 242.005 154.984C241.833 155.197 241.707 155.444 241.635 155.708C241.563 155.972 241.547 156.249 241.588 156.52C241.723 157.93 242.65 158.751 243.916 158.618C244.19 158.584 244.456 158.496 244.696 158.359C244.937 158.222 245.148 158.039 245.318 157.82C245.487 157.601 245.612 157.351 245.684 157.084C245.757 156.817 245.775 156.538 245.739 156.263Z" fill="#14A3D1"/>
<path d="M108.878 69.2011C108.834 68.6487 108.573 68.1363 108.152 67.7766C107.73 67.4169 107.183 67.2392 106.631 67.2828C106.079 67.3264 105.566 67.5876 105.206 68.0089C104.847 68.4303 104.669 68.9773 104.713 69.5296C104.859 70.9167 105.815 71.7523 107.069 71.5842C107.347 71.554 107.617 71.4673 107.86 71.3294C108.104 71.1915 108.317 71.0053 108.487 70.7822C108.656 70.5592 108.778 70.3039 108.845 70.032C108.912 69.7601 108.924 69.4774 108.878 69.2011Z" fill="#14A3D1"/>
<path d="M167.782 79.3046C167.506 79.3293 167.238 79.4108 166.995 79.5438C166.752 79.6768 166.539 79.8585 166.37 80.0776C166.2 80.2967 166.078 80.5484 166.01 80.817C165.942 81.0856 165.93 81.3653 165.975 81.6386C165.983 81.9323 166.052 82.2211 166.178 82.4864C166.304 82.7517 166.485 82.9875 166.708 83.1786C166.931 83.3698 167.191 83.5119 167.473 83.5958C167.754 83.6797 168.05 83.7036 168.342 83.6659C168.633 83.6281 168.913 83.5296 169.164 83.3767C169.415 83.2238 169.631 83.0199 169.798 82.7782C169.965 82.5366 170.079 82.2625 170.133 81.9738C170.188 81.6852 170.181 81.3883 170.113 81.1025C170.087 80.8276 170.005 80.561 169.872 80.3192C169.738 80.0774 169.557 79.8657 169.338 79.6971C169.12 79.5285 168.869 79.4066 168.601 79.3391C168.333 79.2716 168.054 79.2598 167.782 79.3046Z" fill="#14A3D1"/>
<path d="M184.997 89.1815C184.722 89.1933 184.454 89.262 184.207 89.3831C183.961 89.5043 183.743 89.6752 183.566 89.8852C183.389 90.0952 183.258 90.3396 183.181 90.603C183.104 90.8663 183.082 91.1428 183.117 91.415C183.249 92.8455 184.118 93.6385 185.431 93.542C185.706 93.5119 185.973 93.4276 186.215 93.2942C186.458 93.1607 186.672 92.9806 186.845 92.7643C187.018 92.5479 187.146 92.2995 187.223 92.0334C187.3 91.7672 187.323 91.4886 187.292 91.2134C187.132 89.8408 186.26 89.0392 184.997 89.1815Z" fill="#14A3D1"/>
<path d="M117.744 69.6483C117.607 68.2582 116.724 67.4798 115.443 67.6135C115.169 67.6251 114.9 67.6938 114.654 67.8151C114.408 67.9365 114.189 68.1079 114.013 68.3183C113.837 68.5288 113.706 68.7737 113.63 69.0374C113.554 69.3011 113.533 69.5778 113.57 69.8499C113.702 71.2804 114.565 72.0705 115.877 71.9741C116.153 71.9455 116.421 71.8624 116.664 71.7297C116.908 71.5969 117.123 71.4172 117.296 71.2009C117.47 70.9846 117.599 70.736 117.676 70.4695C117.753 70.203 117.776 69.9238 117.744 69.6483Z" fill="#14A3D1"/>
<path d="M218.917 117.577C218.634 117.58 218.354 117.644 218.098 117.765C217.841 117.885 217.614 118.059 217.43 118.275C217.247 118.491 217.111 118.743 217.034 119.016C216.956 119.288 216.938 119.574 216.98 119.854C217.118 121.259 218.045 122.08 219.322 121.938C219.598 121.908 219.866 121.822 220.108 121.686C220.35 121.55 220.563 121.367 220.733 121.147C220.903 120.928 221.028 120.676 221.098 120.407C221.169 120.139 221.185 119.859 221.146 119.584C221.006 118.243 220.143 117.467 218.917 117.577Z" fill="#14A3D1"/>
<path d="M210.558 108.286C210.147 108.333 209.758 108.5 209.441 108.766C209.124 109.033 208.892 109.386 208.774 109.783C208.657 110.18 208.659 110.603 208.78 110.999C208.901 111.395 209.135 111.747 209.455 112.011C209.774 112.274 210.164 112.438 210.576 112.481C210.988 112.525 211.403 112.446 211.771 112.255C212.138 112.064 212.441 111.769 212.642 111.408C212.844 111.046 212.934 110.632 212.902 110.22C212.886 109.934 212.812 109.656 212.683 109.401C212.554 109.146 212.374 108.921 212.154 108.739C211.934 108.557 211.678 108.423 211.403 108.345C211.129 108.267 210.841 108.247 210.558 108.286Z" fill="#14A3D1"/>
<path d="M261.066 201.328C261.044 201.049 260.967 200.778 260.84 200.53C260.713 200.282 260.538 200.061 260.325 199.88C260.113 199.7 259.866 199.563 259.601 199.478C259.335 199.393 259.055 199.362 258.777 199.385C258.213 199.453 257.7 199.741 257.347 200.185C256.994 200.63 256.831 201.196 256.893 201.76C257.046 202.913 258.234 203.964 259.262 203.685C260.291 203.406 261.418 202.485 261.066 201.328Z" fill="#14A3D1"/>
<path d="M235.556 136.114C234.998 136.198 234.494 136.497 234.151 136.946C233.809 137.395 233.655 137.959 233.721 138.52C233.742 138.8 233.82 139.073 233.949 139.322C234.078 139.572 234.256 139.792 234.472 139.971C234.689 140.15 234.939 140.283 235.209 140.363C235.478 140.442 235.76 140.467 236.039 140.434C236.318 140.402 236.588 140.314 236.831 140.175C237.075 140.036 237.289 139.849 237.459 139.626C237.629 139.402 237.752 139.147 237.821 138.875C237.889 138.602 237.903 138.319 237.859 138.042C237.835 137.764 237.756 137.494 237.627 137.246C237.497 136.999 237.321 136.78 237.107 136.601C236.893 136.422 236.646 136.286 236.38 136.203C236.114 136.119 235.834 136.089 235.556 136.114Z" fill="#14A3D1"/>
<path d="M229.607 128.652C229.557 128.236 229.385 127.845 229.112 127.527C228.839 127.21 228.478 126.981 228.075 126.869C227.672 126.757 227.244 126.768 226.847 126.9C226.45 127.031 226.101 127.278 225.844 127.609C225.588 127.939 225.435 128.339 225.406 128.756C225.377 129.174 225.473 129.591 225.681 129.954C225.89 130.316 226.201 130.609 226.577 130.795C226.952 130.98 227.374 131.05 227.789 130.995C228.063 130.963 228.329 130.878 228.57 130.742C228.81 130.607 229.022 130.425 229.191 130.206C229.361 129.988 229.485 129.738 229.556 129.471C229.627 129.204 229.644 128.925 229.607 128.652Z" fill="#14A3D1"/>
<path d="M253.597 174.208C253.481 173.702 253.183 173.257 252.759 172.957C252.335 172.658 251.816 172.525 251.3 172.584C250.784 172.643 250.309 172.89 249.964 173.278C249.619 173.666 249.429 174.167 249.431 174.686C249.431 174.983 249.495 175.277 249.617 175.548C249.739 175.818 249.917 176.06 250.139 176.258C250.361 176.455 250.622 176.603 250.905 176.693C251.188 176.782 251.487 176.811 251.782 176.777C252.077 176.743 252.361 176.647 252.617 176.496C252.872 176.345 253.093 176.141 253.264 175.899C253.436 175.656 253.554 175.38 253.611 175.089C253.669 174.797 253.664 174.497 253.597 174.208Z" fill="#14A3D1"/>
<path d="M202.218 98.839C201.673 98.9397 201.187 99.2454 200.86 99.6935C200.534 100.141 200.391 100.698 200.462 101.248C200.487 101.521 200.57 101.786 200.706 102.024C200.841 102.263 201.026 102.47 201.248 102.632C201.47 102.794 201.723 102.907 201.992 102.963C202.261 103.019 202.538 103.018 202.806 102.959C203.078 102.933 203.341 102.852 203.579 102.721C203.818 102.589 204.027 102.41 204.193 102.194C204.359 101.977 204.479 101.729 204.544 101.465C204.61 101.201 204.621 100.926 204.576 100.657C204.487 100.111 204.195 99.6191 203.757 99.2814C203.319 98.9437 202.769 98.7855 202.218 98.839Z" fill="#14A3D1"/>
<path d="M141.801 69.0374C141.255 69.1256 140.764 69.4184 140.426 69.8563C140.088 70.2941 139.93 70.8442 139.983 71.3946C140.047 71.9422 140.325 72.4423 140.756 72.7849C141.188 73.1275 141.738 73.2846 142.286 73.2215C142.833 73.1585 143.334 72.8805 143.676 72.4487C144.019 72.0169 144.176 71.4667 144.113 70.9191C144.044 70.3681 143.765 69.8649 143.335 69.5143C142.904 69.1638 142.355 68.9929 141.801 69.0374Z" fill="#14A3D1"/>
<path d="M261.419 192.329C261.312 191.801 261.017 191.33 260.589 191.003C260.161 190.677 259.628 190.517 259.091 190.554C258.564 190.663 258.095 190.96 257.771 191.389C257.447 191.819 257.289 192.351 257.328 192.888C257.348 193.162 257.427 193.43 257.559 193.672C257.691 193.913 257.873 194.124 258.094 194.29C258.314 194.456 258.567 194.573 258.836 194.633C259.104 194.693 259.383 194.696 259.653 194.639C259.93 194.627 260.201 194.554 260.446 194.426C260.692 194.297 260.907 194.117 261.075 193.896C261.244 193.676 261.362 193.421 261.421 193.151C261.48 192.88 261.48 192.599 261.419 192.329Z" fill="#14A3D1"/>
<path d="M254.151 165.623C254.16 165.339 254.109 165.056 254.002 164.792C253.895 164.528 253.734 164.29 253.529 164.092C253.324 163.895 253.08 163.742 252.813 163.645C252.546 163.547 252.261 163.506 251.977 163.525C251.693 163.544 251.416 163.622 251.164 163.754C250.912 163.887 250.691 164.07 250.514 164.293C250.337 164.517 250.209 164.774 250.138 165.05C250.067 165.325 250.054 165.613 250.101 165.893C250.11 166.166 250.179 166.433 250.305 166.676C250.431 166.918 250.609 167.129 250.827 167.293C251.045 167.457 251.297 167.571 251.565 167.625C251.833 167.679 252.109 167.672 252.373 167.605C253.553 167.458 254.28 166.635 254.151 165.623Z" fill="#14A3D1"/>
<path d="M246.288 147.482C246.277 147.199 246.21 146.921 246.092 146.664C245.973 146.407 245.805 146.175 245.597 145.983C245.389 145.791 245.145 145.641 244.879 145.543C244.613 145.446 244.33 145.401 244.047 145.413C243.498 145.491 243.001 145.78 242.662 146.22C242.323 146.659 242.169 147.213 242.232 147.764C242.245 148.027 242.314 148.284 242.435 148.518C242.555 148.752 242.725 148.958 242.931 149.121C243.138 149.284 243.377 149.402 243.632 149.465C243.888 149.528 244.154 149.536 244.413 149.488C245.681 149.305 246.429 148.572 246.288 147.482Z" fill="#14A3D1"/>
<path d="M150.658 69.6809C150.127 69.7756 149.653 70.0679 149.329 70.4988C149.006 70.9296 148.858 71.4671 148.915 72.0029C148.921 72.2758 148.988 72.5439 149.112 72.7872C149.235 73.0306 149.412 73.2431 149.629 73.4088C149.846 73.5746 150.097 73.6895 150.364 73.7449C150.632 73.8004 150.908 73.795 151.173 73.7291C152.384 73.6046 153.094 72.745 152.97 71.6636C152.926 71.0942 152.658 70.5656 152.224 70.1939C151.791 69.8221 151.227 69.6376 150.658 69.6809Z" fill="#14A3D1"/>
<path d="M176.664 79.9534C176.134 80.0461 175.659 80.3359 175.334 80.7645C175.009 81.1931 174.859 81.7288 174.912 82.2639C175.062 83.423 175.857 84.2511 177.165 84.0018C178.382 83.8801 179.114 83.0318 178.971 81.9477C178.951 81.665 178.876 81.3889 178.749 81.1354C178.622 80.8819 178.447 80.656 178.232 80.4706C178.018 80.2853 177.769 80.1441 177.5 80.0554C177.231 79.9666 176.947 79.932 176.664 79.9534Z" fill="#14A3D1"/>
<path d="M193.872 89.6256C193.47 89.6606 193.088 89.8144 192.775 90.0675C192.461 90.3205 192.23 90.6613 192.111 91.0462C191.993 91.4312 191.991 91.8428 192.107 92.2286C192.223 92.6144 192.452 92.9568 192.764 93.2121C193.075 93.4674 193.456 93.6239 193.857 93.6618C194.258 93.6996 194.662 93.617 195.016 93.4245C195.37 93.232 195.658 92.9384 195.844 92.5811C196.031 92.2239 196.106 91.8192 196.061 91.4188C195.99 90.8986 195.725 90.4245 195.319 90.0918C194.913 89.7592 194.396 89.5926 193.872 89.6256Z" fill="#14A3D1"/>
<path d="M159.546 70.2318C159.287 70.2425 159.034 70.3108 158.804 70.4317C158.575 70.5527 158.376 70.7232 158.221 70.9309C158.066 71.1386 157.96 71.3782 157.909 71.6323C157.858 71.8865 157.865 72.1487 157.929 72.3999C158.082 73.6542 158.89 74.309 160.054 74.1618C160.315 74.1384 160.568 74.0588 160.796 73.9286C161.023 73.7984 161.22 73.6206 161.373 73.4073C161.525 73.194 161.63 72.9504 161.679 72.6929C161.729 72.4355 161.722 72.1704 161.66 71.9158C161.658 71.6566 161.598 71.4011 161.485 71.1679C161.372 70.9348 161.208 70.7299 161.005 70.5684C160.803 70.4069 160.566 70.2928 160.314 70.2346C160.061 70.1763 159.799 70.1754 159.546 70.2318Z" fill="#14A3D1"/>
<path d="M229.798 120.012C229.647 118.651 228.964 118.05 227.732 118.186C227.478 118.183 227.225 118.237 226.994 118.344C226.763 118.452 226.559 118.61 226.398 118.808C226.237 119.005 226.123 119.236 226.063 119.484C226.004 119.732 226.002 119.99 226.057 120.239C226.208 121.6 226.946 122.25 228.177 122.099C228.427 122.085 228.671 122.017 228.893 121.9C229.114 121.784 229.308 121.621 229.462 121.424C229.615 121.226 229.724 120.998 229.783 120.754C229.841 120.511 229.846 120.258 229.798 120.012Z" fill="#14A3D1"/>
<path d="M261.838 183.534C261.685 182.28 260.973 181.708 259.782 181.864C258.592 182.021 257.982 182.75 258.151 184.076C258.151 184.339 258.21 184.598 258.323 184.835C258.436 185.072 258.602 185.281 258.807 185.446C259.011 185.61 259.251 185.727 259.507 185.787C259.762 185.847 260.029 185.848 260.285 185.792C261.453 185.61 262.012 184.806 261.838 183.534Z" fill="#14A3D1"/>
<path d="M219.472 108.843C219.093 108.881 218.733 109.031 218.438 109.274C218.144 109.516 217.928 109.84 217.817 110.205C217.706 110.57 217.705 110.96 217.815 111.326C217.924 111.691 218.14 112.016 218.434 112.259C218.727 112.503 219.086 112.654 219.466 112.694C219.845 112.734 220.228 112.661 220.566 112.484C220.904 112.307 221.182 112.035 221.366 111.7C221.55 111.366 221.63 110.985 221.598 110.604C221.576 110.348 221.504 110.099 221.385 109.871C221.265 109.644 221.102 109.442 220.904 109.278C220.706 109.114 220.478 108.991 220.232 108.916C219.986 108.841 219.728 108.816 219.472 108.843Z" fill="#14A3D1"/>
<path d="M252.258 154.861C252.001 154.887 251.753 154.966 251.529 155.095C251.306 155.223 251.112 155.397 250.96 155.605C250.808 155.814 250.702 156.052 250.648 156.304C250.595 156.556 250.595 156.817 250.649 157.069C250.714 157.573 250.966 158.033 251.356 158.358C251.746 158.683 252.245 158.848 252.752 158.82C253.264 158.713 253.714 158.414 254.011 157.984C254.308 157.554 254.427 157.026 254.345 156.51C254.326 156.261 254.255 156.019 254.137 155.799C254.02 155.578 253.858 155.385 253.662 155.23C253.466 155.075 253.24 154.962 252.998 154.899C252.757 154.835 252.505 154.822 252.258 154.861Z" fill="#14A3D1"/>
<path d="M213.082 101.222C213.027 100.844 212.861 100.492 212.606 100.208C212.351 99.9242 212.018 99.7221 211.649 99.627C211.279 99.5319 210.89 99.5481 210.53 99.6735C210.17 99.7989 209.854 100.028 209.624 100.332C209.393 100.636 209.258 101.001 209.234 101.382C209.21 101.763 209.3 102.142 209.491 102.472C209.682 102.802 209.966 103.068 210.308 103.237C210.65 103.407 211.035 103.471 211.413 103.422C211.671 103.397 211.922 103.319 212.148 103.193C212.375 103.066 212.573 102.894 212.73 102.688C212.886 102.481 212.999 102.244 213.059 101.992C213.12 101.739 213.128 101.477 213.082 101.222Z" fill="#14A3D1"/>
<path d="M236.131 127.411C235.748 127.456 235.387 127.615 235.094 127.867C234.802 128.12 234.591 128.454 234.49 128.827C234.389 129.199 234.402 129.594 234.527 129.959C234.652 130.325 234.883 130.645 235.191 130.878C235.499 131.111 235.87 131.246 236.256 131.267C236.641 131.287 237.024 131.192 237.356 130.993C237.687 130.794 237.951 130.501 238.114 130.151C238.277 129.801 238.332 129.41 238.271 129.028C238.241 128.779 238.162 128.539 238.037 128.322C237.913 128.104 237.746 127.915 237.546 127.763C237.346 127.612 237.118 127.503 236.875 127.443C236.632 127.382 236.379 127.371 236.131 127.411Z" fill="#14A3D1"/>
<path d="M258.505 175.077C258.547 175.446 258.698 175.794 258.938 176.078C259.177 176.362 259.496 176.568 259.852 176.672C260.209 176.775 260.588 176.771 260.943 176.659C261.297 176.548 261.61 176.334 261.844 176.045C262.077 175.756 262.219 175.405 262.254 175.035C262.288 174.665 262.212 174.294 262.035 173.967C261.859 173.64 261.59 173.373 261.262 173.198C260.934 173.024 260.562 172.95 260.192 172.987C259.695 173.049 259.242 173.302 258.927 173.692C258.612 174.082 258.461 174.578 258.505 175.077Z" fill="#14A3D1"/>
<path d="M117.96 61.0921C117.928 60.7224 117.787 60.3704 117.555 60.0806C117.324 59.7908 117.011 59.5762 116.657 59.4638C116.304 59.3515 115.925 59.3465 115.568 59.4495C115.211 59.5524 114.893 59.7587 114.654 60.0423C114.415 60.3259 114.265 60.6741 114.223 61.0428C114.181 61.4116 114.25 61.7844 114.42 62.1143C114.59 62.4442 114.854 62.7162 115.178 62.8962C115.503 63.0761 115.874 63.1558 116.244 63.1253C116.735 63.0699 117.187 62.8284 117.506 62.4503C117.826 62.0721 117.988 61.5862 117.96 61.0921Z" fill="#14A3D1"/>
<path d="M124.725 59.5664C124.229 59.6351 123.779 59.8933 123.469 60.2869C123.159 60.6805 123.014 61.1788 123.064 61.6771C123.111 62.0456 123.266 62.392 123.509 62.6727C123.752 62.9535 124.072 63.1562 124.43 63.2553C124.788 63.3544 125.168 63.3455 125.521 63.2298C125.874 63.114 126.184 62.8965 126.414 62.6046C126.644 62.3127 126.782 61.9594 126.812 61.5892C126.841 61.2189 126.761 60.8482 126.58 60.5236C126.4 60.1989 126.127 59.9349 125.797 59.7646C125.467 59.5943 125.094 59.5254 124.725 59.5664Z" fill="#14A3D1"/>
<path d="M185.549 80.4958C185.179 80.5434 184.832 80.6992 184.55 80.9438C184.269 81.1884 184.066 81.5108 183.967 81.8705C183.868 82.2301 183.878 82.611 183.995 82.965C184.112 83.3191 184.331 83.6307 184.625 83.8605C184.919 84.0903 185.274 84.2281 185.646 84.2566C186.018 84.2851 186.39 84.2029 186.715 84.0205C187.04 83.8381 187.304 83.5635 187.474 83.2314C187.644 82.8993 187.711 82.5244 187.668 82.1539C187.644 81.9035 187.569 81.6607 187.448 81.4401C187.327 81.2196 187.162 81.026 186.964 80.8709C186.766 80.7159 186.538 80.6027 186.295 80.5383C186.052 80.4738 185.798 80.4593 185.549 80.4958Z" fill="#14A3D1"/>
<path d="M202.747 90.3787C202.248 90.444 201.794 90.7008 201.481 91.0947C201.169 91.4887 201.022 91.989 201.071 92.4895C201.095 92.7344 201.167 92.9721 201.283 93.1892C201.398 93.4063 201.556 93.5985 201.746 93.7548C201.936 93.9111 202.155 94.0284 202.39 94.1001C202.625 94.1718 202.872 94.1964 203.117 94.1726C203.362 94.1488 203.6 94.077 203.817 93.9613C204.034 93.8456 204.226 93.6882 204.383 93.4982C204.539 93.3083 204.656 93.0894 204.728 92.854C204.8 92.6187 204.824 92.3715 204.8 92.1267C204.753 91.6255 204.511 91.1627 204.128 90.8363C203.745 90.51 203.249 90.3458 202.747 90.3787Z" fill="#14A3D1"/>
<path d="M168.465 70.8344C167.968 70.9058 167.517 71.1681 167.209 71.5658C166.901 71.9635 166.76 72.4654 166.816 72.9652C166.898 73.4362 167.157 73.8582 167.539 74.1451C167.921 74.4321 168.399 74.5624 168.874 74.5095C169.349 74.4566 169.786 74.2245 170.096 73.8605C170.406 73.4965 170.565 73.0279 170.542 72.5505C170.486 72.0508 170.239 71.5923 169.851 71.2721C169.463 70.9518 168.967 70.7948 168.465 70.8344Z" fill="#14A3D1"/>
<path d="M133.531 59.9478C133.035 60.0345 132.592 60.3113 132.297 60.7193C132.001 61.1273 131.876 61.6344 131.949 62.1329C132.105 63.2804 132.859 63.8231 134.073 63.6639C134.327 63.6625 134.577 63.6029 134.805 63.4898C135.032 63.3767 135.231 63.213 135.385 63.0113C135.54 62.8095 135.646 62.5751 135.696 62.326C135.746 62.0768 135.738 61.8195 135.673 61.5739C135.597 61.0781 135.33 60.6315 134.931 60.3281C134.531 60.0248 134.029 59.8884 133.531 59.9478Z" fill="#14A3D1"/>
<path d="M142.459 60.6049C141.987 60.7043 141.565 60.9679 141.269 61.3491C140.972 61.7302 140.821 62.2041 140.841 62.6864C140.849 62.913 140.903 63.1357 140.999 63.3408C141.096 63.546 141.233 63.7294 141.403 63.8798C141.572 64.0303 141.771 64.1446 141.986 64.216C142.201 64.2873 142.428 64.3142 142.654 64.2948C144.068 64.1688 144.603 63.6193 144.493 62.4368C144.649 61.284 143.212 60.5358 142.459 60.6049Z" fill="#14A3D1"/>
<path d="M251.11 148.41C251.128 148.647 251.197 148.876 251.312 149.083C251.427 149.291 251.585 149.471 251.776 149.611C251.967 149.752 252.186 149.85 252.418 149.899C252.65 149.947 252.89 149.945 253.121 149.893C254.387 149.745 254.815 149.15 254.792 147.953C254.758 146.922 253.5 146.19 252.758 146.236C252.263 146.329 251.82 146.604 251.515 147.005C251.21 147.407 251.066 147.908 251.11 148.41Z" fill="#14A3D1"/>
<path d="M258.952 166.196C258.991 166.552 259.135 166.887 259.364 167.162C259.593 167.436 259.898 167.637 260.241 167.739C260.583 167.841 260.948 167.84 261.29 167.736C261.632 167.632 261.936 167.429 262.164 167.154C262.391 166.878 262.533 166.542 262.57 166.186C262.608 165.831 262.54 165.472 262.375 165.155C262.21 164.838 261.955 164.576 261.642 164.403C261.33 164.23 260.973 164.152 260.616 164.181C260.132 164.235 259.687 164.475 259.376 164.851C259.065 165.228 258.913 165.71 258.952 166.196Z" fill="#14A3D1"/>
<path d="M246.506 138.381C246.467 138.014 246.322 137.666 246.087 137.382C245.853 137.097 245.54 136.888 245.187 136.78C244.834 136.672 244.458 136.67 244.104 136.775C243.751 136.88 243.436 137.087 243.199 137.369C242.962 137.652 242.813 137.998 242.772 138.365C242.73 138.731 242.798 139.102 242.966 139.43C243.133 139.759 243.394 140.03 243.715 140.211C244.037 140.393 244.404 140.475 244.772 140.449C245.023 140.431 245.268 140.362 245.492 140.248C245.716 140.133 245.915 139.975 246.077 139.782C246.239 139.589 246.36 139.366 246.434 139.125C246.507 138.884 246.532 138.631 246.506 138.381Z" fill="#14A3D1"/>
<path d="M234.983 120.622C235.021 120.971 235.162 121.301 235.387 121.57C235.612 121.838 235.912 122.035 236.248 122.133C236.585 122.232 236.943 122.229 237.278 122.124C237.613 122.019 237.909 121.817 238.129 121.544C238.349 121.271 238.483 120.939 238.515 120.59C238.547 120.241 238.474 119.89 238.306 119.582C238.139 119.274 237.883 119.022 237.573 118.859C237.262 118.696 236.911 118.629 236.562 118.665C236.093 118.716 235.664 118.951 235.368 119.318C235.072 119.685 234.934 120.154 234.983 120.622Z" fill="#14A3D1"/>
<path d="M266.455 193.333C266.526 193.781 266.768 194.184 267.13 194.457C267.492 194.73 267.947 194.852 268.397 194.796C268.627 194.782 268.852 194.723 269.059 194.622C269.267 194.52 269.452 194.378 269.604 194.205C269.756 194.031 269.872 193.83 269.945 193.611C270.018 193.392 270.047 193.161 270.031 192.931C269.982 192.437 269.746 191.98 269.37 191.655C268.994 191.33 268.508 191.162 268.012 191.186C267.528 191.278 267.097 191.552 266.808 191.951C266.519 192.35 266.392 192.844 266.455 193.333Z" fill="#14A3D1"/>
<path d="M196.457 82.6708C196.411 82.1752 196.173 81.7175 195.792 81.3965C195.412 81.0754 194.921 80.9166 194.424 80.9544C193.954 81.0441 193.534 81.3047 193.245 81.6858C192.956 82.0668 192.818 82.5415 192.858 83.0182C192.922 83.4836 193.168 83.9046 193.542 84.1891C193.915 84.4735 194.387 84.5982 194.852 84.5358C195.081 84.5218 195.305 84.462 195.511 84.36C195.716 84.2581 195.899 84.116 196.049 83.9421C196.198 83.7683 196.312 83.5662 196.382 83.3479C196.452 83.1295 196.478 82.8993 196.457 82.6708Z" fill="#14A3D1"/>
<path d="M177.13 71.3263C176.656 71.4034 176.228 71.6538 175.929 72.0288C175.629 72.4039 175.48 72.8768 175.509 73.3559C175.557 73.8283 175.79 74.2628 176.156 74.5652C176.522 74.8676 176.993 75.0137 177.466 74.9718C177.939 74.93 178.376 74.7035 178.684 74.3415C178.991 73.9795 179.144 73.511 179.108 73.0373C179.052 72.5564 178.818 72.1139 178.452 71.7972C178.086 71.4805 177.614 71.3125 177.13 71.3263Z" fill="#14A3D1"/>
<path d="M230.311 111.099C230.308 110.846 230.252 110.596 230.147 110.365C230.042 110.135 229.89 109.93 229.7 109.762C229.51 109.594 229.288 109.468 229.046 109.391C228.805 109.314 228.55 109.289 228.299 109.317C228.047 109.345 227.804 109.425 227.585 109.552C227.367 109.68 227.177 109.852 227.028 110.057C226.88 110.262 226.776 110.496 226.724 110.744C226.671 110.991 226.671 111.247 226.724 111.495C226.802 111.941 227.049 112.34 227.413 112.609C227.777 112.879 228.23 112.999 228.68 112.944C228.909 112.93 229.132 112.872 229.338 112.772C229.544 112.672 229.728 112.532 229.879 112.36C230.031 112.189 230.147 111.989 230.221 111.773C230.295 111.556 230.326 111.327 230.311 111.099Z" fill="#14A3D1"/>
<path d="M151.07 61.0917C150.723 61.1414 150.399 61.2925 150.138 61.5259C149.877 61.7594 149.691 62.0648 149.604 62.4037C149.516 62.7426 149.53 63.0999 149.645 63.4306C149.76 63.7613 149.97 64.0507 150.249 64.2623C150.528 64.4738 150.863 64.5982 151.213 64.6197C151.562 64.6412 151.91 64.5589 152.213 64.3831C152.516 64.2073 152.76 63.9459 152.914 63.6318C153.069 63.3177 153.127 62.9649 153.081 62.6178C153.05 62.3852 152.973 62.1612 152.855 61.9585C152.737 61.7559 152.58 61.5785 152.393 61.4367C152.206 61.2949 151.993 61.1914 151.766 61.1322C151.539 61.073 151.302 61.0592 151.07 61.0917Z" fill="#14A3D1"/>
<path d="M219.868 100.152C219.521 100.191 219.192 100.331 218.924 100.556C218.656 100.781 218.46 101.08 218.362 101.416C218.263 101.751 218.266 102.108 218.37 102.443C218.473 102.777 218.674 103.072 218.945 103.293C219.216 103.514 219.547 103.649 219.895 103.683C220.243 103.716 220.594 103.646 220.902 103.481C221.21 103.315 221.463 103.063 221.628 102.755C221.794 102.446 221.864 102.096 221.831 101.748C221.807 101.514 221.737 101.288 221.626 101.081C221.514 100.874 221.363 100.691 221.18 100.543C220.998 100.395 220.788 100.284 220.563 100.217C220.338 100.15 220.102 100.128 219.868 100.152Z" fill="#14A3D1"/>
<path d="M243.399 130.135C243.555 131.283 244.229 131.901 245.244 131.796C245.48 131.782 245.71 131.717 245.919 131.604C246.127 131.491 246.308 131.334 246.448 131.144C246.589 130.954 246.686 130.735 246.733 130.503C246.779 130.271 246.774 130.032 246.718 129.802C246.71 129.573 246.655 129.349 246.556 129.143C246.458 128.937 246.318 128.753 246.146 128.603C245.974 128.453 245.773 128.34 245.555 128.271C245.337 128.201 245.108 128.177 244.881 128.2C244.653 128.223 244.433 128.292 244.234 128.404C244.034 128.515 243.86 128.666 243.721 128.847C243.582 129.029 243.482 129.236 243.426 129.458C243.371 129.68 243.362 129.91 243.399 130.135Z" fill="#14A3D1"/>
<path d="M213.459 92.5291C213.439 92.3104 213.377 92.0977 213.275 91.9031C213.173 91.7086 213.034 91.5359 212.865 91.3952C212.697 91.2544 212.502 91.1482 212.292 91.0826C212.083 91.0171 211.862 90.9935 211.644 91.0131C211.425 91.0328 211.212 91.0953 211.018 91.1971C210.823 91.299 210.651 91.4382 210.51 91.6067C210.369 91.7753 210.263 91.9699 210.197 92.1795C210.132 92.3891 210.108 92.6096 210.128 92.8283C210.281 93.9816 210.946 94.6029 211.964 94.5058C212.2 94.4934 212.43 94.4297 212.639 94.319C212.847 94.2084 213.029 94.0535 213.171 93.8652C213.314 93.6769 213.413 93.4597 213.463 93.2289C213.513 92.9982 213.511 92.7593 213.459 92.5291Z" fill="#14A3D1"/>
<path d="M266.964 184.281C267.086 185.498 267.792 186.125 268.867 185.999C269.093 185.974 269.311 185.904 269.508 185.791C269.705 185.678 269.876 185.525 270.011 185.343C270.146 185.16 270.241 184.952 270.291 184.73C270.341 184.509 270.345 184.28 270.302 184.057C270.312 183.824 270.269 183.591 270.178 183.376C270.087 183.162 269.949 182.97 269.774 182.815C269.599 182.66 269.392 182.547 269.167 182.482C268.943 182.418 268.707 182.404 268.477 182.443C268.25 182.445 268.026 182.497 267.822 182.595C267.617 182.693 267.437 182.835 267.292 183.01C267.148 183.185 267.044 183.389 266.987 183.609C266.931 183.829 266.923 184.058 266.964 184.281Z" fill="#14A3D1"/>
<path d="M259.732 157.543C259.822 158.694 260.463 159.174 261.597 159.177C261.823 159.164 262.043 159.103 262.243 158.997C262.443 158.892 262.618 158.744 262.756 158.565C262.894 158.385 262.991 158.179 263.042 157.958C263.092 157.738 263.095 157.509 263.049 157.288C263.044 157.06 262.993 156.835 262.898 156.628C262.803 156.421 262.667 156.235 262.497 156.083C262.328 155.93 262.129 155.814 261.913 155.741C261.697 155.668 261.469 155.64 261.241 155.659C261.014 155.677 260.793 155.742 260.592 155.849C260.391 155.957 260.214 156.104 260.072 156.282C259.93 156.46 259.825 156.665 259.766 156.885C259.706 157.105 259.691 157.335 259.724 157.561L259.732 157.543Z" fill="#14A3D1"/>
<path d="M159.971 61.5847C159.751 61.6062 159.537 61.6725 159.343 61.7795C159.149 61.8865 158.979 62.0319 158.844 62.207C158.708 62.382 158.609 62.583 158.554 62.7975C158.499 63.0119 158.488 63.2355 158.522 63.4543C158.526 63.6892 158.579 63.9207 158.678 64.1338C158.777 64.3469 158.919 64.5369 159.096 64.6915C159.273 64.846 159.48 64.9617 159.705 65.0311C159.929 65.1004 160.166 65.1218 160.399 65.0939C160.623 65.0707 160.839 65.0021 161.035 64.8923C161.232 64.7824 161.403 64.6337 161.54 64.4551C161.677 64.2766 161.776 64.072 161.831 63.8539C161.886 63.6358 161.895 63.4088 161.859 63.1868C161.859 62.9513 161.807 62.7188 161.708 62.5052C161.609 62.2916 161.465 62.1021 161.285 61.9498C161.106 61.7974 160.895 61.6859 160.668 61.6229C160.442 61.5598 160.204 61.5468 159.971 61.5847Z" fill="#14A3D1"/>
<path d="M186.009 71.8513C185.786 71.873 185.569 71.9398 185.372 72.0477C185.176 72.1557 185.003 72.3024 184.864 72.4791C184.726 72.6558 184.625 72.8588 184.567 73.0758C184.509 73.2927 184.496 73.5191 184.529 73.7413C184.565 74.1991 184.778 74.6248 185.123 74.9282C185.468 75.2316 185.918 75.3888 186.376 75.3667C186.81 75.2914 187.2 75.0596 187.473 74.7155C187.747 74.3713 187.885 73.9387 187.86 73.4998C187.858 73.2663 187.808 73.0357 187.711 72.823C187.615 72.6103 187.475 72.4202 187.301 72.2649C187.126 72.1096 186.921 71.9925 186.699 71.9213C186.476 71.85 186.242 71.8262 186.009 71.8513Z" fill="#14A3D1"/>
<path d="M251.87 139.417C251.907 139.875 252.12 140.301 252.465 140.604C252.81 140.907 253.259 141.065 253.718 141.043C254.148 140.961 254.534 140.727 254.806 140.383C255.077 140.04 255.216 139.61 255.196 139.173C255.195 138.944 255.147 138.717 255.055 138.507C254.963 138.297 254.828 138.109 254.66 137.953C254.492 137.797 254.293 137.678 254.077 137.602C253.861 137.526 253.631 137.496 253.402 137.513C253.174 137.529 252.951 137.593 252.748 137.7C252.545 137.806 252.366 137.953 252.222 138.132C252.079 138.311 251.973 138.517 251.913 138.738C251.852 138.959 251.838 139.19 251.87 139.417Z" fill="#14A3D1"/>
<path d="M170.712 63.6483C170.661 63.2108 170.439 62.8113 170.094 62.5376C169.749 62.2639 169.31 62.1384 168.872 62.1887C168.435 62.2391 168.035 62.4612 167.762 62.8061C167.488 63.1511 167.362 63.5906 167.413 64.0281C167.421 64.2515 167.477 64.4706 167.578 64.6701C167.679 64.8696 167.822 65.0447 167.997 65.1834C168.173 65.3221 168.376 65.421 168.594 65.4733C168.811 65.5256 169.037 65.53 169.256 65.4861C169.48 65.4799 169.699 65.4248 169.899 65.3247C170.099 65.2246 170.274 65.0819 170.413 64.9067C170.552 64.7315 170.65 64.5281 170.702 64.3106C170.753 64.0932 170.757 63.8671 170.712 63.6483Z" fill="#14A3D1"/>
<path d="M267.621 175.704C267.634 175.928 267.697 176.145 267.804 176.342C267.91 176.539 268.059 176.71 268.238 176.843C268.418 176.976 268.625 177.069 268.844 177.114C269.063 177.159 269.289 177.156 269.507 177.104C269.722 177.093 269.932 177.036 270.123 176.938C270.314 176.839 270.481 176.7 270.614 176.532C270.747 176.363 270.843 176.168 270.895 175.959C270.946 175.75 270.953 175.533 270.914 175.322C270.895 175.1 270.833 174.884 270.729 174.687C270.626 174.491 270.484 174.316 270.312 174.176C270.14 174.035 269.941 173.93 269.728 173.867C269.514 173.805 269.29 173.786 269.069 173.811C268.849 173.837 268.635 173.907 268.442 174.017C268.248 174.126 268.079 174.274 267.944 174.451C267.809 174.627 267.71 174.829 267.655 175.045C267.599 175.26 267.588 175.484 267.621 175.704Z" fill="#14A3D1"/>
<path d="M227.328 102.72C227.37 103.037 227.504 103.335 227.715 103.575C227.926 103.816 228.203 103.988 228.512 104.071C228.821 104.153 229.148 104.142 229.451 104.038C229.753 103.935 230.018 103.744 230.212 103.489C230.406 103.235 230.519 102.928 230.539 102.609C230.558 102.29 230.482 101.972 230.32 101.696C230.159 101.42 229.918 101.199 229.631 101.059C229.343 100.92 229.02 100.87 228.703 100.914C228.289 100.988 227.919 101.215 227.664 101.549C227.41 101.884 227.29 102.301 227.328 102.72Z" fill="#14A3D1"/>
<path d="M201.667 83.5666C201.703 83.895 201.835 84.2054 202.048 84.4582C202.26 84.7111 202.543 84.8951 202.861 84.9867C203.178 85.0784 203.515 85.0736 203.83 84.9729C204.145 84.8723 204.422 84.6803 204.627 84.4215C204.833 84.1626 204.956 83.8486 204.982 83.5194C205.009 83.1901 204.936 82.8605 204.775 82.5724C204.613 82.2844 204.369 82.0509 204.075 81.9017C203.78 81.7525 203.448 81.6943 203.12 81.7346C202.687 81.791 202.293 82.0139 202.022 82.356C201.751 82.6981 201.624 83.1323 201.667 83.5666Z" fill="#14A3D1"/>
<path d="M125.076 50.9546C124.66 51.059 124.295 51.3064 124.043 51.6534C123.791 52.0004 123.669 52.4248 123.699 52.8524C123.721 53.0608 123.785 53.2624 123.888 53.445C123.991 53.6275 124.13 53.7872 124.296 53.914C124.463 54.0409 124.654 54.1324 124.857 54.1828C125.06 54.2332 125.272 54.2414 125.479 54.2071C126.499 54.0898 127.072 53.4649 126.961 52.5768C126.921 52.114 126.701 51.6852 126.349 51.3821C125.996 51.0791 125.54 50.9256 125.076 50.9546Z" fill="#14A3D1"/>
<path d="M133.999 51.5513C133.58 51.6443 133.208 51.8825 132.949 52.2236C132.689 52.5648 132.559 52.9868 132.581 53.4148C132.601 53.6314 132.665 53.8414 132.771 54.0312C132.877 54.221 133.022 54.3864 133.196 54.5166C133.37 54.6468 133.57 54.7388 133.782 54.7868C133.994 54.8348 134.214 54.8375 134.427 54.795C134.628 54.7959 134.827 54.7542 135.01 54.6726C135.194 54.5911 135.358 54.4715 135.492 54.3219C135.625 54.1722 135.726 53.9958 135.787 53.8044C135.847 53.613 135.867 53.4109 135.844 53.2114C135.814 52.7484 135.604 52.3154 135.26 52.0051C134.915 51.6948 134.462 51.5319 133.999 51.5513Z" fill="#14A3D1"/>
<path d="M235.583 112.075C235.604 112.283 235.667 112.485 235.769 112.667C235.87 112.85 236.009 113.01 236.175 113.137C236.34 113.265 236.531 113.356 236.734 113.407C236.936 113.458 237.148 113.467 237.354 113.433C238.383 113.312 238.953 112.693 238.866 111.817C238.829 111.354 238.612 110.924 238.263 110.618C237.913 110.312 237.458 110.155 236.995 110.18C236.573 110.277 236.2 110.521 235.941 110.868C235.683 111.215 235.556 111.643 235.583 112.075Z" fill="#14A3D1"/>
<path d="M218.891 93.3542C219.067 94.1956 219.424 94.8452 220.679 94.6626C220.872 94.6628 221.063 94.6243 221.241 94.5493C221.419 94.4744 221.58 94.3646 221.715 94.2264C221.849 94.0882 221.955 93.9244 222.026 93.7446C222.096 93.5649 222.13 93.3728 222.125 93.1798C222.104 92.7136 221.9 92.2745 221.556 91.9589C221.212 91.6433 220.757 91.477 220.291 91.4965C219.861 91.5621 219.474 91.7931 219.213 92.1403C218.951 92.4874 218.836 92.923 218.891 93.3542Z" fill="#14A3D1"/>
<path d="M244.075 121.374C244.314 122.498 244.893 122.811 245.877 122.668C246.068 122.662 246.257 122.619 246.432 122.539C246.607 122.46 246.764 122.347 246.895 122.206C247.025 122.066 247.127 121.9 247.193 121.72C247.259 121.54 247.288 121.348 247.279 121.156C247.268 120.925 247.212 120.699 247.113 120.489C247.014 120.28 246.874 120.093 246.702 119.938C246.531 119.783 246.33 119.663 246.112 119.586C245.894 119.508 245.662 119.475 245.431 119.488C245.006 119.568 244.628 119.808 244.376 120.159C244.123 120.511 244.015 120.945 244.075 121.374Z" fill="#14A3D1"/>
<path d="M260.209 148.763C260.448 149.887 261.028 150.2 262.011 150.057C262.202 150.052 262.391 150.009 262.565 149.93C262.74 149.852 262.897 149.739 263.028 149.6C263.158 149.46 263.26 149.295 263.327 149.116C263.394 148.936 263.424 148.746 263.416 148.554C263.406 148.323 263.35 148.096 263.252 147.886C263.153 147.677 263.014 147.488 262.843 147.333C262.671 147.177 262.47 147.057 262.252 146.979C262.034 146.901 261.803 146.868 261.571 146.88C261.145 146.957 260.765 147.196 260.511 147.547C260.257 147.898 260.149 148.334 260.209 148.763Z" fill="#14A3D1"/>
<path d="M142.909 51.9982C142.6 52.0282 142.307 52.1489 142.067 52.3449C141.826 52.541 141.649 52.8037 141.557 53.1002C141.466 53.3966 141.464 53.7135 141.551 54.0111C141.639 54.3087 141.813 54.5736 142.051 54.7728C142.289 54.972 142.58 55.0964 142.889 55.1305C143.197 55.1645 143.509 55.1067 143.784 54.9643C144.06 54.8219 144.288 54.6013 144.438 54.33C144.589 54.0588 144.656 53.7491 144.631 53.4398C144.591 53.0215 144.388 52.6359 144.066 52.3661C143.743 52.0964 143.328 51.9642 142.909 51.9982Z" fill="#14A3D1"/>
<path d="M177.782 62.7755C176.738 62.8959 176.349 63.3953 176.476 64.4564C176.602 65.5175 177.14 66.033 178.14 65.8841C179.141 65.7351 179.517 65.2013 179.373 64.0739C179.247 63.0704 178.754 62.6701 177.782 62.7755Z" fill="#14A3D1"/>
<path d="M196.534 74.0754C196.416 72.968 195.94 72.5473 194.945 72.6558C193.95 72.7643 193.495 73.267 193.621 74.3137C193.747 75.3605 194.282 75.8961 195.26 75.7647C196.237 75.6332 196.649 75.102 196.534 74.0754Z" fill="#14A3D1"/>
<path d="M268.194 166.77C268.347 167.924 268.815 168.362 269.805 168.279C270.794 168.197 271.226 167.639 271.09 166.509C270.955 165.379 270.473 165.042 269.438 165.174C269.243 165.175 269.051 165.221 268.877 165.307C268.702 165.393 268.55 165.518 268.43 165.671C268.31 165.825 268.227 166.003 268.186 166.194C268.145 166.384 268.148 166.581 268.194 166.77Z" fill="#14A3D1"/>
<path d="M252.467 130.523C252.469 130.733 252.515 130.94 252.603 131.13C252.69 131.321 252.818 131.49 252.976 131.628C253.134 131.765 253.32 131.868 253.521 131.928C253.721 131.988 253.933 132.005 254.141 131.977C254.517 131.906 254.853 131.697 255.082 131.391C255.312 131.085 255.42 130.704 255.384 130.323C255.283 129.296 254.74 128.792 253.825 128.839C253.616 128.833 253.407 128.874 253.217 128.962C253.026 129.049 252.858 129.18 252.727 129.343C252.595 129.506 252.503 129.698 252.458 129.903C252.413 130.108 252.416 130.32 252.467 130.523Z" fill="#14A3D1"/>
<path d="M151.736 52.5118C151.53 52.5208 151.33 52.5761 151.149 52.6734C150.969 52.7708 150.812 52.9078 150.692 53.0741C150.572 53.2404 150.49 53.4319 150.454 53.634C150.419 53.8361 150.429 54.0438 150.484 54.2414C150.497 54.4418 150.55 54.6376 150.641 54.8168C150.732 54.9959 150.858 55.1548 151.012 55.2835C151.166 55.4123 151.345 55.5083 151.537 55.5656C151.73 55.623 151.932 55.6406 152.131 55.6172C152.527 55.5514 152.88 55.3316 153.114 55.0058C153.348 54.6801 153.443 54.275 153.379 53.8791C153.386 53.673 153.345 53.4681 153.261 53.2801C153.176 53.092 153.05 52.9257 152.891 52.7939C152.733 52.662 152.546 52.5681 152.346 52.5192C152.146 52.4704 151.937 52.4678 151.736 52.5118Z" fill="#14A3D1"/>
<path d="M210.751 84.0841C210.771 84.2821 210.829 84.4742 210.924 84.6493C211.018 84.8244 211.146 84.9791 211.301 85.1043C211.455 85.2296 211.633 85.323 211.824 85.3791C212.015 85.4352 212.215 85.4528 212.412 85.431C212.806 85.3575 213.155 85.1325 213.385 84.8042C213.614 84.476 213.706 84.0708 213.64 83.6757C213.644 83.4701 213.601 83.2664 213.514 83.0801C213.427 82.8938 213.299 82.7298 213.139 82.6007C212.979 82.4715 212.791 82.3807 212.591 82.3351C212.39 82.2895 212.182 82.2903 211.982 82.3375C211.051 82.4628 210.62 83.0779 210.751 84.0841Z" fill="#14A3D1"/>
<path d="M162.063 54.6392C162.048 54.2411 161.883 53.8634 161.601 53.5822C161.319 53.301 160.941 53.1372 160.542 53.1239C160.144 53.1626 159.777 53.3539 159.516 53.6577C159.256 53.9614 159.123 54.3541 159.146 54.7535C159.182 55.1616 159.37 55.5414 159.673 55.8168C159.976 56.0923 160.373 56.2431 160.782 56.2391C161.145 56.1555 161.468 55.9521 161.701 55.6618C161.933 55.3714 162.061 55.0111 162.063 54.6392Z" fill="#14A3D1"/>
<path d="M268.795 157.943C268.842 158.332 269.028 158.692 269.318 158.956C269.608 159.22 269.984 159.37 270.376 159.38C270.756 159.302 271.096 159.094 271.339 158.792C271.581 158.49 271.711 158.112 271.706 157.725C271.679 157.326 271.5 156.953 271.207 156.682C270.913 156.411 270.527 156.263 270.127 156.268C269.731 156.319 269.37 156.522 269.121 156.835C268.873 157.148 268.756 157.545 268.795 157.943Z" fill="#14A3D1"/>
<path d="M185.159 65.1156C185.215 65.5041 185.409 65.8593 185.706 66.1159C186.002 66.3726 186.382 66.5132 186.774 66.5119C187.155 66.4274 187.494 66.2108 187.73 65.9005C187.967 65.5902 188.086 65.2063 188.066 64.8167C188.06 64.6156 188.012 64.4179 187.927 64.2359C187.841 64.054 187.718 63.8917 187.567 63.7592C187.415 63.6267 187.238 63.5268 187.046 63.4658C186.855 63.4047 186.652 63.3839 186.452 63.4044C186.252 63.425 186.058 63.4866 185.883 63.5854C185.708 63.6842 185.554 63.818 185.433 63.9786C185.312 64.1391 185.225 64.323 185.178 64.5186C185.131 64.7142 185.124 64.9175 185.159 65.1156Z" fill="#14A3D1"/>
<path d="M202.52 74.8413C202.639 75.6831 203.178 76.0485 204.136 75.9432C205.093 75.8379 205.513 75.3469 205.382 74.3984C205.368 74.198 205.313 74.0028 205.219 73.8251C205.125 73.6474 204.996 73.4912 204.838 73.3664C204.681 73.2417 204.499 73.1511 204.305 73.1004C204.11 73.0498 203.908 73.0402 203.709 73.0723C203.511 73.1044 203.322 73.1774 203.153 73.2868C202.985 73.3962 202.841 73.5395 202.731 73.7075C202.621 73.8756 202.547 74.0647 202.514 74.2629C202.481 74.461 202.49 74.6639 202.54 74.8584L202.52 74.8413Z" fill="#14A3D1"/>
<path d="M236.389 103.226C236.508 104.068 237.044 104.439 238.002 104.334C238.959 104.228 239.391 103.743 239.26 102.795C239.241 102.599 239.182 102.408 239.087 102.236C238.992 102.063 238.862 101.912 238.706 101.792C238.55 101.671 238.372 101.583 238.181 101.534C237.99 101.485 237.791 101.476 237.597 101.507C237.402 101.537 237.216 101.607 237.049 101.713C236.883 101.818 236.739 101.956 236.628 102.119C236.517 102.281 236.44 102.465 236.402 102.658C236.365 102.852 236.367 103.051 236.409 103.243L236.389 103.226Z" fill="#14A3D1"/>
<path d="M244.647 112.31C244.677 112.593 244.79 112.861 244.973 113.079C245.155 113.297 245.399 113.455 245.672 113.534C245.945 113.612 246.236 113.607 246.506 113.52C246.777 113.432 247.015 113.265 247.19 113.041C247.365 112.817 247.469 112.546 247.489 112.262C247.509 111.978 247.443 111.695 247.301 111.449C247.158 111.203 246.945 111.005 246.69 110.88C246.434 110.756 246.147 110.711 245.865 110.751C245.505 110.815 245.182 111.009 244.957 111.297C244.732 111.585 244.622 111.946 244.647 112.31Z" fill="#14A3D1"/>
<path d="M227.938 93.9616C227.953 94.1414 228.008 94.3157 228.098 94.4721C228.188 94.6285 228.311 94.7634 228.459 94.8673C228.606 94.9712 228.775 95.0416 228.953 95.0736C229.13 95.1056 229.313 95.0984 229.487 95.0525C229.676 95.049 229.863 95.0039 230.033 94.9204C230.202 94.837 230.352 94.7171 230.47 94.5695C230.589 94.4218 230.673 94.2499 230.718 94.0659C230.762 93.8819 230.766 93.6904 230.728 93.5049C230.711 93.312 230.654 93.1247 230.561 92.9547C230.468 92.7847 230.341 92.6356 230.188 92.5167C230.035 92.3978 229.86 92.3116 229.672 92.2634C229.484 92.2153 229.289 92.2062 229.098 92.2368C228.906 92.2674 228.723 92.3369 228.56 92.4412C228.397 92.5454 228.257 92.6822 228.148 92.8428C228.04 93.0035 227.966 93.1847 227.931 93.3751C227.896 93.5656 227.9 93.7613 227.944 93.95L227.938 93.9616Z" fill="#14A3D1"/>
<path d="M260.952 139.718C260.985 140.002 261.101 140.27 261.286 140.488C261.471 140.705 261.716 140.864 261.991 140.942C262.266 141.021 262.557 141.016 262.829 140.929C263.102 140.842 263.342 140.676 263.519 140.452C263.697 140.229 263.805 139.957 263.829 139.673C263.853 139.388 263.792 139.103 263.653 138.853C263.515 138.603 263.306 138.399 263.052 138.268C262.798 138.137 262.511 138.084 262.227 138.116C261.85 138.168 261.507 138.363 261.269 138.662C261.032 138.96 260.918 139.339 260.952 139.718Z" fill="#14A3D1"/>
<path d="M169.245 53.5837C168.868 53.6598 168.535 53.8793 168.316 54.1959C168.098 54.5125 168.011 54.9015 168.074 55.2809C168.089 55.4609 168.143 55.6354 168.233 55.7923C168.322 55.9492 168.445 56.0846 168.592 56.1891C168.739 56.2935 168.908 56.3646 169.085 56.3971C169.263 56.4297 169.446 56.423 169.621 56.3775C169.81 56.3756 169.997 56.3318 170.168 56.2494C170.339 56.167 170.489 56.0479 170.609 55.9007C170.728 55.7535 170.814 55.5817 170.86 55.3976C170.905 55.2135 170.91 55.0216 170.873 54.8356C170.814 54.4579 170.612 54.1174 170.309 53.8844C170.006 53.6514 169.625 53.5438 169.245 53.5837Z" fill="#14A3D1"/>
<path d="M253.159 121.669C253.304 122.416 253.666 122.996 254.648 122.781C254.833 122.792 255.018 122.76 255.188 122.686C255.357 122.612 255.507 122.498 255.624 122.355C255.742 122.212 255.823 122.043 255.863 121.862C255.902 121.681 255.897 121.493 255.85 121.314C255.831 121.13 255.776 120.952 255.687 120.79C255.598 120.628 255.477 120.486 255.332 120.372C255.186 120.258 255.019 120.174 254.841 120.126C254.663 120.077 254.476 120.065 254.293 120.091C254.11 120.108 253.933 120.165 253.773 120.257C253.614 120.348 253.475 120.473 253.368 120.623C253.261 120.772 253.186 120.943 253.15 121.123C253.114 121.304 253.118 121.49 253.159 121.669Z" fill="#14A3D1"/>
<path d="M269.303 149.085C269.447 149.831 269.801 150.414 270.806 150.21C270.989 150.218 271.171 150.184 271.338 150.11C271.504 150.036 271.652 149.924 271.768 149.783C271.885 149.643 271.967 149.477 272.008 149.299C272.05 149.121 272.05 148.936 272.008 148.758C271.991 148.574 271.938 148.394 271.85 148.231C271.762 148.068 271.643 147.924 271.498 147.808C271.354 147.692 271.187 147.607 271.009 147.557C270.83 147.507 270.644 147.493 270.46 147.517C270.278 147.537 270.102 147.594 269.943 147.685C269.784 147.776 269.646 147.9 269.537 148.047C269.429 148.194 269.352 148.363 269.311 148.541C269.271 148.72 269.268 148.905 269.303 149.085Z" fill="#14A3D1"/>
<path d="M219.737 84.597C219.867 85.3436 220.218 85.9326 221.33 85.7453C221.507 85.7479 221.682 85.7097 221.842 85.6336C222.002 85.5575 222.142 85.4455 222.251 85.3064C222.36 85.1673 222.436 85.0049 222.472 84.8317C222.508 84.6586 222.504 84.4794 222.459 84.3082C222.445 84.1229 222.393 83.9424 222.307 83.7777C222.221 83.613 222.103 83.4675 221.959 83.3498C221.815 83.2322 221.649 83.145 221.47 83.0934C221.292 83.0419 221.105 83.027 220.92 83.0498C220.736 83.0614 220.557 83.1125 220.394 83.1994C220.231 83.2864 220.088 83.4072 219.976 83.5539C219.864 83.7005 219.785 83.8696 219.744 84.0495C219.702 84.2295 219.7 84.4162 219.737 84.597Z" fill="#14A3D1"/>
<path d="M194.221 65.4574C194.32 66.2821 194.919 66.8635 195.636 66.6763C196.353 66.4891 196.902 66.1328 196.719 65.2453C196.728 65.065 196.695 64.8851 196.624 64.7193C196.552 64.5534 196.445 64.4059 196.308 64.2877C196.172 64.1696 196.01 64.0839 195.836 64.0371C195.662 63.9904 195.479 63.9838 195.302 64.0178C195.129 64.0225 194.959 64.0662 194.805 64.1456C194.651 64.2251 194.518 64.3383 194.414 64.4767C194.31 64.6151 194.239 64.7752 194.205 64.945C194.172 65.1149 194.178 65.29 194.221 65.4574Z" fill="#14A3D1"/>
<path d="M177.07 55.5254C177.056 55.7036 177.082 55.8827 177.148 56.0493C177.213 56.2158 177.315 56.3655 177.446 56.4872C177.577 56.6089 177.733 56.6993 177.904 56.7519C178.075 56.8045 178.256 56.8178 178.433 56.7908C178.602 56.7951 178.771 56.7618 178.926 56.6933C179.081 56.6247 179.22 56.5226 179.331 56.3942C179.442 56.2659 179.523 56.1145 179.569 55.951C179.614 55.7875 179.623 55.616 179.594 55.4487C179.606 55.269 179.578 55.089 179.514 54.9211C179.449 54.7531 179.349 54.6011 179.22 54.4756C179.091 54.3501 178.936 54.2541 178.766 54.1942C178.597 54.1342 178.416 54.1118 178.237 54.1284C178.064 54.1319 177.894 54.1723 177.739 54.247C177.583 54.3217 177.446 54.4288 177.335 54.5612C177.225 54.6936 177.144 54.8482 177.098 55.0145C177.052 55.1808 177.042 55.355 177.07 55.5254Z" fill="#14A3D1"/>
<path d="M211.31 75.1072C211.3 75.2855 211.33 75.4637 211.399 75.6284C211.468 75.7932 211.574 75.94 211.708 76.0578C211.842 76.1756 212.001 76.2613 212.173 76.3083C212.346 76.3553 212.526 76.3624 212.702 76.3291C212.872 76.3308 213.041 76.294 213.195 76.2216C213.35 76.1491 213.486 76.0429 213.594 75.9106C213.701 75.7784 213.778 75.6237 213.817 75.4578C213.857 75.292 213.859 75.1193 213.823 74.9527C213.832 74.7725 213.801 74.5926 213.732 74.4258C213.663 74.2589 213.558 74.1094 213.425 73.9877C213.292 73.866 213.133 73.7753 212.961 73.7219C212.789 73.6685 212.607 73.6538 212.428 73.6788C212.256 73.6875 212.088 73.733 211.936 73.8122C211.783 73.8914 211.649 74.0025 211.543 74.1379C211.437 74.2734 211.361 74.43 211.321 74.5973C211.281 74.7645 211.277 74.9384 211.31 75.1072Z" fill="#14A3D1"/>
<path d="M261.509 130.877C261.591 131.171 261.774 131.427 262.026 131.599C262.279 131.771 262.584 131.847 262.888 131.815C263.192 131.783 263.474 131.644 263.685 131.424C263.897 131.203 264.022 130.914 264.041 130.61C263.971 129.785 263.443 129.425 262.572 129.429C262.405 129.45 262.244 129.505 262.1 129.59C261.955 129.675 261.829 129.789 261.73 129.925C261.63 130.06 261.559 130.214 261.521 130.378C261.483 130.542 261.479 130.711 261.509 130.877Z" fill="#14A3D1"/>
<path d="M245.237 103.506C245.277 103.826 245.443 104.117 245.698 104.315C245.952 104.513 246.275 104.601 246.595 104.561C246.915 104.52 247.206 104.355 247.404 104.1C247.602 103.845 247.69 103.522 247.65 103.202C247.638 103.038 247.592 102.879 247.516 102.733C247.44 102.587 247.335 102.459 247.208 102.355C247.08 102.252 246.933 102.175 246.775 102.13C246.617 102.086 246.451 102.074 246.288 102.095C246.125 102.116 245.968 102.169 245.826 102.252C245.684 102.334 245.56 102.445 245.462 102.577C245.364 102.708 245.293 102.859 245.254 103.018C245.216 103.178 245.21 103.344 245.237 103.506Z" fill="#14A3D1"/>
<path d="M236.967 94.2082C236.972 94.3662 237.011 94.5214 237.081 94.6632C237.151 94.8049 237.251 94.9301 237.373 95.0303C237.495 95.1305 237.638 95.2034 237.791 95.2441C237.943 95.2848 238.103 95.2924 238.259 95.2663C238.423 95.2788 238.588 95.2533 238.741 95.1918C238.893 95.1302 239.03 95.0343 239.14 94.9115C239.249 94.7887 239.329 94.6423 239.373 94.4836C239.417 94.3249 239.423 94.1583 239.392 93.9966C239.391 93.8306 239.353 93.667 239.283 93.5167C239.212 93.3665 239.111 93.233 238.984 93.1254C238.858 93.0178 238.71 92.9385 238.55 92.8928C238.391 92.8472 238.223 92.8363 238.059 92.8608C237.898 92.8741 237.741 92.92 237.597 92.9956C237.454 93.0713 237.327 93.1752 237.225 93.3012C237.123 93.4271 237.048 93.5723 237.003 93.7282C236.959 93.8841 236.946 94.0474 236.967 94.2082Z" fill="#14A3D1"/>
<path d="M203.131 65.9043C203.146 66.0682 203.197 66.2267 203.282 66.3679C203.366 66.5091 203.481 66.6293 203.619 66.7196C203.757 66.8099 203.913 66.868 204.076 66.8893C204.239 66.9107 204.405 66.8949 204.561 66.843C204.721 66.8252 204.875 66.7734 205.013 66.6912C205.151 66.6091 205.27 66.4984 205.362 66.3666C205.454 66.2347 205.516 66.0848 205.546 65.9268C205.575 65.7689 205.57 65.6064 205.532 65.4504C205.505 65.293 205.447 65.1425 205.362 65.0074C205.277 64.8724 205.166 64.7554 205.035 64.6634C204.905 64.5713 204.758 64.5059 204.602 64.4709C204.446 64.436 204.285 64.4321 204.128 64.4595C203.963 64.4789 203.804 64.5332 203.661 64.6189C203.519 64.7046 203.397 64.8197 203.302 64.9564C203.208 65.0931 203.144 65.2484 203.115 65.4118C203.085 65.5753 203.091 65.7432 203.131 65.9043Z" fill="#14A3D1"/>
<path d="M228.713 84.9682C228.725 85.1353 228.774 85.2977 228.856 85.4435C228.939 85.5893 229.053 85.7149 229.19 85.8111C229.328 85.9074 229.485 85.9718 229.65 85.9999C229.815 86.028 229.985 86.0189 230.146 85.9733C230.301 85.9677 230.453 85.9278 230.591 85.8564C230.729 85.785 230.85 85.6839 230.944 85.5604C231.038 85.4369 231.104 85.294 231.136 85.142C231.169 84.9901 231.167 84.8329 231.132 84.6816C231.124 84.5153 231.082 84.3524 231.006 84.204C230.931 84.0555 230.824 83.9249 230.694 83.821C230.564 83.717 230.413 83.642 230.252 83.6011C230.091 83.5602 229.922 83.5542 229.758 83.5837C229.598 83.605 229.444 83.6578 229.305 83.7392C229.165 83.8205 229.044 83.9287 228.946 84.0575C228.849 84.1862 228.778 84.3331 228.738 84.4894C228.698 84.6457 228.689 84.8085 228.713 84.9682Z" fill="#14A3D1"/>
<path d="M269.816 140.186C269.83 140.353 269.881 140.515 269.965 140.66C270.05 140.805 270.165 140.93 270.303 141.025C270.441 141.121 270.599 141.184 270.764 141.211C270.93 141.238 271.1 141.228 271.261 141.182C271.417 141.176 271.569 141.135 271.707 141.063C271.846 140.992 271.966 140.89 272.061 140.766C272.155 140.642 272.221 140.499 272.254 140.346C272.287 140.194 272.285 140.036 272.25 139.885C272.243 139.718 272.2 139.555 272.124 139.406C272.049 139.258 271.942 139.127 271.811 139.024C271.681 138.92 271.53 138.846 271.368 138.806C271.206 138.766 271.037 138.761 270.874 138.792C270.711 138.81 270.554 138.861 270.412 138.942C270.269 139.023 270.145 139.132 270.046 139.262C269.947 139.392 269.876 139.542 269.836 139.7C269.797 139.859 269.79 140.024 269.816 140.186Z" fill="#14A3D1"/>
<path d="M186.007 56.1653C186.008 56.3209 186.044 56.4743 186.111 56.6146C186.179 56.7549 186.276 56.8786 186.397 56.9769C186.517 57.0752 186.658 57.1457 186.809 57.1834C186.96 57.221 187.118 57.2249 187.27 57.1948C187.438 57.2011 187.605 57.17 187.759 57.1037C187.913 57.0374 188.051 56.9376 188.161 56.8116C188.272 56.6856 188.353 56.5364 188.399 56.3751C188.445 56.2137 188.454 56.0441 188.426 55.8787C188.413 55.7173 188.367 55.5602 188.292 55.4168C188.216 55.2735 188.113 55.1468 187.987 55.0443C187.862 54.9418 187.717 54.8657 187.561 54.8204C187.406 54.775 187.243 54.7615 187.082 54.7806C186.916 54.7898 186.754 54.8346 186.607 54.9118C186.46 54.989 186.331 55.0969 186.229 55.2281C186.127 55.3594 186.055 55.5109 186.016 55.6726C185.978 55.8343 185.975 56.0023 186.007 56.1653Z" fill="#14A3D1"/>
<path d="M253.723 112.845C253.736 113.009 253.787 113.167 253.871 113.309C253.955 113.45 254.071 113.57 254.208 113.66C254.346 113.749 254.502 113.807 254.666 113.827C254.829 113.847 254.994 113.829 255.15 113.775C255.306 113.76 255.458 113.712 255.594 113.634C255.731 113.556 255.849 113.449 255.942 113.322C256.034 113.195 256.098 113.049 256.13 112.895C256.162 112.741 256.161 112.582 256.127 112.429C256.105 112.267 256.051 112.112 255.968 111.972C255.885 111.832 255.775 111.71 255.644 111.614C255.512 111.517 255.363 111.448 255.205 111.41C255.047 111.373 254.882 111.367 254.722 111.394C254.556 111.414 254.397 111.469 254.255 111.555C254.112 111.642 253.989 111.757 253.895 111.894C253.8 112.031 253.736 112.187 253.706 112.351C253.677 112.515 253.682 112.683 253.723 112.845Z" fill="#14A3D1"/>
<path d="M277.69 158.361C277.707 158.527 277.761 158.687 277.847 158.83C277.933 158.972 278.05 159.094 278.189 159.186C278.328 159.279 278.486 159.339 278.651 159.363C278.816 159.387 278.984 159.374 279.144 159.326C279.299 159.317 279.45 159.274 279.587 159.2C279.723 159.125 279.842 159.022 279.933 158.897C280.025 158.771 280.088 158.627 280.117 158.474C280.147 158.322 280.142 158.164 280.103 158.014C280.093 157.848 280.047 157.685 279.969 157.538C279.89 157.391 279.781 157.263 279.649 157.162C279.516 157.061 279.364 156.989 279.201 156.952C279.039 156.915 278.87 156.914 278.707 156.948C278.546 156.971 278.392 157.026 278.252 157.11C278.113 157.194 277.993 157.306 277.898 157.438C277.803 157.57 277.735 157.72 277.7 157.878C277.664 158.037 277.661 158.201 277.69 158.361Z" fill="#14A3D1"/>
<path d="M262.056 122.289C262.05 122.445 262.081 122.599 262.147 122.74C262.213 122.881 262.312 123.004 262.436 123.099C262.559 123.193 262.704 123.256 262.857 123.283C263.01 123.31 263.168 123.299 263.316 123.252C263.457 123.276 263.601 123.267 263.738 123.225C263.875 123.184 264 123.112 264.104 123.014C264.209 122.916 264.289 122.796 264.339 122.662C264.389 122.528 264.408 122.385 264.394 122.243C264.41 122.069 264.389 121.893 264.333 121.728C264.276 121.563 264.184 121.411 264.064 121.284C263.944 121.157 263.798 121.057 263.636 120.991C263.474 120.925 263.3 120.895 263.125 120.902C262.958 120.907 262.794 120.95 262.645 121.026C262.496 121.103 262.366 121.211 262.264 121.344C262.162 121.476 262.09 121.63 262.054 121.793C262.018 121.957 262.019 122.126 262.056 122.289Z" fill="#14A3D1"/>
<path d="M220.397 75.6337C220.449 76.4356 220.879 76.8336 221.606 76.73C222.177 76.6506 222.697 76.3235 222.509 75.5918C222.458 74.8476 222.18 74.3879 221.361 74.4749C221.215 74.4675 221.069 74.4943 220.935 74.553C220.801 74.6118 220.683 74.7009 220.589 74.8133C220.496 74.9258 220.43 75.0584 220.396 75.2008C220.363 75.3432 220.363 75.4914 220.397 75.6337Z" fill="#14A3D1"/>
<path d="M169.043 46.3902C169.035 47.1551 169.611 47.3874 170.239 47.3077C170.391 47.3005 170.539 47.258 170.671 47.1835C170.804 47.109 170.917 47.0047 171.002 46.8787C171.087 46.7527 171.141 46.6087 171.16 46.458C171.179 46.3074 171.163 46.1543 171.113 46.011C170.981 45.3135 170.681 44.9724 169.951 45.0529C169.222 45.1334 168.902 45.5947 169.043 46.3902Z" fill="#14A3D1"/>
<path d="M195.048 56.8129C195.064 57.338 195.603 57.6457 196.24 57.5774C196.384 57.5646 196.523 57.5206 196.648 57.4486C196.773 57.3766 196.881 57.2782 196.964 57.1603C197.047 57.0424 197.103 56.9078 197.129 56.7659C197.155 56.624 197.15 56.4781 197.114 56.3385C197.122 56.1898 197.096 56.0413 197.038 55.9042C196.98 55.767 196.892 55.645 196.779 55.5475C196.667 55.45 196.533 55.3795 196.39 55.3416C196.246 55.3036 196.095 55.2991 195.949 55.3284C195.219 55.4089 194.949 55.8583 195.048 56.8129Z" fill="#14A3D1"/>
<path d="M278.482 149.656C278.484 149.805 278.517 149.951 278.579 150.086C278.641 150.22 278.731 150.341 278.842 150.438C278.954 150.536 279.085 150.61 279.226 150.654C279.368 150.698 279.517 150.711 279.664 150.694C279.812 150.677 279.954 150.629 280.081 150.553C280.209 150.477 280.319 150.375 280.405 150.254C280.49 150.133 280.549 149.995 280.578 149.85C280.607 149.704 280.605 149.554 280.573 149.41C280.581 149.262 280.554 149.114 280.495 148.978C280.437 148.842 280.347 148.721 280.234 148.625C280.121 148.529 279.988 148.461 279.844 148.425C279.7 148.39 279.55 148.388 279.405 148.42C279.257 148.424 279.111 148.461 278.979 148.529C278.847 148.597 278.732 148.695 278.643 148.814C278.554 148.933 278.494 149.071 278.466 149.216C278.438 149.362 278.443 149.513 278.482 149.656Z" fill="#14A3D1"/>
<path d="M270.611 131.518C270.609 131.663 270.639 131.806 270.698 131.937C270.758 132.069 270.845 132.186 270.954 132.28C271.064 132.374 271.192 132.443 271.331 132.482C271.47 132.521 271.616 132.529 271.758 132.506C271.911 132.497 272.059 132.455 272.193 132.382C272.326 132.309 272.442 132.207 272.532 132.083C272.621 131.96 272.682 131.818 272.71 131.668C272.738 131.518 272.732 131.364 272.693 131.217C272.691 131.068 272.656 130.921 272.59 130.787C272.525 130.653 272.43 130.535 272.313 130.442C272.197 130.349 272.061 130.283 271.915 130.249C271.77 130.215 271.619 130.213 271.473 130.245C271.327 130.258 271.185 130.304 271.058 130.379C270.931 130.454 270.823 130.556 270.74 130.678C270.658 130.799 270.604 130.938 270.581 131.083C270.559 131.229 270.569 131.377 270.611 131.518Z" fill="#14A3D1"/>
<path d="M212.171 66.3499C212.173 66.4894 212.206 66.6268 212.266 66.7523C212.327 66.8779 212.415 66.9886 212.523 67.0766C212.631 67.1647 212.758 67.2279 212.893 67.262C213.028 67.296 213.169 67.3 213.306 67.2736C213.579 67.2455 213.83 67.1102 214.003 66.8972C214.177 66.6843 214.258 66.4113 214.23 66.1382C214.202 65.8652 214.067 65.6144 213.854 65.4412C213.641 65.268 213.368 65.1864 213.095 65.2145C212.955 65.2166 212.818 65.2492 212.692 65.3101C212.567 65.3709 212.456 65.4586 212.368 65.5668C212.28 65.675 212.217 65.8012 212.183 65.9365C212.149 66.0718 212.145 66.2129 212.171 66.3499Z" fill="#14A3D1"/>
<path d="M177.717 46.8793C177.754 47.5803 178.215 47.7702 178.804 47.7716C179.409 47.666 179.866 47.4375 179.783 46.7281C179.783 46.5811 179.752 46.4356 179.691 46.3017C179.631 46.1679 179.542 46.0487 179.43 45.9525C179.319 45.8563 179.188 45.7853 179.047 45.7443C178.906 45.7034 178.758 45.6934 178.612 45.7152C178.475 45.7278 178.342 45.7687 178.221 45.8352C178.1 45.9017 177.994 45.9925 177.91 46.1018C177.826 46.2111 177.766 46.3366 177.733 46.4704C177.7 46.6042 177.694 46.7434 177.717 46.8793Z" fill="#14A3D1"/>
<path d="M246.042 94.7433C246.058 94.8697 246.102 94.9911 246.169 95.0991C246.237 95.2071 246.328 95.299 246.434 95.3685C246.541 95.438 246.662 95.4835 246.788 95.5016C246.914 95.5198 247.043 95.5102 247.165 95.4737C247.796 95.4026 248.131 95.071 248.073 94.2662C248.049 94.1332 247.999 94.0063 247.926 93.8928C247.852 93.7792 247.757 93.6813 247.646 93.6047C247.535 93.528 247.409 93.4741 247.277 93.446C247.145 93.418 247.008 93.4163 246.875 93.4412C246.73 93.4618 246.591 93.5137 246.467 93.593C246.344 93.6724 246.239 93.7775 246.16 93.9011C246.081 94.0248 246.03 94.164 246.009 94.3093C245.989 94.4547 246 94.6027 246.042 94.7433Z" fill="#14A3D1"/>
<path d="M254.33 104.222C254.347 104.344 254.389 104.461 254.454 104.566C254.519 104.67 254.606 104.759 254.708 104.828C254.81 104.896 254.926 104.942 255.047 104.963C255.169 104.984 255.293 104.978 255.412 104.947C255.553 104.95 255.693 104.921 255.821 104.861C255.949 104.802 256.061 104.714 256.15 104.605C256.239 104.495 256.302 104.367 256.334 104.23C256.367 104.092 256.367 103.95 256.336 103.812C256.318 103.67 256.272 103.534 256.2 103.411C256.127 103.288 256.03 103.182 255.915 103.098C255.8 103.014 255.668 102.955 255.529 102.924C255.39 102.893 255.246 102.891 255.106 102.919C254.966 102.946 254.833 103.002 254.716 103.083C254.598 103.163 254.498 103.267 254.423 103.388C254.347 103.509 254.298 103.645 254.277 103.786C254.256 103.927 254.264 104.071 254.301 104.208L254.33 104.222Z" fill="#14A3D1"/>
<path d="M262.827 113.438C262.918 114.086 263.355 114.25 264.036 114.153C264.159 114.152 264.28 114.122 264.389 114.066C264.498 114.01 264.593 113.929 264.666 113.83C264.738 113.731 264.786 113.616 264.806 113.494C264.827 113.373 264.818 113.249 264.781 113.131C264.777 112.993 264.742 112.857 264.68 112.733C264.618 112.609 264.529 112.499 264.421 112.413C264.312 112.326 264.186 112.264 264.052 112.231C263.917 112.197 263.777 112.193 263.64 112.219C263.503 112.237 263.371 112.285 263.253 112.358C263.135 112.431 263.035 112.529 262.958 112.644C262.881 112.76 262.829 112.89 262.807 113.027C262.784 113.164 262.791 113.304 262.827 113.438Z" fill="#14A3D1"/>
<path d="M229.353 76.175C229.448 76.8324 229.893 76.9791 230.588 76.8815C230.709 76.8782 230.828 76.8468 230.935 76.7898C231.042 76.7327 231.134 76.6516 231.204 76.5528C231.274 76.454 231.32 76.3402 231.339 76.2205C231.357 76.1008 231.348 75.9784 231.311 75.8631C231.305 75.7239 231.27 75.5875 231.208 75.4631C231.145 75.3388 231.056 75.2295 230.947 75.1426C230.838 75.0558 230.712 74.9934 230.577 74.9599C230.441 74.9263 230.301 74.9223 230.164 74.9481C230.026 74.9675 229.894 75.0159 229.777 75.0902C229.659 75.1644 229.559 75.2628 229.482 75.3788C229.405 75.4948 229.354 75.6258 229.332 75.7631C229.31 75.9004 229.317 76.0408 229.353 76.175Z" fill="#14A3D1"/>
<path d="M237.587 85.3402C237.609 85.4696 237.657 85.5934 237.727 85.7045C237.798 85.8155 237.889 85.9116 237.996 85.9873C238.104 86.063 238.225 86.1168 238.353 86.1457C238.481 86.1746 238.614 86.1779 238.743 86.1555C238.873 86.1331 238.997 86.0854 239.108 86.0152C239.219 85.945 239.315 85.8536 239.39 85.7462C239.466 85.6389 239.52 85.5176 239.549 85.3895C239.578 85.2613 239.581 85.1287 239.559 84.9993C239.536 84.8698 239.489 84.746 239.418 84.635C239.348 84.524 239.257 84.4278 239.149 84.3521C239.042 84.2764 238.921 84.2226 238.793 84.1938C238.664 84.1649 238.532 84.1616 238.402 84.184C238.273 84.2063 238.149 84.254 238.038 84.3242C237.927 84.3944 237.831 84.4859 237.755 84.5932C237.68 84.7006 237.626 84.8218 237.597 84.95C237.568 85.0781 237.565 85.2107 237.587 85.3402Z" fill="#14A3D1"/>
<path d="M278.98 140.656C278.981 140.779 279.007 140.9 279.057 141.012C279.107 141.124 279.18 141.224 279.271 141.306C279.362 141.388 279.47 141.45 279.586 141.488C279.703 141.526 279.826 141.539 279.948 141.527C280.079 141.528 280.209 141.501 280.329 141.448C280.449 141.395 280.557 141.317 280.644 141.219C280.732 141.121 280.797 141.005 280.837 140.88C280.876 140.755 280.888 140.623 280.872 140.492C280.864 140.372 280.833 140.255 280.779 140.147C280.726 140.039 280.652 139.943 280.561 139.864C280.47 139.784 280.365 139.724 280.251 139.685C280.137 139.647 280.016 139.631 279.896 139.639C279.766 139.634 279.636 139.658 279.515 139.709C279.395 139.76 279.287 139.836 279.2 139.933C279.113 140.03 279.048 140.146 279.01 140.27C278.972 140.395 278.962 140.527 278.98 140.656Z" fill="#14A3D1"/>
<path d="M203.931 57.1099C203.909 57.2345 203.919 57.3624 203.959 57.4823C203.999 57.6023 204.068 57.7105 204.159 57.7975C204.251 57.8845 204.363 57.9474 204.485 57.9808C204.607 58.0142 204.735 58.017 204.858 57.989C205.484 57.9294 205.674 57.5268 205.6 56.9155C205.527 56.3042 205.305 56.0519 204.662 56.1173C204.019 56.1828 203.776 56.5021 203.931 57.1099Z" fill="#14A3D1"/>
<path d="M186.76 47.305C186.837 47.9393 187.159 48.2197 187.785 48.1458C188.411 48.0718 188.523 47.5948 188.441 47.0297C188.358 46.4646 188.048 46.1899 187.468 46.3155C186.77 46.3323 186.698 46.7426 186.76 47.305Z" fill="#14A3D1"/>
<path d="M221.246 66.8705C221.253 66.9842 221.284 67.0952 221.335 67.1968C221.387 67.2984 221.459 67.3884 221.546 67.4613C221.634 67.5343 221.735 67.5886 221.845 67.621C221.954 67.6533 222.069 67.6631 222.182 67.6497C222.295 67.6363 222.404 67.6 222.503 67.5429C222.602 67.4859 222.688 67.4094 222.756 67.318C222.824 67.2266 222.873 67.1223 222.899 67.0115C222.926 66.9006 222.929 66.7856 222.91 66.6733C222.912 66.5527 222.888 66.433 222.84 66.3224C222.792 66.2118 222.721 66.1127 222.631 66.0318C222.542 65.951 222.436 65.8902 222.321 65.8536C222.206 65.817 222.085 65.8054 221.965 65.8196C221.845 65.8338 221.73 65.8734 221.627 65.9359C221.524 65.9983 221.435 66.0822 221.367 66.1817C221.299 66.2813 221.253 66.3942 221.232 66.513C221.211 66.6318 221.216 66.7537 221.246 66.8705Z" fill="#14A3D1"/>
<path d="M271.225 122.547C271.21 122.667 271.222 122.789 271.259 122.904C271.295 123.02 271.357 123.126 271.438 123.216C271.519 123.305 271.619 123.376 271.73 123.424C271.842 123.472 271.962 123.495 272.083 123.493C272.197 123.498 272.311 123.48 272.418 123.437C272.524 123.395 272.62 123.33 272.699 123.247C272.777 123.164 272.837 123.066 272.875 122.957C272.912 122.849 272.925 122.734 272.914 122.621C272.86 121.969 272.577 121.607 271.965 121.623C271.853 121.626 271.742 121.654 271.641 121.704C271.54 121.754 271.451 121.825 271.38 121.913C271.31 122.001 271.259 122.103 271.233 122.213C271.206 122.322 271.203 122.436 271.225 122.547Z" fill="#14A3D1"/>
<path d="M246.655 86.037C246.712 86.6254 247.078 86.64 247.543 86.6163C248.007 86.5926 248.413 86.4106 248.293 85.7765C248.29 85.6634 248.264 85.552 248.216 85.4496C248.168 85.3471 248.099 85.2558 248.014 85.1815C247.929 85.1071 247.829 85.0514 247.721 85.0179C247.613 84.9844 247.499 84.9738 247.386 84.9868C246.815 85.0517 246.602 85.4573 246.655 86.037Z" fill="#14A3D1"/>
<path d="M279.504 131.986C279.566 132.577 279.93 132.583 280.394 132.559C280.859 132.535 281.261 132.345 281.138 131.716C281.136 131.603 281.11 131.492 281.062 131.389C281.014 131.287 280.944 131.196 280.859 131.122C280.773 131.048 280.673 130.993 280.564 130.96C280.456 130.927 280.342 130.918 280.229 130.932C279.664 131 279.451 131.406 279.504 131.986Z" fill="#14A3D1"/>
<path d="M212.805 57.7908C212.806 58.2728 213.293 58.2604 213.74 58.1994C214.187 58.1383 214.529 57.9683 214.433 57.4034C214.336 56.8384 214.022 56.4829 213.451 56.5911C212.88 56.6993 212.727 57.0698 212.805 57.7908Z" fill="#14A3D1"/>
<path d="M255.114 95.2119C255.136 95.8409 255.526 95.9246 256.253 95.821C256.527 95.8045 256.845 95.5943 256.725 94.9891C256.712 94.8814 256.677 94.7774 256.623 94.6831C256.569 94.5888 256.497 94.5061 256.411 94.4396C256.326 94.3731 256.227 94.3242 256.123 94.2956C256.018 94.267 255.909 94.2594 255.801 94.2731C255.693 94.2868 255.589 94.3216 255.495 94.3754C255.401 94.4293 255.318 94.5012 255.251 94.5871C255.185 94.6729 255.136 94.7711 255.107 94.8758C255.079 94.9806 255.071 95.09 255.085 95.1977L255.114 95.2119Z" fill="#14A3D1"/>
<path d="M263.428 104.33C263.425 104.434 263.444 104.537 263.484 104.633C263.524 104.729 263.583 104.816 263.659 104.887C263.734 104.959 263.824 105.014 263.922 105.049C264.02 105.083 264.124 105.097 264.227 105.089C264.332 105.104 264.438 105.093 264.537 105.057C264.636 105.022 264.725 104.962 264.796 104.884C264.867 104.806 264.918 104.712 264.944 104.61C264.97 104.508 264.97 104.401 264.946 104.299C264.92 104.082 264.812 103.885 264.643 103.747C264.475 103.609 264.259 103.543 264.043 103.561C263.866 103.595 263.707 103.692 263.594 103.833C263.482 103.974 263.423 104.15 263.428 104.33Z" fill="#14A3D1"/>
<path d="M238.444 76.5166C238.44 76.6202 238.458 76.7234 238.497 76.8196C238.536 76.9158 238.594 77.0027 238.669 77.0746C238.744 77.1465 238.833 77.2019 238.93 77.237C239.028 77.2721 239.132 77.2862 239.235 77.2783C239.34 77.2951 239.447 77.2858 239.547 77.2513C239.647 77.2168 239.737 77.1582 239.809 77.0807C239.881 77.0031 239.933 76.909 239.961 76.8066C239.988 76.7042 239.989 76.5967 239.965 76.4936C239.936 76.2721 239.82 76.0711 239.644 75.9345C239.467 75.798 239.243 75.7369 239.022 75.7647C238.855 75.8063 238.706 75.9033 238.602 76.0399C238.497 76.1764 238.441 76.3444 238.444 76.5166Z" fill="#14A3D1"/>
<path d="M230.101 67.2687C230.165 67.7243 230.36 67.9566 230.847 67.8865C231.335 67.8165 231.39 67.4698 231.349 67.0545C231.308 66.6392 231.081 66.3696 230.479 66.4549C230.104 66.5154 230.046 66.8391 230.101 67.2687Z" fill="#14A3D1"/>
<path d="M221.848 57.9074C221.846 57.9841 221.862 58.0602 221.895 58.1297C221.928 58.1991 221.976 58.2601 222.036 58.3077C222.096 58.3554 222.167 58.3884 222.242 58.4043C222.317 58.4201 222.395 58.4184 222.469 58.3991C222.853 58.3645 223.135 58.2296 223.07 57.7597C223.095 57.6594 223.094 57.5548 223.07 57.4546C223.045 57.3545 222.997 57.2617 222.929 57.1841C222.861 57.1064 222.775 57.0462 222.679 57.0085C222.583 56.9707 222.48 56.9565 222.377 56.9671C222.274 56.9776 222.176 57.0126 222.089 57.0691C222.003 57.1256 221.932 57.202 221.881 57.2918C221.83 57.3816 221.802 57.4823 221.798 57.5853C221.794 57.6884 221.815 57.7909 221.859 57.8842L221.848 57.9074Z" fill="#14A3D1"/>
<path d="M255.717 86.3212C255.77 86.771 256.068 86.8525 256.454 86.7976C256.531 86.7965 256.607 86.7778 256.676 86.743C256.745 86.7082 256.805 86.6581 256.852 86.5966C256.899 86.535 256.931 86.4637 256.946 86.3879C256.962 86.3121 256.959 86.2338 256.94 86.159C256.957 86.0594 256.95 85.9572 256.92 85.8607C256.89 85.7641 256.838 85.676 256.768 85.6033C256.698 85.5305 256.611 85.4753 256.516 85.442C256.421 85.4087 256.319 85.3983 256.219 85.4116C256.118 85.4249 256.023 85.4615 255.939 85.5185C255.856 85.5755 255.787 85.6513 255.738 85.7398C255.689 85.8283 255.662 85.927 255.658 86.028C255.655 86.129 255.675 86.2294 255.717 86.3212Z" fill="#14A3D1"/>
<path d="M280.302 122.989C280.36 123.442 280.655 123.515 281.042 123.46C281.119 123.46 281.195 123.443 281.264 123.409C281.333 123.375 281.394 123.326 281.441 123.265C281.488 123.204 281.521 123.133 281.536 123.058C281.552 122.982 281.55 122.904 281.53 122.83C281.546 122.731 281.538 122.63 281.508 122.534C281.477 122.438 281.425 122.351 281.355 122.279C281.285 122.208 281.2 122.153 281.105 122.12C281.01 122.087 280.909 122.077 280.81 122.09C280.71 122.102 280.615 122.138 280.532 122.194C280.449 122.25 280.38 122.325 280.331 122.412C280.282 122.5 280.253 122.597 280.248 122.697C280.243 122.798 280.262 122.897 280.302 122.989Z" fill="#14A3D1"/>
<path d="M271.764 113.697C271.77 113.782 271.794 113.865 271.832 113.941C271.871 114.017 271.925 114.085 271.99 114.14C272.055 114.196 272.13 114.238 272.212 114.264C272.293 114.29 272.379 114.299 272.464 114.292C272.559 114.295 272.653 114.278 272.741 114.241C272.828 114.204 272.906 114.149 272.969 114.078C273.033 114.008 273.08 113.924 273.107 113.834C273.135 113.743 273.142 113.647 273.128 113.554C273.119 113.464 273.092 113.377 273.049 113.298C273.006 113.219 272.948 113.149 272.878 113.092C272.808 113.035 272.727 112.993 272.641 112.968C272.555 112.942 272.464 112.934 272.375 112.943C272.285 112.952 272.198 112.979 272.119 113.022C272.04 113.065 271.97 113.123 271.913 113.193C271.857 113.263 271.814 113.344 271.789 113.43C271.763 113.516 271.755 113.607 271.764 113.697Z" fill="#14A3D1"/>
<path d="M247.513 77.2712C247.524 77.528 247.838 77.4737 248.095 77.4487C248.351 77.4237 248.706 77.4181 248.663 77.0086C248.619 76.5991 248.409 76.3092 247.991 76.3701C247.573 76.4309 247.521 76.7719 247.513 77.2712Z" fill="#14A3D1"/>
<path d="M264.036 95.7366C264.094 96.1171 264.434 96.0395 264.693 95.9943C264.953 95.9491 265.273 95.9264 265.163 95.5059C265.053 95.0854 264.876 94.8904 264.521 94.9393C264.436 94.958 264.355 94.9938 264.284 95.0445C264.213 95.0953 264.153 95.1598 264.108 95.2343C264.063 95.3089 264.033 95.3918 264.021 95.4781C264.008 95.5644 264.014 95.6524 264.036 95.7366Z" fill="#14A3D1"/>
<path d="M272.494 104.868C272.446 105.333 272.786 105.27 273.026 105.251C273.265 105.232 273.73 105.28 273.605 104.773C273.593 104.614 273.522 104.465 273.406 104.354C273.29 104.244 273.137 104.181 272.977 104.178C272.831 104.222 272.704 104.315 272.617 104.44C272.529 104.565 272.486 104.716 272.494 104.868Z" fill="#14A3D1"/>
<path d="M239.052 67.8222C239.018 68.2726 239.355 68.2153 239.589 68.1933C239.822 68.1714 240.299 68.2111 240.154 67.7013C240.138 67.543 240.065 67.3959 239.949 67.2881C239.832 67.1803 239.679 67.1195 239.52 67.1173C239.374 67.1653 239.249 67.2609 239.164 67.3887C239.079 67.5165 239.04 67.6692 239.052 67.8222Z" fill="#14A3D1"/>
<path d="M93.192 238.316C111.658 236.933 130.112 241.143 146.151 250.398C188.131 274.453 230.074 257.358 242.33 244.538C256.554 229.643 262.71 208.201 261.629 187.623C260.548 167.044 252.818 147.272 242.361 129.526C234.176 115.662 223.976 102.534 210.392 93.9431C197.094 85.5492 181.395 81.9729 165.977 78.8505C146.154 74.8318 125.875 71.3014 105.767 73.5622C89.3678 75.3998 71.3222 83.2586 66.7569 99.0829C62.8582 112.596 70.1279 127.521 65.9979 140.963C60.2112 159.79 35.9942 166.001 25.1069 182.418C12.4075 201.562 18.8136 225.63 32.8092 232.648C47.3378 239.927 72.7414 239.913 93.192 238.316Z" fill="#14A3D1"/>
<path d="M212.627 117.036C186.61 111.459 161.893 79.5855 145.039 70.4245C129.607 62.0408 104.451 61.5804 87.2274 66.2987C70.0038 71.017 59.031 86.8029 66.0723 102.442C69.1424 109.253 75.0905 115.385 78.2816 122.169C88.4683 143.894 67.7079 162.268 66.4178 183.782C64.9129 208.591 89.7937 233.888 117.365 249.996C134.9 260.246 155.147 268.412 174.711 268.372C194.276 268.331 212.31 258.123 213.141 242.321C213.902 228.052 202.252 209.397 214.721 200.995C223.436 195.099 238.182 199.078 250.177 197.926C268.955 196.12 279.888 180.372 277.04 164.36C274.192 148.349 267.598 134.626 248.97 126.737C240.26 123.053 221.776 118.987 212.627 117.036Z" stroke="#FFD537" stroke-width="3.03" stroke-miterlimit="10"/>
<path d="M146.151 250.398C188.132 274.453 230.074 257.358 242.331 244.538C256.554 229.643 262.711 208.201 261.63 187.623C260.549 167.044 252.818 147.272 242.361 129.526" fill="#14A3D1"/>
</svg>
