<svg width="336" height="336" viewBox="0 0 336 336" fill="none" xmlns="http://www.w3.org/2000/svg">
<path d="M216.16 89.9821C202.811 77.9239 166.934 51.363 133.677 46.2863C124.482 44.8769 115.052 46.6543 107.737 51.7199C91.7817 62.7691 97.8684 80.093 102.743 95.0319C106.606 106.898 108.987 121.354 99.8464 129.737C93.1758 135.859 82.8104 136.322 73.6055 138.196C61.7317 140.586 49.8454 146.563 45.3747 157.109C39.7544 170.349 47.9124 186.234 59.7532 195.926C71.594 205.619 86.5459 210.958 100.306 217.951C119.985 227.947 137.608 241.556 157.801 250.534C177.994 259.512 202.607 263.27 221.189 252.892C235.811 244.739 244.17 228.987 246.211 212.893C248.252 196.799 244.66 180.322 239.678 164.536C235.717 151.887 230.744 138.907 232.777 126.106C234.128 117.601 236.51 124.558 234.041 116.125C231.332 106.85 223.614 96.7158 216.16 89.9821Z" fill="#CDC9DD"/>
<path d="M86.6763 114.168C86.9838 114.197 87.2939 114.161 87.5871 114.065C87.8804 113.968 88.1505 113.811 88.3806 113.606C88.6107 113.4 88.7959 113.148 88.9245 112.868C89.0532 112.587 89.1226 112.283 89.1283 111.974C89.162 111.669 89.1342 111.361 89.0465 111.067C88.9587 110.773 88.8129 110.5 88.6176 110.263C88.4224 110.027 88.1816 109.832 87.9096 109.69C87.6376 109.548 87.34 109.463 87.0343 109.438C86.7286 109.414 86.4211 109.451 86.13 109.548C85.8389 109.644 85.5702 109.798 85.3397 110C85.1093 110.203 84.9218 110.449 84.7884 110.725C84.655 111.002 84.5784 111.302 84.5631 111.608C84.521 111.917 84.5433 112.231 84.6287 112.531C84.714 112.831 84.8606 113.11 85.0591 113.351C85.2576 113.591 85.5038 113.788 85.7821 113.929C86.0605 114.07 86.3649 114.151 86.6763 114.168Z" fill="#F15D24"/>
<path d="M84.4174 122.775C85.0201 122.794 85.608 122.587 86.0661 122.195C86.5242 121.803 86.8194 121.254 86.894 120.655C86.938 120.355 86.9172 120.049 86.8331 119.758C86.749 119.467 86.6035 119.197 86.4063 118.966C86.2092 118.736 85.965 118.551 85.6901 118.423C85.4153 118.294 85.1162 118.227 84.813 118.224C84.5088 118.182 84.199 118.203 83.9036 118.288C83.6082 118.372 83.3336 118.517 83.0975 118.713C82.8613 118.91 82.6688 119.153 82.5322 119.429C82.3956 119.704 82.318 120.004 82.3043 120.311C82.3215 120.902 82.5406 121.468 82.9252 121.917C83.3098 122.365 83.8365 122.668 84.4174 122.775Z" fill="#F15D24"/>
<path d="M162.435 246.354C162.14 246.318 161.842 246.343 161.557 246.428C161.273 246.513 161.01 246.655 160.783 246.847C160.557 247.039 160.373 247.275 160.242 247.542C160.112 247.808 160.038 248.099 160.025 248.395C160.005 248.692 160.044 248.99 160.139 249.272C160.235 249.554 160.385 249.815 160.581 250.039C160.777 250.263 161.015 250.446 161.282 250.578C161.549 250.71 161.839 250.788 162.136 250.808C162.433 250.828 162.731 250.789 163.013 250.694C163.295 250.599 163.555 250.449 163.78 250.253C164.004 250.057 164.187 249.818 164.319 249.552C164.451 249.285 164.529 248.995 164.549 248.698C164.577 248.402 164.543 248.104 164.45 247.822C164.356 247.541 164.206 247.282 164.007 247.061C163.808 246.841 163.566 246.664 163.295 246.543C163.024 246.421 162.731 246.357 162.435 246.354Z" fill="#F15D24"/>
<path d="M123.54 223.217C123.979 223.238 124.414 223.13 124.792 222.905C125.169 222.68 125.472 222.349 125.662 221.953C125.853 221.557 125.922 221.114 125.861 220.679C125.801 220.244 125.613 219.836 125.322 219.507C125.031 219.178 124.65 218.942 124.225 218.829C123.801 218.716 123.352 218.73 122.936 218.871C122.52 219.011 122.154 219.271 121.885 219.618C121.616 219.966 121.455 220.384 121.423 220.823C121.394 221.419 121.6 222.003 121.995 222.45C122.39 222.897 122.945 223.172 123.54 223.217Z" fill="#F15D24"/>
<path d="M138.499 235.925C138.943 235.952 139.386 235.846 139.77 235.622C140.155 235.398 140.464 235.064 140.659 234.664C140.854 234.264 140.927 233.815 140.867 233.374C140.807 232.933 140.618 232.519 140.323 232.185C140.028 231.852 139.641 231.613 139.21 231.499C138.78 231.386 138.326 231.402 137.904 231.546C137.483 231.691 137.114 231.957 136.844 232.311C136.574 232.665 136.415 233.091 136.387 233.535C136.365 234.128 136.571 234.708 136.965 235.153C137.358 235.598 137.907 235.874 138.499 235.925Z" fill="#F15D24"/>
<path d="M82.4355 131.121C83.0397 131.142 83.6279 130.924 84.0717 130.513C84.5156 130.103 84.7791 129.533 84.8049 128.929C84.8392 128.643 84.8112 128.354 84.7227 128.08C84.6342 127.807 84.4874 127.555 84.2924 127.344C84.0974 127.132 83.8588 126.966 83.5931 126.856C83.3275 126.745 83.0411 126.694 82.7537 126.705C82.2108 126.636 81.6617 126.776 81.2192 127.098C80.7766 127.42 80.4742 127.9 80.3739 128.438C80.2919 129.067 80.463 129.703 80.8496 130.206C81.2361 130.709 81.8065 131.038 82.4355 131.121Z" fill="#F15D24"/>
<path d="M153.716 248.689C153.994 248.729 154.278 248.709 154.548 248.628C154.818 248.547 155.067 248.409 155.278 248.222C155.488 248.035 155.656 247.804 155.768 247.546C155.881 247.288 155.936 247.008 155.929 246.727C156.036 245.283 155.324 244.402 153.986 244.326C153.711 244.289 153.431 244.311 153.165 244.391C152.899 244.471 152.654 244.607 152.445 244.79C152.236 244.974 152.07 245.2 151.956 245.453C151.843 245.706 151.785 245.981 151.787 246.259C151.698 247.733 152.367 248.573 153.716 248.689Z" fill="#F15D24"/>
<path d="M177.431 263.607C177.707 263.625 177.984 263.587 178.244 263.494C178.505 263.402 178.743 263.256 178.945 263.067C179.147 262.879 179.308 262.65 179.419 262.397C179.529 262.143 179.586 261.87 179.586 261.593C179.627 261.303 179.605 261.007 179.524 260.725C179.443 260.443 179.304 260.181 179.115 259.956C178.926 259.731 178.693 259.549 178.429 259.42C178.165 259.291 177.878 259.219 177.584 259.209C177.291 259.198 176.999 259.249 176.727 259.359C176.454 259.468 176.208 259.633 176.004 259.844C175.799 260.054 175.641 260.306 175.54 260.581C175.439 260.856 175.397 261.15 175.416 261.443C175.397 261.719 175.435 261.997 175.528 262.258C175.62 262.519 175.766 262.759 175.955 262.961C176.143 263.164 176.372 263.326 176.626 263.437C176.88 263.548 177.154 263.606 177.431 263.607Z" fill="#F15D24"/>
<path d="M185.772 265.618C186.045 265.652 186.321 265.629 186.584 265.55C186.847 265.472 187.09 265.339 187.299 265.162C187.508 264.984 187.678 264.765 187.798 264.518C187.918 264.271 187.985 264.002 187.996 263.728C188.113 262.324 187.365 261.343 186.083 261.245C185.806 261.223 185.527 261.257 185.263 261.345C184.999 261.432 184.756 261.572 184.547 261.756C184.339 261.94 184.169 262.164 184.049 262.415C183.929 262.665 183.86 262.938 183.848 263.215C183.743 264.613 184.473 265.523 185.772 265.618Z" fill="#F15D24"/>
<path d="M82.839 156.509C82.7243 157.899 83.4511 158.823 84.7456 158.914C85.0173 158.948 85.2932 158.926 85.5556 158.847C85.8181 158.769 86.0614 158.637 86.2701 158.46C86.4789 158.283 86.6485 158.064 86.7682 157.818C86.8878 157.572 86.955 157.303 86.9653 157.029C87.0955 155.619 86.3377 154.639 85.069 154.535C84.7927 154.517 84.5156 154.554 84.2537 154.643C83.9918 154.733 83.7502 154.874 83.5429 155.057C83.3356 155.241 83.1666 155.463 83.0458 155.713C82.925 155.962 82.8547 156.232 82.839 156.509Z" fill="#F15D24"/>
<path d="M201.104 267.523C201.044 268.074 201.205 268.626 201.552 269.058C201.899 269.49 202.404 269.766 202.955 269.826C203.505 269.886 204.057 269.725 204.489 269.378C204.921 269.031 205.198 268.527 205.258 267.976C205.372 266.586 204.589 265.587 203.325 265.519C203.046 265.497 202.765 265.532 202.5 265.622C202.235 265.712 201.991 265.855 201.783 266.043C201.575 266.23 201.408 266.459 201.291 266.713C201.174 266.968 201.111 267.243 201.104 267.523Z" fill="#F15D24"/>
<path d="M145.11 246.633C145.386 246.66 145.664 246.63 145.928 246.544C146.191 246.459 146.434 246.32 146.641 246.136C146.849 245.952 147.016 245.728 147.133 245.477C147.249 245.225 147.313 244.953 147.319 244.676C147.367 244.386 147.353 244.089 147.278 243.805C147.204 243.521 147.07 243.256 146.887 243.026C146.703 242.797 146.473 242.609 146.212 242.474C145.951 242.339 145.665 242.261 145.372 242.243C145.079 242.226 144.785 242.271 144.51 242.375C144.235 242.478 143.985 242.638 143.776 242.845C143.567 243.051 143.404 243.299 143.297 243.572C143.189 243.846 143.141 244.139 143.154 244.432C143.129 244.707 143.16 244.984 143.246 245.247C143.332 245.509 143.471 245.751 143.654 245.957C143.837 246.164 144.061 246.33 144.312 246.446C144.562 246.563 144.834 246.626 145.11 246.633Z" fill="#F15D24"/>
<path d="M130.035 233.724C130.306 233.764 130.583 233.746 130.847 233.673C131.112 233.6 131.358 233.472 131.571 233.299C131.784 233.126 131.958 232.91 132.083 232.665C132.208 232.421 132.281 232.153 132.297 231.879C132.433 230.449 131.727 229.509 130.42 229.359C130.144 229.337 129.866 229.371 129.603 229.457C129.339 229.542 129.096 229.68 128.885 229.86C128.675 230.04 128.503 230.26 128.378 230.508C128.253 230.755 128.178 231.024 128.158 231.301C128.06 232.679 128.767 233.629 130.035 233.724Z" fill="#F15D24"/>
<path d="M192.475 265.434C192.352 266.825 193.075 267.754 194.358 267.861C194.629 267.901 194.906 267.883 195.171 267.81C195.435 267.737 195.682 267.609 195.894 267.435C196.106 267.261 196.28 267.045 196.404 266.8C196.528 266.555 196.6 266.287 196.615 266.013C196.751 264.583 196.05 263.646 194.743 263.496C194.466 263.473 194.188 263.505 193.924 263.59C193.66 263.675 193.416 263.811 193.205 263.992C192.994 264.172 192.821 264.392 192.696 264.64C192.57 264.887 192.496 265.157 192.475 265.434Z" fill="#F15D24"/>
<path d="M101.992 199.511C102.271 199.561 102.558 199.55 102.832 199.479C103.107 199.409 103.363 199.28 103.583 199.102C103.804 198.925 103.984 198.701 104.11 198.448C104.237 198.195 104.309 197.917 104.319 197.634C104.445 196.228 103.688 195.249 102.406 195.151C102.129 195.13 101.85 195.164 101.587 195.252C101.324 195.341 101.081 195.481 100.873 195.665C100.664 195.849 100.496 196.073 100.376 196.324C100.256 196.575 100.188 196.847 100.176 197.125C100.064 198.468 100.767 199.391 101.992 199.511Z" fill="#F15D24"/>
<path d="M108.476 210.196C108.889 210.226 109.302 210.134 109.663 209.932C110.024 209.729 110.317 209.425 110.507 209.057C110.696 208.688 110.773 208.272 110.728 207.861C110.683 207.449 110.518 207.06 110.253 206.742C109.988 206.423 109.635 206.19 109.239 206.07C108.842 205.951 108.42 205.951 108.023 206.07C107.626 206.189 107.274 206.423 107.009 206.741C106.744 207.059 106.578 207.448 106.533 207.86C106.495 208.143 106.516 208.431 106.595 208.705C106.675 208.979 106.81 209.234 106.992 209.454C107.175 209.673 107.401 209.852 107.656 209.98C107.912 210.108 108.191 210.181 108.476 210.196Z" fill="#F15D24"/>
<path d="M76.1683 109.379C76.1382 109.656 76.1631 109.937 76.2417 110.205C76.3204 110.472 76.4511 110.722 76.6265 110.939C76.8019 111.156 77.0185 111.336 77.2637 111.469C77.509 111.602 77.7781 111.685 78.0556 111.714C78.622 111.752 79.1804 111.565 79.6098 111.193C80.0391 110.822 80.3047 110.297 80.3489 109.731C80.4133 108.569 79.4412 107.316 78.379 107.399C77.3168 107.482 76.0378 108.176 76.1683 109.379Z" fill="#F15D24"/>
<path d="M89.094 178.201C89.6583 178.222 90.2088 178.023 90.6288 177.645C91.0489 177.268 91.3056 176.742 91.3446 176.178C91.376 175.899 91.3507 175.617 91.2703 175.348C91.1899 175.079 91.0559 174.829 90.8765 174.613C90.6971 174.397 90.4759 174.22 90.2262 174.091C89.9765 173.963 89.7035 173.887 89.4234 173.866C89.1434 173.846 88.8622 173.883 88.5967 173.974C88.3311 174.065 88.0867 174.209 87.8781 174.397C87.6696 174.584 87.5011 174.813 87.3828 175.067C87.2645 175.322 87.1989 175.598 87.1899 175.878C87.1623 176.156 87.1897 176.436 87.2704 176.703C87.3512 176.97 87.4838 177.219 87.6606 177.434C87.8374 177.65 88.055 177.829 88.301 177.96C88.5469 178.092 88.8164 178.174 89.094 178.201Z" fill="#F15D24"/>
<path d="M93.5508 186.64C93.5224 187.058 93.6187 187.474 93.8275 187.837C94.0364 188.2 94.3484 188.492 94.7239 188.677C95.0993 188.862 95.5212 188.931 95.9361 188.875C96.3509 188.82 96.7398 188.642 97.0534 188.365C97.3671 188.088 97.5912 187.724 97.6974 187.319C97.8036 186.914 97.787 186.487 97.6498 186.092C97.5125 185.696 97.2608 185.351 96.9267 185.099C96.5925 184.847 96.191 184.7 95.7731 184.677C95.4975 184.656 95.2207 184.691 94.9588 184.779C94.6969 184.868 94.4553 185.007 94.2482 185.19C94.0412 185.373 93.8728 185.596 93.753 185.845C93.6332 186.094 93.5645 186.364 93.5508 186.64Z" fill="#F15D24"/>
<path d="M78.4583 137.415C78.4784 137.934 78.6889 138.427 79.0496 138.8C79.4103 139.173 79.8958 139.4 80.4134 139.438C80.931 139.476 81.4444 139.321 81.8554 139.005C82.2664 138.688 82.5463 138.23 82.6415 137.72C82.6959 137.428 82.6882 137.128 82.6187 136.84C82.5492 136.551 82.4196 136.28 82.2383 136.045C82.057 135.81 81.8281 135.615 81.5666 135.475C81.305 135.334 81.0168 135.25 80.7206 135.229C80.4244 135.207 80.127 135.248 79.8479 135.349C79.5687 135.45 79.314 135.609 79.1005 135.816C78.887 136.022 78.7194 136.271 78.6087 136.547C78.4981 136.822 78.4468 137.118 78.4583 137.415Z" fill="#F15D24"/>
<path d="M114.911 221.03C115.466 221.032 116 220.822 116.404 220.443C116.809 220.064 117.053 219.544 117.086 218.99C117.111 218.717 117.079 218.441 116.99 218.182C116.901 217.922 116.758 217.684 116.571 217.484C116.383 217.283 116.155 217.125 115.901 217.02C115.648 216.915 115.375 216.864 115.1 216.873C114.829 216.847 114.555 216.878 114.296 216.963C114.037 217.048 113.799 217.185 113.596 217.366C113.392 217.548 113.228 217.769 113.115 218.017C113.001 218.264 112.939 218.533 112.933 218.805C112.918 219.358 113.115 219.896 113.482 220.309C113.849 220.722 114.36 220.98 114.911 221.03Z" fill="#F15D24"/>
<path d="M168.726 261.556C169.278 261.571 169.816 261.375 170.229 261.008C170.643 260.64 170.9 260.129 170.95 259.579C170.99 259.029 170.81 258.486 170.45 258.069C170.089 257.652 169.578 257.395 169.028 257.355C168.478 257.315 167.935 257.495 167.518 257.856C167.101 258.216 166.845 258.727 166.805 259.277C166.77 259.831 166.95 260.378 167.308 260.802C167.666 261.227 168.173 261.497 168.726 261.556Z" fill="#F15D24"/>
<path d="M74.1463 118.155C74.1529 118.693 74.355 119.211 74.7151 119.612C75.0751 120.012 75.5685 120.268 76.1032 120.332C76.6412 120.323 77.1574 120.118 77.5559 119.757C77.9545 119.395 78.2082 118.902 78.27 118.367C78.3011 118.093 78.2733 117.816 78.1886 117.554C78.1039 117.292 77.9642 117.05 77.7788 116.847C77.5934 116.643 77.3667 116.481 77.1137 116.372C76.8607 116.262 76.5873 116.208 76.3117 116.213C76.0373 116.174 75.7576 116.195 75.4922 116.276C75.2269 116.356 74.9824 116.494 74.776 116.679C74.5695 116.864 74.4062 117.092 74.2974 117.347C74.1886 117.602 74.137 117.878 74.1463 118.155Z" fill="#F15D24"/>
<path d="M76.3171 145.746C76.2554 146.024 76.2526 146.312 76.3088 146.591C76.365 146.87 76.479 147.134 76.6433 147.366C76.8077 147.599 77.0189 147.794 77.2633 147.94C77.5077 148.085 77.78 148.178 78.0625 148.213C78.345 148.247 78.6315 148.222 78.9037 148.139C79.1759 148.055 79.4276 147.916 79.6428 147.73C79.8579 147.544 80.0317 147.314 80.1529 147.057C80.2742 146.8 80.3402 146.52 80.3467 146.235C80.3888 145.965 80.3699 145.69 80.2915 145.428C80.213 145.167 80.077 144.926 79.8933 144.724C79.7097 144.522 79.4831 144.364 79.2303 144.261C78.9774 144.159 78.7047 144.114 78.4323 144.13C77.2462 144.056 76.3789 144.728 76.3171 145.746Z" fill="#F15D24"/>
<path d="M80.6655 165.034C80.6236 165.314 80.6374 165.6 80.7061 165.875C80.7747 166.15 80.8969 166.408 81.0656 166.636C81.2343 166.863 81.4462 167.056 81.6892 167.201C81.9322 167.347 82.2016 167.443 82.4818 167.485C83.036 167.51 83.5782 167.318 83.993 166.949C84.4078 166.581 84.6624 166.065 84.7028 165.512C84.739 165.251 84.7191 164.986 84.6442 164.733C84.5694 164.481 84.4414 164.248 84.2689 164.049C84.0964 163.85 83.8833 163.69 83.644 163.58C83.4047 163.471 83.1446 163.413 82.8814 163.412C81.601 163.356 80.7299 163.937 80.6655 165.034Z" fill="#F15D24"/>
<path d="M160.143 259.275C160.682 259.281 161.203 259.082 161.601 258.719C161.999 258.356 162.244 257.856 162.288 257.318C162.333 257.049 162.317 256.773 162.241 256.511C162.164 256.249 162.03 256.007 161.848 255.804C161.666 255.601 161.44 255.441 161.188 255.337C160.935 255.233 160.663 255.187 160.39 255.202C159.177 255.099 158.32 255.812 158.24 256.897C158.178 257.465 158.343 258.034 158.7 258.48C159.056 258.926 159.576 259.212 160.143 259.275Z" fill="#F15D24"/>
<path d="M136.504 244.342C137.042 244.349 137.563 244.153 137.962 243.793C138.361 243.432 138.609 242.934 138.655 242.398C138.724 241.231 138.097 240.27 136.765 240.271C135.547 240.164 134.669 240.861 134.609 241.953C134.576 242.235 134.598 242.52 134.676 242.792C134.753 243.065 134.883 243.32 135.059 243.542C135.236 243.764 135.454 243.949 135.702 244.086C135.95 244.223 136.222 244.31 136.504 244.342Z" fill="#F15D24"/>
<path d="M121.397 231.636C121.798 231.676 122.202 231.596 122.557 231.406C122.912 231.216 123.202 230.924 123.391 230.568C123.579 230.212 123.657 229.807 123.615 229.407C123.573 229.006 123.412 228.627 123.153 228.318C122.895 228.009 122.55 227.785 122.162 227.673C121.775 227.561 121.364 227.567 120.98 227.69C120.597 227.814 120.258 228.048 120.009 228.365C119.759 228.681 119.61 229.065 119.579 229.466C119.552 229.991 119.725 230.506 120.062 230.908C120.399 231.311 120.876 231.571 121.397 231.636Z" fill="#F15D24"/>
<path d="M151.514 257.08C151.77 257.118 152.031 257.098 152.279 257.021C152.527 256.945 152.754 256.815 152.945 256.64C153.136 256.464 153.285 256.249 153.382 256.008C153.48 255.768 153.522 255.509 153.506 255.251C153.589 253.99 152.917 253.196 151.745 253.124C151.484 253.098 151.221 253.129 150.973 253.215C150.726 253.301 150.499 253.439 150.31 253.62C150.12 253.801 149.972 254.021 149.876 254.265C149.779 254.508 149.736 254.77 149.75 255.032C149.703 255.287 149.714 255.549 149.782 255.799C149.85 256.049 149.973 256.281 150.142 256.477C150.311 256.674 150.522 256.83 150.76 256.934C150.997 257.038 151.254 257.088 151.514 257.08Z" fill="#F15D24"/>
<path d="M91.7542 195.093C91.6498 196.459 92.2088 197.176 93.444 197.272C93.6937 197.323 93.9517 197.317 94.1988 197.254C94.4458 197.191 94.6755 197.074 94.8706 196.91C95.0657 196.746 95.2212 196.54 95.3254 196.307C95.4297 196.074 95.48 195.821 95.4727 195.566C95.5771 194.201 94.9729 193.425 93.7351 193.344C93.4869 193.312 93.2347 193.333 92.9954 193.407C92.7561 193.48 92.5353 193.603 92.3477 193.769C92.1601 193.935 92.01 194.139 91.9077 194.367C91.8053 194.595 91.753 194.843 91.7542 195.093Z" fill="#F15D24"/>
<path d="M72.0979 126.717C72.0155 127.978 72.608 128.673 73.807 128.741C75.0061 128.809 75.7404 128.206 75.8215 126.872C75.8707 126.614 75.8613 126.348 75.7939 126.094C75.7266 125.84 75.603 125.604 75.4324 125.404C75.2618 125.204 75.0484 125.045 74.8081 124.938C74.5678 124.832 74.3067 124.781 74.044 124.789C72.863 124.75 72.1635 125.436 72.0979 126.717Z" fill="#F15D24"/>
<path d="M99.8211 207.99C100.201 208.022 100.583 207.942 100.917 207.758C101.252 207.575 101.524 207.297 101.701 206.959C101.878 206.621 101.951 206.238 101.912 205.859C101.872 205.479 101.721 205.12 101.477 204.826C101.234 204.532 100.909 204.317 100.544 204.207C100.179 204.097 99.7892 204.097 99.4241 204.208C99.059 204.319 98.7348 204.535 98.4922 204.829C98.2496 205.124 98.0993 205.483 98.0603 205.863C98.0341 206.119 98.059 206.377 98.1336 206.623C98.2082 206.869 98.3311 207.097 98.495 207.295C98.6589 207.493 98.8605 207.657 99.0882 207.776C99.3159 207.895 99.565 207.968 99.8211 207.99Z" fill="#F15D24"/>
<path d="M76.1736 156.673C76.4305 156.696 76.6892 156.664 76.9328 156.579C77.1764 156.495 77.3995 156.36 77.5874 156.183C77.7754 156.007 77.9239 155.792 78.0234 155.555C78.1229 155.317 78.1711 155.061 78.1648 154.803C78.1956 154.296 78.0332 153.796 77.7103 153.405C77.3874 153.013 76.928 152.758 76.4247 152.691C75.9024 152.701 75.4038 152.911 75.0323 153.278C74.6609 153.646 74.445 154.142 74.4296 154.664C74.4025 154.912 74.427 155.163 74.5015 155.402C74.576 155.64 74.699 155.861 74.8628 156.049C75.0265 156.238 75.2275 156.391 75.453 156.498C75.6786 156.606 75.9239 156.665 76.1736 156.673Z" fill="#F15D24"/>
<path d="M104.681 216.667C104.665 217.048 104.762 217.425 104.96 217.751C105.157 218.078 105.447 218.338 105.792 218.5C106.137 218.663 106.523 218.719 106.9 218.663C107.278 218.607 107.63 218.44 107.913 218.185C108.196 217.929 108.397 217.595 108.491 217.226C108.586 216.856 108.568 216.467 108.442 216.107C108.316 215.747 108.086 215.432 107.781 215.203C107.477 214.973 107.111 214.838 106.73 214.815C106.472 214.792 106.211 214.822 105.965 214.904C105.719 214.986 105.493 215.118 105.3 215.292C105.107 215.466 104.953 215.678 104.846 215.914C104.74 216.151 104.684 216.407 104.681 216.667Z" fill="#F15D24"/>
<path d="M86.9089 186.645C87.2942 186.672 87.6788 186.583 88.0131 186.39C88.3474 186.196 88.6162 185.907 88.7849 185.56C88.9536 185.212 89.0145 184.822 88.9599 184.44C88.9052 184.057 88.7374 183.7 88.478 183.414C88.2187 183.128 87.8796 182.926 87.5045 182.834C87.1294 182.742 86.7353 182.764 86.3729 182.898C86.0106 183.031 85.6965 183.271 85.4711 183.584C85.2457 183.898 85.1193 184.272 85.1081 184.658C85.0907 184.908 85.1239 185.159 85.2058 185.395C85.2878 185.632 85.4167 185.85 85.5849 186.035C85.7531 186.221 85.9571 186.371 86.1846 186.476C86.4122 186.58 86.6585 186.638 86.9089 186.645Z" fill="#F15D24"/>
<path d="M73.7987 135.647C73.8256 135.277 73.7425 134.907 73.5598 134.583C73.3771 134.26 73.1029 133.998 72.7717 133.83C72.4405 133.662 72.067 133.595 71.6982 133.639C71.3294 133.683 70.9816 133.834 70.6987 134.075C70.4157 134.315 70.2102 134.634 70.1078 134.991C70.0055 135.348 70.0109 135.727 70.1234 136.081C70.236 136.435 70.4506 136.748 70.7403 136.98C71.03 137.213 71.382 137.354 71.7519 137.387C72.2519 137.418 72.7445 137.255 73.1262 136.93C73.5079 136.606 73.7489 136.146 73.7987 135.647Z" fill="#F15D24"/>
<path d="M190.671 273.8C190.634 274.169 190.707 274.541 190.881 274.869C191.054 275.197 191.321 275.466 191.648 275.642C191.975 275.819 192.346 275.894 192.716 275.859C193.085 275.825 193.436 275.681 193.724 275.447C194.012 275.213 194.224 274.899 194.334 274.544C194.443 274.19 194.446 273.811 194.34 273.455C194.234 273.099 194.025 272.783 193.74 272.545C193.455 272.308 193.105 272.161 192.736 272.122C192.243 272.085 191.754 272.238 191.37 272.55C190.986 272.862 190.736 273.31 190.671 273.8Z" fill="#F15D24"/>
<path d="M183.74 274.04C184.24 274.065 184.731 273.895 185.108 273.566C185.486 273.237 185.721 272.774 185.765 272.275C185.788 271.905 185.7 271.536 185.513 271.214C185.327 270.893 185.049 270.634 184.716 270.47C184.383 270.306 184.009 270.245 183.64 270.293C183.272 270.341 182.926 270.497 182.646 270.741C182.366 270.985 182.164 271.306 182.066 271.664C181.968 272.023 181.979 272.402 182.095 272.754C182.212 273.107 182.431 273.417 182.724 273.646C183.016 273.875 183.37 274.012 183.74 274.04Z" fill="#F15D24"/>
<path d="M127.875 242.155C128.247 242.177 128.618 242.089 128.94 241.901C129.262 241.713 129.522 241.434 129.686 241.099C129.85 240.764 129.911 240.388 129.862 240.018C129.813 239.649 129.655 239.302 129.409 239.021C129.164 238.741 128.84 238.539 128.48 238.442C128.12 238.345 127.739 238.356 127.386 238.475C127.032 238.594 126.722 238.814 126.493 239.109C126.265 239.404 126.128 239.76 126.101 240.132C126.079 240.382 126.107 240.635 126.185 240.874C126.263 241.113 126.389 241.334 126.555 241.523C126.721 241.713 126.923 241.866 127.15 241.975C127.377 242.083 127.624 242.145 127.875 242.155Z" fill="#F15D24"/>
<path d="M112.817 229.244C113.32 229.273 113.813 229.105 114.194 228.776C114.574 228.447 114.812 227.983 114.856 227.482C114.879 227.237 114.852 226.99 114.779 226.755C114.706 226.52 114.587 226.302 114.429 226.113C114.272 225.924 114.079 225.768 113.861 225.654C113.643 225.54 113.405 225.47 113.16 225.447C112.915 225.425 112.668 225.452 112.433 225.525C112.198 225.598 111.98 225.717 111.791 225.875C111.602 226.032 111.446 226.225 111.332 226.443C111.217 226.661 111.147 226.899 111.125 227.144C111.079 227.646 111.23 228.145 111.546 228.537C111.861 228.929 112.318 229.183 112.817 229.244Z" fill="#F15D24"/>
<path d="M142.862 254.828C143.364 254.85 143.855 254.676 144.232 254.343C144.608 254.009 144.84 253.542 144.879 253.041C144.886 252.563 144.71 252.1 144.388 251.747C144.066 251.394 143.621 251.177 143.144 251.141C142.668 251.104 142.195 251.251 141.823 251.551C141.45 251.851 141.207 252.281 141.141 252.755C141.102 253.256 141.261 253.753 141.582 254.14C141.903 254.526 142.362 254.773 142.862 254.828Z" fill="#F15D24"/>
<path d="M175.16 272.026C175.663 272.033 176.15 271.844 176.516 271.498C176.882 271.152 177.099 270.677 177.121 270.174C177.182 269.017 176.541 268.344 175.319 268.274C175.069 268.228 174.812 268.24 174.567 268.309C174.323 268.378 174.097 268.502 173.908 268.671C173.719 268.841 173.571 269.051 173.475 269.287C173.38 269.522 173.339 269.776 173.358 270.03C173.341 270.531 173.519 271.02 173.855 271.392C174.191 271.765 174.659 271.992 175.16 272.026Z" fill="#F15D24"/>
<path d="M166.509 269.719C166.992 269.709 167.456 269.529 167.818 269.209C168.18 268.89 168.417 268.452 168.486 267.975C168.521 267.751 168.51 267.522 168.453 267.302C168.396 267.083 168.296 266.877 168.157 266.698C168.019 266.518 167.845 266.369 167.647 266.259C167.449 266.149 167.23 266.08 167.004 266.057C165.592 265.918 164.964 266.358 164.852 267.54C164.484 268.644 165.757 269.647 166.509 269.719Z" fill="#F15D24"/>
<path d="M76.1011 163.225C76.127 162.989 76.1018 162.751 76.0274 162.526C75.9529 162.301 75.8309 162.094 75.6696 161.921C75.5084 161.747 75.3116 161.61 75.0927 161.519C74.8738 161.428 74.6379 161.385 74.401 161.394C73.1297 161.303 72.598 161.808 72.3981 162.989C72.2395 164.008 73.3393 164.961 74.0763 165.054C74.5806 165.055 75.067 164.868 75.4412 164.53C75.8154 164.192 76.0506 163.727 76.1011 163.225Z" fill="#F15D24"/>
<path d="M71.7062 144.29C71.7335 143.933 71.6552 143.577 71.4811 143.265C71.3069 142.952 71.0447 142.698 70.7271 142.534C70.4096 142.37 70.0507 142.303 69.6953 142.342C69.3399 142.38 69.0037 142.523 68.7287 142.751C68.4538 142.98 68.2522 143.284 68.1491 143.626C68.046 143.969 68.0461 144.334 68.1492 144.676C68.2523 145.018 68.454 145.323 68.729 145.551C69.004 145.779 69.3402 145.922 69.6956 145.96C70.1821 145.998 70.664 145.844 71.0393 145.532C71.4145 145.221 71.6537 144.775 71.7062 144.29Z" fill="#F15D24"/>
<path d="M78.758 173.936C78.7273 174.303 78.8055 174.672 78.9829 174.995C79.1603 175.319 79.4289 175.583 79.7554 175.754C80.0819 175.926 80.4516 175.998 80.8186 175.961C81.1856 175.923 81.5334 175.779 81.8189 175.545C82.1043 175.312 82.3146 174.999 82.4235 174.647C82.5325 174.294 82.5352 173.918 82.4315 173.564C82.3277 173.21 82.122 172.894 81.8401 172.657C81.5581 172.419 81.2124 172.269 80.846 172.227C80.596 172.198 80.3427 172.219 80.1011 172.29C79.8595 172.361 79.6347 172.48 79.4399 172.639C79.2451 172.798 79.0844 172.995 78.9672 173.218C78.8501 173.441 78.7789 173.685 78.758 173.936Z" fill="#F15D24"/>
<path d="M86.7734 193.529C86.801 193.179 86.7244 192.829 86.5532 192.523C86.382 192.217 86.1239 191.968 85.8116 191.809C85.4993 191.649 85.1467 191.586 84.7983 191.626C84.45 191.667 84.1215 191.81 83.8543 192.037C83.5872 192.265 83.3934 192.566 83.2973 192.903C83.2013 193.24 83.2074 193.599 83.3148 193.933C83.4222 194.266 83.6262 194.561 83.9009 194.779C84.1756 194.997 84.5087 195.129 84.8583 195.158C85.3281 195.195 85.7934 195.044 86.1524 194.739C86.5113 194.433 86.7346 193.998 86.7734 193.529Z" fill="#F15D24"/>
<path d="M69.3854 116.231C69.3993 115.777 69.2365 115.336 68.9314 115.001C68.6262 114.665 68.2025 114.461 67.7498 114.432C67.521 114.402 67.2887 114.419 67.0663 114.48C66.8439 114.541 66.6358 114.646 66.4542 114.788C66.2725 114.93 66.1209 115.107 66.0082 115.308C65.8954 115.509 65.8237 115.731 65.7973 115.96C65.7528 116.455 65.9001 116.948 66.2089 117.337C66.5176 117.726 66.9642 117.982 67.4561 118.051C67.9489 118.05 68.4229 117.861 68.7814 117.523C69.1399 117.185 69.3559 116.723 69.3854 116.231Z" fill="#F15D24"/>
<path d="M117.562 237.988C117.515 238.483 117.665 238.977 117.979 239.364C118.293 239.75 118.746 239.997 119.24 240.053C119.719 240.052 120.18 239.874 120.535 239.554C120.89 239.233 121.114 238.792 121.163 238.316C121.187 237.847 121.024 237.388 120.71 237.039C120.395 236.69 119.955 236.48 119.486 236.454C119.259 236.425 119.028 236.442 118.807 236.504C118.586 236.566 118.38 236.672 118.2 236.815C118.021 236.958 117.872 237.135 117.763 237.337C117.653 237.538 117.585 237.76 117.562 237.988Z" fill="#F15D24"/>
<path d="M134.44 252.731C134.92 252.744 135.387 252.578 135.751 252.265C136.115 251.952 136.35 251.515 136.411 251.039C136.451 250.566 136.304 250.096 136 249.731C135.697 249.365 135.261 249.134 134.789 249.087C134.316 249.04 133.844 249.181 133.475 249.48C133.105 249.778 132.868 250.21 132.815 250.682C132.78 251.165 132.928 251.643 133.229 252.023C133.53 252.402 133.962 252.655 134.44 252.731Z" fill="#F15D24"/>
<path d="M89.5911 203.755C89.5468 204.005 89.5552 204.261 89.6158 204.506C89.6764 204.752 89.7878 204.983 89.9428 205.183C90.0978 205.383 90.293 205.549 90.5159 205.669C90.7388 205.789 90.9843 205.861 91.2367 205.881C91.4892 205.9 91.7429 205.867 91.9816 205.782C92.2203 205.698 92.4386 205.564 92.6226 205.39C92.8065 205.216 92.952 205.006 93.0497 204.772C93.1473 204.538 93.195 204.287 93.1895 204.034C93.1954 203.581 93.0273 203.143 92.7199 202.811C92.4124 202.478 91.9891 202.276 91.5372 202.246C91.3102 202.217 91.0797 202.233 90.8588 202.293C90.6379 202.353 90.4311 202.456 90.2502 202.596C90.0694 202.736 89.918 202.911 89.8049 203.11C89.6918 203.309 89.6191 203.528 89.5911 203.755Z" fill="#F15D24"/>
<path d="M158.14 267.638C158.49 267.654 158.836 267.565 159.136 267.385C159.436 267.204 159.676 266.938 159.825 266.622C159.974 266.305 160.026 265.951 159.975 265.605C159.924 265.259 159.771 264.935 159.537 264.675C159.302 264.416 158.996 264.231 158.656 264.145C158.317 264.059 157.96 264.075 157.63 264.191C157.299 264.308 157.011 264.519 156.801 264.799C156.59 265.079 156.468 265.415 156.448 265.764C156.435 265.998 156.469 266.233 156.548 266.454C156.626 266.675 156.747 266.879 156.905 267.053C157.062 267.227 157.252 267.368 157.464 267.469C157.676 267.569 157.906 267.626 158.14 267.638Z" fill="#F15D24"/>
<path d="M97.8141 216.454C98.1629 216.481 98.5118 216.404 98.8169 216.233C99.1221 216.062 99.3699 215.805 99.5293 215.494C99.6887 215.182 99.7525 214.831 99.7127 214.483C99.6729 214.136 99.5313 213.808 99.3057 213.54C99.0801 213.273 98.7805 213.078 98.4446 212.981C98.1087 212.883 97.7515 212.887 97.4177 212.992C97.084 213.097 96.7887 213.298 96.5689 213.57C96.3491 213.842 96.2147 214.173 96.1824 214.521C96.1624 214.755 96.1888 214.991 96.2601 215.215C96.3313 215.439 96.4459 215.647 96.5975 215.826C96.749 216.006 96.9345 216.154 97.1433 216.261C97.352 216.369 97.58 216.435 97.8141 216.454Z" fill="#F15D24"/>
<path d="M80.2755 182.615C80.336 181.459 79.7887 180.726 78.7716 180.641C78.537 180.61 78.2985 180.632 78.073 180.704C77.8476 180.775 77.6407 180.896 77.4671 181.057C77.2934 181.218 77.1573 181.415 77.0683 181.634C76.9792 181.853 76.9396 182.089 76.952 182.325C76.9178 182.551 76.9302 182.782 76.9885 183.003C77.0469 183.223 77.1498 183.43 77.2911 183.609C77.4323 183.789 77.6089 183.938 77.8098 184.046C78.0107 184.155 78.2318 184.221 78.4593 184.241C78.6868 184.261 78.916 184.234 79.1327 184.162C79.3494 184.089 79.549 183.974 79.7192 183.821C79.8894 183.669 80.0266 183.483 80.1223 183.276C80.218 183.069 80.2701 182.844 80.2755 182.615Z" fill="#F15D24"/>
<path d="M102.693 225.137C102.671 225.356 102.693 225.577 102.757 225.787C102.821 225.997 102.926 226.192 103.065 226.362C103.204 226.532 103.376 226.672 103.57 226.776C103.763 226.879 103.976 226.943 104.194 226.965C104.413 226.986 104.633 226.964 104.843 226.9C105.054 226.837 105.249 226.732 105.419 226.593C105.588 226.453 105.729 226.282 105.832 226.088C105.936 225.894 106 225.682 106.022 225.463C106.086 224.302 105.548 223.567 104.529 223.473C104.295 223.442 104.057 223.461 103.832 223.531C103.606 223.601 103.399 223.72 103.224 223.878C103.049 224.037 102.911 224.231 102.819 224.449C102.727 224.666 102.684 224.901 102.693 225.137Z" fill="#F15D24"/>
<path d="M67.2006 125.03C67.3075 123.811 66.7305 123.064 65.6502 122.988C65.424 122.97 65.1965 122.999 64.9821 123.073C64.7677 123.147 64.5711 123.265 64.4046 123.42C64.2382 123.574 64.1056 123.761 64.0152 123.969C63.9249 124.177 63.8787 124.402 63.8796 124.629C63.8264 124.856 63.8245 125.092 63.8743 125.32C63.924 125.548 64.024 125.763 64.167 125.947C64.31 126.132 64.4923 126.282 64.7008 126.387C64.9093 126.492 65.1386 126.549 65.3719 126.554C65.5952 126.594 65.8246 126.585 66.0438 126.527C66.2631 126.468 66.467 126.363 66.6413 126.218C66.8155 126.073 66.9558 125.891 67.0525 125.686C67.1491 125.48 67.1996 125.257 67.2006 125.03Z" fill="#F15D24"/>
<path d="M69.3292 152.646C69.4556 151.499 68.9147 150.908 67.8008 150.694C67.5766 150.664 67.3487 150.684 67.1326 150.75C66.9166 150.817 66.7174 150.929 66.5487 151.08C66.3799 151.231 66.2456 151.416 66.1548 151.623C66.064 151.83 66.0189 152.054 66.0225 152.28C65.985 152.505 65.9939 152.735 66.0486 152.956C66.1033 153.178 66.2027 153.385 66.3407 153.567C66.4787 153.748 66.6523 153.899 66.8509 154.011C67.0495 154.123 67.2689 154.193 67.4955 154.217C67.7222 154.241 67.9514 154.218 68.169 154.151C68.3865 154.083 68.5879 153.971 68.7608 153.822C68.9336 153.674 69.0742 153.492 69.174 153.287C69.2737 153.082 69.3305 152.858 69.3409 152.631L69.3292 152.646Z" fill="#F15D24"/>
<path d="M149.486 265.497C149.706 265.516 149.928 265.491 150.139 265.422C150.349 265.353 150.544 265.242 150.709 265.095C150.875 264.948 151.01 264.769 151.104 264.569C151.198 264.368 151.25 264.151 151.257 263.929C151.298 263.698 151.289 263.461 151.231 263.233C151.174 263.005 151.069 262.792 150.924 262.607C150.779 262.422 150.597 262.27 150.389 262.16C150.181 262.05 149.953 261.985 149.719 261.969C149.495 261.95 149.269 261.977 149.056 262.049C148.842 262.12 148.646 262.234 148.478 262.384C148.311 262.534 148.176 262.717 148.081 262.921C147.987 263.125 147.935 263.346 147.929 263.571C147.885 263.802 147.893 264.041 147.95 264.269C148.008 264.497 148.114 264.71 148.263 264.893C148.411 265.076 148.597 265.225 148.808 265.329C149.019 265.433 149.25 265.491 149.486 265.497Z" fill="#F15D24"/>
<path d="M125.814 250.563C126.037 250.583 126.263 250.558 126.476 250.489C126.69 250.419 126.887 250.307 127.056 250.159C127.225 250.011 127.362 249.831 127.459 249.628C127.556 249.426 127.611 249.206 127.621 248.982C127.67 248.525 127.539 248.067 127.257 247.705C126.975 247.343 126.562 247.104 126.108 247.041C125.668 247.034 125.241 247.189 124.908 247.476C124.576 247.764 124.36 248.163 124.302 248.599C124.26 248.829 124.267 249.065 124.323 249.291C124.378 249.518 124.48 249.731 124.622 249.916C124.765 250.101 124.944 250.255 125.149 250.366C125.355 250.477 125.581 250.544 125.814 250.563Z" fill="#F15D24"/>
<path d="M73.68 171.919C73.7293 171.463 73.599 171.005 73.3166 170.642C73.0342 170.28 72.6219 170.042 72.167 169.978C71.7293 169.979 71.3063 170.137 70.9756 170.424C70.645 170.71 70.4288 171.107 70.3668 171.54C70.325 171.766 70.33 171.997 70.3816 172.221C70.4332 172.444 70.5301 172.654 70.6664 172.839C70.8028 173.023 70.9755 173.177 71.174 173.292C71.3725 173.407 71.5925 173.479 71.8203 173.505C72.048 173.531 72.2787 173.51 72.498 173.443C72.7172 173.376 72.9204 173.265 73.0948 173.116C73.2693 172.968 73.4112 172.785 73.5119 172.579C73.6125 172.373 73.6698 172.148 73.68 171.919Z" fill="#F15D24"/>
<path d="M139.317 261.47C139.285 261.909 139.429 262.343 139.717 262.676C140.005 263.009 140.414 263.214 140.853 263.246C141.292 263.278 141.726 263.135 142.059 262.847C142.392 262.559 142.597 262.15 142.629 261.711C142.663 261.49 142.648 261.264 142.586 261.049C142.524 260.835 142.416 260.636 142.27 260.467C142.123 260.298 141.942 260.163 141.738 260.071C141.534 259.979 141.313 259.933 141.089 259.935C140.869 259.9 140.643 259.913 140.428 259.974C140.213 260.035 140.014 260.143 139.845 260.289C139.676 260.435 139.541 260.617 139.45 260.821C139.359 261.025 139.314 261.247 139.317 261.47Z" fill="#F15D24"/>
<path d="M64.9587 133.334C64.9867 133.112 64.9659 132.887 64.8976 132.674C64.8294 132.461 64.7155 132.265 64.5637 132.101C64.412 131.936 64.2262 131.807 64.0192 131.722C63.8123 131.636 63.5893 131.598 63.3657 131.608C63.1527 131.579 62.936 131.595 62.73 131.657C62.524 131.718 62.3336 131.823 62.1713 131.964C62.0091 132.105 61.8788 132.279 61.7892 132.475C61.6997 132.67 61.6528 132.882 61.6519 133.097C61.6287 133.319 61.6502 133.542 61.7152 133.755C61.7801 133.968 61.8872 134.165 62.03 134.336C62.1728 134.506 62.3485 134.646 62.5465 134.747C62.7446 134.848 62.961 134.909 63.1828 134.925C63.4046 134.941 63.6274 134.912 63.8379 134.84C64.0483 134.768 64.2422 134.654 64.4078 134.506C64.5735 134.358 64.7077 134.177 64.8023 133.976C64.8969 133.775 64.9501 133.557 64.9587 133.334Z" fill="#F15D24"/>
<path d="M90.9624 212.543C90.981 212.224 90.9042 211.906 90.7418 211.631C90.5795 211.355 90.3389 211.134 90.0506 210.996C89.7623 210.857 89.4394 210.807 89.1228 210.853C88.8062 210.898 88.5102 211.037 88.2725 211.251C88.0348 211.465 87.866 211.744 87.7876 212.054C87.7093 212.364 87.7248 212.691 87.8323 212.992C87.9399 213.293 88.1345 213.556 88.3915 213.746C88.6485 213.937 88.9563 214.046 89.2757 214.061C89.6959 214.065 90.1023 213.912 90.4146 213.631C90.727 213.35 90.9224 212.961 90.9624 212.543Z" fill="#F15D24"/>
<path d="M112.61 236.138C112.636 235.809 112.564 235.479 112.402 235.191C112.24 234.903 111.996 234.67 111.702 234.521C111.407 234.371 111.075 234.313 110.747 234.354C110.419 234.394 110.11 234.531 109.861 234.747C109.611 234.963 109.431 235.249 109.344 235.567C109.257 235.886 109.267 236.223 109.372 236.536C109.477 236.849 109.673 237.124 109.935 237.326C110.196 237.527 110.512 237.646 110.842 237.668C111.278 237.693 111.706 237.547 112.036 237.261C112.366 236.976 112.572 236.573 112.61 236.138Z" fill="#F15D24"/>
<path d="M181.792 282.436C182.22 282.411 182.626 282.236 182.937 281.942C183.249 281.648 183.448 281.253 183.498 280.828C183.516 280.619 183.49 280.409 183.423 280.21C183.356 280.012 183.249 279.829 183.109 279.673C182.969 279.518 182.799 279.392 182.608 279.305C182.418 279.218 182.212 279.17 182.002 279.165C180.977 279.091 180.299 279.598 180.242 280.491C180.196 280.954 180.332 281.416 180.621 281.779C180.911 282.142 181.331 282.378 181.792 282.436Z" fill="#F15D24"/>
<path d="M173.137 280.189C173.566 280.176 173.975 280.011 174.294 279.724C174.612 279.437 174.819 279.047 174.877 278.622C174.898 278.406 174.873 278.187 174.805 277.981C174.736 277.775 174.624 277.585 174.477 277.425C174.331 277.265 174.152 277.137 173.952 277.05C173.753 276.964 173.537 276.92 173.32 276.922C173.123 276.884 172.92 276.888 172.724 276.934C172.529 276.98 172.345 277.067 172.186 277.189C172.027 277.311 171.895 277.466 171.8 277.642C171.704 277.819 171.648 278.014 171.633 278.214C171.576 278.675 171.702 279.139 171.983 279.508C172.264 279.877 172.678 280.122 173.137 280.189Z" fill="#F15D24"/>
<path d="M84.5934 201.815C84.6118 201.607 84.5873 201.397 84.5213 201.198C84.4554 201 84.3495 200.817 84.2101 200.661C84.0707 200.505 83.9009 200.38 83.711 200.292C83.5212 200.204 83.3154 200.157 83.1063 200.152C82.0725 200.078 81.3975 200.58 81.3202 201.458C81.2703 201.92 81.4028 202.383 81.6892 202.748C81.9757 203.113 82.3936 203.353 82.8538 203.414C83.2863 203.397 83.6985 203.227 84.0171 202.934C84.3357 202.641 84.54 202.245 84.5934 201.815Z" fill="#F15D24"/>
<path d="M97.5091 223.316C97.4922 222.456 97.2624 221.751 95.9962 221.697C95.8065 221.661 95.6115 221.663 95.4228 221.704C95.234 221.744 95.0552 221.822 94.897 221.933C94.7389 222.044 94.6044 222.185 94.5017 222.348C94.3991 222.512 94.3302 222.694 94.2991 222.885C94.2324 223.347 94.3516 223.816 94.6307 224.19C94.9097 224.564 95.3258 224.813 95.7876 224.88C96.222 224.896 96.6452 224.741 96.9669 224.448C97.2886 224.156 97.4832 223.749 97.5091 223.316Z" fill="#F15D24"/>
<path d="M77.9808 191.098C77.9548 189.949 77.4437 189.534 76.4511 189.491C76.2616 189.461 76.0679 189.469 75.8814 189.514C75.6948 189.559 75.5192 189.641 75.3647 189.755C75.2102 189.869 75.08 190.013 74.9815 190.178C74.8831 190.342 74.8185 190.525 74.7915 190.715C74.7593 190.944 74.7728 191.178 74.8312 191.402C74.8895 191.626 74.9916 191.836 75.1315 192.02C75.2714 192.204 75.4464 192.359 75.6463 192.476C75.8463 192.592 76.0673 192.668 76.2967 192.699C76.7293 192.699 77.1454 192.533 77.4589 192.235C77.7725 191.937 77.9593 191.53 77.9808 191.098Z" fill="#F15D24"/>
<path d="M67.2268 161.184C67.2008 160.036 66.6896 159.62 65.6971 159.578C65.5081 159.547 65.3149 159.554 65.1288 159.599C64.9426 159.644 64.7672 159.725 64.6127 159.838C64.4582 159.951 64.3276 160.093 64.2287 160.257C64.1297 160.421 64.0643 160.603 64.0362 160.792C64.0032 161.022 64.0161 161.255 64.0738 161.48C64.1316 161.704 64.2332 161.915 64.3727 162.099C64.5123 162.284 64.6871 162.44 64.887 162.557C65.0869 162.674 65.308 162.75 65.5375 162.781C65.9708 162.785 66.3886 162.62 66.7035 162.323C67.0183 162.025 67.2058 161.617 67.2268 161.184Z" fill="#F15D24"/>
<path d="M164.466 278.092C164.775 278.119 165.085 278.055 165.358 277.908C165.631 277.76 165.854 277.535 165.999 277.26C166.144 276.986 166.205 276.675 166.175 276.366C166.144 276.058 166.022 275.765 165.826 275.525C165.629 275.285 165.366 275.109 165.069 275.018C164.772 274.927 164.455 274.926 164.158 275.014C163.861 275.103 163.596 275.277 163.398 275.516C163.199 275.754 163.075 276.046 163.042 276.354C163.004 276.773 163.132 277.19 163.398 277.515C163.665 277.84 164.048 278.047 164.466 278.092Z" fill="#F15D24"/>
<path d="M132.208 261.012C133.256 261.088 133.731 260.669 133.804 259.603C133.878 258.537 133.445 257.931 132.435 257.891C131.424 257.851 130.954 258.305 130.886 259.44C130.823 260.449 131.234 260.934 132.208 261.012Z" fill="#F15D24"/>
<path d="M115.886 246.419C115.796 247.529 116.186 248.031 117.184 248.109C118.181 248.188 118.722 247.779 118.793 246.727C118.864 245.675 118.438 245.049 117.453 244.996C116.468 244.943 115.965 245.389 115.886 246.419Z" fill="#F15D24"/>
<path d="M62.7323 142.005C62.7967 140.844 62.4184 140.326 61.4311 140.223C60.4437 140.12 59.9159 140.587 59.8386 141.723C59.7613 142.859 60.1718 143.28 61.2134 143.343C61.4049 143.378 61.6018 143.368 61.7894 143.316C61.9769 143.264 62.1502 143.17 62.2963 143.042C62.4424 142.913 62.5575 142.753 62.633 142.573C62.7085 142.394 62.7425 142.2 62.7323 142.005Z" fill="#F15D24"/>
<path d="M71.438 180.546C71.4755 180.34 71.4686 180.128 71.4179 179.925C71.3672 179.721 71.2738 179.531 71.1438 179.367C71.0139 179.202 70.8505 179.067 70.6644 178.97C70.4783 178.874 70.2738 178.818 70.0645 178.807C69.6817 178.807 69.3127 178.95 69.0298 179.208C68.7469 179.465 68.5706 179.82 68.5352 180.201C68.4425 181.228 68.8827 181.824 69.79 181.948C69.9947 181.994 70.2072 181.991 70.4108 181.941C70.6144 181.891 70.8035 181.794 70.9632 181.658C71.123 181.522 71.249 181.351 71.3314 181.158C71.4138 180.965 71.4503 180.756 71.438 180.546Z" fill="#F15D24"/>
<path d="M155.889 275.944C156.092 275.973 156.299 275.956 156.495 275.894C156.691 275.832 156.87 275.727 157.019 275.586C157.168 275.445 157.284 275.272 157.357 275.08C157.43 274.888 157.458 274.682 157.44 274.477C157.465 274.278 157.449 274.076 157.394 273.883C157.338 273.69 157.243 273.511 157.116 273.355C156.989 273.2 156.831 273.073 156.652 272.98C156.474 272.888 156.279 272.833 156.078 272.819C155.677 272.81 155.289 272.96 154.999 273.237C154.708 273.513 154.539 273.894 154.528 274.295C154.484 274.496 154.485 274.705 154.533 274.905C154.581 275.106 154.675 275.293 154.806 275.452C154.937 275.611 155.103 275.738 155.291 275.823C155.478 275.908 155.683 275.95 155.889 275.944Z" fill="#F15D24"/>
<path d="M103.781 233.939C103.799 233.741 103.777 233.541 103.717 233.351C103.657 233.162 103.56 232.986 103.431 232.834C103.303 232.682 103.146 232.557 102.969 232.467C102.792 232.376 102.598 232.322 102.4 232.306C101.999 232.305 101.614 232.461 101.328 232.741C101.041 233.021 100.876 233.402 100.867 233.802C100.825 234.004 100.829 234.212 100.88 234.411C100.931 234.61 101.026 234.795 101.159 234.952C101.293 235.109 101.46 235.233 101.648 235.315C101.837 235.397 102.041 235.435 102.247 235.426C103.185 235.476 103.723 234.952 103.781 233.939Z" fill="#F15D24"/>
<path d="M146.138 271.931C146.078 272.325 146.17 272.727 146.395 273.056C146.62 273.385 146.961 273.616 147.35 273.703C147.748 273.739 148.145 273.62 148.457 273.37C148.77 273.12 148.973 272.759 149.025 272.362C149.066 271.954 148.952 271.546 148.705 271.219C148.458 270.892 148.097 270.67 147.694 270.598C147.322 270.613 146.966 270.752 146.684 270.994C146.402 271.236 146.209 271.566 146.138 271.931Z" fill="#F15D24"/>
<path d="M60.4992 150.567C60.5256 150.175 60.4102 149.788 60.1741 149.474C59.938 149.161 59.597 148.943 59.2134 148.861C58.8259 148.867 58.4527 149.008 58.158 149.259C57.8633 149.511 57.6656 149.858 57.599 150.239C57.551 150.636 57.6569 151.036 57.8949 151.357C58.1329 151.678 58.4848 151.895 58.8783 151.965C59.2773 151.988 59.6697 151.856 59.9724 151.595C60.275 151.334 60.464 150.965 60.4992 150.567Z" fill="#F15D24"/>
<path d="M125.395 257.339C125.413 256.947 125.289 256.562 125.045 256.255C124.801 255.947 124.454 255.738 124.068 255.667C123.678 255.679 123.305 255.829 123.015 256.09C122.725 256.35 122.537 256.705 122.484 257.092C122.452 257.291 122.462 257.494 122.513 257.688C122.563 257.883 122.653 258.065 122.778 258.224C122.902 258.382 123.057 258.513 123.234 258.609C123.411 258.705 123.606 258.763 123.807 258.78C124.007 258.797 124.209 258.772 124.4 258.708C124.59 258.644 124.766 258.541 124.915 258.405C125.064 258.27 125.183 258.106 125.266 257.922C125.349 257.739 125.393 257.54 125.395 257.339Z" fill="#F15D24"/>
<path d="M110.148 244.552C110.188 243.703 109.726 243.243 108.766 243.169C107.805 243.094 107.301 243.498 107.253 244.454C107.23 244.654 107.248 244.856 107.307 245.048C107.366 245.24 107.464 245.418 107.596 245.57C107.727 245.722 107.889 245.844 108.07 245.93C108.252 246.016 108.449 246.063 108.65 246.069C108.851 246.074 109.051 246.038 109.236 245.962C109.422 245.885 109.59 245.771 109.73 245.627C109.869 245.482 109.977 245.31 110.046 245.121C110.115 244.933 110.144 244.732 110.131 244.531L110.148 244.552Z" fill="#F15D24"/>
<path d="M82.1546 210.359C82.1945 209.51 81.7362 209.046 80.7759 208.971C79.8157 208.896 79.3007 209.292 79.2531 210.249C79.2354 210.445 79.2579 210.643 79.3194 210.83C79.3808 211.017 79.4799 211.19 79.6105 211.337C79.7411 211.485 79.9005 211.604 80.0789 211.688C80.2572 211.772 80.4508 211.818 80.6478 211.824C80.8447 211.83 81.0408 211.796 81.224 211.724C81.4072 211.651 81.5738 211.542 81.7133 211.403C81.8528 211.264 81.9625 211.098 82.0355 210.915C82.1085 210.732 82.1433 210.536 82.1378 210.339L82.1546 210.359Z" fill="#F15D24"/>
<path d="M75.7306 199.897C75.7545 199.613 75.6931 199.329 75.5543 199.081C75.4155 198.833 75.2057 198.632 74.9517 198.504C74.6978 198.376 74.4114 198.326 74.1293 198.362C73.8472 198.398 73.5823 198.518 73.3686 198.705C73.1548 198.893 73.0021 199.14 72.9299 199.415C72.8578 199.69 72.8695 199.981 72.9636 200.249C73.0577 200.517 73.2299 200.752 73.458 200.921C73.6862 201.091 73.9599 201.189 74.244 201.202C74.6092 201.207 74.9633 201.076 75.2379 200.835C75.5124 200.594 75.688 200.26 75.7306 199.897Z" fill="#F15D24"/>
<path d="M88.7335 221.035C88.7516 220.855 88.7302 220.674 88.6709 220.503C88.6116 220.333 88.5158 220.178 88.3901 220.048C88.2645 219.918 88.112 219.818 87.9435 219.753C87.7749 219.689 87.5943 219.662 87.4143 219.675C87.2276 219.643 87.0363 219.653 86.8539 219.703C86.6714 219.753 86.5023 219.843 86.3584 219.966C86.2146 220.089 86.0996 220.243 86.0216 220.415C85.9435 220.587 85.9044 220.775 85.9069 220.964C85.8882 221.157 85.9093 221.352 85.9689 221.536C86.0285 221.72 86.1254 221.89 86.2535 222.036C86.3816 222.181 86.5382 222.298 86.7136 222.381C86.889 222.463 87.0794 222.508 87.273 222.514C87.4667 222.519 87.6594 222.485 87.8392 222.413C88.019 222.341 88.1821 222.233 88.3183 222.095C88.4546 221.957 88.561 221.793 88.6311 221.612C88.7012 221.432 88.7334 221.239 88.7258 221.045L88.7335 221.035Z" fill="#F15D24"/>
<path d="M64.8128 169.933C64.8333 169.648 64.769 169.363 64.6279 169.115C64.4868 168.866 64.2753 168.665 64.02 168.537C63.7648 168.409 63.4772 168.359 63.1937 168.394C62.9102 168.429 62.6434 168.547 62.427 168.734C62.2107 168.92 62.0544 169.167 61.978 169.442C61.9016 169.717 61.9085 170.009 61.9978 170.28C62.0871 170.552 62.2548 170.791 62.4797 170.967C62.7046 171.143 62.9767 171.248 63.2615 171.27C63.6424 171.289 64.016 171.161 64.3048 170.912C64.5936 170.663 64.7755 170.312 64.8128 169.933Z" fill="#F15D24"/>
<path d="M138.885 271.632C139.27 271.627 139.637 271.473 139.911 271.203C140.184 270.933 140.342 270.567 140.351 270.182C140.37 270.003 140.349 269.821 140.291 269.65C140.232 269.479 140.137 269.323 140.011 269.193C139.886 269.063 139.734 268.962 139.565 268.897C139.397 268.832 139.216 268.805 139.036 268.817C138.849 268.783 138.657 268.792 138.474 268.841C138.291 268.89 138.121 268.979 137.976 269.101C137.831 269.224 137.715 269.377 137.636 269.549C137.557 269.721 137.516 269.909 137.518 270.099C137.506 270.481 137.641 270.853 137.895 271.138C138.15 271.424 138.504 271.6 138.885 271.632Z" fill="#F15D24"/>
<path d="M69.1098 189.117C69.1071 188.357 68.8592 187.719 67.8537 187.748C67.6743 187.702 67.4866 187.7 67.3061 187.741C67.1256 187.782 66.9574 187.865 66.8155 187.984C66.6735 188.103 66.5619 188.254 66.4898 188.424C66.4176 188.595 66.3871 188.78 66.4006 188.965C66.3846 189.149 66.4059 189.334 66.4632 189.51C66.5205 189.686 66.6127 189.848 66.7341 189.987C66.8556 190.127 67.0039 190.24 67.1702 190.321C67.3364 190.401 67.5173 190.448 67.7018 190.457C67.8851 190.474 68.0699 190.451 68.2438 190.391C68.4177 190.33 68.5767 190.233 68.71 190.106C68.8434 189.98 68.9481 189.826 69.017 189.655C69.0859 189.484 69.1176 189.301 69.1098 189.117Z" fill="#F15D24"/>
<path d="M58.3511 159.176C58.3484 158.416 58.1096 157.777 57.0835 157.79C56.9057 157.748 56.7206 157.748 56.5428 157.79C56.365 157.831 56.1993 157.914 56.0588 158.03C55.9182 158.147 55.8066 158.295 55.7327 158.462C55.6588 158.629 55.6246 158.811 55.6329 158.993C55.6147 159.177 55.634 159.364 55.6896 159.54C55.7452 159.717 55.8359 159.881 55.9564 160.022C56.0768 160.162 56.2245 160.277 56.3906 160.36C56.5566 160.442 56.7375 160.49 56.9225 160.5C57.1051 160.515 57.2887 160.492 57.4617 160.432C57.6347 160.372 57.7933 160.276 57.9276 160.152C58.0619 160.027 58.1689 159.876 58.2418 159.708C58.3147 159.54 58.3519 159.359 58.3511 159.176Z" fill="#F15D24"/>
<path d="M95.0477 231.762C95.0592 231.005 94.8242 230.361 93.6961 230.338C93.5229 230.302 93.3437 230.307 93.1726 230.352C93.0016 230.397 92.8432 230.481 92.71 230.597C92.5767 230.714 92.4721 230.859 92.4043 231.023C92.3365 231.186 92.3074 231.363 92.3192 231.539C92.2987 231.724 92.316 231.911 92.3698 232.089C92.4237 232.267 92.513 232.432 92.6325 232.574C92.7519 232.716 92.899 232.833 93.0648 232.917C93.2306 233.001 93.4117 233.05 93.5971 233.062C93.7803 233.085 93.9663 233.068 94.1425 233.013C94.3187 232.958 94.481 232.866 94.6185 232.743C94.756 232.619 94.8655 232.468 94.9395 232.299C95.0135 232.13 95.0504 231.947 95.0477 231.762Z" fill="#F15D24"/>
<path d="M116.555 255.317C116.612 254.488 116.132 253.805 115.392 253.856C114.652 253.906 114.047 254.154 114.061 255.06C114.02 255.236 114.018 255.419 114.057 255.595C114.097 255.771 114.175 255.936 114.287 256.077C114.399 256.219 114.542 256.333 114.705 256.412C114.867 256.49 115.045 256.53 115.226 256.53C115.397 256.558 115.572 256.546 115.737 256.497C115.903 256.447 116.056 256.361 116.184 256.244C116.311 256.128 116.411 255.984 116.476 255.823C116.54 255.662 116.567 255.489 116.555 255.317Z" fill="#F15D24"/>
<path d="M131.558 268.268C131.605 268.095 131.612 267.914 131.579 267.738C131.546 267.563 131.474 267.396 131.368 267.253C131.262 267.109 131.124 266.991 130.966 266.907C130.808 266.824 130.633 266.777 130.454 266.771C130.288 266.735 130.117 266.736 129.951 266.775C129.786 266.813 129.631 266.888 129.498 266.993C129.365 267.098 129.257 267.232 129.182 267.384C129.107 267.536 129.066 267.703 129.063 267.873C129.018 268.047 129.012 268.229 129.044 268.406C129.076 268.583 129.147 268.751 129.25 268.899C129.354 269.046 129.488 269.169 129.643 269.26C129.799 269.35 129.972 269.406 130.151 269.423C130.322 269.452 130.496 269.443 130.663 269.399C130.829 269.355 130.984 269.275 131.118 269.165C131.251 269.056 131.359 268.919 131.435 268.764C131.511 268.609 131.553 268.44 131.558 268.268Z" fill="#F15D24"/>
<path d="M101.561 242.655C101.604 242.481 101.608 242.301 101.571 242.126C101.534 241.951 101.457 241.787 101.347 241.647C101.238 241.506 101.097 241.392 100.937 241.314C100.776 241.236 100.6 241.195 100.421 241.195C100.254 241.162 100.081 241.166 99.9163 241.209C99.7511 241.251 99.5977 241.33 99.4672 241.44C99.3368 241.55 99.2328 241.688 99.163 241.843C99.0931 241.999 99.0591 242.168 99.0636 242.339C99.0215 242.514 99.0186 242.697 99.0551 242.873C99.0916 243.05 99.1667 243.217 99.2749 243.361C99.3832 243.505 99.522 243.624 99.6814 243.709C99.8408 243.793 100.017 243.841 100.197 243.85C100.367 243.873 100.541 243.86 100.706 243.811C100.87 243.761 101.023 243.677 101.152 243.564C101.281 243.45 101.385 243.31 101.455 243.154C101.526 242.997 101.562 242.827 101.561 242.655Z" fill="#F15D24"/>
<path d="M62.6198 178.516C62.5943 178.212 62.4617 177.926 62.2456 177.71C62.0295 177.495 61.7438 177.362 61.4394 177.337C61.135 177.312 60.8316 177.396 60.5831 177.574C60.3346 177.751 60.1571 178.011 60.0823 178.307C59.9972 179.131 60.449 179.583 61.306 179.741C61.4737 179.751 61.6418 179.727 61.7999 179.67C61.958 179.614 62.1029 179.525 62.2258 179.411C62.3487 179.296 62.447 179.158 62.5147 179.004C62.5824 178.85 62.6182 178.684 62.6198 178.516Z" fill="#F15D24"/>
<path d="M73.513 208.437C73.533 208.116 73.4243 207.799 73.2108 207.557C72.9973 207.315 72.6964 207.168 72.3745 207.148C72.0525 207.128 71.7358 207.237 71.4941 207.45C71.2523 207.664 71.1052 207.965 71.0853 208.287C71.0667 208.45 71.0818 208.615 71.1294 208.773C71.1771 208.93 71.2563 209.076 71.3623 209.201C71.4683 209.327 71.5988 209.429 71.7458 209.503C71.8929 209.576 72.0533 209.619 72.2174 209.628C72.3814 209.638 72.5457 209.615 72.7006 209.56C72.8555 209.505 72.9978 209.42 73.1188 209.309C73.2398 209.197 73.3371 209.063 73.4048 208.913C73.4726 208.764 73.5094 208.602 73.513 208.437Z" fill="#F15D24"/>
<path d="M79.9081 219.112C79.9324 218.956 79.923 218.796 79.8805 218.644C79.8381 218.491 79.7636 218.35 79.662 218.229C79.5605 218.107 79.4341 218.009 79.2916 217.941C79.149 217.872 78.9934 217.835 78.8353 217.832C78.6764 217.789 78.5097 217.783 78.3482 217.815C78.1867 217.847 78.0348 217.916 77.9042 218.017C77.7737 218.117 77.668 218.246 77.5953 218.394C77.5227 218.541 77.4851 218.704 77.4854 218.868C77.4564 219.032 77.4627 219.2 77.5039 219.36C77.5451 219.521 77.6203 219.671 77.7244 219.8C77.8285 219.93 77.9591 220.035 78.1073 220.11C78.2556 220.184 78.4182 220.226 78.584 220.232C78.7452 220.25 78.9082 220.234 79.0631 220.186C79.218 220.138 79.3616 220.06 79.4854 219.955C79.6091 219.85 79.7103 219.722 79.783 219.577C79.8556 219.432 79.8982 219.274 79.9081 219.112Z" fill="#F15D24"/>
<path d="M107.884 253.219C107.9 253.055 107.879 252.89 107.823 252.736C107.766 252.581 107.675 252.442 107.557 252.327C107.438 252.213 107.296 252.127 107.139 252.075C106.983 252.024 106.817 252.009 106.654 252.031C106.494 252.018 106.333 252.041 106.182 252.096C106.031 252.151 105.893 252.237 105.779 252.35C105.664 252.462 105.574 252.598 105.516 252.748C105.458 252.897 105.432 253.058 105.441 253.218C105.438 253.378 105.467 253.537 105.525 253.685C105.584 253.834 105.671 253.969 105.782 254.084C105.893 254.199 106.026 254.29 106.172 254.354C106.319 254.417 106.477 254.451 106.636 254.453C106.802 254.465 106.968 254.441 107.124 254.383C107.28 254.326 107.421 254.235 107.539 254.119C107.658 254.002 107.749 253.861 107.809 253.706C107.868 253.551 107.894 253.385 107.884 253.219Z" fill="#F15D24"/>
<path d="M86.2984 229.727C86.3176 229.56 86.2995 229.392 86.2454 229.233C86.1913 229.074 86.1026 228.93 85.9857 228.81C85.8688 228.69 85.7266 228.597 85.5694 228.539C85.4123 228.48 85.2442 228.458 85.0772 228.473C84.9236 228.449 84.7667 228.46 84.6178 228.505C84.469 228.549 84.3318 228.626 84.2162 228.73C84.1006 228.834 84.0094 228.962 83.9492 229.105C83.889 229.248 83.8613 229.403 83.868 229.558C83.8443 229.723 83.8561 229.891 83.9026 230.051C83.9491 230.211 84.0293 230.359 84.1377 230.485C84.2461 230.612 84.3803 230.713 84.5313 230.784C84.6823 230.854 84.8465 230.891 85.013 230.893C85.1742 230.901 85.3355 230.878 85.4876 230.824C85.6397 230.77 85.7796 230.687 85.8992 230.578C86.0187 230.47 86.1156 230.339 86.1841 230.193C86.2526 230.046 86.2915 229.888 86.2984 229.727Z" fill="#F15D24"/>
<path d="M56.1905 167.824C56.2077 167.657 56.1878 167.488 56.1321 167.33C56.0764 167.172 55.9863 167.028 55.8683 166.908C55.7503 166.789 55.6073 166.697 55.4496 166.64C55.2919 166.582 55.1235 166.56 54.9564 166.576C54.8022 166.553 54.6449 166.564 54.4957 166.609C54.3465 166.654 54.209 166.732 54.0931 166.836C53.9772 166.94 53.8858 167.068 53.8253 167.212C53.7648 167.356 53.7368 167.511 53.7433 167.667C53.7193 167.832 53.731 168 53.7777 168.16C53.8244 168.32 53.9049 168.468 54.0139 168.594C54.1229 168.72 54.2578 168.821 54.4093 168.891C54.5608 168.96 54.7255 168.996 54.8922 168.996C55.0553 169.008 55.2193 168.988 55.3741 168.935C55.5289 168.882 55.6713 168.798 55.7928 168.688C55.9142 168.579 56.0121 168.446 56.0804 168.297C56.1488 168.148 56.1862 167.987 56.1905 167.824Z" fill="#F15D24"/>
<path d="M122.896 265.975C122.924 265.822 122.918 265.665 122.878 265.514C122.838 265.364 122.765 265.224 122.665 265.105C122.564 264.986 122.439 264.891 122.298 264.826C122.156 264.761 122.003 264.727 121.847 264.729C121.683 264.691 121.514 264.691 121.35 264.727C121.186 264.764 121.032 264.836 120.9 264.939C120.768 265.043 120.66 265.174 120.585 265.324C120.51 265.474 120.469 265.639 120.466 265.807C120.449 265.968 120.465 266.131 120.512 266.285C120.56 266.44 120.638 266.584 120.742 266.708C120.846 266.832 120.975 266.934 121.119 267.007C121.263 267.081 121.421 267.125 121.583 267.136C121.747 267.158 121.915 267.144 122.074 267.095C122.233 267.047 122.379 266.965 122.504 266.855C122.628 266.745 122.728 266.609 122.796 266.458C122.863 266.306 122.898 266.141 122.896 265.975Z" fill="#F15D24"/>
<path d="M66.9139 197.682C66.9312 197.519 66.9109 197.353 66.8545 197.199C66.798 197.045 66.7071 196.905 66.5885 196.791C66.4699 196.677 66.3268 196.592 66.1702 196.542C66.0136 196.492 65.8477 196.479 65.685 196.503C65.5284 196.488 65.3705 196.507 65.2218 196.559C65.0731 196.61 64.937 196.692 64.8226 196.8C64.7081 196.908 64.6179 197.039 64.5579 197.185C64.4979 197.33 64.4695 197.487 64.4745 197.644C64.4659 197.806 64.49 197.969 64.5455 198.122C64.6009 198.275 64.6866 198.415 64.7974 198.534C64.9082 198.654 65.0419 198.749 65.1905 198.816C65.339 198.882 65.4994 198.918 65.6621 198.921C65.8284 198.933 65.9951 198.908 66.1512 198.85C66.3073 198.792 66.4493 198.701 66.5677 198.584C66.686 198.467 66.7782 198.326 66.8379 198.17C66.8976 198.015 66.9235 197.848 66.9139 197.682Z" fill="#F15D24"/>
<path d="M51.8372 148.5C51.8513 148.334 51.8285 148.167 51.7703 148.011C51.7121 147.855 51.6201 147.713 51.5007 147.597C51.3814 147.48 51.2377 147.392 51.0801 147.337C50.9225 147.283 50.7547 147.264 50.589 147.282C50.4349 147.262 50.2782 147.276 50.1302 147.323C49.9822 147.371 49.8465 147.451 49.733 147.557C49.6195 147.663 49.5309 147.793 49.4736 147.937C49.4163 148.082 49.3918 148.237 49.4017 148.392C49.3808 148.558 49.3957 148.726 49.4453 148.885C49.495 149.044 49.5784 149.19 49.6897 149.314C49.801 149.438 49.9376 149.537 50.0904 149.603C50.2432 149.67 50.4085 149.703 50.5751 149.7C50.7375 149.707 50.8998 149.682 51.0522 149.625C51.2045 149.568 51.3438 149.481 51.4617 149.369C51.5796 149.257 51.6736 149.122 51.7381 148.973C51.8027 148.824 51.8364 148.663 51.8372 148.5Z" fill="#F15D24"/>
<path d="M60.4839 186.852C60.5193 186.7 60.5175 186.542 60.4789 186.392C60.4403 186.241 60.3659 186.102 60.262 185.986C60.1581 185.87 60.0279 185.781 59.8822 185.726C59.7366 185.671 59.5799 185.652 59.4254 185.671C59.2914 185.622 59.1477 185.604 59.0057 185.619C58.8637 185.634 58.7271 185.682 58.6065 185.759C58.4859 185.835 58.3846 185.938 58.3104 186.06C58.2362 186.183 58.1911 186.32 58.1787 186.462C58.1301 186.63 58.1179 186.807 58.143 186.98C58.1682 187.153 58.23 187.318 58.3244 187.465C58.4188 187.613 58.5435 187.738 58.6903 187.833C58.8371 187.928 59.0025 187.99 59.1754 188.016C59.3408 188.042 59.5098 188.03 59.6703 187.983C59.8308 187.936 59.9789 187.854 60.1039 187.742C60.229 187.631 60.3279 187.493 60.3936 187.34C60.4593 187.186 60.4901 187.019 60.4839 186.852Z" fill="#F15D24"/>
<path d="M92.731 240.446C92.829 239.648 92.4804 239.177 91.7473 239.144C91.1717 239.116 90.5999 239.34 90.6478 240.094C90.5601 240.835 90.7473 241.338 91.5682 241.405C91.7104 241.44 91.8586 241.44 92.0011 241.408C92.1436 241.375 92.2765 241.309 92.3893 241.216C92.5021 241.123 92.5917 241.005 92.651 240.872C92.7103 240.738 92.7377 240.592 92.731 240.446Z" fill="#F15D24"/>
<path d="M137.744 278.737C137.895 277.987 137.372 277.652 136.74 277.613C136.589 277.592 136.436 277.606 136.292 277.655C136.148 277.703 136.018 277.785 135.911 277.893C135.804 278.001 135.724 278.132 135.677 278.276C135.63 278.421 135.618 278.574 135.64 278.724C135.64 279.434 135.872 279.825 136.603 279.882C137.335 279.939 137.735 279.545 137.744 278.737Z" fill="#F15D24"/>
<path d="M114.134 263.656C114.217 263.137 113.744 262.735 113.105 262.683C112.962 262.669 112.817 262.686 112.681 262.734C112.544 262.781 112.42 262.858 112.317 262.958C112.213 263.059 112.132 263.18 112.08 263.315C112.029 263.45 112.007 263.594 112.016 263.738C111.98 263.882 111.978 264.033 112.01 264.179C112.041 264.324 112.105 264.461 112.198 264.577C112.29 264.694 112.408 264.788 112.542 264.852C112.677 264.916 112.824 264.949 112.973 264.947C113.705 265.004 114.054 264.613 114.134 263.656Z" fill="#F15D24"/>
<path d="M49.4387 156.906C49.4645 156.76 49.4593 156.61 49.4234 156.466C49.3875 156.322 49.3218 156.187 49.2305 156.07C49.1392 155.953 49.0243 155.857 48.8934 155.787C48.7624 155.718 48.6182 155.676 48.4703 155.666C48.3223 155.656 48.1738 155.676 48.0344 155.727C47.895 155.778 47.7679 155.857 47.6612 155.96C47.5545 156.064 47.4707 156.188 47.4151 156.325C47.3596 156.463 47.3335 156.611 47.3387 156.759C47.3035 156.903 47.302 157.053 47.3343 157.198C47.3667 157.342 47.432 157.477 47.5253 157.593C47.6185 157.708 47.7371 157.8 47.8718 157.862C48.0065 157.923 48.1536 157.953 48.3018 157.949C48.4484 157.973 48.5986 157.963 48.741 157.921C48.8834 157.878 49.0143 157.804 49.1238 157.704C49.2333 157.603 49.3185 157.479 49.3731 157.341C49.4276 157.203 49.4501 157.054 49.4387 156.906Z" fill="#F15D24"/>
<path d="M53.7963 176.192C53.825 176.05 53.8224 175.904 53.7886 175.764C53.7547 175.624 53.6906 175.492 53.6007 175.38C53.5107 175.267 53.3971 175.175 53.2679 175.111C53.1386 175.047 52.9969 175.012 52.8527 175.008C52.7016 174.988 52.5479 175.002 52.4029 175.049C52.2579 175.096 52.1252 175.174 52.0143 175.279C51.9035 175.384 51.8173 175.512 51.7621 175.654C51.7068 175.796 51.684 175.948 51.6951 176.1C51.669 176.247 51.676 176.398 51.7154 176.542C51.7549 176.686 51.8259 176.819 51.9233 176.933C52.0206 177.046 52.1419 177.136 52.2784 177.196C52.4149 177.257 52.5631 177.286 52.7123 177.282C52.8588 177.296 53.0065 177.278 53.1449 177.228C53.2833 177.178 53.4089 177.098 53.5126 176.994C53.6163 176.889 53.6956 176.763 53.7446 176.624C53.7937 176.486 53.8113 176.338 53.7963 176.192Z" fill="#F15D24"/>
<path d="M99.0855 251.099C99.1094 250.961 99.1029 250.82 99.0665 250.686C99.0301 250.551 98.9646 250.426 98.8747 250.319C98.7847 250.213 98.6725 250.127 98.5459 250.068C98.4193 250.01 98.2814 249.979 98.1418 249.98C97.8683 249.957 97.5968 250.043 97.387 250.22C97.1771 250.397 97.0462 250.65 97.023 250.924C96.9997 251.197 97.0861 251.469 97.2631 251.678C97.44 251.888 97.6931 252.019 97.9666 252.042C98.1041 252.066 98.2451 252.06 98.3798 252.023C98.5144 251.987 98.6395 251.922 98.7462 251.832C98.8528 251.742 98.9385 251.629 98.9971 251.503C99.0557 251.376 99.0859 251.238 99.0855 251.099Z" fill="#F15D24"/>
<path d="M129.313 276.642C129.407 275.946 128.99 275.674 128.412 275.563C127.797 275.554 127.306 275.694 127.256 276.406C127.227 276.55 127.231 276.699 127.266 276.842C127.301 276.985 127.366 277.119 127.457 277.234C127.549 277.349 127.664 277.443 127.795 277.51C127.926 277.576 128.07 277.614 128.217 277.619C128.354 277.632 128.493 277.617 128.624 277.574C128.755 277.531 128.876 277.462 128.979 277.37C129.081 277.278 129.164 277.166 129.222 277.041C129.279 276.916 129.31 276.78 129.313 276.642Z" fill="#F15D24"/>
<path d="M71.0906 216.897C71.0984 216.77 71.0784 216.643 71.0319 216.524C70.9855 216.405 70.9138 216.298 70.8218 216.21C70.7298 216.122 70.6197 216.055 70.4991 216.013C70.3786 215.972 70.2505 215.957 70.1237 215.971C69.49 215.923 69.099 216.186 69.0061 216.988C69.0051 217.123 69.0309 217.257 69.0818 217.382C69.1328 217.507 69.208 217.621 69.3031 217.717C69.3982 217.813 69.5114 217.89 69.6361 217.942C69.7608 217.994 69.8946 218.021 70.0298 218.021C70.1764 218.028 70.3227 218.003 70.4588 217.948C70.5948 217.893 70.7174 217.809 70.8181 217.703C70.9188 217.596 70.9953 217.469 71.0423 217.33C71.0893 217.191 71.1058 217.043 71.0906 216.897Z" fill="#F15D24"/>
<path d="M64.712 206.041C64.7182 205.918 64.6984 205.795 64.6538 205.681C64.6092 205.566 64.5408 205.462 64.4531 205.376C64.3654 205.289 64.2604 205.223 64.1451 205.18C64.0297 205.137 63.9066 205.119 63.7838 205.127C63.6458 205.098 63.503 205.101 63.3662 205.136C63.2294 205.17 63.1023 205.236 62.9945 205.326C62.8867 205.417 62.801 205.532 62.7439 205.661C62.6868 205.79 62.6598 205.93 62.665 206.071C62.6557 206.213 62.6758 206.356 62.724 206.49C62.7722 206.624 62.8476 206.747 62.9453 206.851C63.0431 206.955 63.1612 207.037 63.2922 207.093C63.4233 207.15 63.5645 207.178 63.7071 207.178C63.8497 207.177 63.9906 207.147 64.121 207.089C64.2515 207.032 64.3687 206.948 64.4654 206.843C64.5621 206.738 64.6362 206.615 64.683 206.48C64.7299 206.345 64.7485 206.202 64.7378 206.06L64.712 206.041Z" fill="#F15D24"/>
<path d="M58.0789 195.405C58.1097 194.751 57.7109 194.508 57.0242 194.477C56.9033 194.456 56.7789 194.462 56.661 194.497C56.5431 194.532 56.4349 194.594 56.3452 194.678C56.2556 194.762 56.1868 194.866 56.1445 194.981C56.1022 195.097 56.0874 195.22 56.1015 195.342C56.0803 195.48 56.089 195.62 56.1271 195.753C56.1652 195.887 56.2317 196.01 56.3221 196.116C56.4125 196.221 56.5246 196.305 56.6508 196.363C56.7769 196.421 56.9141 196.451 57.0529 196.451C57.1914 196.459 57.3299 196.437 57.4592 196.387C57.5884 196.337 57.7056 196.259 57.8027 196.16C57.8998 196.061 57.9747 195.943 58.0223 195.813C58.0699 195.682 58.0892 195.544 58.0789 195.405Z" fill="#F15D24"/>
<path d="M84.032 238.247C84.0616 237.584 83.6512 237.357 82.9503 237.323C82.8307 237.304 82.7083 237.313 82.5927 237.349C82.4771 237.385 82.3715 237.448 82.2842 237.532C82.197 237.616 82.1305 237.719 82.09 237.833C82.0494 237.947 82.0361 238.069 82.0508 238.189C82.0301 238.327 82.0392 238.468 82.0778 238.601C82.1163 238.735 82.1832 238.859 82.274 238.965C82.3648 239.07 82.4774 239.155 82.6039 239.213C82.7305 239.272 82.8681 239.302 83.0074 239.302C83.1463 239.308 83.285 239.285 83.4143 239.234C83.5436 239.183 83.6606 239.105 83.7575 239.005C83.8544 238.906 83.929 238.787 83.9763 238.656C84.0237 238.525 84.0427 238.386 84.032 238.247Z" fill="#F15D24"/>
<path d="M77.6478 227.71C77.6499 227.578 77.6261 227.448 77.5778 227.326C77.5295 227.203 77.4576 227.092 77.3662 226.998C77.2748 226.903 77.1657 226.828 77.0451 226.776C76.9246 226.723 76.7949 226.695 76.6635 226.693C76.5322 226.691 76.4017 226.715 76.2795 226.763C76.1574 226.812 76.0459 226.884 75.9515 226.975C75.8572 227.066 75.7817 227.175 75.7295 227.296C75.6773 227.417 75.6494 227.546 75.6473 227.678C75.6452 227.809 75.669 227.939 75.7173 228.062C75.7656 228.184 75.8375 228.295 75.9289 228.39C76.0203 228.484 76.1294 228.559 76.25 228.612C76.3705 228.664 76.5002 228.692 76.6316 228.694C76.7629 228.696 76.8934 228.672 77.0156 228.624C77.1377 228.576 77.2492 228.504 77.3435 228.412C77.4379 228.321 77.5134 228.212 77.5656 228.091C77.6178 227.971 77.6457 227.841 77.6478 227.71Z" fill="#F15D24"/>
<path d="M47.2743 165.655C47.2967 165.535 47.2936 165.411 47.2653 165.292C47.2369 165.173 47.1838 165.061 47.1095 164.963C47.0352 164.866 46.9413 164.785 46.8338 164.726C46.7263 164.667 46.6077 164.631 46.4855 164.62C46.3568 164.595 46.224 164.597 46.0961 164.627C45.9682 164.657 45.8482 164.713 45.744 164.793C45.6398 164.873 45.5538 164.974 45.4919 165.09C45.4299 165.206 45.3934 165.334 45.3847 165.465C45.3703 165.584 45.3796 165.705 45.412 165.821C45.4444 165.937 45.4994 166.046 45.5737 166.14C45.648 166.235 45.7403 166.314 45.8452 166.373C45.9501 166.432 46.0656 166.47 46.1851 166.484C46.3124 166.514 46.4445 166.514 46.5722 166.487C46.6999 166.459 46.8199 166.404 46.9239 166.325C47.0278 166.246 47.1131 166.145 47.1736 166.029C47.2342 165.914 47.2686 165.786 47.2743 165.655Z" fill="#F15D24"/>
<path d="M105.461 261.711C105.506 261.593 105.52 261.465 105.503 261.34C105.486 261.215 105.439 261.095 105.365 260.993C105.291 260.89 105.193 260.808 105.079 260.752C104.966 260.697 104.84 260.67 104.714 260.675C104.088 260.617 103.826 260.977 103.785 261.591C103.744 262.206 103.914 262.495 104.558 262.55C105.202 262.606 105.5 262.337 105.461 261.711Z" fill="#F15D24"/>
<path d="M120.507 274.541C120.55 273.903 120.285 273.568 119.656 273.524C119.028 273.48 118.829 273.928 118.805 274.498C118.78 275.069 119.035 275.397 119.627 275.381C120.316 275.494 120.463 275.105 120.507 274.541Z" fill="#F15D24"/>
<path d="M90.2662 248.898C90.2802 248.785 90.271 248.67 90.2391 248.561C90.2073 248.451 90.1535 248.35 90.081 248.262C90.0085 248.174 89.9189 248.102 89.8175 248.049C89.7162 247.997 89.6053 247.966 89.4916 247.958C89.3779 247.95 89.2638 247.966 89.1563 248.004C89.0487 248.041 88.95 248.1 88.866 248.177C88.7821 248.255 88.7148 248.348 88.6681 248.452C88.6215 248.556 88.5965 248.668 88.5947 248.782C88.5703 248.9 88.5714 249.022 88.598 249.14C88.6246 249.258 88.6761 249.368 88.749 249.464C88.8219 249.56 88.9144 249.64 89.0205 249.697C89.1266 249.755 89.2438 249.789 89.3641 249.797C89.4844 249.805 89.6052 249.788 89.7182 249.746C89.8312 249.703 89.9338 249.638 90.0193 249.552C90.1047 249.467 90.171 249.365 90.2135 249.252C90.2561 249.139 90.2741 249.019 90.2662 248.898Z" fill="#F15D24"/>
<path d="M51.5231 184.892C51.5597 184.777 51.5711 184.655 51.5564 184.535C51.5417 184.414 51.5013 184.299 51.438 184.195C51.3747 184.092 51.29 184.004 51.1895 183.936C51.089 183.868 50.9752 183.823 50.8557 183.803C50.7446 183.776 50.6289 183.773 50.5167 183.795C50.4044 183.817 50.2982 183.863 50.2053 183.93C50.1124 183.996 50.035 184.082 49.9785 184.182C49.9219 184.281 49.8874 184.391 49.8775 184.505C49.8092 185.156 50.0196 185.564 50.6236 185.662C50.7349 185.68 50.8487 185.674 50.9573 185.643C51.0658 185.613 51.1665 185.559 51.2521 185.486C51.3378 185.413 51.4064 185.322 51.4532 185.219C51.5 185.117 51.5239 185.005 51.5231 184.892Z" fill="#F15D24"/>
<path d="M68.8679 225.337C68.922 224.749 68.5645 224.666 68.1037 224.603C67.6429 224.54 67.2106 224.643 67.2107 225.288C67.1921 225.4 67.197 225.514 67.2251 225.624C67.2532 225.733 67.3038 225.836 67.3738 225.925C67.4438 226.014 67.5316 226.087 67.6315 226.14C67.7315 226.193 67.8414 226.225 67.9542 226.233C68.5273 226.275 68.8125 225.917 68.8679 225.337Z" fill="#F15D24"/>
<path d="M45.1458 174.077C45.1947 173.485 44.8385 173.411 44.3777 173.348C43.9169 173.285 43.4859 173.397 43.4898 174.038C43.471 174.149 43.4759 174.264 43.5041 174.373C43.5324 174.483 43.5835 174.585 43.654 174.674C43.7245 174.763 43.8129 174.835 43.9134 174.888C44.0139 174.94 44.1242 174.97 44.2373 174.977C44.8052 175.016 45.0904 174.657 45.1458 174.077Z" fill="#F15D24"/>
<path d="M96.8693 259.39C96.9583 258.917 96.4769 258.838 96.0264 258.815C95.576 258.792 95.2081 258.895 95.1979 259.468C95.1876 260.041 95.4304 260.449 96.0112 260.449C96.592 260.449 96.8113 260.113 96.8693 259.39Z" fill="#F15D24"/>
<path d="M62.2647 214.748C62.3602 214.126 61.9923 213.971 61.2592 213.938C60.9868 213.903 60.6345 214.05 60.6398 214.667C60.6332 214.775 60.648 214.884 60.6834 214.987C60.7188 215.089 60.774 215.184 60.846 215.265C60.918 215.347 61.0053 215.413 61.1029 215.461C61.2005 215.508 61.3065 215.536 61.4149 215.543C61.5233 215.549 61.632 215.534 61.7346 215.499C61.8373 215.464 61.932 215.408 62.0133 215.336C62.0946 215.264 62.1609 215.177 62.2085 215.08C62.2561 214.982 62.284 214.876 62.2906 214.768L62.2647 214.748Z" fill="#F15D24"/>
<path d="M55.7934 204.242C55.8154 204.14 55.8157 204.035 55.7945 203.933C55.7733 203.832 55.7309 203.736 55.6702 203.651C55.6095 203.567 55.5317 203.496 55.442 203.444C55.3523 203.392 55.2525 203.359 55.1493 203.347C55.0495 203.313 54.943 203.304 54.839 203.321C54.7349 203.337 54.6365 203.379 54.5523 203.443C54.4682 203.506 54.4009 203.589 54.3562 203.685C54.3116 203.78 54.291 203.885 54.2962 203.99C54.281 204.207 54.3507 204.422 54.4907 204.588C54.6306 204.755 54.8298 204.861 55.0462 204.883C55.2266 204.882 55.4007 204.817 55.5375 204.7C55.6743 204.582 55.765 204.42 55.7934 204.242Z" fill="#F15D24"/>
<path d="M75.1632 236.219C75.1864 236.118 75.1879 236.014 75.1678 235.912C75.1476 235.81 75.1062 235.714 75.0462 235.629C74.9863 235.545 74.9091 235.474 74.8198 235.421C74.7305 235.369 74.6311 235.335 74.528 235.324C74.4284 235.288 74.3214 235.277 74.2166 235.292C74.1118 235.308 74.0123 235.348 73.927 235.411C73.8417 235.474 73.7731 235.557 73.7274 235.652C73.6816 235.748 73.6601 235.853 73.6647 235.959C73.652 236.182 73.7281 236.401 73.8764 236.568C74.0246 236.735 74.233 236.837 74.456 236.851C74.6279 236.841 74.7913 236.773 74.9198 236.659C75.0482 236.544 75.134 236.389 75.1632 236.219Z" fill="#F15D24"/>
<path d="M81.6399 246.859C81.6617 246.399 81.5133 246.135 81.0215 246.113C80.5298 246.091 80.4111 246.421 80.3737 246.837C80.3363 247.253 80.5093 247.56 81.1173 247.588C81.4967 247.598 81.6141 247.291 81.6399 246.859Z" fill="#F15D24"/>
<path d="M88.0061 257.593C88.022 257.517 88.0203 257.44 88.0011 257.365C87.9819 257.291 87.9457 257.222 87.8955 257.164C87.8452 257.106 87.7822 257.061 87.7113 257.031C87.6405 257.001 87.5637 256.989 87.4871 256.994C87.1038 256.956 86.8018 257.036 86.7773 257.51C86.735 257.604 86.7158 257.707 86.7215 257.81C86.7271 257.913 86.7573 258.013 86.8096 258.102C86.8618 258.191 86.9347 258.266 87.022 258.321C87.1093 258.376 87.2084 258.409 87.3112 258.418C87.414 258.427 87.5173 258.411 87.6126 258.371C87.708 258.332 87.7924 258.27 87.859 258.191C87.9255 258.112 87.9722 258.019 87.9951 257.918C88.018 257.818 88.0164 257.713 87.9906 257.613L88.0061 257.593Z" fill="#F15D24"/>
<path d="M60.0174 223.371C60.0497 222.919 59.7721 222.784 59.3824 222.766C59.3062 222.753 59.228 222.757 59.1537 222.778C59.0795 222.8 59.011 222.838 58.9536 222.889C58.8961 222.941 58.8512 223.005 58.8222 223.077C58.7932 223.149 58.7809 223.226 58.7861 223.303C58.751 223.398 58.7386 223.499 58.75 223.6C58.7614 223.7 58.7961 223.797 58.8515 223.881C58.9069 223.966 58.9814 224.036 59.069 224.086C59.1565 224.137 59.2547 224.166 59.3556 224.172C59.4564 224.177 59.5572 224.159 59.6498 224.119C59.7424 224.078 59.8242 224.016 59.8886 223.939C59.953 223.861 59.9982 223.769 60.0206 223.67C60.0429 223.572 60.0419 223.469 60.0174 223.371Z" fill="#F15D24"/>
<path d="M42.6871 182.768C42.7142 182.312 42.4379 182.186 42.0482 182.168C41.9725 182.153 41.8946 182.156 41.8203 182.177C41.746 182.197 41.6773 182.234 41.6196 182.285C41.5619 182.336 41.5166 182.4 41.4873 182.471C41.458 182.542 41.4455 182.619 41.4506 182.696C41.4169 182.79 41.4056 182.891 41.4177 182.991C41.4297 183.09 41.4648 183.186 41.5201 183.269C41.5755 183.353 41.6495 183.422 41.7364 183.472C41.8233 183.522 41.9207 183.552 42.0207 183.557C42.1208 183.563 42.2209 183.546 42.313 183.506C42.4051 183.466 42.4868 183.406 42.5515 183.329C42.6161 183.253 42.6621 183.162 42.6856 183.065C42.7092 182.967 42.7097 182.866 42.6871 182.768Z" fill="#F15D24"/>
<path d="M49.3462 193.487C49.3558 193.402 49.3485 193.316 49.3246 193.234C49.3007 193.152 49.2608 193.076 49.2071 193.009C49.1534 192.943 49.0871 192.888 49.0119 192.847C48.9367 192.806 48.8542 192.781 48.7691 192.772C48.6768 192.751 48.5809 192.75 48.4882 192.77C48.3956 192.79 48.3084 192.83 48.233 192.888C48.1577 192.945 48.0958 193.019 48.052 193.103C48.0081 193.187 47.9833 193.279 47.9793 193.374C47.9719 193.464 47.9822 193.554 48.0096 193.64C48.0371 193.726 48.0812 193.805 48.1394 193.874C48.1976 193.943 48.2687 193.999 48.3488 194.04C48.4289 194.082 48.5163 194.107 48.606 194.114C48.6958 194.122 48.7861 194.111 48.8719 194.084C48.9576 194.056 49.0372 194.012 49.1059 193.954C49.1746 193.896 49.2312 193.825 49.2724 193.745C49.3137 193.665 49.3387 193.577 49.3462 193.487Z" fill="#F15D24"/>
<path d="M66.3938 233.79C66.4312 233.536 66.1124 233.531 65.8556 233.507C65.5987 233.484 65.249 233.424 65.2155 233.834C65.182 234.245 65.3343 234.568 65.7564 234.587C66.1784 234.605 66.2932 234.279 66.3938 233.79Z" fill="#F15D24"/>
<path d="M53.5961 212.572C53.6102 212.187 53.2617 212.2 52.9984 212.196C52.7351 212.193 52.4163 212.155 52.4461 212.589C52.4758 213.023 52.614 213.247 52.9715 213.265C53.0586 213.263 53.1444 213.242 53.2235 213.206C53.3027 213.169 53.3736 213.117 53.432 213.052C53.4903 212.987 53.535 212.911 53.5632 212.829C53.5914 212.746 53.6026 212.659 53.5961 212.572Z" fill="#F15D24"/>
<path d="M46.9857 202.026C47.1198 201.578 46.7739 201.577 46.5352 201.551C46.2964 201.525 45.8485 201.391 45.877 201.912C45.8593 202.071 45.9014 202.231 45.9949 202.361C46.0884 202.49 46.2267 202.581 46.383 202.614C46.5347 202.598 46.6765 202.53 46.7857 202.424C46.8949 202.317 46.9653 202.177 46.9857 202.026Z" fill="#F15D24"/>
<path d="M72.9482 244.649C73.0656 244.213 72.7236 244.206 72.49 244.184C72.2563 244.162 71.7956 244.035 71.8434 244.563C71.8288 244.721 71.8731 244.879 71.9679 245.007C72.0627 245.134 72.2014 245.223 72.3572 245.254C72.5093 245.234 72.6503 245.164 72.7575 245.054C72.8647 244.944 72.9319 244.801 72.9482 244.649Z" fill="#F15D24"/>
<path d="M247.993 104.283C229.593 102.205 212.245 94.6339 198.209 82.5555C161.439 51.107 117.048 60.0964 102.619 70.411C85.872 82.3986 75.832 102.319 73.0639 122.739C70.2957 143.16 74.2107 164.025 81.1819 183.408C86.6436 198.553 94.222 213.35 105.969 224.319C117.473 235.041 132.231 241.477 146.799 247.415C165.528 255.053 184.795 262.296 204.972 263.817C221.427 265.064 240.62 260.702 248.051 246.004C254.397 233.452 250.032 217.436 256.592 204.996C265.782 187.576 290.732 185.981 304.484 171.877C320.525 155.432 318.711 130.592 306.266 121.091C293.346 111.235 268.384 106.521 247.993 104.283Z" fill="#F15D24"/>
<path d="M108.072 201.214C132.596 211.536 150.948 247.453 165.803 259.591C179.404 270.7 204.035 275.835 221.836 274.405C239.637 272.975 253.356 259.507 249.349 242.831C247.6 235.567 242.897 228.436 241.025 221.176C235.06 197.934 258.877 183.746 264.149 162.848C270.245 138.753 250.508 109.266 226.417 88.3078C211.096 74.9734 192.723 63.1818 173.493 59.5797C154.262 55.9776 134.644 62.6506 130.886 78.0218C127.482 91.8997 135.456 112.397 121.642 118.332C111.981 122.503 98.2335 115.849 86.2339 114.748C67.4478 113.028 53.775 126.466 53.5927 142.727C53.4105 158.988 57.335 173.699 74.1696 184.917C82.0409 190.158 99.4455 197.593 108.072 201.214Z" stroke="#FFD537" stroke-width="3.03" stroke-miterlimit="10"/>
<path d="M198.209 82.5555C161.439 51.107 117.048 60.0964 102.619 70.411C85.8719 82.3986 75.832 102.319 73.0638 122.739C70.2956 143.16 74.2107 164.025 81.1818 183.408" fill="#F15D24"/>
</svg>
