<svg width="283" height="237" viewBox="0 0 283 237" fill="none" xmlns="http://www.w3.org/2000/svg">
<path d="M89.3375 49.9258C76.4501 72.0146 34.8789 78.7334 20.4029 90.0803C7.15101 100.437 0.07462 124.424 0.810454 143.542C1.54629 162.66 16.0498 181.675 35.1471 183.27C43.4407 183.958 51.7412 181.509 60.0485 182.08C86.628 183.889 101.434 213.714 124.809 226.492C151.746 241.229 186.083 230.81 211.005 212.875C226.856 201.473 241.119 186.344 246.166 167.487C251.214 148.631 244.667 125.785 227.482 116.522C211.995 108.174 188.407 109.398 182.376 92.8724C178.153 81.3191 186.385 69.2363 188.235 57.0778C191.13 38.0218 176.634 19.0551 158.265 13.2304C139.897 7.40557 123.055 6.39466 109.514 20.1073C103.167 26.5166 93.8694 42.1548 89.3375 49.9258Z" fill="#D2F2ED"/>
<path d="M173.896 148.342C175.856 143.886 181.207 144.903 183.394 148.142C184.37 149.593 184.04 151.354 183.394 152.874C183.095 153.698 182.559 154.416 181.853 154.937" fill="#70B14B"/>
<path d="M161.601 113.414C163.87 113.263 165.349 114.39 166.311 116.488C166.765 117.348 166.939 118.329 166.808 119.293C166.678 120.258 166.249 121.157 165.582 121.866" fill="#70B14B"/>
<path d="M172.315 141.176C171.125 138.467 172.068 135.95 174.866 134.629C177.665 133.309 180.23 134.224 181.599 137.139C182.968 140.055 181.936 142.421 179.013 143.865C178.447 144.165 177.824 144.342 177.184 144.387C176.545 144.432 175.903 144.344 175.3 144.126" fill="#70B14B"/>
<path d="M170.341 129.85C169.083 127.147 170.046 124.623 172.844 123.303C175.643 121.983 178.222 122.877 179.591 125.785C180.959 128.694 179.962 131.122 177.026 132.497C174.213 133.811 171.73 132.827 170.341 129.85Z" fill="#70B14B"/>
<path d="M155.796 109.618C155.36 108.714 155.203 107.699 155.348 106.706C155.492 105.712 155.93 104.784 156.606 104.041C157.281 103.298 158.164 102.775 159.14 102.537C160.115 102.3 161.14 102.36 162.081 102.709C163.022 103.059 163.838 103.682 164.422 104.498C165.007 105.315 165.334 106.287 165.361 107.291C165.389 108.295 165.115 109.284 164.576 110.131C164.037 110.978 163.257 111.645 162.336 112.045" fill="#70B14B"/>
<path d="M185.305 150.921C185.016 150.318 184.851 149.663 184.819 148.995C184.787 148.327 184.889 147.659 185.119 147.031C185.349 146.403 185.703 145.827 186.159 145.338C186.615 144.848 187.164 144.455 187.774 144.181C188.379 143.893 189.035 143.729 189.704 143.702C190.374 143.674 191.042 143.782 191.668 144.02C192.294 144.258 192.865 144.62 193.347 145.085C193.83 145.551 194.212 146.109 194.472 146.726C194.755 147.312 194.918 147.949 194.951 148.6C194.983 149.25 194.885 149.9 194.662 150.512C194.439 151.124 194.095 151.684 193.652 152.161C193.208 152.637 192.673 153.02 192.079 153.286C191.481 153.589 190.829 153.768 190.16 153.812C189.492 153.857 188.821 153.766 188.189 153.545C187.556 153.324 186.975 152.978 186.48 152.527C185.984 152.076 185.585 151.53 185.305 150.921Z" fill="#70B14B"/>
<path d="M144.89 93.5188C145.494 93.2301 146.152 93.0672 146.821 93.04C147.491 93.0127 148.159 93.1216 148.785 93.3602C149.411 93.5987 149.983 93.9619 150.464 94.4277C150.946 94.8935 151.328 95.4523 151.588 96.0702C151.872 96.6559 152.036 97.2928 152.07 97.943C152.103 98.5933 152.006 99.2436 151.783 99.8555C151.561 100.467 151.217 101.028 150.774 101.505C150.33 101.982 149.796 102.365 149.202 102.631" fill="#70B14B"/>
<path d="M175.265 121.604C174.652 121.893 173.987 122.056 173.31 122.083C172.632 122.11 171.957 122 171.322 121.76C170.688 121.52 170.109 121.155 169.619 120.687C169.129 120.219 168.738 119.657 168.469 119.034C168.201 118.412 168.06 117.742 168.056 117.064C168.051 116.386 168.184 115.714 168.444 115.089C168.705 114.463 169.089 113.896 169.573 113.422C170.057 112.947 170.632 112.575 171.263 112.327C172.484 111.848 173.843 111.862 175.054 112.366C176.264 112.87 177.232 113.826 177.751 115.03C178.271 116.234 178.302 117.593 177.838 118.82C177.374 120.047 176.452 121.045 175.265 121.604Z" fill="#70B14B"/>
<path d="M194.005 164.668C193.402 164.957 192.747 165.122 192.079 165.154C191.41 165.186 190.743 165.084 190.115 164.854C189.487 164.624 188.911 164.27 188.422 163.814C187.932 163.358 187.539 162.809 187.265 162.199C186.976 161.595 186.813 160.938 186.785 160.269C186.758 159.599 186.866 158.931 187.104 158.305C187.342 157.679 187.704 157.108 188.169 156.626C188.634 156.144 189.193 155.761 189.81 155.501C190.396 155.218 191.033 155.055 191.684 155.022C192.334 154.99 192.984 155.088 193.596 155.311C194.208 155.534 194.768 155.878 195.245 156.321C195.721 156.765 196.104 157.3 196.37 157.894C196.673 158.492 196.852 159.144 196.896 159.813C196.941 160.481 196.85 161.152 196.629 161.784C196.408 162.417 196.062 162.998 195.611 163.493C195.16 163.989 194.614 164.388 194.005 164.668Z" fill="#70B14B"/>
<path d="M189.252 173.408C188.138 170.616 189.156 168.189 191.721 166.889C192.325 166.59 192.984 166.415 193.657 166.375C194.33 166.336 195.004 166.431 195.639 166.657C196.275 166.883 196.858 167.234 197.355 167.689C197.852 168.145 198.253 168.696 198.533 169.309C198.813 169.922 198.967 170.586 198.986 171.26C199.005 171.934 198.888 172.604 198.643 173.232C198.398 173.86 198.029 174.433 197.558 174.915C197.087 175.398 196.524 175.781 195.902 176.042C195.296 176.332 194.637 176.493 193.965 176.516C193.294 176.539 192.625 176.423 192.001 176.175C191.376 175.927 190.81 175.552 190.337 175.075C189.864 174.598 189.495 174.028 189.252 173.402" fill="#70B14B"/>
<path d="M192.987 178.016C193.588 177.703 194.247 177.514 194.922 177.462C195.598 177.409 196.278 177.493 196.921 177.709C197.563 177.925 198.156 178.269 198.662 178.719C199.169 179.169 199.58 179.717 199.87 180.33C200.16 180.942 200.324 181.607 200.351 182.285C200.378 182.962 200.269 183.638 200.029 184.272C199.789 184.906 199.423 185.485 198.954 185.975C198.485 186.464 197.922 186.854 197.299 187.121" fill="#70B14B"/>
<path d="M95.6641 78.2107C97.8441 77.1654 101.324 78.307 102.369 80.4182L95.6641 78.2107Z" fill="#70B14B"/>
<path d="M192.458 135.324C193.517 137.6 192.203 141.011 189.865 142.07C187.713 143.04 184.295 141.719 183.284 139.533C182.273 137.346 183.538 133.838 185.883 132.786C188.029 131.817 191.447 133.13 192.458 135.324Z" fill="#70B14B"/>
<path d="M194.816 189.411C197.134 188.256 200.614 189.363 201.693 191.612C202.773 193.86 201.693 197.278 199.555 198.331" fill="#70B14B"/>
<path d="M104.742 83.0796C103.593 80.9752 104.79 77.3442 107.004 76.2026C109.067 75.1504 112.561 76.2989 113.702 78.4032C114.844 80.5076 113.654 84.1455 111.44 85.2802" fill="#70B14B"/>
<path d="M160.5 100.657C158.389 101.675 154.95 100.506 153.823 98.3808C152.695 96.2558 153.939 92.6111 156.161 91.5451C158.272 90.5273 161.71 91.6964 162.831 93.8145C163.952 95.9326 162.721 99.5912 160.5 100.657Z" fill="#70B14B"/>
<path d="M191.117 124.19C192.155 126.432 190.793 130.035 188.572 130.957C186.351 131.878 182.954 130.592 181.97 128.468C180.939 126.233 182.293 122.629 184.522 121.701C186.75 120.772 190.133 122.065 191.117 124.19Z" fill="#70B14B"/>
<path d="M175.774 103.504C176.826 105.732 175.478 109.343 173.25 110.278C171.022 111.213 167.645 109.934 166.641 107.809C165.589 105.581 166.944 101.964 169.172 101.035C171.4 100.107 174.749 101.372 175.774 103.504Z" fill="#70B14B"/>
<path d="M140.605 84.8057C141.293 83.8567 141.981 82.5845 142.923 82.2887C144.184 81.7862 145.589 81.7862 146.85 82.2887C148.019 82.8595 148.707 83.9392 149.601 84.7645C149.374 86.0711 150.192 87.5152 149.353 88.7118C148.665 89.6677 147.861 90.493 147.139 91.3526" fill="#70B14B"/>
<path d="M182.665 110.856C185.464 109.542 187.348 110.264 188.71 113.166C190.003 115.917 189.253 117.815 186.317 119.184C183.69 120.408 181.723 119.651 180.437 116.935C179.151 114.218 179.832 112.19 182.665 110.856Z" fill="#70B14B"/>
<path d="M198.99 159.813C197.746 157.137 198.564 155.239 201.556 153.857C204.141 152.667 206.053 153.465 207.373 156.278C208.694 159.091 207.91 160.913 205.008 162.288C202.257 163.554 200.359 162.763 198.99 159.813Z" fill="#70B14B"/>
<path d="M205.352 144.903C206.659 147.689 205.93 149.573 203.014 150.935C200.263 152.214 198.379 151.45 197.01 148.514C195.793 145.901 196.556 143.934 199.286 142.648C202.017 141.362 204.011 142.043 205.352 144.903Z" fill="#70B14B"/>
<path d="M116.674 81.1403C115.388 78.3895 116.048 76.409 118.647 75.1642C121.57 73.7888 123.523 74.3871 124.837 77.1173C126.212 80.0262 125.586 81.9312 122.774 83.2584" fill="#70B14B"/>
<path d="M208.831 167.659C210.172 170.493 209.485 172.473 206.686 173.766C203.887 175.059 201.947 174.371 200.613 171.538C199.327 168.787 200.008 166.882 202.676 165.603C205.592 164.221 207.504 164.867 208.831 167.659Z" fill="#70B14B"/>
<path d="M197.65 131.803C198.647 130.524 200.05 131.184 201.047 131.466C201.641 131.7 202.181 132.052 202.636 132.5C203.091 132.947 203.451 133.482 203.695 134.072C203.962 134.612 204.111 135.203 204.134 135.805C204.156 136.407 204.051 137.007 203.825 137.566C203.588 138.162 203.23 138.703 202.773 139.154C202.316 139.605 201.77 139.956 201.171 140.186C200.061 140.654 198.815 140.684 197.684 140.268C196.579 139.79 195.693 138.914 195.202 137.813C194.925 137.279 194.762 136.694 194.724 136.093C194.686 135.493 194.774 134.891 194.982 134.327C195.38 133.233 196.006 131.851 197.65 131.803Z" fill="#70B14B"/>
<path d="M205.008 176.909C205.998 175.63 207.408 176.29 208.405 176.579C208.999 176.811 209.54 177.162 209.994 177.61C210.448 178.058 210.806 178.594 211.046 179.185C211.309 179.725 211.457 180.314 211.479 180.915C211.502 181.515 211.399 182.113 211.176 182.672C210.94 183.269 210.582 183.81 210.125 184.261C209.668 184.712 209.122 185.063 208.522 185.292C207.413 185.764 206.165 185.793 205.035 185.374C203.93 184.895 203.044 184.019 202.553 182.919C202.276 182.385 202.113 181.799 202.075 181.199C202.037 180.599 202.125 179.997 202.333 179.433C202.683 178.339 203.337 176.957 205.008 176.909Z" fill="#70B14B"/>
<path d="M69.2295 73.6307C69.6077 72.5441 70.2542 71.1618 71.8978 71.1137C72.8949 69.8277 74.2978 70.4948 75.295 70.7767C75.8887 71.0111 76.4292 71.3626 76.8841 71.8104C77.3389 72.2582 77.699 72.7931 77.9426 73.3831C78.2063 73.9242 78.3541 74.5145 78.3766 75.116C78.3991 75.7176 78.2958 76.3172 78.0733 76.8766" fill="#70B14B"/>
<path d="M173.236 92.391C174.419 93.4982 173.965 94.9492 173.6 96.0426C173.135 97.1562 172.258 98.0477 171.152 98.5321C170.067 99.0742 168.81 99.1632 167.659 98.7797C166.465 98.3002 165.502 97.379 164.97 96.2077C164.711 95.6656 164.562 95.0772 164.533 94.477C164.505 93.8768 164.596 93.2769 164.802 92.7125C165.009 92.1482 165.326 91.6307 165.735 91.1905C166.144 90.7503 166.637 90.3962 167.184 90.1491C168.252 89.6244 169.475 89.507 170.623 89.819C171.709 90.2454 173.153 90.768 173.236 92.391Z" fill="#70B14B"/>
<path d="M127.869 78.9397C126.954 77.6605 127.731 76.6084 127.979 75.4255C128.254 74.112 129.162 73.6306 130.207 73.0255C131.466 72.3378 132.518 72.5372 133.714 73.0255C135.461 73.7132 135.475 73.7132 136.362 75.5699C137.345 76.5534 136.589 77.6743 136.293 78.8709C135.956 80.2463 134.993 80.7689 133.914 81.4497" fill="#70B14B"/>
<path d="M201.569 122.691C202.047 123.798 202.066 125.05 201.621 126.17C201.176 127.291 200.304 128.189 199.197 128.667C198.649 128.904 198.059 129.03 197.462 129.039C196.865 129.047 196.272 128.939 195.718 128.718C194.597 128.273 193.699 127.401 193.221 126.294C192.808 125.207 192.813 124.006 193.234 122.922C193.656 121.839 194.465 120.95 195.504 120.428C196.61 119.938 197.864 119.9 198.998 120.323C200.132 120.746 201.055 121.596 201.569 122.691Z" fill="#70B14B"/>
<path d="M89.0692 71.1549C89.468 71.9557 89.6217 72.8563 89.511 73.744C89.4003 74.6317 89.0301 75.4669 88.4469 76.1452C87.8636 76.8235 87.0932 77.3146 86.2321 77.557C85.3711 77.7995 84.4576 77.7824 83.6061 77.5081C82.7547 77.2337 82.0031 76.7142 81.4456 76.0147C80.888 75.3151 80.5492 74.4666 80.4717 73.5754C80.3942 72.6842 80.5813 71.79 81.0097 71.0047C81.4381 70.2193 82.0887 69.5779 82.8799 69.1606C83.9672 68.6161 85.2247 68.52 86.3821 68.893C87.5395 69.2659 88.5043 70.0781 89.0692 71.1549Z" fill="#70B14B"/>
<path d="M160.452 82.8527C160.705 83.3991 160.847 83.9903 160.869 84.5919C160.892 85.1936 160.795 85.7937 160.583 86.3574C160.372 86.9212 160.051 87.4373 159.638 87.8759C159.226 88.3145 158.73 88.6667 158.18 88.9122C157.631 89.1577 157.038 89.2916 156.436 89.306C155.834 89.3204 155.235 89.2151 154.674 88.9962C154.113 88.7773 153.602 88.4492 153.169 88.0308C152.736 87.6125 152.39 87.1123 152.152 86.5593C151.727 85.477 151.719 84.2758 152.128 83.1875C152.537 82.0991 153.334 81.2008 154.366 80.6658C155.466 80.169 156.716 80.1194 157.852 80.5275C158.988 80.9356 159.92 81.7694 160.452 82.8527Z" fill="#70B14B"/>
<path d="M98.284 75.3017C97.4736 75.6852 96.5679 75.8205 95.6809 75.6906C94.7938 75.5607 93.965 75.1713 93.2986 74.5716C92.6323 73.9718 92.1581 73.1884 91.9359 72.3199C91.7136 71.4514 91.7531 70.5365 92.0494 69.6904C92.3458 68.8442 92.8857 68.1046 93.6013 67.5646C94.3169 67.0245 95.1762 66.7081 96.0712 66.6552C96.9661 66.6022 97.8567 66.8151 98.631 67.267C99.4053 67.7189 100.029 68.3897 100.423 69.195C100.931 70.2911 100.992 71.5421 100.593 72.6824C100.193 73.8227 99.3651 74.7623 98.284 75.3017Z" fill="#70B14B"/>
<path d="M186.653 101.716C187.036 102.527 187.17 103.433 187.039 104.319C186.908 105.206 186.517 106.034 185.917 106.7C185.316 107.365 184.533 107.839 183.664 108.06C182.795 108.281 181.881 108.241 181.035 107.944C180.189 107.646 179.45 107.106 178.911 106.39C178.372 105.674 178.056 104.814 178.004 103.92C177.952 103.025 178.165 102.134 178.618 101.361C179.07 100.587 179.741 99.964 180.547 99.5705C181.643 99.0609 182.896 99 184.036 99.4008C185.177 99.8017 186.116 100.633 186.653 101.716Z" fill="#70B14B"/>
<path d="M147.131 73.5756C147.371 74.1225 147.501 74.7112 147.513 75.3081C147.526 75.9051 147.42 76.4986 147.203 77.0548C146.986 77.611 146.661 78.119 146.248 78.5498C145.834 78.9806 145.34 79.3257 144.793 79.5655C144.247 79.8052 143.658 79.935 143.061 79.9472C142.464 79.9595 141.87 79.854 141.314 79.6369C140.758 79.4198 140.25 79.0952 139.819 78.6818C139.388 78.2684 139.043 77.7741 138.804 77.2273C138.387 76.1424 138.386 74.942 138.802 73.8566C139.217 72.7713 140.018 71.8776 141.052 71.3475C142.157 70.8575 143.408 70.816 144.543 71.2318C145.677 71.6476 146.605 72.488 147.131 73.5756Z" fill="#70B14B"/>
<path d="M109.377 73.9745C108.566 74.3568 107.661 74.4909 106.774 74.3599C105.887 74.2288 105.059 73.8386 104.393 73.2381C103.728 72.6377 103.255 71.8538 103.033 70.9852C102.812 70.1166 102.852 69.2019 103.15 68.3562C103.447 67.5105 103.987 66.7715 104.703 66.2322C105.419 65.6929 106.279 65.3773 107.174 65.3251C108.068 65.2729 108.959 65.4864 109.733 65.9388C110.506 66.3912 111.129 67.0624 111.523 67.8678C112.032 68.9644 112.093 70.2168 111.692 71.3577C111.291 72.4986 110.461 73.4377 109.377 73.9745Z" fill="#70B14B"/>
<path d="M212.655 189.968C212.918 190.516 213.068 191.111 213.097 191.718C213.126 192.325 213.033 192.932 212.824 193.502C212.614 194.073 212.293 194.596 211.878 195.039C211.462 195.483 210.963 195.84 210.408 196.087C209.852 196.334 209.253 196.468 208.646 196.48C208.038 196.492 207.434 196.382 206.87 196.156C206.306 195.931 205.792 195.594 205.36 195.167C204.928 194.739 204.586 194.23 204.354 193.668C203.903 192.574 203.897 191.347 204.336 190.248C204.775 189.149 205.625 188.265 206.706 187.783C207.787 187.301 209.013 187.26 210.124 187.668C211.235 188.076 212.143 188.901 212.655 189.968Z" fill="#70B14B"/>
<path d="M200.029 111.138C200.265 111.686 200.392 112.275 200.401 112.872C200.409 113.469 200.301 114.062 200.08 114.617C199.86 115.172 199.532 115.678 199.117 116.106C198.701 116.535 198.204 116.877 197.656 117.114C197.108 117.35 196.519 117.477 195.922 117.485C195.325 117.494 194.732 117.385 194.177 117.165C193.622 116.945 193.116 116.617 192.687 116.201C192.259 115.785 191.917 115.289 191.68 114.741C191.268 113.653 191.274 112.451 191.697 111.367C192.12 110.284 192.93 109.396 193.97 108.875C195.075 108.383 196.329 108.344 197.462 108.767C198.595 109.191 199.517 110.042 200.029 111.138Z" fill="#70B14B"/>
<path d="M184.597 90.2316C185.663 92.6523 184.549 95.5681 182.376 96.4828C180.203 97.3974 177.143 96.3177 176.407 94.0758C176.063 93.2684 175.964 92.3783 176.12 91.5149C176.276 90.6515 176.681 89.8527 177.286 89.2168C177.89 88.5808 178.667 88.1356 179.522 87.9359C180.376 87.7362 181.27 87.7908 182.094 88.0929C183.346 88.5261 183.923 89.5508 184.597 90.2316Z" fill="#70B14B"/>
<path d="M206.198 201.975C206.555 200.6 207.676 199.967 208.536 199.025C209.733 198.956 210.86 198.42 212.064 199.025C213.103 199.576 213.995 200.368 214.663 201.336C215.103 202.408 215.136 203.605 214.756 204.7C214.376 205.795 213.61 206.714 212.6 207.284" fill="#70B14B"/>
<path d="M215.963 160.459C214.099 161.271 210.668 159.95 209.925 158.142C209.182 156.333 210.53 152.826 212.325 152.124C214.12 151.423 217.4 152.681 218.198 154.387C219.058 156.209 217.785 159.661 215.963 160.459Z" fill="#70B14B"/>
<path d="M216.602 142.717C217.531 144.456 216.355 147.936 214.539 148.851C212.868 149.69 209.54 148.624 208.542 146.925C207.545 145.227 208.659 141.726 210.441 140.736C212.222 139.746 215.646 140.929 216.602 142.717Z" fill="#70B14B"/>
<path d="M122.856 65.8597C123.757 67.6271 122.546 71.0999 120.731 71.9733C119.018 72.7917 115.711 71.6914 114.755 69.9928C113.799 68.2941 114.92 64.7869 116.715 63.8035C118.51 62.8201 121.927 64.0579 122.856 65.8597Z" fill="#70B14B"/>
<path d="M169.544 86.9032C167.68 87.7147 164.248 86.3943 163.506 84.5857C162.763 82.777 164.104 79.2766 165.906 78.5752C167.708 77.8738 170.981 79.1254 171.779 80.8308C172.638 82.6532 171.366 86.1123 169.544 86.9032Z" fill="#70B14B"/>
<path d="M214.072 163.533C215.193 163.499 216.458 163.155 217.476 163.533C218.578 163.929 219.5 164.708 220.076 165.727C220.531 166.806 220.577 168.013 220.206 169.124C219.785 170.216 218.997 171.128 217.978 171.703C216.981 172.149 215.853 172.207 214.815 171.868C213.705 171.487 212.762 170.734 212.146 169.736C211.664 168.67 211.585 167.465 211.926 166.346C212.25 165.294 213.295 164.489 214.072 163.533Z" fill="#70B14B"/>
<path d="M195.806 105.842C194.603 105.842 193.324 106.131 192.313 105.739C191.759 105.548 191.252 105.245 190.822 104.848C190.392 104.45 190.049 103.968 189.815 103.432C189.581 102.895 189.461 102.316 189.462 101.731C189.464 101.145 189.587 100.567 189.823 100.031C190.276 98.9513 191.108 98.0736 192.162 97.5624C193.278 97.1754 194.496 97.1949 195.6 97.6175C196.62 98.0121 197.454 98.7788 197.931 99.7631C198.35 100.854 198.379 102.057 198.014 103.167C197.622 104.185 196.563 104.962 195.806 105.842Z" fill="#70B14B"/>
<path d="M212.731 138.061C211.542 138.061 210.269 138.37 209.258 137.992C208.168 137.565 207.267 136.759 206.721 135.723C206.295 134.633 206.28 133.425 206.68 132.325C207.131 131.246 207.943 130.356 208.976 129.809C209.987 129.388 211.118 129.361 212.147 129.733C213.243 130.145 214.163 130.922 214.753 131.933C215.201 133.014 215.25 134.218 214.891 135.331C214.54 136.355 213.495 137.146 212.731 138.061Z" fill="#70B14B"/>
<path d="M158.513 71.5126C158.513 72.6885 158.815 73.9676 158.423 74.951C158.24 75.507 157.942 76.0187 157.55 76.4533C157.157 76.8879 156.679 77.236 156.144 77.4754C155.61 77.7148 155.031 77.8402 154.446 77.8437C153.86 77.8471 153.28 77.7286 152.743 77.4955C151.668 77.0351 150.786 76.216 150.247 75.178C149.835 74.1643 149.818 73.0334 150.199 72.0077C150.596 70.9052 151.387 69.9889 152.42 69.4357C153.383 69.0506 154.765 68.693 155.824 69.2707C156.792 69.9269 157.693 70.6779 158.513 71.5126Z" fill="#70B14B"/>
<path d="M131.624 69.5801C130.75 70.4191 129.781 70.0271 128.687 69.7796C127.312 69.4632 126.947 68.4042 126.356 67.4345C125.765 66.4649 125.978 65.4815 126.219 64.3812C126.535 62.937 127.635 62.6894 128.605 62.0911C129.574 61.4928 130.579 61.6923 131.665 62.0155C132.869 62.3731 133.316 63.2052 133.824 64.1886C134.078 64.6531 134.23 65.1664 134.269 65.6942C134.308 66.222 134.234 66.752 134.051 67.2488C133.892 67.8191 133.583 68.3363 133.156 68.7463C132.729 69.1564 132.2 69.4443 131.624 69.5801Z" fill="#70B14B"/>
<path d="M182.472 79.923C183.311 80.7964 182.919 81.7661 182.672 82.8664C182.355 84.2418 181.33 84.6063 180.333 85.1977C179.336 85.7891 178.373 85.5759 177.273 85.3352C175.829 85.0189 175.581 83.9186 174.983 82.9489C174.385 81.9793 174.584 80.9752 174.907 79.8887C175.272 78.6852 176.097 78.2382 177.081 77.7293C177.545 77.4756 178.058 77.3241 178.586 77.2849C179.114 77.2458 179.644 77.3199 180.141 77.5024C180.711 77.6601 181.227 77.968 181.638 78.3938C182.048 78.8196 182.336 79.3478 182.472 79.923Z" fill="#70B14B"/>
<path d="M208.274 114.92C207.401 115.759 206.431 115.367 205.331 115.119C203.955 114.803 203.598 113.744 203.006 112.774C202.415 111.805 202.628 110.821 202.869 109.721C203.185 108.277 204.286 108.029 205.255 107.424C206.225 106.819 207.229 107.032 208.315 107.355C209.519 107.713 209.966 108.545 210.475 109.528C210.729 109.993 210.88 110.506 210.919 111.034C210.958 111.562 210.884 112.092 210.702 112.589C210.543 113.159 210.234 113.676 209.807 114.086C209.38 114.496 208.85 114.784 208.274 114.92Z" fill="#70B14B"/>
<path d="M207.023 118.964C207.451 118.638 207.959 118.433 208.493 118.369C209.028 118.304 209.569 118.384 210.063 118.599C210.61 118.766 211.111 119.056 211.528 119.447C211.945 119.838 212.267 120.32 212.47 120.855C212.716 121.321 212.865 121.834 212.906 122.36C212.948 122.886 212.881 123.415 212.71 123.915C212.305 125.208 211.472 125.73 210.406 126.287C209.935 126.524 209.421 126.662 208.895 126.693C208.369 126.723 207.842 126.647 207.346 126.467C206.851 126.288 206.397 126.009 206.013 125.648C205.628 125.287 205.322 124.852 205.111 124.369C204.616 123.255 204.341 122.306 204.877 121.075C205.345 119.995 205.847 119.177 207.023 118.964Z" fill="#70B14B"/>
<path d="M216.341 175.403C216.769 175.077 217.277 174.872 217.811 174.808C218.346 174.744 218.887 174.823 219.381 175.038C219.929 175.204 220.432 175.494 220.85 175.885C221.269 176.276 221.592 176.758 221.794 177.294C222.038 177.762 222.184 178.274 222.224 178.8C222.265 179.326 222.198 179.855 222.028 180.354C221.629 181.647 220.797 182.17 219.731 182.727C219.26 182.963 218.746 183.101 218.22 183.132C217.694 183.163 217.167 183.086 216.671 182.906C216.175 182.727 215.722 182.448 215.337 182.087C214.953 181.727 214.646 181.291 214.436 180.808C213.934 179.694 213.659 178.745 214.195 177.514C214.636 176.441 215.172 175.623 216.341 175.403Z" fill="#70B14B"/>
<path d="M47.6704 64.0098C48.1464 63.7479 48.6722 63.5893 49.2135 63.5443C49.7549 63.4994 50.2997 63.569 50.8123 63.7488C51.3249 63.9285 51.7939 64.2143 52.1886 64.5875C52.5834 64.9607 52.895 65.4129 53.1032 65.9147" fill="#70B14B"/>
<path d="M190.374 87.1232C190.854 86.8672 191.382 86.7154 191.925 86.678C192.467 86.6405 193.012 86.7181 193.522 86.9058C194.033 87.0935 194.498 87.3869 194.887 87.7669C195.276 88.1469 195.58 88.6048 195.779 89.1107C196.797 91.3113 195.972 93.4569 193.716 94.4816C192.741 94.9239 191.629 94.9604 190.626 94.5832C189.624 94.206 188.812 93.4459 188.37 92.4701C187.927 91.4943 187.891 90.3828 188.268 89.3801C188.645 88.3773 189.405 87.5655 190.381 87.1232H190.374Z" fill="#70B14B"/>
<path d="M221.574 193.537C221.093 193.789 220.564 193.937 220.022 193.971C219.48 194.004 218.937 193.924 218.429 193.734C217.92 193.543 217.457 193.248 217.07 192.867C216.683 192.486 216.381 192.028 216.183 191.522C215.179 189.329 216.018 187.19 218.28 186.158C219.25 185.771 220.333 185.774 221.3 186.167C222.268 186.559 223.047 187.311 223.472 188.265C223.898 189.219 223.938 190.301 223.584 191.283C223.231 192.266 222.51 193.074 221.574 193.537Z" fill="#70B14B"/>
<path d="M167.7 75.4943C165.493 76.5671 163.402 75.7625 162.199 73.665C161.236 71.9596 162.109 69.1262 163.925 68.3079C166.201 67.2832 168.416 67.9022 169.426 70.0065C170.561 72.2484 169.86 74.4421 167.7 75.4943Z" fill="#70B14B"/>
<path d="M109.577 56.6515C110.595 58.8521 109.763 60.9908 107.514 62.0224C105.265 63.0539 103.195 62.1393 102.17 59.8699C101.789 58.8951 101.801 57.8104 102.203 56.844C102.605 55.8775 103.366 55.1046 104.326 54.6878C105.286 54.271 106.37 54.2427 107.351 54.6089C108.332 54.9751 109.132 55.7073 109.584 56.6515H109.577Z" fill="#70B14B"/>
<path d="M96.2281 63.996C94.0275 65.0069 91.8819 64.1817 90.8504 61.933C89.8188 59.6842 90.7335 57.6142 93.0097 56.5896C93.9845 56.2083 95.0692 56.2199 96.0356 56.6219C97.0021 57.0239 97.775 57.785 98.1918 58.7451C98.6086 59.7053 98.6369 60.7896 98.2707 61.7702C97.9045 62.7507 97.1723 63.5511 96.2281 64.0029V63.996Z" fill="#70B14B"/>
<path d="M206.948 103.312C206.468 103.567 205.939 103.717 205.397 103.754C204.855 103.791 204.311 103.713 203.801 103.526C203.291 103.338 202.826 103.045 202.437 102.666C202.048 102.286 201.743 101.829 201.542 101.324C200.524 99.1235 201.357 96.9779 203.605 95.9532C204.581 95.5109 205.693 95.4744 206.695 95.8516C207.698 96.2288 208.51 96.9889 208.952 97.9647C209.394 98.9405 209.431 100.052 209.054 101.055C208.677 102.057 207.916 102.869 206.941 103.312H206.948Z" fill="#70B14B"/>
<path d="M86.6622 60.1312C86.9168 60.612 87.067 61.1412 87.103 61.6841C87.139 62.227 87.0599 62.7714 86.871 63.2816C86.6821 63.7918 86.3876 64.2565 86.0068 64.645C85.6259 65.0336 85.1673 65.3374 84.661 65.5365C82.4604 66.5543 80.3147 65.7222 79.2832 63.4734C78.8693 62.5013 78.8523 61.4058 79.2358 60.4213C79.6194 59.4368 80.373 58.6415 81.3355 58.2056C82.298 57.7698 83.3929 57.728 84.3858 58.0891C85.3787 58.4503 86.1909 59.1857 86.6484 60.1381L86.6622 60.1312Z" fill="#70B14B"/>
<path d="M145.178 62.2424C146.176 64.4224 145.323 66.568 143.053 67.5927C140.915 68.5624 138.81 67.634 137.71 65.399C136.823 63.6178 137.944 60.8739 139.773 60.1656C142.001 59.2991 144.126 60.0074 145.178 62.2424Z" fill="#70B14B"/>
<path d="M73.4655 67.4758C72.5149 67.945 71.418 68.0222 70.4111 67.6908C69.4042 67.3593 68.5677 66.6457 68.0817 65.7035C67.5958 64.7614 67.4992 63.6661 67.8129 62.6534C68.1266 61.6408 68.8253 60.7918 69.7588 60.2894C71.9938 59.189 74.2219 59.8767 75.2603 62.0017C76.2988 64.1267 75.6317 66.4236 73.4655 67.4758Z" fill="#70B14B"/>
<path d="M57.1123 67.3038C56.0945 65.1101 56.9197 62.9645 59.1754 61.9329C60.1512 61.4907 61.2627 61.4541 62.2654 61.8313C63.2681 62.2086 64.0799 62.9687 64.5222 63.9445C64.9645 64.9202 65.0011 66.0317 64.6238 67.0345C64.2466 68.0372 63.4865 68.849 62.5107 69.2913" fill="#70B14B"/>
<path d="M219.965 145.096C219.564 144.066 219.573 142.922 219.99 141.898C220.407 140.875 221.201 140.05 222.207 139.594C223.865 138.872 226.402 140.083 227.393 141.747C227.63 142.213 227.755 142.729 227.755 143.253C227.755 143.777 227.63 144.293 227.393 144.759C227.222 145.292 226.944 145.783 226.574 146.203C226.205 146.624 225.753 146.963 225.247 147.2C224.105 147.689 223.184 146.898 222.187 147.2C221.513 146.368 219.904 146.471 219.965 145.096Z" fill="#70B14B"/>
<path d="M225.02 199.61C225.446 200.586 225.492 201.686 225.15 202.694C224.808 203.703 224.102 204.547 223.17 205.063C221.361 205.93 218.824 205.001 217.82 203.385C217.539 202.898 217.376 202.352 217.345 201.79C217.314 201.229 217.416 200.668 217.641 200.153C217.944 199.362 218.329 198.255 219.518 197.801C221.465 197.051 224.147 197.801 225.02 199.61Z" fill="#70B14B"/>
<path d="M156.388 60.8395C156.388 61.9398 156.622 63.1364 156.25 64.0785C155.814 64.9931 155.069 65.7239 154.146 66.1416C153.689 66.3596 153.193 66.484 152.688 66.5076C152.183 66.5312 151.677 66.4536 151.202 66.2792C150.329 65.8047 149.091 65.282 148.857 64.0854C148.658 63.102 148.39 61.871 148.809 61.1146C149.214 60.1698 149.91 59.3794 150.797 58.8589C151.89 58.3363 153.059 58.5976 154.043 58.8039C154.895 59.0102 155.556 60.083 156.388 60.8395Z" fill="#70B14B"/>
<path d="M229.215 152.564C229.215 153.658 229.621 154.848 229.215 155.631C228.748 156.519 228.204 157.695 227.035 157.99C226.066 158.21 224.821 158.492 224.071 158.08C223.198 157.598 221.967 157.062 221.733 155.865C221.541 154.889 221.286 153.672 221.699 152.894C222.103 151.949 222.806 151.161 223.7 150.653C224.747 150.279 225.889 150.264 226.946 150.611C227.792 150.804 228.452 151.87 229.215 152.564Z" fill="#70B14B"/>
<path d="M225.942 130.18C225.942 131.287 226.175 132.477 225.804 133.419C225.369 134.337 224.62 135.069 223.693 135.482C223.237 135.699 222.743 135.824 222.239 135.848C221.735 135.873 221.231 135.798 220.756 135.626C219.876 135.145 218.645 134.622 218.404 133.426C218.212 132.442 217.937 131.211 218.356 130.455C218.528 129.945 218.805 129.477 219.168 129.08C219.531 128.682 219.972 128.365 220.464 128.148C220.957 127.93 221.489 127.818 222.027 127.817C222.565 127.817 223.097 127.928 223.59 128.144C224.442 128.351 225.109 129.43 225.942 130.18Z" fill="#70B14B"/>
<path d="M118.599 60.3444C117.437 60.3444 116.137 60.7157 115.325 60.2412C114.514 59.7667 113.352 59.3335 113.132 58.1781C112.939 57.1947 112.678 56.0669 112.98 55.1867C113.424 54.2857 114.092 53.5137 114.92 52.9448C115.876 52.1746 117.155 52.5665 118.131 52.7591C118.607 52.9293 119.045 53.1927 119.418 53.5339C119.791 53.8752 120.092 54.2874 120.304 54.7465C120.752 55.6655 120.857 56.7142 120.6 57.7036C120.297 58.687 119.335 59.4366 118.599 60.3444Z" fill="#70B14B"/>
<path d="M173.553 71.5813C172.824 69.9652 173.986 66.8706 175.616 66.1898C177.246 65.509 180.388 66.6918 180.959 68.3079C181.205 69.2733 181.15 70.2907 180.801 71.2237C180.451 72.1567 179.825 72.9606 179.006 73.5275C177.541 74.3184 174.151 73.1149 173.553 71.5813Z" fill="#70B14B"/>
<path d="M223.72 118.757C224.518 119.988 223.493 123.434 221.836 124.197C220.364 124.885 217.345 123.901 216.533 122.457C215.722 121.013 216.685 117.801 218.253 116.955C219.821 116.11 222.888 117.182 223.72 118.757Z" fill="#70B14B"/>
<path d="M223.741 167.322C223.053 165.706 224.229 162.605 225.804 161.951C227.379 161.298 230.521 162.508 231.147 164.104C231.773 165.699 230.597 168.595 229.132 169.317C227.564 170.101 224.222 168.76 223.741 167.322Z" fill="#70B14B"/>
<path d="M191.859 83.0727C190.484 83.8773 187.1 82.7014 186.433 81.1472C185.821 79.7305 186.564 76.8835 188.235 75.8725C189.7 74.9785 192.884 76.0513 193.737 77.6193C194.589 79.1872 193.448 82.2887 191.859 83.0727Z" fill="#70B14B"/>
<path d="M207.071 87.1782C207.023 88.1617 207.36 89.2413 206.886 90.3485C206.473 91.3044 205.51 91.6414 205.056 92.4666C203.894 92.3222 202.636 92.9205 201.57 92.0884C200.882 91.5657 199.857 90.9881 199.802 90.3554C199.713 89.4064 199.41 88.3955 199.871 87.3089C200.284 86.3324 201.157 85.9335 201.714 85.1908C201.955 84.8745 202.904 84.9983 203.502 84.9226C204.339 84.9422 205.149 85.2157 205.827 85.7066C206.384 86.0023 206.652 86.6418 207.071 87.1782Z" fill="#70B14B"/>
<path d="M129.864 58.2263C128.619 58.0681 127.36 58.6939 126.294 57.8481C125.607 57.3254 124.623 56.789 124.5 56.1219C124.293 55.0216 124.004 53.7081 124.823 52.6835C125.339 51.9958 125.923 51.0124 126.576 50.923C127.601 50.7923 128.722 50.5585 129.857 51.1293C130.71 51.5625 130.881 52.5734 131.769 52.8416C131.686 53.9282 132.044 54.9735 131.604 56.1151C131.218 57.071 130.111 57.291 129.864 58.2263Z" fill="#70B14B"/>
<path d="M219.876 112.884C219.078 112.884 218.225 112.96 217.38 112.926C216.004 112.877 215.275 111.777 214.532 110.924C214.127 110.457 214.285 109.432 214.333 108.669C214.422 107.376 215.358 106.475 216.217 105.719C216.699 105.292 217.703 105.354 218.466 105.382C219.842 105.437 220.846 106.434 221.609 107.39C222.049 107.933 221.85 109.026 221.836 109.872C221.801 111.22 220.536 111.818 219.876 112.884Z" fill="#70B14B"/>
<path d="M228.328 173.601C229.346 172.576 230.59 173.257 231.601 173.869C232.207 174.24 232.406 175.245 232.846 175.932C233.066 176.278 233.193 176.674 233.217 177.084C233.242 177.493 233.161 177.901 232.984 178.27C232.887 178.669 232.689 179.035 232.41 179.335C232.13 179.635 231.778 179.858 231.388 179.983C230.981 180.094 230.597 180.275 230.254 180.519C229.566 181.069 228.878 180.774 228.149 180.519C227.42 180.265 226.774 180.058 226.533 179.178C226.422 178.773 226.243 178.389 226.004 178.043C225.78 177.699 225.649 177.303 225.624 176.893C225.598 176.484 225.679 176.074 225.859 175.705C225.953 175.305 226.15 174.937 226.432 174.638C226.713 174.338 227.068 174.118 227.461 174C227.76 173.888 228.049 173.755 228.328 173.601Z" fill="#70B14B"/>
<path d="M162.447 57.3185C164.709 56.2526 166.009 56.7546 167.116 59.1065C168.223 61.4585 167.68 62.6688 165.328 63.776C162.976 64.8832 161.759 64.3399 160.659 61.988C159.558 59.6361 160.095 58.4464 162.447 57.3185Z" fill="#70B14B"/>
<path d="M219.532 96.8541C220.522 98.9814 219.942 100.545 217.792 101.544C215.642 102.544 214.081 101.964 213.109 99.8044C212.118 97.6817 212.696 96.1206 214.842 95.1211C216.987 94.1217 218.551 94.6994 219.532 96.8541Z" fill="#70B14B"/>
<path d="M234.159 187.045C235.274 188.696 234.228 191 232.502 191.811C231.645 192.175 230.68 192.194 229.81 191.862C228.94 191.531 228.232 190.875 227.834 190.033C227.437 189.191 227.38 188.227 227.678 187.345C227.975 186.462 228.602 185.729 229.428 185.299C231.202 184.453 233.63 185.189 234.159 187.045Z" fill="#70B14B"/>
<path d="M141.183 56.1838C139.03 57.1947 137.483 56.6446 136.472 54.5058C135.461 52.3671 136.011 50.806 138.157 49.7951C140.303 48.7842 141.85 49.3344 142.861 51.48C143.872 53.6256 143.322 55.1729 141.183 56.1838Z" fill="#70B14B"/>
<path d="M191.254 66.5612C192.276 68.7022 191.731 70.277 189.617 71.2856C187.504 72.2942 185.929 71.7464 184.893 69.642C183.875 67.5056 184.423 65.9308 186.536 64.9176C188.65 63.9044 190.222 64.4522 191.254 66.5612Z" fill="#70B14B"/>
<path d="M200.194 74.1327C201.982 73.2318 204.004 74.1327 204.809 76.1476C205.152 77.0322 205.129 78.0168 204.746 78.8847C204.363 79.7527 203.651 80.4329 202.766 80.7758C201.882 81.1187 200.897 81.0961 200.029 80.7131C199.161 80.3301 198.481 79.6179 198.138 78.7333C197.937 78.3 197.832 77.8288 197.829 77.3513C197.826 76.8738 197.925 76.4012 198.12 75.9652C198.314 75.5293 198.6 75.1402 198.958 74.8241C199.316 74.508 199.738 74.2722 200.194 74.1327Z" fill="#70B14B"/>
<path d="M152.399 54.2445C151.711 54.9322 150.886 54.609 150.006 54.2445C149.126 53.88 148.156 53.7081 147.757 52.5184C147.482 51.6794 147.269 50.9917 147.682 50.1665C148.094 49.3412 148.122 48.2615 149.311 47.8352C150.205 47.5188 150.948 47.1819 151.897 47.6839C152.846 48.1859 153.726 48.2203 154.18 49.355C154.541 50.246 154.558 51.2389 154.229 52.142C153.9 53.045 153.248 53.7941 152.399 54.2445Z" fill="#70B14B"/>
<path d="M236.229 128.708C236.917 129.396 236.594 130.221 236.229 131.101C235.865 131.982 235.686 132.951 234.496 133.35C234.133 133.533 233.735 133.635 233.329 133.648C232.922 133.661 232.518 133.585 232.144 133.426C231.292 132.993 230.239 132.986 229.82 131.796C229.504 130.902 229.132 130.159 229.662 129.21C230.191 128.261 230.198 127.381 231.34 126.927C232.231 126.567 233.224 126.549 234.127 126.878C235.03 127.207 235.779 127.859 236.229 128.708Z" fill="#70B14B"/>
<path d="M173.505 55.448C174.398 55.0514 175.407 55.0045 176.333 55.3165C177.259 55.6285 178.034 56.2767 178.504 57.1328C179.096 58.2056 178.539 59.0171 178.346 59.9661C178.154 60.9152 177.39 61.3415 176.579 61.8573C175.499 62.545 174.681 61.8573 173.752 61.6372C172.824 61.4172 172.453 60.8326 171.985 60.0831C171.297 59.024 171.765 58.185 172.081 57.2497C172.398 56.3145 172.57 55.4067 173.505 55.448Z" fill="#70B14B"/>
<path d="M212.573 83.8911C213.466 83.4945 214.475 83.4476 215.401 83.7596C216.327 84.0716 217.102 84.7198 217.572 85.576C218.164 86.6488 217.607 87.4602 217.414 88.4024C217.194 89.4546 216.465 89.8122 215.654 90.3004C214.567 90.9469 213.756 90.3004 212.82 90.0735C212.43 89.962 212.069 89.7655 211.763 89.498C211.458 89.2304 211.215 88.8986 211.053 88.5262C210.365 87.4602 210.833 86.6213 211.149 85.6929C211.466 84.7645 211.665 83.8498 212.573 83.8911Z" fill="#70B14B"/>
<path d="M233.568 138.253C234.544 137.352 235.432 138.13 236.374 138.315C237.316 138.501 237.797 139.237 238.286 140.062C238.939 141.149 238.237 141.953 238.086 142.895C237.907 143.996 237.075 144.271 236.298 144.766C235.218 145.454 234.4 144.704 233.465 144.511C232.529 144.319 232.186 143.679 231.725 142.937C231.037 141.871 231.594 141.045 231.842 140.103C232.089 139.161 232.516 138.405 233.568 138.253Z" fill="#70B14B"/>
<path d="M84.3583 49.4513C85.0941 50.2215 84.8741 51.0673 84.4821 51.9613C84.0901 52.8553 83.9663 53.8181 82.7628 54.217C81.9307 54.4852 81.243 54.719 80.4178 54.2995C79.5926 53.88 78.4991 53.8731 78.0796 52.6834C77.7702 51.8032 77.3919 51.0605 77.9077 50.1046C78.3753 49.2725 78.3891 48.234 79.565 47.7939C80.4728 47.4569 81.2293 47.2231 82.1508 47.6839C83.0723 48.1446 84.152 48.1309 84.3583 49.4513Z" fill="#70B14B"/>
<path d="M50.6753 54.8497C51.363 56.452 50.4139 58.9071 48.846 59.5535C47.278 60.2 44.7955 59.2234 44.1765 57.6348C43.9269 56.7914 43.9651 55.8889 44.2851 55.0696C44.6051 54.2503 45.1887 53.5608 45.9439 53.1098C47.7113 52.2983 50.1595 53.5293 50.6753 54.8497Z" fill="#70B14B"/>
<path d="M235.528 149.552C237.123 148.865 239.578 149.814 240.225 151.382C240.871 152.949 239.902 155.432 238.313 156.058C236.724 156.684 234.455 155.741 233.788 154.284C232.983 152.537 234.194 150.082 235.528 149.552Z" fill="#70B14B"/>
<path d="M57.3731 51.0605C58.9892 50.3728 61.4237 51.3699 62.0563 52.9448C62.689 54.5196 61.6575 57.009 60.0895 57.5936C58.5216 58.1781 56.2247 57.2222 55.5782 55.7712C54.8699 54.1895 55.8121 51.7138 57.3731 51.0605Z" fill="#70B14B"/>
<path d="M228.087 104.522C229.346 103.834 232.007 104.453 232.846 106.186C233.534 107.63 232.75 110.017 231.333 110.807C229.917 111.598 227.338 110.856 226.519 109.308C225.701 107.761 226.533 105.292 228.087 104.522Z" fill="#70B14B"/>
<path d="M91.1116 45.7515C92.7071 45.0638 95.1621 46.0128 95.8086 47.5807C96.455 49.1487 95.4785 51.6313 93.8968 52.2571C93.0515 52.5041 92.1482 52.464 91.3282 52.1429C90.5082 51.8219 89.8177 51.2381 89.3649 50.4828C88.5671 48.7361 89.7775 46.281 91.1116 45.7515Z" fill="#70B14B"/>
<path d="M235.988 198.049C236.676 199.665 235.686 202.099 234.104 202.732C232.522 203.364 230.047 202.333 229.455 200.765C228.864 199.197 229.827 196.893 231.278 196.247C232.866 195.511 235.335 196.453 235.988 198.049Z" fill="#70B14B"/>
<path d="M102.39 43.7846C103.26 43.4825 104.207 43.4907 105.07 43.8079C105.934 44.1251 106.662 44.7317 107.129 45.5245C107.816 47.1337 106.867 49.5819 105.292 50.2284C104.452 50.4909 103.548 50.4679 102.723 50.1632C101.897 49.8584 101.195 49.2889 100.726 48.5435C100.059 47.2919 100.657 44.6443 102.39 43.7846Z" fill="#70B14B"/>
<path d="M118.359 43.3583C119.156 44.8575 118.359 47.3607 116.777 48.1722C115.401 48.8599 112.953 48.1722 112.128 46.7349C111.303 45.2976 112.018 42.7256 113.538 41.921C115.058 41.1164 117.554 41.8179 118.359 43.3583Z" fill="#70B14B"/>
<path d="M240.211 166.882C238.609 167.57 236.16 166.621 235.514 165.053C234.868 163.485 235.844 161.002 237.426 160.383C238.27 160.133 239.174 160.171 239.994 160.491C240.815 160.811 241.506 161.395 241.958 162.151C242.762 163.918 241.531 166.366 240.211 166.882Z" fill="#70B14B"/>
<path d="M229.82 115.408C231.312 114.604 233.815 115.408 234.634 116.983C235.322 118.4 234.634 120.807 233.203 121.639C231.773 122.471 229.187 121.742 228.348 120.263C227.509 118.785 228.273 116.213 229.82 115.408Z" fill="#70B14B"/>
<path d="M73.3141 50.7785C74.0018 51.9889 73.376 54.6915 71.5948 55.5167C70.7619 55.8018 69.8579 55.8018 69.025 55.5167C68.1921 55.2316 67.4777 54.6776 66.9941 53.9419C66.1827 52.4496 66.9941 49.9464 68.5415 49.1281C70.0888 48.3097 72.5576 49.2243 73.3141 50.7785Z" fill="#70B14B"/>
<path d="M201.026 69.3532C199.981 69.03 199.004 69.9171 198.117 69.2156C197.43 68.693 196.405 68.1497 196.309 67.4964C196.178 66.6437 195.621 65.5915 196.35 64.7456C196.879 64.0579 197.498 63.4871 198.083 62.8613C198.922 63.3909 199.72 62.4281 200.682 62.8957C201.645 63.3634 201.721 64.3536 202.628 64.6012C202.305 65.5296 203.062 66.403 202.628 67.4276C202.195 68.4523 201.116 68.3629 201.026 69.3532Z" fill="#70B14B"/>
<path d="M165.122 47.5326C165.122 48.4335 165.204 49.2931 165.17 50.1459C165.129 51.2599 163.877 51.5212 163.478 52.3809C162.618 52.147 161.828 52.7041 160.906 52.4978C159.792 52.2571 159.661 51.033 158.719 50.7166C159.084 49.857 158.389 49.073 158.623 48.1378C158.857 47.2025 160.088 47.0581 160.232 46.0747C161.085 46.0128 161.938 45.9303 162.79 45.9096C163.932 45.8959 164.042 47.3469 165.122 47.5326Z" fill="#70B14B"/>
<path d="M124.858 40.3806C125.841 40.7382 126.845 39.8579 127.718 40.5594C128.406 41.0889 129.472 41.7078 129.486 42.2992C129.486 43.2001 130.228 44.2248 129.41 45.105C128.832 45.7308 128.241 46.8105 127.629 46.8312C126.735 46.8312 125.697 47.5189 124.816 46.7143C124.252 46.1778 123.276 45.6965 123.214 45.1119C123.118 44.2248 122.526 43.2139 123.214 42.3611C123.737 41.6459 124.314 41.0133 124.858 40.3806Z" fill="#70B14B"/>
<path d="M230.886 94.8942C230.949 95.8166 230.877 96.7433 230.673 97.645C230.373 98.4548 229.775 99.1192 229.001 99.5018C228.106 99.7292 227.161 99.6542 226.313 99.2886C225.507 98.9729 224.843 98.377 224.442 97.6106C224.182 96.7842 224.224 95.8924 224.559 95.0936C224.852 94.281 225.435 93.6051 226.196 93.1956C227.094 92.9101 228.062 92.9319 228.946 93.2575C229.689 93.5188 230.246 94.3372 230.886 94.8942Z" fill="#70B14B"/>
<path d="M241.703 177.899C239.64 178.903 238.588 178.587 237.639 176.668C236.69 174.749 237.062 173.553 238.781 172.542C240.665 171.442 242.391 172.232 243.051 173.842C243.856 175.836 243.553 176.998 241.703 177.899Z" fill="#70B14B"/>
<path d="M214.044 78.1901C213.701 78.4117 213.311 78.5526 212.905 78.6022C212.499 78.6518 212.087 78.6089 211.7 78.4765C211.313 78.3442 210.961 78.1259 210.67 77.8381C210.379 77.5503 210.158 77.2004 210.021 76.8147C209.182 74.7103 209.554 73.72 211.603 72.6404C211.965 72.4487 212.364 72.3385 212.772 72.3173C213.181 72.2962 213.589 72.3647 213.969 72.518C214.348 72.6713 214.689 72.9057 214.968 73.2049C215.248 73.504 215.458 73.8606 215.585 74.2496C216.321 76.1545 215.97 77.2892 214.044 78.1901Z" fill="#70B14B"/>
<path d="M187.857 59.2853C185.938 60.1931 184.755 59.7805 183.848 57.9099C182.837 55.7987 183.222 54.7465 185.374 53.7838C187.252 52.931 188.421 53.3918 189.322 55.3311C190.222 57.2704 189.775 58.3776 187.857 59.2853Z" fill="#70B14B"/>
<path d="M171.93 44.4723C172.66 44.1285 173.496 44.0886 174.255 44.3614C175.014 44.6342 175.633 45.1973 175.977 45.9268C176.321 46.6564 176.361 47.4926 176.088 48.2516C175.815 49.0106 175.252 49.6301 174.523 49.9739C174.162 50.1441 173.77 50.2415 173.371 50.2606C172.973 50.2796 172.574 50.2199 172.198 50.0848C171.822 49.9498 171.477 49.742 171.181 49.4734C170.886 49.2048 170.646 48.8807 170.476 48.5194C170.305 48.1582 170.208 47.767 170.189 47.3681C170.17 46.9692 170.23 46.5705 170.365 46.1946C170.5 45.8188 170.708 45.4733 170.976 45.1778C171.245 44.8823 171.569 44.6426 171.93 44.4723Z" fill="#70B14B"/>
<path d="M228.527 83.9873C229.215 84.7301 228.589 85.4728 228.451 86.2636C228.266 87.2883 227.392 87.4052 226.732 87.8591C225.879 88.4505 225.178 87.9347 224.387 87.7903C223.362 87.5977 223.246 86.7312 222.792 86.0711C222.2 85.2183 222.716 84.5169 222.86 83.726C223.053 82.7014 223.919 82.5844 224.58 82.1306C225.432 81.5391 226.154 81.9449 226.918 82.2268C227.908 82.5913 227.908 82.5982 228.527 83.9873Z" fill="#70B14B"/>
<path d="M140.44 40.4287C140.683 40.9774 140.758 41.5858 140.655 42.177C140.552 42.7682 140.276 43.3156 139.862 43.7498C139.448 44.1841 138.914 44.4857 138.329 44.6166C137.743 44.7474 137.132 44.7016 136.572 44.4849C136.013 44.2682 135.53 43.8903 135.185 43.3992C134.84 42.908 134.649 42.3256 134.636 41.7257C134.622 41.1258 134.787 40.5353 135.109 40.029C135.431 39.5227 135.896 39.1233 136.445 38.8814C136.804 38.6932 137.2 38.584 137.605 38.5611C138.01 38.5383 138.415 38.6022 138.794 38.7487C139.172 38.8953 139.515 39.121 139.799 39.4107C140.083 39.7004 140.302 40.0475 140.44 40.4287Z" fill="#70B14B"/>
<path d="M247.088 126.879C247.556 128.254 247.356 130.022 245.534 130.847C244.804 131.17 243.976 131.19 243.232 130.902C242.488 130.614 241.889 130.043 241.566 129.313C241.243 128.584 241.223 127.756 241.511 127.012C241.798 126.268 242.37 125.668 243.099 125.345C243.462 125.181 243.853 125.09 244.25 125.079C244.648 125.067 245.044 125.134 245.415 125.277C245.786 125.42 246.125 125.635 246.412 125.91C246.7 126.185 246.929 126.514 247.088 126.879Z" fill="#70B14B"/>
<path d="M247.507 142.228C245.884 142.737 244.234 142.27 243.56 140.626C243.38 140.261 243.276 139.863 243.255 139.457C243.234 139.051 243.295 138.644 243.436 138.263C243.577 137.881 243.794 137.532 244.074 137.237C244.354 136.942 244.691 136.706 245.065 136.546C245.439 136.385 245.841 136.302 246.248 136.302C246.655 136.302 247.058 136.384 247.431 136.545C247.805 136.705 248.143 136.94 248.423 137.235C248.703 137.53 248.92 137.879 249.062 138.26C249.22 138.623 249.306 139.013 249.314 139.409C249.321 139.805 249.251 140.198 249.107 140.566C248.962 140.935 248.747 141.271 248.472 141.556C248.198 141.842 247.87 142.07 247.507 142.228Z" fill="#70B14B"/>
<path d="M226.409 72.3928C226.659 72.9381 226.742 73.5455 226.648 74.138C226.553 74.7306 226.284 75.2817 225.876 75.7216C225.468 76.1615 224.939 76.4705 224.355 76.6094C223.771 76.7482 223.159 76.7108 222.597 76.5018C222.034 76.2928 221.546 75.9216 221.195 75.4352C220.843 74.9488 220.644 74.3691 220.622 73.7694C220.6 73.1697 220.757 72.577 221.072 72.0663C221.387 71.5556 221.847 71.1499 222.393 70.9005C223.126 70.5883 223.951 70.5691 224.698 70.8467C225.445 71.1242 226.057 71.6776 226.409 72.3928Z" fill="#70B14B"/>
<path d="M245.273 115.931C245.528 116.472 245.617 117.077 245.529 117.668C245.441 118.26 245.179 118.813 244.777 119.256C244.375 119.699 243.85 120.013 243.27 120.158C242.689 120.303 242.079 120.272 241.515 120.071C240.952 119.869 240.461 119.504 240.105 119.024C239.749 118.543 239.543 117.967 239.514 117.37C239.485 116.772 239.633 116.179 239.941 115.666C240.249 115.153 240.702 114.742 241.243 114.487C241.972 114.17 242.795 114.143 243.543 114.412C244.292 114.68 244.91 115.223 245.273 115.931Z" fill="#70B14B"/>
<path d="M251.008 149.387C251.19 149.74 251.3 150.124 251.332 150.519C251.364 150.915 251.318 151.312 251.196 151.689C251.074 152.066 250.878 152.416 250.62 152.717C250.363 153.018 250.048 153.265 249.695 153.445C249.345 153.625 248.962 153.735 248.57 153.768C248.178 153.801 247.783 153.756 247.407 153.637C247.032 153.517 246.684 153.324 246.384 153.07C246.083 152.816 245.835 152.505 245.654 152.155C245.474 151.805 245.364 151.423 245.331 151.031C245.298 150.638 245.343 150.243 245.462 149.868C245.582 149.493 245.774 149.145 246.029 148.844C246.283 148.543 246.594 148.296 246.944 148.115C248.505 147.269 250.08 147.964 251.008 149.387Z" fill="#70B14B"/>
<path d="M147.709 36.9146C148.25 36.6587 148.854 36.5689 149.446 36.6563C150.037 36.7437 150.59 37.0046 151.033 37.4058C151.477 37.8071 151.792 38.3308 151.938 38.9108C152.084 39.4908 152.055 40.1011 151.854 40.6646C151.653 41.228 151.29 41.7194 150.81 42.0766C150.331 42.4338 149.756 42.6408 149.159 42.6715C148.561 42.7022 147.968 42.5552 147.454 42.249C146.941 41.9428 146.529 41.4913 146.272 40.9513C145.955 40.2217 145.927 39.3987 146.193 38.6492C146.46 37.8996 147.002 37.2795 147.709 36.9146Z" fill="#70B14B"/>
<path d="M198.736 57.5042C198.194 57.7572 197.589 57.8439 196.998 57.7535C196.407 57.663 195.856 57.3993 195.414 56.9958C194.973 56.5923 194.661 56.067 194.518 55.4863C194.375 54.9055 194.407 54.2955 194.611 53.733C194.814 53.1706 195.18 52.6811 195.661 52.3264C196.143 51.9716 196.719 51.7675 197.316 51.7398C197.913 51.7121 198.506 51.8621 199.018 52.1708C199.53 52.4795 199.939 52.9331 200.194 53.4743C200.508 54.2056 200.532 55.0289 200.261 55.7771C199.99 56.5254 199.445 57.1428 198.736 57.5042Z" fill="#70B14B"/>
<path d="M245.012 185.189C245.189 185.544 245.294 185.931 245.321 186.327C245.347 186.724 245.295 187.121 245.167 187.497C245.039 187.873 244.838 188.22 244.575 188.518C244.313 188.816 243.993 189.059 243.636 189.232C243.284 189.409 242.9 189.515 242.507 189.544C242.114 189.573 241.719 189.524 241.345 189.4C240.971 189.276 240.625 189.08 240.326 188.822C240.028 188.564 239.783 188.25 239.606 187.898C239.429 187.546 239.323 187.162 239.295 186.769C239.266 186.376 239.315 185.981 239.439 185.607C239.563 185.233 239.759 184.887 240.017 184.588C240.274 184.29 240.588 184.045 240.94 183.868C242.756 182.981 244.248 183.958 245.012 185.189Z" fill="#70B14B"/>
<path d="M212.043 66.8568C211.498 67.1086 210.891 67.1929 210.298 67.0992C209.705 67.0056 209.154 66.7381 208.713 66.3306C208.272 65.9232 207.962 65.3941 207.822 64.8104C207.682 64.2267 207.719 63.6146 207.927 63.0516C208.135 62.4887 208.506 62.0001 208.992 61.6479C209.478 61.2957 210.058 61.0957 210.657 61.0731C211.257 61.0505 211.85 61.2064 212.361 61.5211C212.873 61.8357 213.279 62.295 213.529 62.8407C213.841 63.5731 213.862 64.3975 213.585 65.1444C213.309 65.8914 212.757 66.5041 212.043 66.8568Z" fill="#70B14B"/>
<path d="M243.78 104.474C244.289 106.104 243.821 107.754 242.171 108.428C241.452 108.686 240.661 108.661 239.96 108.356C239.26 108.051 238.702 107.49 238.401 106.788C238.1 106.086 238.078 105.295 238.34 104.577C238.603 103.86 239.129 103.269 239.812 102.926C240.543 102.606 241.372 102.588 242.116 102.879C242.86 103.169 243.459 103.743 243.78 104.474Z" fill="#70B14B"/>
<path d="M186.09 48.3991C185.182 48.8599 182.39 47.8489 182.019 46.9206C181.647 45.9922 182.514 43.5233 183.353 42.9869C184.192 42.4505 186.922 43.3445 187.479 44.3004C187.981 45.1532 187.039 47.9177 186.09 48.3991Z" fill="#70B14B"/>
<path d="M240.342 97.0467C239.482 97.535 236.697 96.5653 236.25 95.6232C235.865 94.7979 236.69 92.2466 237.529 91.6758C238.368 91.105 241.091 91.9784 241.655 92.9274C242.191 93.7526 241.297 96.5034 240.342 97.0467Z" fill="#70B14B"/>
<path d="M158.932 34.9615C160.06 34.542 162.673 35.3948 163.024 36.2819C163.196 36.8865 163.196 37.5272 163.024 38.1318C162.563 40.2362 161.078 40.9445 159.118 40.0505C157.743 39.4384 157.275 38.4825 157.743 37.0659C158.069 36.3269 158.467 35.622 158.932 34.9615Z" fill="#70B14B"/>
<path d="M235.954 80.6864C237.564 79.9368 238.485 80.2875 239.255 81.9243C240.08 83.6641 239.737 84.5169 237.88 85.3627C236.339 86.0504 235.411 85.6585 234.634 83.9873C233.932 82.3713 234.297 81.4635 235.954 80.6864Z" fill="#70B14B"/>
<path d="M246.579 196.804C247.356 198.441 247.033 199.376 245.444 200.139C243.691 200.978 242.79 200.648 241.971 198.86C241.242 197.271 241.607 196.357 243.271 195.58C244.935 194.803 245.816 195.174 246.579 196.804Z" fill="#70B14B"/>
<path d="M250.946 164.606C249.302 165.383 248.374 165.067 247.603 163.478C246.764 161.724 247.101 160.817 248.883 159.998C250.471 159.269 251.386 159.634 252.163 161.298C252.94 162.962 252.569 163.843 250.946 164.606Z" fill="#70B14B"/>
<path d="M89.475 35.3604C91.1117 34.5833 92.0469 34.9065 92.8103 36.5019C93.6493 38.2487 93.3123 39.1564 91.5243 39.9404C89.9357 40.6694 89.0279 40.3049 88.244 38.6269C87.46 36.9489 87.852 36.1306 89.475 35.3604Z" fill="#70B14B"/>
<path d="M211.307 52.2089C212.05 53.8113 211.706 54.7328 210.069 55.5099C208.33 56.3282 207.47 55.9844 206.631 54.1345C205.943 52.594 206.335 51.6725 208.006 50.8885C209.616 50.194 210.51 50.5241 211.307 52.2089Z" fill="#70B14B"/>
<path d="M70.5906 40.2705C71.3952 41.9485 71.1063 42.8838 69.5521 43.6403C67.8673 44.4655 66.8907 44.1904 66.1137 42.6912C65.2128 40.862 65.4947 39.9404 67.214 39.1496C68.9332 38.3587 69.8272 38.682 70.5906 40.2705Z" fill="#70B14B"/>
<path d="M81.9453 38.3106C82.7362 39.968 82.4267 40.9032 80.8519 41.6597C79.0914 42.5124 78.1768 42.1892 77.3653 40.4218C76.6226 38.8264 76.9733 37.9049 78.6238 37.1278C80.2742 36.3507 81.182 36.7014 81.9453 38.3106Z" fill="#70B14B"/>
<path d="M104.213 34.6246C104.955 36.2269 104.611 37.1553 102.975 37.9255C101.235 38.7439 100.375 38.4 99.5362 36.5501C98.8485 35.0097 99.2405 34.0882 100.912 33.3111C102.541 32.5752 103.429 32.9466 104.213 34.6246Z" fill="#70B14B"/>
<path d="M115.78 33.1116C116.509 34.7071 116.151 35.6217 114.494 36.3988C112.836 37.1759 111.908 36.8321 111.055 34.9684C110.367 33.3867 110.718 32.5615 112.513 31.7431C114.088 31.0348 114.996 31.4199 115.78 33.1116Z" fill="#70B14B"/>
<path d="M125.82 34.377C125.22 34.6598 124.532 34.6935 123.907 34.4705C123.282 34.2476 122.77 33.7862 122.485 33.1873C122.324 32.875 122.233 32.532 122.217 32.1814C122.2 31.8308 122.259 31.4808 122.389 31.1549C122.52 30.8291 122.719 30.5349 122.972 30.2924C123.226 30.0498 123.529 29.8645 123.86 29.7488C124.161 29.6127 124.486 29.5405 124.817 29.5368C125.147 29.5331 125.474 29.5979 125.778 29.7272C126.082 29.8565 126.355 30.0474 126.581 30.2878C126.808 30.5283 126.982 30.8131 127.092 31.1242C127.335 31.7263 127.339 32.3986 127.102 33.0033C126.866 33.6081 126.407 34.0995 125.82 34.377Z" fill="#70B14B"/>
<path d="M198.399 42.5881C198.687 43.183 198.728 43.8676 198.512 44.4924C198.297 45.1172 197.844 45.6316 197.251 45.9234C196.942 46.0893 196.602 46.1877 196.253 46.212C195.903 46.2363 195.553 46.1859 195.224 46.0643C194.896 45.9426 194.597 45.7525 194.348 45.5065C194.098 45.2605 193.904 44.9642 193.778 44.6374C193.543 44.0257 193.548 43.348 193.792 42.7398C194.035 42.1315 194.499 41.6377 195.092 41.3571C195.694 41.0856 196.379 41.0626 196.998 41.2931C197.618 41.5235 198.121 41.9888 198.399 42.5881Z" fill="#70B14B"/>
<path d="M253.903 172.088C254.188 172.678 254.234 173.355 254.033 173.978C253.832 174.602 253.399 175.124 252.824 175.437C252.54 175.606 252.225 175.715 251.897 175.757C251.569 175.798 251.236 175.772 250.919 175.679C250.603 175.586 250.308 175.428 250.055 175.216C249.802 175.004 249.595 174.742 249.447 174.447C249.268 174.147 249.154 173.812 249.114 173.464C249.074 173.117 249.108 172.764 249.215 172.431C249.322 172.098 249.498 171.792 249.733 171.532C249.967 171.272 250.254 171.066 250.575 170.926C251.171 170.643 251.855 170.607 252.478 170.824C253.101 171.042 253.613 171.496 253.903 172.088Z" fill="#70B14B"/>
<path d="M173.732 35.271C173.997 35.8856 174.007 36.5805 173.76 37.2028C173.513 37.8251 173.029 38.3237 172.415 38.5891C171.8 38.8545 171.105 38.8648 170.483 38.6179C169.861 38.3709 169.362 37.8868 169.097 37.2722C168.875 36.6594 168.889 35.9859 169.137 35.3831C169.385 34.7804 169.849 34.2917 170.438 34.0125C171.042 33.7508 171.725 33.7359 172.341 33.971C172.956 34.2062 173.455 34.6727 173.732 35.271Z" fill="#70B14B"/>
<path d="M59.0581 41.8591C59.3409 42.4517 59.3843 43.1305 59.1794 43.7542C58.9745 44.378 58.5369 44.8988 57.9578 45.2082C57.3677 45.4906 56.6933 45.5421 56.0672 45.3525C55.4411 45.1629 54.9086 44.7459 54.5744 44.1835C54.4217 43.8891 54.3286 43.5675 54.3003 43.2371C54.2719 42.9067 54.3089 42.574 54.4092 42.2579C54.5094 41.9418 54.671 41.6485 54.8846 41.3948C55.0982 41.1412 55.3596 40.9321 55.654 40.7794C55.9484 40.6268 56.27 40.5337 56.6004 40.5053C56.9308 40.477 57.2636 40.514 57.5797 40.6143C57.8958 40.7145 58.1891 40.8761 58.4427 41.0897C58.6964 41.3032 58.9055 41.5647 59.0581 41.8591Z" fill="#70B14B"/>
<path d="M224.655 61.5685C224.799 61.8814 224.877 62.2203 224.885 62.5644C224.893 62.9085 224.831 63.2507 224.703 63.5701C224.575 63.8896 224.383 64.1796 224.139 64.4225C223.895 64.6654 223.605 64.8562 223.285 64.9833C222.965 65.1103 222.622 65.1709 222.278 65.1614C221.934 65.1519 221.596 65.0726 221.283 64.9281C220.971 64.7836 220.691 64.5771 220.461 64.3211C220.231 64.0651 220.055 63.765 219.945 63.439C219.736 62.8229 219.772 62.1502 220.045 61.5598C220.318 60.9694 220.807 60.5064 221.412 60.2663C222.016 60.0263 222.69 60.0275 223.293 60.2698C223.897 60.5122 224.385 60.977 224.655 61.5685Z" fill="#70B14B"/>
<path d="M44.4789 42.6293C45.1039 42.4792 45.7604 42.5315 46.3537 42.7787C46.947 43.0259 47.4464 43.4552 47.7799 44.0047C47.9305 44.6307 47.8784 45.2883 47.6313 45.8828C47.3841 46.4772 46.9545 46.9779 46.4045 47.3125C45.7785 47.4642 45.1205 47.4127 44.5258 47.1654C43.9311 46.9181 43.4305 46.4879 43.0967 45.9371C42.9445 45.3104 42.9965 44.6515 43.2452 44.0565C43.4938 43.4614 43.9261 42.9614 44.4789 42.6293Z" fill="#70B14B"/>
<path d="M137.937 29.2055C138.126 29.8188 138.116 30.4765 137.907 31.0835C137.698 31.6905 137.302 32.2153 136.775 32.5821C136.162 32.7701 135.505 32.7596 134.899 32.5521C134.293 32.3446 133.767 31.9507 133.398 31.4268C133.211 30.8133 133.222 30.1563 133.431 29.5498C133.64 28.9433 134.035 28.4184 134.56 28.0502C135.173 27.8611 135.83 27.871 136.437 28.0786C137.043 28.2862 137.569 28.6807 137.937 29.2055Z" fill="#70B14B"/>
<path d="M236.285 74.4009C235.669 74.5775 235.013 74.5556 234.411 74.3383C233.808 74.121 233.29 73.7194 232.929 73.1905C232.716 72.7388 232.642 72.2341 232.717 71.7404C232.791 71.2467 233.01 70.7861 233.346 70.417C233.682 70.0478 234.12 69.7866 234.605 69.6665C235.09 69.5463 235.599 69.5726 236.069 69.742C236.538 69.9114 236.947 70.2162 237.243 70.618C237.54 71.0198 237.71 71.5005 237.733 71.9993C237.757 72.498 237.631 72.9924 237.373 73.4199C237.115 73.8474 236.737 74.1888 236.285 74.4009Z" fill="#70B14B"/>
<path d="M254.123 102.748C254.522 103.435 253.786 105.698 253.016 106.138C252.246 106.578 250.059 105.801 249.619 105.031C249.179 104.261 249.963 102.074 250.733 101.634C251.503 101.193 253.69 101.977 254.123 102.748Z" fill="#70B14B"/>
<path d="M254.949 117.506C254.227 117.849 251.93 117.024 251.593 116.302C251.256 115.58 252.074 113.283 252.796 112.939C253.518 112.595 255.815 113.421 256.152 114.143C256.489 114.865 255.671 117.162 254.949 117.506Z" fill="#70B14B"/>
<path d="M256.544 135.173C257.232 134.808 259.529 135.592 259.921 136.335C260.313 137.077 259.508 139.319 258.759 139.711C258.009 140.103 255.781 139.292 255.389 138.549C254.997 137.806 255.801 135.571 256.544 135.173Z" fill="#70B14B"/>
<path d="M149.305 27.2731C149.628 28.0571 148.775 30.3196 148.053 30.6153C147.331 30.911 145.007 30.0858 144.711 29.3637C144.415 28.6416 145.241 26.3172 145.963 26.0215C146.685 25.7258 149.009 26.5441 149.305 27.2731Z" fill="#70B14B"/>
<path d="M185.065 33.2492C185.409 33.9368 184.583 36.2681 183.861 36.612C183.139 36.9558 180.842 36.1306 180.505 35.4085C180.168 34.6864 180.987 32.3895 181.709 32.0457C182.431 31.7018 184.721 32.5271 185.065 33.2492Z" fill="#70B14B"/>
<path d="M258.105 125.387C258.511 126.074 257.802 128.344 257.046 128.825C256.289 129.307 254.089 128.523 253.607 127.766C253.126 127.01 253.91 124.809 254.666 124.328C255.423 123.846 257.651 124.63 258.105 125.387Z" fill="#70B14B"/>
<path d="M248.449 93.0787C247.727 91.5039 247.824 91.27 249.529 90.4792C251.234 89.6883 251.427 89.8465 252.28 91.7033C252.919 93.1268 252.761 93.4569 251.035 94.2409C249.488 94.9423 249.254 94.8323 248.449 93.0787Z" fill="#70B14B"/>
<path d="M36.4538 45.999C37.1758 47.5807 37.0796 47.8077 35.3741 48.5985C33.6686 49.3894 33.4692 49.2381 32.6233 47.3813C31.9837 45.9509 32.1419 45.6277 33.868 44.8437C35.4153 44.1423 35.6492 44.2454 36.4538 45.999Z" fill="#70B14B"/>
<path d="M254.385 186.433C252.81 187.155 252.576 187.059 251.785 185.354C250.994 183.648 251.153 183.449 253.009 182.603C254.433 181.963 254.763 182.122 255.547 183.848C256.248 185.395 256.138 185.629 254.385 186.433Z" fill="#70B14B"/>
<path d="M262.994 159.421C263.222 159.89 263.264 160.429 263.111 160.928C262.958 161.427 262.621 161.849 262.169 162.11C261.922 162.246 261.65 162.328 261.369 162.352C261.088 162.376 260.805 162.341 260.539 162.249C260.273 162.157 260.028 162.01 259.822 161.818C259.616 161.626 259.453 161.392 259.343 161.133C259.116 160.649 259.09 160.094 259.272 159.591C259.454 159.088 259.828 158.678 260.312 158.451C260.797 158.224 261.351 158.199 261.854 158.38C262.357 158.562 262.767 158.936 262.994 159.421Z" fill="#70B14B"/>
<path d="M208.77 40.9101C209.023 41.3769 209.087 41.9234 208.947 42.4358C208.807 42.9481 208.476 43.3869 208.021 43.6609C207.674 43.8606 207.275 43.9528 206.876 43.9257C206.476 43.8987 206.094 43.7537 205.777 43.5091C205.46 43.2645 205.223 42.9312 205.095 42.5517C204.968 42.1721 204.956 41.7632 205.061 41.3769C205.167 40.9907 205.384 40.6443 205.687 40.3818C205.989 40.1193 206.362 39.9525 206.76 39.9025C207.157 39.8525 207.56 39.9216 207.918 40.1009C208.276 40.2803 208.572 40.5619 208.77 40.9101Z" fill="#70B14B"/>
<path d="M247.645 79.6549C248.115 79.4242 248.654 79.3804 249.155 79.5323C249.655 79.6842 250.079 80.0205 250.341 80.4732C250.478 80.7197 250.561 80.9921 250.586 81.2727C250.611 81.5533 250.577 81.8361 250.487 82.1029C250.396 82.3697 250.251 82.6145 250.06 82.8218C249.869 83.0291 249.637 83.1942 249.378 83.3065C248.897 83.5186 248.351 83.5345 247.858 83.3508C247.365 83.1671 246.963 82.7984 246.737 82.3229C246.512 81.8475 246.48 81.3028 246.65 80.8046C246.819 80.3064 247.177 79.8939 247.645 79.6549Z" fill="#70B14B"/>
<path d="M221.245 53.0273C220.774 53.2548 220.235 53.2954 219.736 53.141C219.237 52.9865 218.815 52.6485 218.556 52.1952C218.42 51.9483 218.337 51.6757 218.313 51.3949C218.289 51.1141 218.324 50.8314 218.416 50.565C218.508 50.2987 218.655 50.0546 218.847 49.8485C219.04 49.6425 219.273 49.479 219.532 49.3687C220.013 49.1699 220.552 49.1641 221.037 49.3524C221.522 49.5408 221.916 49.9088 222.136 50.38C222.357 50.8512 222.387 51.3893 222.221 51.8824C222.055 52.3754 221.705 52.7855 221.245 53.0273Z" fill="#70B14B"/>
<path d="M195.937 31.4612C196.153 31.9373 196.18 32.4776 196.013 32.9729C195.846 33.4682 195.497 33.8816 195.037 34.1294C194.786 34.2578 194.512 34.3325 194.231 34.3489C193.951 34.3653 193.67 34.3229 193.406 34.2245C193.143 34.1262 192.903 33.9739 192.702 33.7776C192.5 33.5812 192.342 33.345 192.238 33.0841C192.048 32.5981 192.054 32.0578 192.254 31.5759C192.453 31.0941 192.832 30.7081 193.309 30.4985C193.787 30.289 194.327 30.2722 194.817 30.4516C195.307 30.631 195.708 30.9927 195.937 31.4612Z" fill="#70B14B"/>
<path d="M160.308 25.8083C160.561 26.2751 160.624 26.8216 160.485 27.334C160.345 27.8464 160.013 28.2852 159.558 28.5591C159.21 28.7609 158.81 28.8547 158.409 28.8286C158.007 28.8025 157.623 28.6575 157.304 28.4123C156.985 28.167 156.746 27.8324 156.618 27.4511C156.489 27.0698 156.477 26.659 156.583 26.2708C156.689 25.8826 156.908 25.5347 157.212 25.2712C157.516 25.0077 157.891 24.8405 158.29 24.7909C158.69 24.7414 159.095 24.8116 159.454 24.9928C159.813 25.1739 160.11 25.4578 160.308 25.8083Z" fill="#70B14B"/>
<path d="M234.153 62.5725C233.913 62.7051 233.648 62.7873 233.375 62.8144C233.102 62.8414 232.827 62.8127 232.565 62.7299C232.304 62.6471 232.062 62.5119 231.854 62.3327C231.647 62.1535 231.478 61.9339 231.358 61.6873C231.238 61.4407 231.169 61.1723 231.156 60.8983C231.143 60.6244 231.186 60.3507 231.282 60.0938C231.378 59.837 231.526 59.6023 231.715 59.4043C231.905 59.2062 232.133 59.0487 232.385 58.9415C232.862 58.7389 233.399 58.7272 233.884 58.9089C234.37 59.0905 234.767 59.4516 234.994 59.9176C235.22 60.3836 235.26 60.9189 235.103 61.4129C234.947 61.907 234.606 62.3221 234.153 62.5725Z" fill="#70B14B"/>
<path d="M260.113 150.797C259.643 151.024 259.104 151.065 258.605 150.911C258.106 150.756 257.684 150.418 257.424 149.965C257.288 149.718 257.205 149.446 257.181 149.166C257.156 148.885 257.191 148.603 257.282 148.336C257.373 148.07 257.519 147.826 257.711 147.62C257.902 147.413 258.135 147.249 258.394 147.138C258.877 146.926 259.423 146.911 259.917 147.096C260.411 147.281 260.813 147.652 261.037 148.129C261.261 148.607 261.29 149.153 261.118 149.651C260.945 150.15 260.585 150.561 260.113 150.797Z" fill="#70B14B"/>
<path d="M257.458 194.837C257.487 195.054 257.487 195.274 257.458 195.49C257.275 196.13 257.045 196.755 256.77 197.361C256.674 197.56 256.289 197.691 256.021 197.718C255.753 197.746 255.553 197.567 255.333 197.485C253.359 196.763 253.531 197.093 254.205 195.105C254.604 193.922 254.618 193.73 255.952 194.287C256.468 194.5 257.004 194.672 257.458 194.837Z" fill="#70B14B"/>
<path d="M170.981 26.5441C170.672 26.5992 170.5 26.6817 170.369 26.6404C169.736 26.4341 169.111 26.1934 168.478 25.9527C167.976 25.7739 167.928 25.437 168.106 24.9831C168.281 24.426 168.488 23.8795 168.725 23.3464C168.835 23.1263 169.227 22.865 169.413 22.9131C170.136 23.1102 170.844 23.3584 171.531 23.6558C171.601 23.6954 171.66 23.7521 171.702 23.8207C171.744 23.8893 171.768 23.9674 171.772 24.0478C171.531 24.9281 171.235 25.7739 170.981 26.5441Z" fill="#70B14B"/>
<path d="M232.983 48.461C233.485 49.41 233.334 50.0427 232.488 50.5241C231.642 51.0055 230.879 50.9161 230.425 50.1115C229.827 49.0799 229.999 48.3854 230.989 47.8971C231.979 47.4088 232.515 47.5739 232.983 48.461Z" fill="#70B14B"/>
<path d="M247.893 69.4495C248.367 70.4053 248.195 70.9968 247.308 71.4644C246.421 71.932 245.726 71.8151 245.245 70.9693C244.653 69.9033 244.839 69.2707 245.891 68.7824C246.854 68.2941 247.425 68.4867 247.893 69.4495Z" fill="#70B14B"/>
<path d="M122.127 19.399C123.083 18.9382 123.654 19.1239 124.122 20.0385C124.686 21.132 124.479 21.6959 123.345 22.1773C122.409 22.5761 121.838 22.3354 121.405 21.3727C120.972 20.4099 121.178 19.8529 122.127 19.399Z" fill="#70B14B"/>
<path d="M219.656 39.1427C220.151 40.0917 219.993 40.7106 219.133 41.2058C218.274 41.7009 217.531 41.5771 217.07 40.7588C216.479 39.7272 216.658 39.0464 217.655 38.5513C218.652 38.0561 219.188 38.2418 219.656 39.1427Z" fill="#70B14B"/>
<path d="M110.883 21.352C111.825 20.9463 112.382 21.1663 112.829 22.136C113.276 23.1056 113.022 23.7933 111.908 24.1991C111.021 24.5429 110.422 24.2472 110.023 23.2569C109.625 22.2667 109.865 21.799 110.883 21.352Z" fill="#70B14B"/>
<path d="M101.524 24.1922C101.929 25.1344 101.709 25.6914 100.74 26.1384C99.77 26.5854 99.0823 26.331 98.6765 25.2169C98.3327 24.3229 98.6284 23.7315 99.6255 23.3257C100.623 22.92 101.077 23.1744 101.524 24.1922Z" fill="#70B14B"/>
<path d="M89.6677 27.4588C88.7118 27.9058 88.141 27.7132 87.6734 26.7711C87.137 25.6914 87.3571 25.1137 88.4849 24.6461C89.4133 24.2541 89.984 24.5017 90.4173 25.4782C90.8505 26.4547 90.6236 27.0049 89.6677 27.4588Z" fill="#70B14B"/>
<path d="M78.3276 29.4531C77.3717 29.907 76.8009 29.7144 76.3402 28.7654C75.7969 27.6857 76.0169 27.108 77.1516 26.6335C78.08 26.2484 78.6439 26.4891 79.0772 27.4656C79.5104 28.4422 79.2835 29.0061 78.3276 29.4531Z" fill="#70B14B"/>
<path d="M262.492 170.328C263.448 169.846 264.04 170.018 264.507 170.912C264.975 171.806 264.858 172.487 264.012 172.975C262.953 173.56 262.321 173.374 261.825 172.329C261.33 171.283 261.564 170.788 262.492 170.328Z" fill="#70B14B"/>
<path d="M263.916 103.229C262.96 103.71 262.361 103.539 261.894 102.645C261.426 101.751 261.55 101.07 262.396 100.581C263.455 99.9969 264.088 100.183 264.583 101.228C265.078 102.273 264.837 102.768 263.916 103.229Z" fill="#70B14B"/>
<path d="M264.508 111.88C265.463 111.406 266.055 111.578 266.523 112.465C266.99 113.352 266.873 114.047 266.027 114.528C264.968 115.119 264.336 114.934 263.841 113.888C263.345 112.843 263.579 112.348 264.508 111.88Z" fill="#70B14B"/>
<path d="M260.601 89.427C261.33 89.6551 262.04 89.9378 262.726 90.2729C263.063 90.4585 262.417 92.4254 262.038 92.336C261.351 92.2259 260.409 92.0471 260.161 91.5795C259.914 91.1118 260.388 90.3004 260.601 89.427Z" fill="#70B14B"/>
<path d="M269.528 137.745C268.804 137.485 268.103 137.168 267.43 136.796C267.086 136.569 267.829 134.643 268.207 134.732C268.895 134.891 269.817 135.097 270.057 135.571C270.298 136.046 269.769 136.844 269.528 137.745Z" fill="#70B14B"/>
<path d="M56.6445 31.3717C56.2594 32.1901 56.1012 33.1529 55.6198 33.3592C55.1384 33.5655 54.2857 33.0979 53.6874 32.7609C53.3436 32.5683 54.0656 30.6359 54.4576 30.6978C55.2024 30.8676 55.9334 31.0928 56.6445 31.3717Z" fill="#70B14B"/>
<path d="M180.086 21.3452C180.898 21.744 181.86 21.9091 182.06 22.3905C182.259 22.8718 181.785 23.7658 181.441 24.316C181.241 24.653 179.309 23.9034 179.378 23.5252C179.57 22.7851 179.807 22.0571 180.086 21.3452Z" fill="#70B14B"/>
<path d="M135.681 17.8723C135.393 18.7044 135.344 19.6878 134.891 19.9354C134.437 20.183 133.515 19.7978 132.869 19.5709C132.532 19.454 133.006 17.439 133.433 17.4253C134.196 17.4968 134.949 17.6466 135.681 17.8723Z" fill="#70B14B"/>
<path d="M204.76 28.6897C205.572 29.0817 206.535 29.2536 206.734 29.735C206.934 30.2164 206.459 31.0692 206.115 31.6606C205.916 31.9975 203.983 31.2411 204.052 30.8628C204.237 30.1229 204.474 29.3968 204.76 28.6897Z" fill="#70B14B"/>
<path d="M268.778 123.722C268.552 124.449 268.281 125.161 267.967 125.854C267.788 126.191 265.807 125.565 265.862 125.167C265.959 124.479 266.131 123.53 266.591 123.275C267.052 123.021 267.898 123.516 268.778 123.722Z" fill="#70B14B"/>
<path d="M65.4816 28.5316C66.3137 28.8204 67.2971 28.8685 67.5447 29.3224C67.7923 29.7763 67.4072 30.6978 67.1871 31.3442C67.0702 31.6812 65.0553 31.2067 65.0415 30.7803C65.1108 30.0176 65.2583 29.2641 65.4816 28.5316Z" fill="#70B14B"/>
<path d="M246.166 57.9993C245.914 58.7235 245.601 59.4251 245.231 60.0968C245.004 60.4407 243.079 59.7048 243.168 59.3266C243.326 58.6389 243.526 57.7105 244 57.4767C244.475 57.2429 245.293 57.7586 246.166 57.9993Z" fill="#70B14B"/>
<path d="M265.828 181.984C266.344 183.022 266.33 182.988 265.409 183.476C264.797 183.806 264.419 183.875 264.095 183.098C263.669 182.06 263.628 182.115 264.549 181.626C265.161 181.303 265.622 181.179 265.828 181.984Z" fill="#70B14B"/>
<path d="M270.146 146.066C270.696 145.681 271.095 145.681 271.419 146.451C271.845 147.489 271.879 147.434 270.965 147.922C270.353 148.252 269.968 148.321 269.651 147.537C269.225 146.471 269.17 146.526 270.146 146.066Z" fill="#70B14B"/>
<path d="M146.244 17.2327C146.815 18.113 145.997 18.1749 145.557 18.3949C144.718 18.8007 144.752 18.7319 144.181 17.6522C143.72 16.7238 144.449 16.6963 144.91 16.4763C145.749 16.0705 145.783 16.1049 146.244 17.2327Z" fill="#70B14B"/>
<path d="M260.409 79.3866C260.904 80.0743 260.491 80.3288 259.865 80.5901C258.909 80.9959 258.978 80.9959 258.442 79.9987C258.043 79.2491 258.359 79.0084 258.992 78.7471C259.948 78.3482 259.934 78.3138 260.409 79.3866Z" fill="#70B14B"/>
<path d="M193.317 20.4718C192.994 21.0907 192.863 21.7096 192.54 21.8472C192.217 21.9847 191.68 21.6409 191.24 21.5033C191.419 21.0219 191.488 20.4099 191.825 20.0935C191.997 19.9354 192.664 20.2861 193.317 20.4718Z" fill="#70B14B"/>
<path d="M157.639 14.7983C157.527 15.3015 157.359 15.7906 157.137 16.2562C156.924 16.5932 155.707 16.2562 155.686 15.8642C155.662 15.6366 155.687 15.4064 155.759 15.1893C155.832 14.9722 155.95 14.7731 156.106 14.6057C156.408 14.4338 156.986 14.6951 157.639 14.7983Z" fill="#70B14B"/>
<path d="M45.0502 32.8022C44.9056 33.3099 44.6976 33.7974 44.4313 34.2532C44.17 34.5833 43.0009 34.2051 43.0078 33.7856C42.998 33.5564 43.0378 33.3277 43.1245 33.1153C43.2111 32.9029 43.3425 32.7116 43.5098 32.5546C43.8124 32.3827 44.3763 32.6715 45.0502 32.8022Z" fill="#70B14B"/>
<path d="M33.7719 34.8446C33.5847 35.3491 33.3377 35.8294 33.0361 36.275C32.7335 36.5913 31.5919 36.1375 31.6607 35.7317C31.67 35.5017 31.7267 35.276 31.8273 35.0689C31.9279 34.8618 32.0702 34.6778 32.2452 34.5283C32.5409 34.377 33.0842 34.6796 33.7719 34.8446Z" fill="#70B14B"/>
<path d="M215.75 27.3625C216.382 27.6582 217.125 27.8164 217.125 28.0502C217.067 28.5633 216.906 29.0593 216.651 29.5081C216.224 29.3155 215.605 29.233 215.44 28.9098C215.275 28.5866 215.598 28.0502 215.75 27.3625Z" fill="#70B14B"/>
<path d="M229.029 36.8114C229.532 36.9214 230.021 37.0875 230.487 37.3066C230.831 37.5198 230.487 38.737 230.095 38.7645C229.867 38.7876 229.637 38.7615 229.42 38.6879C229.203 38.6143 229.004 38.4951 228.837 38.3381C228.658 38.0424 228.926 37.4647 229.029 36.8114Z" fill="#70B14B"/>
<path d="M259.026 67.5102C258.88 68.0174 258.672 68.5047 258.407 68.9612C258.146 69.2913 256.977 68.9131 256.984 68.4936C256.974 68.2644 257.014 68.0357 257.101 67.8233C257.187 67.6109 257.319 67.4196 257.486 67.2626C257.788 67.0907 258.352 67.3864 259.026 67.5102Z" fill="#70B14B"/>
<path d="M243.168 47.4432C243.134 47.6633 243.079 47.9934 243.017 48.3303L241.593 47.7733C241.765 47.3607 241.827 46.7486 242.137 46.563C242.831 46.1641 242.776 47.0031 243.168 47.4432Z" fill="#70B14B"/>
<path d="M282.319 146.196C281.975 145.901 281.707 145.763 281.631 145.55C281.555 145.337 281.824 145.02 281.879 145.027C282.133 145.078 282.37 145.194 282.566 145.364C282.635 145.426 282.47 145.736 282.319 146.196Z" fill="#70B14B"/>
<path d="M274.995 101.083C274.651 100.788 274.389 100.65 274.307 100.437C274.224 100.224 274.499 99.9006 274.554 99.9144C274.81 99.9624 275.048 100.079 275.242 100.251C275.311 100.32 275.153 100.63 274.995 101.083Z" fill="#70B14B"/>
<path d="M121.446 9.00101C121.267 9.44801 121.205 9.79186 121.109 9.79874C120.841 9.8103 120.576 9.74337 120.346 9.60618C120.291 9.60618 120.346 9.09729 120.483 9.04227C120.8 8.97682 121.125 8.96288 121.446 9.00101Z" fill="#70B14B"/>
<path d="M276.288 110.498C276.659 110.766 276.975 110.897 276.975 111C276.912 111.26 276.808 111.509 276.666 111.736C276.473 111.64 276.157 111.571 276.129 111.44C276.131 111.12 276.184 110.801 276.288 110.498Z" fill="#70B14B"/>
<path d="M109.687 12.1713C109.343 11.8687 109.075 11.7312 108.999 11.518C108.923 11.3048 109.198 10.9884 109.253 11.0022C109.508 11.048 109.746 11.162 109.941 11.3323C110.003 11.4011 109.831 11.683 109.687 12.1713Z" fill="#70B14B"/>
<path d="M266.901 194.768C266.502 194.555 266.213 194.479 266.062 194.294C265.91 194.108 266.13 193.902 266.179 193.695C266.444 193.728 266.702 193.805 266.942 193.922C267.031 193.977 266.942 194.307 266.901 194.768Z" fill="#70B14B"/>
<path d="M272.279 157.605C272.65 157.873 272.967 158.004 272.967 158.107C272.901 158.368 272.794 158.616 272.65 158.843C272.464 158.747 272.141 158.678 272.114 158.547C272.115 158.226 272.171 157.908 272.279 157.605Z" fill="#70B14B"/>
<path d="M132.745 8.54714C132.346 8.33395 132.057 8.25831 131.906 8.07263C131.755 7.88695 131.975 7.68064 132.023 7.47433C132.287 7.50815 132.544 7.58237 132.786 7.6944C132.875 7.75629 132.8 8.08638 132.745 8.54714Z" fill="#70B14B"/>
<path d="M99.2269 12.7833C99.0481 13.2303 98.9862 13.5742 98.8899 13.5811C98.6221 13.5926 98.3568 13.5257 98.1266 13.3885C98.0784 13.3885 98.1266 12.8796 98.2641 12.8246C98.5807 12.7594 98.9058 12.7455 99.2269 12.7833Z" fill="#70B14B"/>
<path d="M214.753 16.7238C215.124 16.9852 215.441 17.1227 215.441 17.2259C215.375 17.4863 215.268 17.7347 215.124 17.9617C214.939 17.8654 214.615 17.7967 214.588 17.666C214.589 17.3449 214.645 17.0263 214.753 16.7238Z" fill="#70B14B"/>
<path d="M280.489 134.781C280.091 134.567 279.802 134.492 279.65 134.306C279.499 134.12 279.719 133.914 279.767 133.708C280.033 133.741 280.291 133.817 280.531 133.935C280.655 133.99 280.517 134.32 280.489 134.781Z" fill="#70B14B"/>
<path d="M276.734 180.856C276.626 181.16 276.468 181.443 276.267 181.695C276.164 181.778 275.875 181.626 275.668 181.578C275.696 181.313 275.77 181.054 275.889 180.815C275.95 180.698 276.28 180.794 276.734 180.856Z" fill="#70B14B"/>
<path d="M86.9785 14.4751C87.3498 14.7433 87.6662 14.8739 87.6662 14.984C87.6034 15.2433 87.4963 15.4899 87.3498 15.7129C87.1642 15.6166 86.8409 15.5479 86.8203 15.4241C86.8214 15.1013 86.8748 14.7808 86.9785 14.4751Z" fill="#70B14B"/>
<path d="M204.196 18.7594C203.9 19.1101 203.763 19.3715 203.55 19.4471C203.336 19.5228 203.02 19.2546 203.027 19.1927C203.078 18.9381 203.194 18.7012 203.364 18.505C203.426 18.4431 203.735 18.615 204.196 18.7594Z" fill="#70B14B"/>
<path d="M76.4089 16.4969C76.1063 16.8407 75.9756 17.1021 75.7212 17.1846C75.6111 17.2396 75.1917 16.992 75.2054 16.9301C75.2504 16.6736 75.3672 16.4351 75.5424 16.2424C75.6593 16.1943 75.9688 16.3662 76.4089 16.4969Z" fill="#70B14B"/>
<path d="M274.272 168.938C274.651 169.207 274.96 169.344 274.96 169.447C274.898 169.706 274.793 169.952 274.651 170.176C274.458 170.08 274.142 170.018 274.114 169.887C274.116 169.565 274.169 169.244 274.272 168.938Z" fill="#70B14B"/>
<path d="M278.75 122.402C278.64 122.703 278.482 122.984 278.282 123.234C278.179 123.317 277.89 123.165 277.684 123.124C277.711 122.859 277.785 122.6 277.904 122.361C277.966 122.251 278.296 122.347 278.75 122.402Z" fill="#70B14B"/>
<path d="M64.7185 19.4127C64.3196 19.1996 64.0308 19.1239 63.8795 18.9382C63.7282 18.7526 63.9482 18.5462 63.9964 18.3399C64.27 18.3709 64.5369 18.4452 64.7872 18.56C64.8766 18.6219 64.7735 18.952 64.7185 19.4127Z" fill="#70B14B"/>
<path d="M189.879 8.93225C190.257 9.20045 190.567 9.33111 190.567 9.44115C190.503 9.69916 190.399 9.9453 190.257 10.1701C190.065 10.0738 189.748 10.0051 189.721 9.87439C189.722 9.55388 189.776 9.23574 189.879 8.93225Z" fill="#70B14B"/>
<path d="M178.979 10.7065C179.35 10.9747 179.667 11.1123 179.667 11.2154C179.605 11.4752 179.498 11.7219 179.35 11.9444C179.165 11.8481 178.848 11.7793 178.821 11.6555C178.822 11.3328 178.876 11.0123 178.979 10.7065Z" fill="#70B14B"/>
<path d="M167.473 12.7834C167.92 12.9622 168.271 13.024 168.278 13.1203C168.286 13.3877 168.219 13.6521 168.085 13.8837C168.051 13.9387 167.57 13.8837 167.521 13.7461C167.45 13.4304 167.434 13.1047 167.473 12.7834Z" fill="#70B14B"/>
<path d="M273.42 88.5811C273.241 89.0281 273.172 89.3789 273.083 89.3857C272.815 89.3938 272.551 89.3272 272.319 89.1932C272.264 89.1932 272.319 88.6843 272.457 88.6293C272.773 88.5567 273.098 88.5404 273.42 88.5811Z" fill="#70B14B"/>
<path d="M155.308 3.86394C155.012 4.21467 154.875 4.47599 154.661 4.55164C154.448 4.62729 154.118 4.38659 154.118 4.3247C154.163 4.06819 154.28 3.82971 154.455 3.637C154.538 3.5476 154.847 3.71953 155.308 3.86394Z" fill="#70B14B"/>
<path d="M144.429 5.65194C144.126 5.99579 143.995 6.25711 143.775 6.33963C143.665 6.39465 143.246 6.14708 143.26 6.09206C143.305 5.83555 143.421 5.59708 143.597 5.40437C143.658 5.32872 143.968 5.49377 144.429 5.65194Z" fill="#70B14B"/>
<path d="M21.3108 164.984C10.6721 148.479 16.3044 108.593 18.1268 72.3859C18.6425 62.3662 22.7687 52.7316 30.2096 45.9784C46.3911 31.2411 64.6562 41.082 80.4939 49.1762C93.0581 55.5924 108.937 60.9358 120.532 52.9035C128.997 47.0375 131.913 36.1581 136.115 26.7711C141.527 14.6676 151.031 3.23813 164.008 0.569871C180.32 -2.75858 196.474 8.96663 204.774 23.4082C213.075 37.8498 215.715 54.7259 220.509 70.6736C227.386 93.4707 238.781 114.803 244.358 137.951C249.935 161.099 248.58 187.898 232.592 205.544C220.007 219.429 200.194 225.206 181.503 224.181C162.811 223.156 144.903 216.156 128.131 207.786C114.714 201.095 101.09 193.303 86.1055 192.946C76.1476 192.712 55.9088 193.276 46.9068 189.012C37.004 184.35 27.2456 174.199 21.3108 164.984Z" fill="#70B14B"/>
<path d="M200.4 171.614C201.157 155.288 207.532 139.402 218.439 125.978C246.937 90.8643 235.095 52.7178 223.94 40.9926C211.005 27.3762 190.704 20.3617 170.41 19.7634C150.116 19.1652 129.836 24.4948 111.206 32.3689C96.6546 38.5582 82.605 46.4942 72.5784 57.8136C62.7925 68.8718 57.4491 82.4125 52.5802 95.7263C46.3222 112.857 40.4767 130.421 40.3392 148.266C40.2223 162.811 45.7858 179.254 60.7913 184.46C73.5824 188.895 89.0624 183.621 101.757 188.249C119.534 194.741 122.78 216.493 137.6 227.289C154.882 239.881 179.233 236.051 187.726 224.291C196.611 212.043 199.568 189.707 200.4 171.614Z" stroke="#FFD537" stroke-width="3.03" stroke-miterlimit="10"/>
<path d="M128.131 207.814C114.714 201.123 101.09 193.331 86.1055 192.973C76.1476 192.74 55.9088 193.303 46.9068 189.04C37.004 184.35 27.2456 174.199 21.3108 164.97C10.6721 148.466 16.3044 108.579 18.1268 72.3722C18.6425 62.3662 22.7687 52.7316 30.2096 45.9784C46.3911 31.2411 64.6562 41.082 80.4939 49.1762" fill="#70B14B"/>
</svg>
